%FSLAX46Y46*%
%MOMM*%
%ADD10C,0.200000*%
%ADD11C,0.500000*%
%AMPS12*
21,1,2.200000,0.600000,0.000000,0.000000,0.000000*
%
%ADD12PS12*%
%AMPS13*
21,1,3.000000,0.600000,0.000000,0.000000,0.000000*
%
%ADD13PS13*%
%AMPS16*
1,1,0.500000,0.000000,0.000000*
%
%ADD16PS16*%
%AMPS15*
21,1,1.150000,1.450000,0.000000,0.000000,0.000000*
1,1,1.450000,0.575000,0.000000*
1,1,1.450000,-0.575000,0.000000*
%
%ADD15PS15*%
%AMPS14*
21,1,0.850000,1.450000,0.000000,0.000000,0.000000*
1,1,1.450000,0.425000,0.000000*
1,1,1.450000,-0.425000,0.000000*
%
%ADD14PS14*%
G01*
%LPD*%
G01*
%LPD*%
D10*
X9128129Y44630011D02*
X11713151Y42044989D01*
D10*
X43444989Y45155011D02*
X44155011Y44444989D01*
D10*
X47600000Y43800000D02*
X12350000Y43800000D01*
D10*
X8830461Y45069989D02*
X9580011Y45069989D01*
D10*
X8300000Y46600000D02*
X11550000Y46600000D01*
D10*
X11550000Y46600000D02*
X12300000Y45850000D01*
D10*
X7300000Y44850000D02*
X7580011Y45130011D01*
D10*
X47444989Y45555011D02*
X43794989Y45555011D01*
D10*
X47444989Y43155011D02*
X47600000Y43000000D01*
D11*
X46075000Y39864978D02*
X46075000Y40200000D01*
D10*
X44155011Y44444989D02*
X47444989Y44444989D01*
D10*
X45500000Y46600000D02*
X12300000Y46600000D01*
D10*
X43500000Y45850000D02*
X12300000Y45850000D01*
D10*
X10550000Y45600000D02*
X9050000Y45600000D01*
D10*
X11744989Y45155011D02*
X43444989Y45155011D01*
D10*
X8580011Y46130011D02*
X10769989Y46130011D01*
D10*
X11644980Y40755020D02*
X46304896Y40755020D01*
D10*
X47600000Y45400000D02*
X47444989Y45555011D01*
D10*
X12300000Y46600000D02*
X11300000Y47600000D01*
D10*
X8080011Y44630011D02*
X9128129Y44630011D01*
D10*
X46459916Y40600000D02*
X47600000Y40600000D01*
D10*
X9050000Y44100000D02*
X11750000Y41400000D01*
D10*
X8550000Y44100000D02*
X9050000Y44100000D01*
D11*
X48000000Y47000000D02*
X46475000Y47000000D01*
D10*
X47444989Y44444989D02*
X47600000Y44600000D01*
D11*
X46475000Y47000000D02*
X46075000Y47400000D01*
D10*
X43159914Y42475009D02*
X43839916Y43155011D01*
D10*
X8300000Y45850000D02*
X8580011Y46130011D01*
D10*
X9580011Y45069989D02*
X12174991Y42475009D01*
D11*
X46139978Y39800000D02*
X46075000Y39864978D01*
D10*
X11713151Y42044989D02*
X47444989Y42044989D01*
D10*
X9050000Y43350000D02*
X11644980Y40755020D01*
D10*
X46304896Y40755020D02*
X46459916Y40600000D01*
D10*
X43794989Y45555011D02*
X43500000Y45850000D01*
D10*
X12174991Y42475009D02*
X43159914Y42475009D01*
D10*
X7300000Y43350000D02*
X9050000Y43350000D01*
D10*
X11750000Y41400000D02*
X47600000Y41400000D01*
D10*
X47444989Y42044989D02*
X47600000Y42200000D01*
D10*
X47600000Y46200000D02*
X45900000Y46200000D01*
D10*
X12350000Y43800000D02*
X10550000Y45600000D01*
D10*
X8770439Y45130011D02*
X8830461Y45069989D01*
D10*
X45900000Y46200000D02*
X45500000Y46600000D01*
D10*
X11300000Y47600000D02*
X7550000Y47600000D01*
D10*
X43839916Y43155011D02*
X47444989Y43155011D01*
D10*
X7580011Y45130011D02*
X8770439Y45130011D01*
D10*
X8050000Y44600000D02*
X8080011Y44630011D01*
D11*
X48000000Y39800000D02*
X46139978Y39800000D01*
D10*
X10769989Y46130011D02*
X11744989Y45155011D01*
D10*
X9128129Y26030011D02*
X11713151Y23444989D01*
D10*
X43444989Y26555011D02*
X44155011Y25844989D01*
D10*
X47600000Y25200000D02*
X12350000Y25200000D01*
D10*
X8830461Y26469989D02*
X9580011Y26469989D01*
D10*
X8300000Y28000000D02*
X11550000Y28000000D01*
D10*
X11550000Y28000000D02*
X12300000Y27250000D01*
D10*
X7300000Y26250000D02*
X7580011Y26530011D01*
D10*
X47444989Y26955011D02*
X43794989Y26955011D01*
D10*
X47444989Y24555011D02*
X47600000Y24400000D01*
D11*
X46075000Y21264978D02*
X46075000Y21600000D01*
D10*
X44155011Y25844989D02*
X47444989Y25844989D01*
D10*
X45500000Y28000000D02*
X12300000Y28000000D01*
D10*
X43500000Y27250000D02*
X12300000Y27250000D01*
D10*
X10550000Y27000000D02*
X9050000Y27000000D01*
D10*
X11744989Y26555011D02*
X43444989Y26555011D01*
D10*
X8580011Y27530011D02*
X10769989Y27530011D01*
D10*
X11644980Y22155020D02*
X46304896Y22155020D01*
D10*
X47600000Y26800000D02*
X47444989Y26955011D01*
D10*
X12300000Y28000000D02*
X11300000Y29000000D01*
D10*
X8080011Y26030011D02*
X9128129Y26030011D01*
D10*
X46459916Y22000000D02*
X47600000Y22000000D01*
D10*
X9050000Y25500000D02*
X11750000Y22800000D01*
D10*
X8550000Y25500000D02*
X9050000Y25500000D01*
D11*
X48000000Y28400000D02*
X46475000Y28400000D01*
D10*
X47444989Y25844989D02*
X47600000Y26000000D01*
D11*
X46475000Y28400000D02*
X46075000Y28800000D01*
D10*
X43159914Y23875009D02*
X43839916Y24555011D01*
D10*
X8300000Y27250000D02*
X8580011Y27530011D01*
D10*
X9580011Y26469989D02*
X12174991Y23875009D01*
D11*
X46139978Y21200000D02*
X46075000Y21264978D01*
D10*
X11713151Y23444989D02*
X47444989Y23444989D01*
D10*
X9050000Y24750000D02*
X11644980Y22155020D01*
D10*
X46304896Y22155020D02*
X46459916Y22000000D01*
D10*
X43794989Y26955011D02*
X43500000Y27250000D01*
D10*
X12174991Y23875009D02*
X43159914Y23875009D01*
D10*
X7300000Y24750000D02*
X9050000Y24750000D01*
D10*
X11750000Y22800000D02*
X47600000Y22800000D01*
D10*
X47444989Y23444989D02*
X47600000Y23600000D01*
D10*
X47600000Y27600000D02*
X45900000Y27600000D01*
D10*
X12350000Y25200000D02*
X10550000Y27000000D01*
D10*
X8770439Y26530011D02*
X8830461Y26469989D01*
D10*
X45900000Y27600000D02*
X45500000Y28000000D01*
D10*
X11300000Y29000000D02*
X7550000Y29000000D01*
D10*
X43839916Y24555011D02*
X47444989Y24555011D01*
D10*
X7580011Y26530011D02*
X8770439Y26530011D01*
D10*
X8050000Y26000000D02*
X8080011Y26030011D01*
D11*
X48000000Y21200000D02*
X46139978Y21200000D01*
D10*
X10769989Y27530011D02*
X11744989Y26555011D01*
D10*
X9128129Y7430011D02*
X11713151Y4844989D01*
D10*
X43444989Y7955011D02*
X44155011Y7244989D01*
D10*
X47600000Y6600000D02*
X12350000Y6600000D01*
D10*
X8830461Y7869989D02*
X9580011Y7869989D01*
D10*
X8300000Y9400000D02*
X11550000Y9400000D01*
D10*
X11550000Y9400000D02*
X12300000Y8650000D01*
D10*
X7300000Y7650000D02*
X7580011Y7930011D01*
D10*
X47444989Y8355011D02*
X43794989Y8355011D01*
D10*
X47444989Y5955011D02*
X47600000Y5800000D01*
D11*
X46075000Y2664978D02*
X46075000Y3000000D01*
D10*
X44155011Y7244989D02*
X47444989Y7244989D01*
D10*
X45500000Y9400000D02*
X12300000Y9400000D01*
D10*
X43500000Y8650000D02*
X12300000Y8650000D01*
D10*
X10550000Y8400000D02*
X9050000Y8400000D01*
D10*
X11744989Y7955011D02*
X43444989Y7955011D01*
D10*
X8580011Y8930011D02*
X10769989Y8930011D01*
D10*
X11644980Y3555020D02*
X46304896Y3555020D01*
D10*
X47600000Y8200000D02*
X47444989Y8355011D01*
D10*
X12300000Y9400000D02*
X11300000Y10400000D01*
D10*
X8080011Y7430011D02*
X9128129Y7430011D01*
D10*
X46459916Y3400000D02*
X47600000Y3400000D01*
D10*
X9050000Y6900000D02*
X11750000Y4200000D01*
D10*
X8550000Y6900000D02*
X9050000Y6900000D01*
D11*
X48000000Y9800000D02*
X46475000Y9800000D01*
D10*
X47444989Y7244989D02*
X47600000Y7400000D01*
D11*
X46475000Y9800000D02*
X46075000Y10200000D01*
D10*
X43159914Y5275009D02*
X43839916Y5955011D01*
D10*
X8300000Y8650000D02*
X8580011Y8930011D01*
D10*
X9580011Y7869989D02*
X12174991Y5275009D01*
D11*
X46139978Y2600000D02*
X46075000Y2664978D01*
D10*
X11713151Y4844989D02*
X47444989Y4844989D01*
D10*
X9050000Y6150000D02*
X11644980Y3555020D01*
D10*
X46304896Y3555020D02*
X46459916Y3400000D01*
D10*
X43794989Y8355011D02*
X43500000Y8650000D01*
D10*
X12174991Y5275009D02*
X43159914Y5275009D01*
D10*
X7300000Y6150000D02*
X9050000Y6150000D01*
D10*
X11750000Y4200000D02*
X47600000Y4200000D01*
D10*
X47444989Y4844989D02*
X47600000Y5000000D01*
D10*
X47600000Y9000000D02*
X45900000Y9000000D01*
D10*
X12350000Y6600000D02*
X10550000Y8400000D01*
D10*
X8770439Y7930011D02*
X8830461Y7869989D01*
D10*
X45900000Y9000000D02*
X45500000Y9400000D01*
D10*
X11300000Y10400000D02*
X7550000Y10400000D01*
D10*
X43839916Y5955011D02*
X47444989Y5955011D01*
D10*
X7580011Y7930011D02*
X8770439Y7930011D01*
D10*
X8050000Y7400000D02*
X8080011Y7430011D01*
D11*
X48000000Y2600000D02*
X46139978Y2600000D01*
D10*
X10769989Y8930011D02*
X11744989Y7955011D01*
G75*
D12*
X47600000Y40600000D03*
D12*
X47600000Y43800000D03*
D13*
X48000000Y39800000D03*
D13*
X48000000Y47000000D03*
D12*
X47600000Y45400000D03*
D12*
X47600000Y43000000D03*
D12*
X47600000Y41400000D03*
D12*
X47600000Y44600000D03*
D12*
X47600000Y46200000D03*
D12*
X47600000Y42200000D03*
D14*
X1600000Y38175000D03*
D15*
X5550000Y38175000D03*
D15*
X5550000Y49025000D03*
D14*
X1600000Y49025000D03*
D16*
X4600000Y41100000D03*
D16*
X4600000Y42100000D03*
D16*
X4600000Y43350000D03*
D16*
X8300000Y46600000D03*
D16*
X46075000Y45000000D03*
D16*
X9050000Y45600000D03*
D16*
X43000000Y44600000D03*
D16*
X4600000Y44600000D03*
D16*
X8550000Y44100000D03*
D16*
X43000000Y43100000D03*
D16*
X46075000Y42600000D03*
D16*
X46075000Y47400000D03*
D16*
X7300000Y43350000D03*
D16*
X7300000Y44850000D03*
D16*
X8300000Y45850000D03*
D16*
X4600000Y39850000D03*
D16*
X46075000Y40200000D03*
D16*
X7300000Y42600000D03*
D16*
X7550000Y46850000D03*
D16*
X8050000Y44600000D03*
D16*
X7550000Y47600000D03*
D12*
X47600000Y22000000D03*
D12*
X47600000Y25200000D03*
D13*
X48000000Y21200000D03*
D13*
X48000000Y28400000D03*
D12*
X47600000Y26800000D03*
D12*
X47600000Y24400000D03*
D12*
X47600000Y22800000D03*
D12*
X47600000Y26000000D03*
D12*
X47600000Y27600000D03*
D12*
X47600000Y23600000D03*
D14*
X1600000Y19575000D03*
D15*
X5550000Y19575000D03*
D15*
X5550000Y30425000D03*
D14*
X1600000Y30425000D03*
D16*
X4600000Y22500000D03*
D16*
X4600000Y23500000D03*
D16*
X4600000Y24750000D03*
D16*
X8300000Y28000000D03*
D16*
X46075000Y26400000D03*
D16*
X9050000Y27000000D03*
D16*
X43000000Y26000000D03*
D16*
X4600000Y26000000D03*
D16*
X8550000Y25500000D03*
D16*
X43000000Y24500000D03*
D16*
X46075000Y24000000D03*
D16*
X46075000Y28800000D03*
D16*
X7300000Y24750000D03*
D16*
X7300000Y26250000D03*
D16*
X8300000Y27250000D03*
D16*
X4600000Y21250000D03*
D16*
X46075000Y21600000D03*
D16*
X7300000Y24000000D03*
D16*
X7550000Y28250000D03*
D16*
X8050000Y26000000D03*
D16*
X7550000Y29000000D03*
D12*
X47600000Y3400000D03*
D12*
X47600000Y6600000D03*
D13*
X48000000Y2600000D03*
D13*
X48000000Y9800000D03*
D12*
X47600000Y8200000D03*
D12*
X47600000Y5800000D03*
D12*
X47600000Y4200000D03*
D12*
X47600000Y7400000D03*
D12*
X47600000Y9000000D03*
D12*
X47600000Y5000000D03*
D14*
X1600000Y975000D03*
D15*
X5550000Y975000D03*
D15*
X5550000Y11825000D03*
D14*
X1600000Y11825000D03*
D16*
X4600000Y3900000D03*
D16*
X4600000Y4900000D03*
D16*
X4600000Y6150000D03*
D16*
X8300000Y9400000D03*
D16*
X46075000Y7800000D03*
D16*
X9050000Y8400000D03*
D16*
X43000000Y7400000D03*
D16*
X4600000Y7400000D03*
D16*
X8550000Y6900000D03*
D16*
X43000000Y5900000D03*
D16*
X46075000Y5400000D03*
D16*
X46075000Y10200000D03*
D16*
X7300000Y6150000D03*
D16*
X7300000Y7650000D03*
D16*
X8300000Y8650000D03*
D16*
X4600000Y2650000D03*
D16*
X46075000Y3000000D03*
D16*
X7300000Y5400000D03*
D16*
X7550000Y9650000D03*
D16*
X8050000Y7400000D03*
D16*
X7550000Y10400000D03*
M02*
