%FSLAX46Y46*%
%MOMM*%
%AMPS12*
1,1,0.500000,0.000000,0.000000*
%
%ADD12PS12*%
%AMPS11*
21,1,1.150000,1.450000,0.000000,0.000000,0.000000*
1,1,1.450000,0.575000,0.000000*
1,1,1.450000,-0.575000,0.000000*
%
%ADD11PS11*%
%AMPS10*
21,1,0.850000,1.450000,0.000000,0.000000,0.000000*
1,1,1.450000,0.425000,0.000000*
1,1,1.450000,-0.425000,0.000000*
%
%ADD10PS10*%
G01*
%LPD*%
G36*
X7776175Y44100000D02*
X7815179Y44107920D01*
X7848004Y44130425D01*
X7869452Y44163952D01*
X7876124Y44203188D01*
X7866965Y44241919D01*
X7831732Y44283147D01*
X7828720Y44285160D01*
X7812957Y44296851D01*
X7798913Y44308376D01*
X7784388Y44321541D01*
X7771541Y44334388D01*
X7758376Y44348913D01*
X7746851Y44362957D01*
X7735157Y44378724D01*
X7725078Y44393809D01*
X7714998Y44410625D01*
X7706423Y44426667D01*
X7698039Y44444395D01*
X7691098Y44461152D01*
X7684486Y44479629D01*
X7681978Y44487898D01*
X7663077Y44522923D01*
X7632011Y44547802D01*
X7593703Y44558593D01*
X7554219Y44553589D01*
X7526712Y44539188D01*
X7521282Y44535161D01*
X7506191Y44525078D01*
X7489375Y44514998D01*
X7473333Y44506423D01*
X7455605Y44498039D01*
X7438848Y44491098D01*
X7420366Y44484485D01*
X7402986Y44479213D01*
X7383966Y44474449D01*
X7366158Y44470907D01*
X7346726Y44468024D01*
X7328692Y44466247D01*
X7309067Y44465283D01*
X7290933Y44465283D01*
X7271308Y44466247D01*
X7253274Y44468024D01*
X7233842Y44470907D01*
X7216034Y44474449D01*
X7197014Y44479213D01*
X7179634Y44484485D01*
X7161152Y44491098D01*
X7144395Y44498039D01*
X7126667Y44506423D01*
X7110625Y44514998D01*
X7093809Y44525078D01*
X7078724Y44535157D01*
X7062957Y44546851D01*
X7048913Y44558376D01*
X7034388Y44571541D01*
X7021541Y44584388D01*
X7008376Y44598913D01*
X6996851Y44612957D01*
X6985157Y44628724D01*
X6975078Y44643809D01*
X6964998Y44660625D01*
X6956423Y44676667D01*
X6948039Y44694395D01*
X6941098Y44711152D01*
X6934485Y44729634D01*
X6929213Y44747014D01*
X6924449Y44766034D01*
X6920907Y44783842D01*
X6918024Y44803274D01*
X6916247Y44821308D01*
X6915283Y44840933D01*
X6915283Y44859067D01*
X6916247Y44878692D01*
X6918024Y44896726D01*
X6920907Y44916158D01*
X6924449Y44933966D01*
X6929213Y44952986D01*
X6934485Y44970366D01*
X6941098Y44988848D01*
X6948039Y45005605D01*
X6956423Y45023333D01*
X6964998Y45039375D01*
X6975078Y45056191D01*
X6985157Y45071276D01*
X6996851Y45087043D01*
X7008376Y45101087D01*
X7021541Y45115612D01*
X7034388Y45128459D01*
X7048913Y45141624D01*
X7062957Y45153149D01*
X7078724Y45164843D01*
X7093809Y45174922D01*
X7110625Y45185002D01*
X7126667Y45193577D01*
X7144395Y45201961D01*
X7161152Y45208902D01*
X7179634Y45215515D01*
X7197014Y45220787D01*
X7216034Y45225551D01*
X7233842Y45229093D01*
X7253274Y45231976D01*
X7271308Y45233753D01*
X7290933Y45234717D01*
X7309067Y45234717D01*
X7328692Y45233753D01*
X7346726Y45231976D01*
X7366158Y45229093D01*
X7383966Y45225551D01*
X7402986Y45220787D01*
X7420366Y45215515D01*
X7438848Y45208902D01*
X7455605Y45201961D01*
X7473333Y45193577D01*
X7489375Y45185002D01*
X7506191Y45174922D01*
X7521276Y45164843D01*
X7537043Y45153149D01*
X7551087Y45141624D01*
X7565612Y45128459D01*
X7578459Y45115612D01*
X7591624Y45101087D01*
X7603149Y45087043D01*
X7614843Y45071276D01*
X7624922Y45056191D01*
X7635002Y45039375D01*
X7643577Y45023333D01*
X7651961Y45005605D01*
X7658902Y44988848D01*
X7665514Y44970371D01*
X7668022Y44962102D01*
X7686923Y44927077D01*
X7717989Y44902198D01*
X7756297Y44891407D01*
X7795781Y44896411D01*
X7823288Y44910812D01*
X7828718Y44914839D01*
X7843809Y44924922D01*
X7860625Y44935002D01*
X7876667Y44943577D01*
X7894395Y44951961D01*
X7911152Y44958902D01*
X7929634Y44965515D01*
X7947014Y44970787D01*
X7966034Y44975551D01*
X7983842Y44979093D01*
X8003274Y44981976D01*
X8021308Y44983753D01*
X8040933Y44984717D01*
X8059067Y44984717D01*
X8078692Y44983753D01*
X8096726Y44981976D01*
X8116158Y44979093D01*
X8133966Y44975551D01*
X8152986Y44970787D01*
X8170366Y44965515D01*
X8188848Y44958902D01*
X8205605Y44951961D01*
X8223333Y44943577D01*
X8239375Y44935002D01*
X8256191Y44924922D01*
X8271276Y44914843D01*
X8287043Y44903149D01*
X8301087Y44891624D01*
X8315612Y44878459D01*
X8328459Y44865612D01*
X8341624Y44851087D01*
X8353149Y44837043D01*
X8364843Y44821276D01*
X8374922Y44806191D01*
X8385002Y44789375D01*
X8393577Y44773333D01*
X8401961Y44755605D01*
X8408902Y44738848D01*
X8415515Y44720366D01*
X8420787Y44702986D01*
X8425551Y44683966D01*
X8429093Y44666158D01*
X8431976Y44646726D01*
X8433753Y44628692D01*
X8434717Y44609067D01*
X8434717Y44590920D01*
X8434644Y44589436D01*
X8434717Y44588957D01*
X8434717Y44588467D01*
X8434792Y44588467D01*
X8440638Y44550090D01*
X8461504Y44516199D01*
X8493935Y44493130D01*
X8538467Y44484825D01*
X8538467Y44484717D01*
X8539045Y44484717D01*
X8539436Y44484644D01*
X8540920Y44484717D01*
X8559067Y44484717D01*
X8578692Y44483753D01*
X8596726Y44481976D01*
X8616158Y44479093D01*
X8633966Y44475551D01*
X8652986Y44470787D01*
X8670366Y44465515D01*
X8688848Y44458902D01*
X8705605Y44451961D01*
X8723333Y44443577D01*
X8739375Y44435002D01*
X8756191Y44424922D01*
X8771276Y44414843D01*
X8787043Y44403149D01*
X8801087Y44391624D01*
X8815612Y44378459D01*
X8828459Y44365612D01*
X8841624Y44351087D01*
X8853149Y44337043D01*
X8864843Y44321276D01*
X8874922Y44306191D01*
X8885002Y44289375D01*
X8893577Y44273333D01*
X8901961Y44255605D01*
X8908902Y44238848D01*
X8915515Y44220366D01*
X8920787Y44202986D01*
X8925552Y44183965D01*
X8926241Y44180498D01*
X8941616Y44143788D01*
X8970091Y44115982D01*
X9024321Y44100000D01*
X43400000Y44100000D01*
X43439004Y44107920D01*
X43471829Y44130425D01*
X43493277Y44163952D01*
X43500000Y44200000D01*
X43500000Y47499807D01*
X43492080Y47538811D01*
X43469575Y47571636D01*
X43436048Y47593084D01*
X43399808Y47599807D01*
X30594769Y47575182D01*
X30555780Y47567187D01*
X30522998Y47544618D01*
X30506020Y47512317D01*
X30498581Y47501466D01*
X30498566Y47501457D01*
X30490754Y47500000D01*
X24910051Y47500000D01*
X24901397Y47501757D01*
X24898305Y47518334D01*
X24883368Y47555224D01*
X24855226Y47583367D01*
X24800000Y47600000D01*
X8024321Y47600000D01*
X7985317Y47592080D01*
X7952492Y47569575D01*
X7926241Y47519502D01*
X7925552Y47516035D01*
X7920787Y47497014D01*
X7915515Y47479634D01*
X7908902Y47461152D01*
X7901961Y47444395D01*
X7893577Y47426667D01*
X7885002Y47410625D01*
X7874922Y47393809D01*
X7864843Y47378724D01*
X7853149Y47362957D01*
X7841624Y47348913D01*
X7828459Y47334388D01*
X7815612Y47321541D01*
X7801087Y47308376D01*
X7787043Y47296851D01*
X7771276Y47285157D01*
X7756191Y47275078D01*
X7739375Y47264998D01*
X7723333Y47256423D01*
X7705605Y47248039D01*
X7688848Y47241098D01*
X7670366Y47234485D01*
X7652986Y47229213D01*
X7633966Y47224449D01*
X7616158Y47220907D01*
X7596726Y47218024D01*
X7578692Y47216247D01*
X7559067Y47215283D01*
X7540933Y47215283D01*
X7521308Y47216247D01*
X7503274Y47218024D01*
X7483842Y47220907D01*
X7466034Y47224449D01*
X7447014Y47229213D01*
X7429634Y47234485D01*
X7411152Y47241098D01*
X7394395Y47248039D01*
X7376667Y47256423D01*
X7360625Y47264998D01*
X7343809Y47275078D01*
X7328724Y47285157D01*
X7312957Y47296851D01*
X7298913Y47308376D01*
X7284388Y47321541D01*
X7271541Y47334388D01*
X7258376Y47348913D01*
X7246851Y47362957D01*
X7235157Y47378724D01*
X7225078Y47393809D01*
X7214998Y47410625D01*
X7206423Y47426667D01*
X7198039Y47444395D01*
X7191098Y47461152D01*
X7184485Y47479634D01*
X7179213Y47497014D01*
X7174448Y47516035D01*
X7173759Y47519502D01*
X7158384Y47556212D01*
X7129909Y47584018D01*
X7075679Y47600000D01*
X4350000Y47600000D01*
X4310996Y47592080D01*
X4278171Y47569575D01*
X4256723Y47536048D01*
X4250000Y47500000D01*
X4250000Y45015251D01*
X4257920Y44976247D01*
X4280425Y44943422D01*
X4313952Y44921974D01*
X4353188Y44915302D01*
X4401411Y44929478D01*
X4410640Y44935010D01*
X4426667Y44943577D01*
X4444395Y44951961D01*
X4461152Y44958902D01*
X4479634Y44965515D01*
X4497014Y44970787D01*
X4516034Y44975551D01*
X4533842Y44979093D01*
X4553274Y44981976D01*
X4571308Y44983753D01*
X4590933Y44984717D01*
X4609067Y44984717D01*
X4628692Y44983753D01*
X4646726Y44981976D01*
X4666158Y44979093D01*
X4683966Y44975551D01*
X4702986Y44970787D01*
X4720366Y44965515D01*
X4738848Y44958902D01*
X4755605Y44951961D01*
X4773333Y44943577D01*
X4789375Y44935002D01*
X4806191Y44924922D01*
X4821276Y44914843D01*
X4837043Y44903149D01*
X4851087Y44891624D01*
X4865612Y44878459D01*
X4878459Y44865612D01*
X4891624Y44851087D01*
X4903149Y44837043D01*
X4914843Y44821276D01*
X4924922Y44806191D01*
X4935002Y44789375D01*
X4943577Y44773333D01*
X4951961Y44755605D01*
X4958902Y44738848D01*
X4965515Y44720366D01*
X4970787Y44702986D01*
X4975551Y44683966D01*
X4979093Y44666158D01*
X4981976Y44646726D01*
X4983753Y44628692D01*
X4984717Y44609067D01*
X4984717Y44590933D01*
X4983753Y44571308D01*
X4981976Y44553274D01*
X4979093Y44533842D01*
X4975551Y44516034D01*
X4970787Y44497014D01*
X4965515Y44479634D01*
X4958902Y44461152D01*
X4951961Y44444395D01*
X4943577Y44426667D01*
X4935002Y44410625D01*
X4924922Y44393809D01*
X4914843Y44378724D01*
X4903149Y44362957D01*
X4891624Y44348913D01*
X4878459Y44334388D01*
X4865612Y44321541D01*
X4851087Y44308376D01*
X4837043Y44296851D01*
X4821280Y44285160D01*
X4818268Y44283147D01*
X4790238Y44254892D01*
X4775448Y44217943D01*
X4776241Y44178151D01*
X4792491Y44141821D01*
X4821625Y44114705D01*
X4873825Y44100000D01*
X7776175Y44100000D01*
D02*
G37*
%LPC*%
G36*
X9059067Y45215283D02*
X9040933Y45215283D01*
X9021308Y45216247D01*
X9003274Y45218024D01*
X8983842Y45220907D01*
X8966034Y45224449D01*
X8947014Y45229213D01*
X8929634Y45234485D01*
X8911152Y45241098D01*
X8894395Y45248039D01*
X8876667Y45256423D01*
X8860625Y45264998D01*
X8843809Y45275078D01*
X8828724Y45285157D01*
X8812957Y45296851D01*
X8798913Y45308376D01*
X8784388Y45321541D01*
X8771541Y45334388D01*
X8758376Y45348913D01*
X8746851Y45362957D01*
X8735157Y45378724D01*
X8725078Y45393809D01*
X8714998Y45410625D01*
X8706423Y45426667D01*
X8698039Y45444395D01*
X8691098Y45461152D01*
X8684486Y45479629D01*
X8681978Y45487898D01*
X8663077Y45522923D01*
X8632011Y45547802D01*
X8593703Y45558593D01*
X8554219Y45553589D01*
X8526712Y45539188D01*
X8521282Y45535161D01*
X8506191Y45525078D01*
X8489375Y45514998D01*
X8473333Y45506423D01*
X8455605Y45498039D01*
X8438848Y45491098D01*
X8420366Y45484485D01*
X8402986Y45479213D01*
X8383966Y45474449D01*
X8366158Y45470907D01*
X8346726Y45468024D01*
X8328692Y45466247D01*
X8309067Y45465283D01*
X8290933Y45465283D01*
X8271308Y45466247D01*
X8253274Y45468024D01*
X8233842Y45470907D01*
X8216034Y45474449D01*
X8197014Y45479213D01*
X8179634Y45484485D01*
X8161152Y45491098D01*
X8144395Y45498039D01*
X8126667Y45506423D01*
X8110625Y45514998D01*
X8093809Y45525078D01*
X8078724Y45535157D01*
X8062957Y45546851D01*
X8048913Y45558376D01*
X8034388Y45571541D01*
X8021541Y45584388D01*
X8008376Y45598913D01*
X7996851Y45612957D01*
X7985157Y45628724D01*
X7975078Y45643809D01*
X7964998Y45660625D01*
X7956423Y45676667D01*
X7948039Y45694395D01*
X7941098Y45711152D01*
X7934485Y45729634D01*
X7929213Y45747014D01*
X7924449Y45766034D01*
X7920907Y45783842D01*
X7918024Y45803274D01*
X7916247Y45821308D01*
X7915283Y45840933D01*
X7915283Y45859067D01*
X7916247Y45878692D01*
X7918024Y45896726D01*
X7920907Y45916158D01*
X7924449Y45933966D01*
X7929213Y45952986D01*
X7934485Y45970366D01*
X7941098Y45988848D01*
X7948039Y46005605D01*
X7956423Y46023333D01*
X7964998Y46039375D01*
X7975078Y46056191D01*
X7985157Y46071276D01*
X7996851Y46087043D01*
X8008376Y46101087D01*
X8021541Y46115612D01*
X8034388Y46128459D01*
X8048916Y46141627D01*
X8056316Y46147700D01*
X8081441Y46178566D01*
X8092537Y46216788D01*
X8087847Y46256310D01*
X8056316Y46302300D01*
X8048916Y46308373D01*
X8034388Y46321541D01*
X8021541Y46334388D01*
X8008376Y46348913D01*
X7996851Y46362957D01*
X7985157Y46378724D01*
X7975078Y46393809D01*
X7964998Y46410625D01*
X7956423Y46426667D01*
X7948039Y46444395D01*
X7941098Y46461152D01*
X7934485Y46479634D01*
X7929213Y46497014D01*
X7924449Y46516034D01*
X7920907Y46533842D01*
X7918024Y46553274D01*
X7916247Y46571308D01*
X7915283Y46590933D01*
X7915283Y46609067D01*
X7916247Y46628692D01*
X7918024Y46646726D01*
X7920907Y46666158D01*
X7924449Y46683966D01*
X7929213Y46702986D01*
X7934485Y46720366D01*
X7941098Y46738848D01*
X7948039Y46755605D01*
X7956423Y46773333D01*
X7964998Y46789375D01*
X7975078Y46806191D01*
X7985157Y46821276D01*
X7996851Y46837043D01*
X8008376Y46851087D01*
X8021541Y46865612D01*
X8034388Y46878459D01*
X8048913Y46891624D01*
X8062957Y46903149D01*
X8078724Y46914843D01*
X8093809Y46924922D01*
X8110625Y46935002D01*
X8126667Y46943577D01*
X8144395Y46951961D01*
X8161152Y46958902D01*
X8179634Y46965515D01*
X8197014Y46970787D01*
X8216034Y46975551D01*
X8233842Y46979093D01*
X8253274Y46981976D01*
X8271308Y46983753D01*
X8290933Y46984717D01*
X8309067Y46984717D01*
X8328692Y46983753D01*
X8346726Y46981976D01*
X8366158Y46979093D01*
X8383966Y46975551D01*
X8402986Y46970787D01*
X8420366Y46965515D01*
X8438848Y46958902D01*
X8455605Y46951961D01*
X8473333Y46943577D01*
X8489375Y46935002D01*
X8506191Y46924922D01*
X8521276Y46914843D01*
X8537043Y46903149D01*
X8551087Y46891624D01*
X8565612Y46878459D01*
X8578459Y46865612D01*
X8591624Y46851087D01*
X8603149Y46837043D01*
X8614843Y46821276D01*
X8624922Y46806191D01*
X8635002Y46789375D01*
X8643577Y46773333D01*
X8651961Y46755605D01*
X8658902Y46738848D01*
X8665515Y46720366D01*
X8670787Y46702986D01*
X8675551Y46683966D01*
X8679093Y46666158D01*
X8681976Y46646726D01*
X8683753Y46628692D01*
X8684717Y46609067D01*
X8684717Y46590933D01*
X8683753Y46571308D01*
X8681976Y46553274D01*
X8679093Y46533842D01*
X8675551Y46516034D01*
X8670787Y46497014D01*
X8665515Y46479634D01*
X8658902Y46461152D01*
X8651961Y46444395D01*
X8643577Y46426667D01*
X8635002Y46410625D01*
X8624922Y46393809D01*
X8614843Y46378724D01*
X8603149Y46362957D01*
X8591624Y46348913D01*
X8578459Y46334388D01*
X8565612Y46321541D01*
X8551084Y46308373D01*
X8543684Y46302300D01*
X8518559Y46271434D01*
X8507463Y46233212D01*
X8512153Y46193690D01*
X8543684Y46147700D01*
X8551084Y46141627D01*
X8565612Y46128459D01*
X8578459Y46115612D01*
X8591624Y46101087D01*
X8603149Y46087043D01*
X8614843Y46071276D01*
X8624922Y46056191D01*
X8635002Y46039375D01*
X8643577Y46023333D01*
X8651961Y46005605D01*
X8658902Y45988848D01*
X8665514Y45970371D01*
X8668022Y45962102D01*
X8686923Y45927077D01*
X8717989Y45902198D01*
X8756297Y45891407D01*
X8795781Y45896411D01*
X8823288Y45910812D01*
X8828718Y45914839D01*
X8843809Y45924922D01*
X8860625Y45935002D01*
X8876667Y45943577D01*
X8894395Y45951961D01*
X8911152Y45958902D01*
X8929634Y45965515D01*
X8947014Y45970787D01*
X8966034Y45975551D01*
X8983842Y45979093D01*
X9003274Y45981976D01*
X9021308Y45983753D01*
X9040933Y45984717D01*
X9059067Y45984717D01*
X9078692Y45983753D01*
X9096726Y45981976D01*
X9116158Y45979093D01*
X9133966Y45975551D01*
X9152986Y45970787D01*
X9170366Y45965515D01*
X9188848Y45958902D01*
X9205605Y45951961D01*
X9223333Y45943577D01*
X9239375Y45935002D01*
X9256191Y45924922D01*
X9271276Y45914843D01*
X9287043Y45903149D01*
X9301087Y45891624D01*
X9315612Y45878459D01*
X9328459Y45865612D01*
X9341624Y45851087D01*
X9353149Y45837043D01*
X9364843Y45821276D01*
X9374922Y45806191D01*
X9385002Y45789375D01*
X9393577Y45773333D01*
X9401961Y45755605D01*
X9408902Y45738848D01*
X9415515Y45720366D01*
X9420787Y45702986D01*
X9425551Y45683966D01*
X9429093Y45666158D01*
X9431976Y45646726D01*
X9433753Y45628692D01*
X9434717Y45609067D01*
X9434717Y45590933D01*
X9433753Y45571308D01*
X9431976Y45553274D01*
X9429093Y45533842D01*
X9425551Y45516034D01*
X9420787Y45497014D01*
X9415515Y45479634D01*
X9408902Y45461152D01*
X9401961Y45444395D01*
X9393577Y45426667D01*
X9385002Y45410625D01*
X9374922Y45393809D01*
X9364843Y45378724D01*
X9353149Y45362957D01*
X9341624Y45348913D01*
X9328459Y45334388D01*
X9315612Y45321541D01*
X9301087Y45308376D01*
X9287043Y45296851D01*
X9271276Y45285157D01*
X9256191Y45275078D01*
X9239375Y45264998D01*
X9223333Y45256423D01*
X9205605Y45248039D01*
X9188848Y45241098D01*
X9170366Y45234485D01*
X9152986Y45229213D01*
X9133966Y45224449D01*
X9116158Y45220907D01*
X9096726Y45218024D01*
X9078692Y45216247D01*
X9059067Y45215283D01*
D02*
G37*
%LPD*%
G36*
X43400000Y40350000D02*
X43439004Y40357920D01*
X43471829Y40380425D01*
X43493277Y40413952D01*
X43500000Y40450000D01*
X43500000Y43750000D01*
X43492080Y43789004D01*
X43469575Y43821829D01*
X43436048Y43843277D01*
X43400000Y43850000D01*
X8885493Y43850000D01*
X8846489Y43842080D01*
X8817829Y43822765D01*
X8817438Y43823196D01*
X8801087Y43808376D01*
X8787043Y43796851D01*
X8771276Y43785157D01*
X8756191Y43775078D01*
X8739375Y43764998D01*
X8723333Y43756423D01*
X8705605Y43748039D01*
X8688848Y43741098D01*
X8670366Y43734485D01*
X8652986Y43729213D01*
X8633966Y43724449D01*
X8616158Y43720907D01*
X8596726Y43718024D01*
X8578692Y43716247D01*
X8559067Y43715283D01*
X8540933Y43715283D01*
X8521308Y43716247D01*
X8503274Y43718024D01*
X8483842Y43720907D01*
X8466034Y43724449D01*
X8447014Y43729213D01*
X8429634Y43734485D01*
X8411152Y43741098D01*
X8394395Y43748039D01*
X8376667Y43756423D01*
X8360625Y43764998D01*
X8343809Y43775078D01*
X8328724Y43785157D01*
X8312957Y43796851D01*
X8298913Y43808376D01*
X8282562Y43823196D01*
X8282151Y43822743D01*
X8252038Y43842690D01*
X8214507Y43850000D01*
X7573825Y43850000D01*
X7534821Y43842080D01*
X7501996Y43819575D01*
X7480548Y43786048D01*
X7473876Y43746812D01*
X7483035Y43708081D01*
X7518268Y43666853D01*
X7521280Y43664840D01*
X7537043Y43653149D01*
X7551087Y43641624D01*
X7565612Y43628459D01*
X7578459Y43615612D01*
X7591624Y43601087D01*
X7603149Y43587043D01*
X7614843Y43571276D01*
X7624922Y43556191D01*
X7635002Y43539375D01*
X7643577Y43523333D01*
X7651961Y43505605D01*
X7658902Y43488848D01*
X7665515Y43470366D01*
X7670787Y43452986D01*
X7675551Y43433966D01*
X7679093Y43416158D01*
X7681976Y43396726D01*
X7683753Y43378692D01*
X7684717Y43359067D01*
X7684717Y43340933D01*
X7683753Y43321308D01*
X7681976Y43303274D01*
X7679093Y43283842D01*
X7675551Y43266034D01*
X7670787Y43247014D01*
X7665515Y43229634D01*
X7658902Y43211152D01*
X7651961Y43194395D01*
X7643577Y43176667D01*
X7635002Y43160625D01*
X7624922Y43143809D01*
X7614843Y43128724D01*
X7603149Y43112957D01*
X7591624Y43098913D01*
X7578459Y43084388D01*
X7565612Y43071541D01*
X7551087Y43058376D01*
X7537043Y43046851D01*
X7521276Y43035157D01*
X7506191Y43025078D01*
X7489375Y43014998D01*
X7473333Y43006423D01*
X7455605Y42998039D01*
X7438848Y42991098D01*
X7420366Y42984485D01*
X7402986Y42979213D01*
X7383966Y42974449D01*
X7366158Y42970907D01*
X7346726Y42968024D01*
X7328692Y42966247D01*
X7309067Y42965283D01*
X7290933Y42965283D01*
X7271308Y42966247D01*
X7253274Y42968024D01*
X7233842Y42970907D01*
X7216034Y42974449D01*
X7197014Y42979213D01*
X7179634Y42984485D01*
X7161152Y42991098D01*
X7144395Y42998039D01*
X7126667Y43006423D01*
X7110625Y43014998D01*
X7093809Y43025078D01*
X7078724Y43035157D01*
X7062957Y43046851D01*
X7048913Y43058376D01*
X7034388Y43071541D01*
X7021541Y43084388D01*
X7008376Y43098913D01*
X6996851Y43112957D01*
X6985157Y43128724D01*
X6975078Y43143809D01*
X6964998Y43160625D01*
X6956423Y43176667D01*
X6948039Y43194395D01*
X6941098Y43211152D01*
X6934485Y43229634D01*
X6929213Y43247014D01*
X6924449Y43266034D01*
X6920907Y43283842D01*
X6918024Y43303274D01*
X6916247Y43321308D01*
X6915283Y43340933D01*
X6915283Y43359067D01*
X6916247Y43378692D01*
X6918024Y43396726D01*
X6920907Y43416158D01*
X6924449Y43433966D01*
X6929213Y43452986D01*
X6934485Y43470366D01*
X6941098Y43488848D01*
X6948039Y43505605D01*
X6956423Y43523333D01*
X6964998Y43539375D01*
X6975078Y43556191D01*
X6985157Y43571276D01*
X6996851Y43587043D01*
X7008376Y43601087D01*
X7021541Y43615612D01*
X7034388Y43628459D01*
X7048913Y43641624D01*
X7062957Y43653149D01*
X7078720Y43664840D01*
X7081732Y43666853D01*
X7109762Y43695108D01*
X7124552Y43732057D01*
X7123759Y43771849D01*
X7107509Y43808179D01*
X7078375Y43835295D01*
X7026175Y43850000D01*
X4873825Y43850000D01*
X4834821Y43842080D01*
X4801996Y43819575D01*
X4780548Y43786048D01*
X4773876Y43746812D01*
X4783035Y43708081D01*
X4818268Y43666853D01*
X4821280Y43664840D01*
X4837043Y43653149D01*
X4851087Y43641624D01*
X4865612Y43628459D01*
X4878459Y43615612D01*
X4891624Y43601087D01*
X4903149Y43587043D01*
X4914843Y43571276D01*
X4924922Y43556191D01*
X4935002Y43539375D01*
X4943577Y43523333D01*
X4951961Y43505605D01*
X4958902Y43488848D01*
X4965515Y43470366D01*
X4970787Y43452986D01*
X4975551Y43433966D01*
X4979093Y43416158D01*
X4981976Y43396726D01*
X4983753Y43378692D01*
X4984717Y43359067D01*
X4984717Y43340933D01*
X4983753Y43321308D01*
X4981976Y43303274D01*
X4979093Y43283842D01*
X4975551Y43266034D01*
X4970787Y43247014D01*
X4965515Y43229634D01*
X4958902Y43211152D01*
X4951961Y43194395D01*
X4943577Y43176667D01*
X4935002Y43160625D01*
X4924922Y43143809D01*
X4914843Y43128724D01*
X4903149Y43112957D01*
X4891624Y43098913D01*
X4878459Y43084388D01*
X4865612Y43071541D01*
X4851087Y43058376D01*
X4837043Y43046851D01*
X4821276Y43035157D01*
X4806191Y43025078D01*
X4789375Y43014998D01*
X4773333Y43006423D01*
X4755605Y42998039D01*
X4738848Y42991098D01*
X4720366Y42984485D01*
X4702986Y42979213D01*
X4683966Y42974449D01*
X4666158Y42970907D01*
X4646726Y42968024D01*
X4628692Y42966247D01*
X4609067Y42965283D01*
X4590933Y42965283D01*
X4571308Y42966247D01*
X4553274Y42968024D01*
X4533842Y42970907D01*
X4516034Y42974449D01*
X4497014Y42979213D01*
X4479634Y42984485D01*
X4461152Y42991098D01*
X4444395Y42998039D01*
X4426667Y43006423D01*
X4410640Y43014990D01*
X4401411Y43020522D01*
X4363885Y43033780D01*
X4324159Y43031353D01*
X4288527Y43013623D01*
X4262632Y42983399D01*
X4250000Y42934749D01*
X4250000Y42515251D01*
X4257920Y42476247D01*
X4280425Y42443422D01*
X4313952Y42421974D01*
X4353188Y42415302D01*
X4401411Y42429478D01*
X4410640Y42435010D01*
X4426667Y42443577D01*
X4444395Y42451961D01*
X4461152Y42458902D01*
X4479634Y42465515D01*
X4497014Y42470787D01*
X4516034Y42475551D01*
X4533842Y42479093D01*
X4553274Y42481976D01*
X4571308Y42483753D01*
X4590933Y42484717D01*
X4609067Y42484717D01*
X4628692Y42483753D01*
X4646726Y42481976D01*
X4666158Y42479093D01*
X4683966Y42475551D01*
X4702986Y42470787D01*
X4720366Y42465515D01*
X4738848Y42458902D01*
X4755605Y42451961D01*
X4773333Y42443577D01*
X4789375Y42435002D01*
X4806191Y42424922D01*
X4821276Y42414843D01*
X4837043Y42403149D01*
X4851087Y42391624D01*
X4865612Y42378459D01*
X4878459Y42365612D01*
X4891624Y42351087D01*
X4903149Y42337043D01*
X4914843Y42321276D01*
X4924922Y42306191D01*
X4935002Y42289375D01*
X4943577Y42273333D01*
X4951961Y42255605D01*
X4958902Y42238848D01*
X4965515Y42220366D01*
X4970787Y42202986D01*
X4975551Y42183966D01*
X4979093Y42166158D01*
X4981976Y42146726D01*
X4983753Y42128692D01*
X4984717Y42109067D01*
X4984717Y42090933D01*
X4983753Y42071308D01*
X4981976Y42053274D01*
X4979093Y42033842D01*
X4975551Y42016034D01*
X4970787Y41997014D01*
X4965515Y41979634D01*
X4958902Y41961152D01*
X4951961Y41944395D01*
X4943577Y41926667D01*
X4935002Y41910625D01*
X4924922Y41893809D01*
X4914843Y41878724D01*
X4903149Y41862957D01*
X4891624Y41848913D01*
X4878459Y41834388D01*
X4865612Y41821541D01*
X4851087Y41808376D01*
X4837043Y41796851D01*
X4821276Y41785157D01*
X4806191Y41775078D01*
X4789375Y41764998D01*
X4773333Y41756423D01*
X4755605Y41748039D01*
X4738848Y41741098D01*
X4720366Y41734485D01*
X4702986Y41729213D01*
X4683966Y41724449D01*
X4666158Y41720907D01*
X4646726Y41718024D01*
X4628692Y41716247D01*
X4609067Y41715283D01*
X4590933Y41715283D01*
X4571308Y41716247D01*
X4553274Y41718024D01*
X4533842Y41720907D01*
X4516034Y41724449D01*
X4497014Y41729213D01*
X4479634Y41734485D01*
X4461152Y41741098D01*
X4444395Y41748039D01*
X4426667Y41756423D01*
X4410640Y41764990D01*
X4401411Y41770522D01*
X4363885Y41783780D01*
X4324159Y41781353D01*
X4288527Y41763623D01*
X4262632Y41733399D01*
X4250000Y41684749D01*
X4250000Y41515251D01*
X4257920Y41476247D01*
X4280425Y41443422D01*
X4313952Y41421974D01*
X4353188Y41415302D01*
X4401411Y41429478D01*
X4410640Y41435010D01*
X4426667Y41443577D01*
X4444395Y41451961D01*
X4461152Y41458902D01*
X4479634Y41465515D01*
X4497014Y41470787D01*
X4516034Y41475551D01*
X4533842Y41479093D01*
X4553274Y41481976D01*
X4571308Y41483753D01*
X4590933Y41484717D01*
X4609067Y41484717D01*
X4628692Y41483753D01*
X4646726Y41481976D01*
X4666158Y41479093D01*
X4683966Y41475551D01*
X4702986Y41470787D01*
X4720366Y41465515D01*
X4738848Y41458902D01*
X4755605Y41451961D01*
X4773333Y41443577D01*
X4789375Y41435002D01*
X4806191Y41424922D01*
X4821276Y41414843D01*
X4837043Y41403149D01*
X4851087Y41391624D01*
X4865612Y41378459D01*
X4878459Y41365612D01*
X4891624Y41351087D01*
X4903149Y41337043D01*
X4914843Y41321276D01*
X4924922Y41306191D01*
X4935002Y41289375D01*
X4943577Y41273333D01*
X4951961Y41255605D01*
X4958902Y41238848D01*
X4965515Y41220366D01*
X4970787Y41202986D01*
X4975551Y41183966D01*
X4979093Y41166158D01*
X4981976Y41146726D01*
X4983753Y41128692D01*
X4984717Y41109067D01*
X4984717Y41090933D01*
X4983753Y41071308D01*
X4981976Y41053274D01*
X4979093Y41033842D01*
X4975551Y41016034D01*
X4970787Y40997014D01*
X4965515Y40979634D01*
X4958902Y40961152D01*
X4951961Y40944395D01*
X4943577Y40926667D01*
X4935002Y40910625D01*
X4924922Y40893809D01*
X4914843Y40878724D01*
X4903149Y40862957D01*
X4891624Y40848913D01*
X4878459Y40834388D01*
X4865612Y40821541D01*
X4851087Y40808376D01*
X4837043Y40796851D01*
X4821276Y40785157D01*
X4806191Y40775078D01*
X4789375Y40764998D01*
X4773333Y40756423D01*
X4755605Y40748039D01*
X4738848Y40741098D01*
X4720366Y40734485D01*
X4702986Y40729213D01*
X4683966Y40724449D01*
X4666158Y40720907D01*
X4646726Y40718024D01*
X4628692Y40716247D01*
X4609067Y40715283D01*
X4590933Y40715283D01*
X4571308Y40716247D01*
X4553274Y40718024D01*
X4533842Y40720907D01*
X4516034Y40724449D01*
X4497014Y40729213D01*
X4479634Y40734485D01*
X4461152Y40741098D01*
X4444395Y40748039D01*
X4426667Y40756423D01*
X4410640Y40764990D01*
X4401411Y40770522D01*
X4363885Y40783780D01*
X4324159Y40781353D01*
X4288527Y40763623D01*
X4262632Y40733399D01*
X4250000Y40684749D01*
X4250000Y40450000D01*
X4257920Y40410996D01*
X4280425Y40378171D01*
X4313952Y40356723D01*
X4350000Y40350000D01*
X43400000Y40350000D01*
D02*
G37*
%LPD*%
G36*
X7776175Y25500000D02*
X7815179Y25507920D01*
X7848004Y25530425D01*
X7869452Y25563952D01*
X7876124Y25603188D01*
X7866965Y25641919D01*
X7831732Y25683147D01*
X7828720Y25685160D01*
X7812957Y25696851D01*
X7798913Y25708376D01*
X7784388Y25721541D01*
X7771541Y25734388D01*
X7758376Y25748913D01*
X7746851Y25762957D01*
X7735157Y25778724D01*
X7725078Y25793809D01*
X7714998Y25810625D01*
X7706423Y25826667D01*
X7698039Y25844395D01*
X7691098Y25861152D01*
X7684486Y25879629D01*
X7681978Y25887898D01*
X7663077Y25922923D01*
X7632011Y25947802D01*
X7593703Y25958593D01*
X7554219Y25953589D01*
X7526712Y25939188D01*
X7521282Y25935161D01*
X7506191Y25925078D01*
X7489375Y25914998D01*
X7473333Y25906423D01*
X7455605Y25898039D01*
X7438848Y25891098D01*
X7420366Y25884485D01*
X7402986Y25879213D01*
X7383966Y25874449D01*
X7366158Y25870907D01*
X7346726Y25868024D01*
X7328692Y25866247D01*
X7309067Y25865283D01*
X7290933Y25865283D01*
X7271308Y25866247D01*
X7253274Y25868024D01*
X7233842Y25870907D01*
X7216034Y25874449D01*
X7197014Y25879213D01*
X7179634Y25884485D01*
X7161152Y25891098D01*
X7144395Y25898039D01*
X7126667Y25906423D01*
X7110625Y25914998D01*
X7093809Y25925078D01*
X7078724Y25935157D01*
X7062957Y25946851D01*
X7048913Y25958376D01*
X7034388Y25971541D01*
X7021541Y25984388D01*
X7008376Y25998913D01*
X6996851Y26012957D01*
X6985157Y26028724D01*
X6975078Y26043809D01*
X6964998Y26060625D01*
X6956423Y26076667D01*
X6948039Y26094395D01*
X6941098Y26111152D01*
X6934485Y26129634D01*
X6929213Y26147014D01*
X6924449Y26166034D01*
X6920907Y26183842D01*
X6918024Y26203274D01*
X6916247Y26221308D01*
X6915283Y26240933D01*
X6915283Y26259067D01*
X6916247Y26278692D01*
X6918024Y26296726D01*
X6920907Y26316158D01*
X6924449Y26333966D01*
X6929213Y26352986D01*
X6934485Y26370366D01*
X6941098Y26388848D01*
X6948039Y26405605D01*
X6956423Y26423333D01*
X6964998Y26439375D01*
X6975078Y26456191D01*
X6985157Y26471276D01*
X6996851Y26487043D01*
X7008376Y26501087D01*
X7021541Y26515612D01*
X7034388Y26528459D01*
X7048913Y26541624D01*
X7062957Y26553149D01*
X7078724Y26564843D01*
X7093809Y26574922D01*
X7110625Y26585002D01*
X7126667Y26593577D01*
X7144395Y26601961D01*
X7161152Y26608902D01*
X7179634Y26615515D01*
X7197014Y26620787D01*
X7216034Y26625551D01*
X7233842Y26629093D01*
X7253274Y26631976D01*
X7271308Y26633753D01*
X7290933Y26634717D01*
X7309067Y26634717D01*
X7328692Y26633753D01*
X7346726Y26631976D01*
X7366158Y26629093D01*
X7383966Y26625551D01*
X7402986Y26620787D01*
X7420366Y26615515D01*
X7438848Y26608902D01*
X7455605Y26601961D01*
X7473333Y26593577D01*
X7489375Y26585002D01*
X7506191Y26574922D01*
X7521276Y26564843D01*
X7537043Y26553149D01*
X7551087Y26541624D01*
X7565612Y26528459D01*
X7578459Y26515612D01*
X7591624Y26501087D01*
X7603149Y26487043D01*
X7614843Y26471276D01*
X7624922Y26456191D01*
X7635002Y26439375D01*
X7643577Y26423333D01*
X7651961Y26405605D01*
X7658902Y26388848D01*
X7665514Y26370371D01*
X7668022Y26362102D01*
X7686923Y26327077D01*
X7717989Y26302198D01*
X7756297Y26291407D01*
X7795781Y26296411D01*
X7823288Y26310812D01*
X7828718Y26314839D01*
X7843809Y26324922D01*
X7860625Y26335002D01*
X7876667Y26343577D01*
X7894395Y26351961D01*
X7911152Y26358902D01*
X7929634Y26365515D01*
X7947014Y26370787D01*
X7966034Y26375551D01*
X7983842Y26379093D01*
X8003274Y26381976D01*
X8021308Y26383753D01*
X8040933Y26384717D01*
X8059067Y26384717D01*
X8078692Y26383753D01*
X8096726Y26381976D01*
X8116158Y26379093D01*
X8133966Y26375551D01*
X8152986Y26370787D01*
X8170366Y26365515D01*
X8188848Y26358902D01*
X8205605Y26351961D01*
X8223333Y26343577D01*
X8239375Y26335002D01*
X8256191Y26324922D01*
X8271276Y26314843D01*
X8287043Y26303149D01*
X8301087Y26291624D01*
X8315612Y26278459D01*
X8328459Y26265612D01*
X8341624Y26251087D01*
X8353149Y26237043D01*
X8364843Y26221276D01*
X8374922Y26206191D01*
X8385002Y26189375D01*
X8393577Y26173333D01*
X8401961Y26155605D01*
X8408902Y26138848D01*
X8415515Y26120366D01*
X8420787Y26102986D01*
X8425551Y26083966D01*
X8429093Y26066158D01*
X8431976Y26046726D01*
X8433753Y26028692D01*
X8434717Y26009067D01*
X8434717Y25990920D01*
X8434644Y25989436D01*
X8434717Y25988957D01*
X8434717Y25988467D01*
X8434792Y25988467D01*
X8440638Y25950090D01*
X8461504Y25916199D01*
X8493935Y25893130D01*
X8538467Y25884825D01*
X8538467Y25884717D01*
X8539045Y25884717D01*
X8539436Y25884644D01*
X8540920Y25884717D01*
X8559067Y25884717D01*
X8578692Y25883753D01*
X8596726Y25881976D01*
X8616158Y25879093D01*
X8633966Y25875551D01*
X8652986Y25870787D01*
X8670366Y25865515D01*
X8688848Y25858902D01*
X8705605Y25851961D01*
X8723333Y25843577D01*
X8739375Y25835002D01*
X8756191Y25824922D01*
X8771276Y25814843D01*
X8787043Y25803149D01*
X8801087Y25791624D01*
X8815612Y25778459D01*
X8828459Y25765612D01*
X8841624Y25751087D01*
X8853149Y25737043D01*
X8864843Y25721276D01*
X8874922Y25706191D01*
X8885002Y25689375D01*
X8893577Y25673333D01*
X8901961Y25655605D01*
X8908902Y25638848D01*
X8915515Y25620366D01*
X8920787Y25602986D01*
X8925552Y25583965D01*
X8926241Y25580498D01*
X8941616Y25543788D01*
X8970091Y25515982D01*
X9024321Y25500000D01*
X43400000Y25500000D01*
X43439004Y25507920D01*
X43471829Y25530425D01*
X43493277Y25563952D01*
X43500000Y25600000D01*
X43500000Y28899807D01*
X43492080Y28938811D01*
X43469575Y28971636D01*
X43436048Y28993084D01*
X43399808Y28999807D01*
X30594769Y28975182D01*
X30555780Y28967187D01*
X30522998Y28944618D01*
X30506020Y28912317D01*
X30498581Y28901466D01*
X30498566Y28901457D01*
X30490754Y28900000D01*
X24910051Y28900000D01*
X24901397Y28901757D01*
X24898305Y28918334D01*
X24883368Y28955224D01*
X24855226Y28983367D01*
X24800000Y29000000D01*
X8024321Y29000000D01*
X7985317Y28992080D01*
X7952492Y28969575D01*
X7926241Y28919502D01*
X7925552Y28916035D01*
X7920787Y28897014D01*
X7915515Y28879634D01*
X7908902Y28861152D01*
X7901961Y28844395D01*
X7893577Y28826667D01*
X7885002Y28810625D01*
X7874922Y28793809D01*
X7864843Y28778724D01*
X7853149Y28762957D01*
X7841624Y28748913D01*
X7828459Y28734388D01*
X7815612Y28721541D01*
X7801087Y28708376D01*
X7787043Y28696851D01*
X7771276Y28685157D01*
X7756191Y28675078D01*
X7739375Y28664998D01*
X7723333Y28656423D01*
X7705605Y28648039D01*
X7688848Y28641098D01*
X7670366Y28634485D01*
X7652986Y28629213D01*
X7633966Y28624449D01*
X7616158Y28620907D01*
X7596726Y28618024D01*
X7578692Y28616247D01*
X7559067Y28615283D01*
X7540933Y28615283D01*
X7521308Y28616247D01*
X7503274Y28618024D01*
X7483842Y28620907D01*
X7466034Y28624449D01*
X7447014Y28629213D01*
X7429634Y28634485D01*
X7411152Y28641098D01*
X7394395Y28648039D01*
X7376667Y28656423D01*
X7360625Y28664998D01*
X7343809Y28675078D01*
X7328724Y28685157D01*
X7312957Y28696851D01*
X7298913Y28708376D01*
X7284388Y28721541D01*
X7271541Y28734388D01*
X7258376Y28748913D01*
X7246851Y28762957D01*
X7235157Y28778724D01*
X7225078Y28793809D01*
X7214998Y28810625D01*
X7206423Y28826667D01*
X7198039Y28844395D01*
X7191098Y28861152D01*
X7184485Y28879634D01*
X7179213Y28897014D01*
X7174448Y28916035D01*
X7173759Y28919502D01*
X7158384Y28956212D01*
X7129909Y28984018D01*
X7075679Y29000000D01*
X4350000Y29000000D01*
X4310996Y28992080D01*
X4278171Y28969575D01*
X4256723Y28936048D01*
X4250000Y28900000D01*
X4250000Y26415251D01*
X4257920Y26376247D01*
X4280425Y26343422D01*
X4313952Y26321974D01*
X4353188Y26315302D01*
X4401411Y26329478D01*
X4410640Y26335010D01*
X4426667Y26343577D01*
X4444395Y26351961D01*
X4461152Y26358902D01*
X4479634Y26365515D01*
X4497014Y26370787D01*
X4516034Y26375551D01*
X4533842Y26379093D01*
X4553274Y26381976D01*
X4571308Y26383753D01*
X4590933Y26384717D01*
X4609067Y26384717D01*
X4628692Y26383753D01*
X4646726Y26381976D01*
X4666158Y26379093D01*
X4683966Y26375551D01*
X4702986Y26370787D01*
X4720366Y26365515D01*
X4738848Y26358902D01*
X4755605Y26351961D01*
X4773333Y26343577D01*
X4789375Y26335002D01*
X4806191Y26324922D01*
X4821276Y26314843D01*
X4837043Y26303149D01*
X4851087Y26291624D01*
X4865612Y26278459D01*
X4878459Y26265612D01*
X4891624Y26251087D01*
X4903149Y26237043D01*
X4914843Y26221276D01*
X4924922Y26206191D01*
X4935002Y26189375D01*
X4943577Y26173333D01*
X4951961Y26155605D01*
X4958902Y26138848D01*
X4965515Y26120366D01*
X4970787Y26102986D01*
X4975551Y26083966D01*
X4979093Y26066158D01*
X4981976Y26046726D01*
X4983753Y26028692D01*
X4984717Y26009067D01*
X4984717Y25990933D01*
X4983753Y25971308D01*
X4981976Y25953274D01*
X4979093Y25933842D01*
X4975551Y25916034D01*
X4970787Y25897014D01*
X4965515Y25879634D01*
X4958902Y25861152D01*
X4951961Y25844395D01*
X4943577Y25826667D01*
X4935002Y25810625D01*
X4924922Y25793809D01*
X4914843Y25778724D01*
X4903149Y25762957D01*
X4891624Y25748913D01*
X4878459Y25734388D01*
X4865612Y25721541D01*
X4851087Y25708376D01*
X4837043Y25696851D01*
X4821280Y25685160D01*
X4818268Y25683147D01*
X4790238Y25654892D01*
X4775448Y25617943D01*
X4776241Y25578151D01*
X4792491Y25541821D01*
X4821625Y25514705D01*
X4873825Y25500000D01*
X7776175Y25500000D01*
D02*
G37*
%LPC*%
G36*
X9059067Y26615283D02*
X9040933Y26615283D01*
X9021308Y26616247D01*
X9003274Y26618024D01*
X8983842Y26620907D01*
X8966034Y26624449D01*
X8947014Y26629213D01*
X8929634Y26634485D01*
X8911152Y26641098D01*
X8894395Y26648039D01*
X8876667Y26656423D01*
X8860625Y26664998D01*
X8843809Y26675078D01*
X8828724Y26685157D01*
X8812957Y26696851D01*
X8798913Y26708376D01*
X8784388Y26721541D01*
X8771541Y26734388D01*
X8758376Y26748913D01*
X8746851Y26762957D01*
X8735157Y26778724D01*
X8725078Y26793809D01*
X8714998Y26810625D01*
X8706423Y26826667D01*
X8698039Y26844395D01*
X8691098Y26861152D01*
X8684486Y26879629D01*
X8681978Y26887898D01*
X8663077Y26922923D01*
X8632011Y26947802D01*
X8593703Y26958593D01*
X8554219Y26953589D01*
X8526712Y26939188D01*
X8521282Y26935161D01*
X8506191Y26925078D01*
X8489375Y26914998D01*
X8473333Y26906423D01*
X8455605Y26898039D01*
X8438848Y26891098D01*
X8420366Y26884485D01*
X8402986Y26879213D01*
X8383966Y26874449D01*
X8366158Y26870907D01*
X8346726Y26868024D01*
X8328692Y26866247D01*
X8309067Y26865283D01*
X8290933Y26865283D01*
X8271308Y26866247D01*
X8253274Y26868024D01*
X8233842Y26870907D01*
X8216034Y26874449D01*
X8197014Y26879213D01*
X8179634Y26884485D01*
X8161152Y26891098D01*
X8144395Y26898039D01*
X8126667Y26906423D01*
X8110625Y26914998D01*
X8093809Y26925078D01*
X8078724Y26935157D01*
X8062957Y26946851D01*
X8048913Y26958376D01*
X8034388Y26971541D01*
X8021541Y26984388D01*
X8008376Y26998913D01*
X7996851Y27012957D01*
X7985157Y27028724D01*
X7975078Y27043809D01*
X7964998Y27060625D01*
X7956423Y27076667D01*
X7948039Y27094395D01*
X7941098Y27111152D01*
X7934485Y27129634D01*
X7929213Y27147014D01*
X7924449Y27166034D01*
X7920907Y27183842D01*
X7918024Y27203274D01*
X7916247Y27221308D01*
X7915283Y27240933D01*
X7915283Y27259067D01*
X7916247Y27278692D01*
X7918024Y27296726D01*
X7920907Y27316158D01*
X7924449Y27333966D01*
X7929213Y27352986D01*
X7934485Y27370366D01*
X7941098Y27388848D01*
X7948039Y27405605D01*
X7956423Y27423333D01*
X7964998Y27439375D01*
X7975078Y27456191D01*
X7985157Y27471276D01*
X7996851Y27487043D01*
X8008376Y27501087D01*
X8021541Y27515612D01*
X8034388Y27528459D01*
X8048916Y27541627D01*
X8056316Y27547700D01*
X8081441Y27578566D01*
X8092537Y27616788D01*
X8087847Y27656310D01*
X8056316Y27702300D01*
X8048916Y27708373D01*
X8034388Y27721541D01*
X8021541Y27734388D01*
X8008376Y27748913D01*
X7996851Y27762957D01*
X7985157Y27778724D01*
X7975078Y27793809D01*
X7964998Y27810625D01*
X7956423Y27826667D01*
X7948039Y27844395D01*
X7941098Y27861152D01*
X7934485Y27879634D01*
X7929213Y27897014D01*
X7924449Y27916034D01*
X7920907Y27933842D01*
X7918024Y27953274D01*
X7916247Y27971308D01*
X7915283Y27990933D01*
X7915283Y28009067D01*
X7916247Y28028692D01*
X7918024Y28046726D01*
X7920907Y28066158D01*
X7924449Y28083966D01*
X7929213Y28102986D01*
X7934485Y28120366D01*
X7941098Y28138848D01*
X7948039Y28155605D01*
X7956423Y28173333D01*
X7964998Y28189375D01*
X7975078Y28206191D01*
X7985157Y28221276D01*
X7996851Y28237043D01*
X8008376Y28251087D01*
X8021541Y28265612D01*
X8034388Y28278459D01*
X8048913Y28291624D01*
X8062957Y28303149D01*
X8078724Y28314843D01*
X8093809Y28324922D01*
X8110625Y28335002D01*
X8126667Y28343577D01*
X8144395Y28351961D01*
X8161152Y28358902D01*
X8179634Y28365515D01*
X8197014Y28370787D01*
X8216034Y28375551D01*
X8233842Y28379093D01*
X8253274Y28381976D01*
X8271308Y28383753D01*
X8290933Y28384717D01*
X8309067Y28384717D01*
X8328692Y28383753D01*
X8346726Y28381976D01*
X8366158Y28379093D01*
X8383966Y28375551D01*
X8402986Y28370787D01*
X8420366Y28365515D01*
X8438848Y28358902D01*
X8455605Y28351961D01*
X8473333Y28343577D01*
X8489375Y28335002D01*
X8506191Y28324922D01*
X8521276Y28314843D01*
X8537043Y28303149D01*
X8551087Y28291624D01*
X8565612Y28278459D01*
X8578459Y28265612D01*
X8591624Y28251087D01*
X8603149Y28237043D01*
X8614843Y28221276D01*
X8624922Y28206191D01*
X8635002Y28189375D01*
X8643577Y28173333D01*
X8651961Y28155605D01*
X8658902Y28138848D01*
X8665515Y28120366D01*
X8670787Y28102986D01*
X8675551Y28083966D01*
X8679093Y28066158D01*
X8681976Y28046726D01*
X8683753Y28028692D01*
X8684717Y28009067D01*
X8684717Y27990933D01*
X8683753Y27971308D01*
X8681976Y27953274D01*
X8679093Y27933842D01*
X8675551Y27916034D01*
X8670787Y27897014D01*
X8665515Y27879634D01*
X8658902Y27861152D01*
X8651961Y27844395D01*
X8643577Y27826667D01*
X8635002Y27810625D01*
X8624922Y27793809D01*
X8614843Y27778724D01*
X8603149Y27762957D01*
X8591624Y27748913D01*
X8578459Y27734388D01*
X8565612Y27721541D01*
X8551084Y27708373D01*
X8543684Y27702300D01*
X8518559Y27671434D01*
X8507463Y27633212D01*
X8512153Y27593690D01*
X8543684Y27547700D01*
X8551084Y27541627D01*
X8565612Y27528459D01*
X8578459Y27515612D01*
X8591624Y27501087D01*
X8603149Y27487043D01*
X8614843Y27471276D01*
X8624922Y27456191D01*
X8635002Y27439375D01*
X8643577Y27423333D01*
X8651961Y27405605D01*
X8658902Y27388848D01*
X8665514Y27370371D01*
X8668022Y27362102D01*
X8686923Y27327077D01*
X8717989Y27302198D01*
X8756297Y27291407D01*
X8795781Y27296411D01*
X8823288Y27310812D01*
X8828718Y27314839D01*
X8843809Y27324922D01*
X8860625Y27335002D01*
X8876667Y27343577D01*
X8894395Y27351961D01*
X8911152Y27358902D01*
X8929634Y27365515D01*
X8947014Y27370787D01*
X8966034Y27375551D01*
X8983842Y27379093D01*
X9003274Y27381976D01*
X9021308Y27383753D01*
X9040933Y27384717D01*
X9059067Y27384717D01*
X9078692Y27383753D01*
X9096726Y27381976D01*
X9116158Y27379093D01*
X9133966Y27375551D01*
X9152986Y27370787D01*
X9170366Y27365515D01*
X9188848Y27358902D01*
X9205605Y27351961D01*
X9223333Y27343577D01*
X9239375Y27335002D01*
X9256191Y27324922D01*
X9271276Y27314843D01*
X9287043Y27303149D01*
X9301087Y27291624D01*
X9315612Y27278459D01*
X9328459Y27265612D01*
X9341624Y27251087D01*
X9353149Y27237043D01*
X9364843Y27221276D01*
X9374922Y27206191D01*
X9385002Y27189375D01*
X9393577Y27173333D01*
X9401961Y27155605D01*
X9408902Y27138848D01*
X9415515Y27120366D01*
X9420787Y27102986D01*
X9425551Y27083966D01*
X9429093Y27066158D01*
X9431976Y27046726D01*
X9433753Y27028692D01*
X9434717Y27009067D01*
X9434717Y26990933D01*
X9433753Y26971308D01*
X9431976Y26953274D01*
X9429093Y26933842D01*
X9425551Y26916034D01*
X9420787Y26897014D01*
X9415515Y26879634D01*
X9408902Y26861152D01*
X9401961Y26844395D01*
X9393577Y26826667D01*
X9385002Y26810625D01*
X9374922Y26793809D01*
X9364843Y26778724D01*
X9353149Y26762957D01*
X9341624Y26748913D01*
X9328459Y26734388D01*
X9315612Y26721541D01*
X9301087Y26708376D01*
X9287043Y26696851D01*
X9271276Y26685157D01*
X9256191Y26675078D01*
X9239375Y26664998D01*
X9223333Y26656423D01*
X9205605Y26648039D01*
X9188848Y26641098D01*
X9170366Y26634485D01*
X9152986Y26629213D01*
X9133966Y26624449D01*
X9116158Y26620907D01*
X9096726Y26618024D01*
X9078692Y26616247D01*
X9059067Y26615283D01*
D02*
G37*
%LPD*%
G36*
X43400000Y21750000D02*
X43439004Y21757920D01*
X43471829Y21780425D01*
X43493277Y21813952D01*
X43500000Y21850000D01*
X43500000Y25150000D01*
X43492080Y25189004D01*
X43469575Y25221829D01*
X43436048Y25243277D01*
X43400000Y25250000D01*
X8885493Y25250000D01*
X8846489Y25242080D01*
X8817829Y25222765D01*
X8817438Y25223196D01*
X8801087Y25208376D01*
X8787043Y25196851D01*
X8771276Y25185157D01*
X8756191Y25175078D01*
X8739375Y25164998D01*
X8723333Y25156423D01*
X8705605Y25148039D01*
X8688848Y25141098D01*
X8670366Y25134485D01*
X8652986Y25129213D01*
X8633966Y25124449D01*
X8616158Y25120907D01*
X8596726Y25118024D01*
X8578692Y25116247D01*
X8559067Y25115283D01*
X8540933Y25115283D01*
X8521308Y25116247D01*
X8503274Y25118024D01*
X8483842Y25120907D01*
X8466034Y25124449D01*
X8447014Y25129213D01*
X8429634Y25134485D01*
X8411152Y25141098D01*
X8394395Y25148039D01*
X8376667Y25156423D01*
X8360625Y25164998D01*
X8343809Y25175078D01*
X8328724Y25185157D01*
X8312957Y25196851D01*
X8298913Y25208376D01*
X8282562Y25223196D01*
X8282151Y25222743D01*
X8252038Y25242690D01*
X8214507Y25250000D01*
X7573825Y25250000D01*
X7534821Y25242080D01*
X7501996Y25219575D01*
X7480548Y25186048D01*
X7473876Y25146812D01*
X7483035Y25108081D01*
X7518268Y25066853D01*
X7521280Y25064840D01*
X7537043Y25053149D01*
X7551087Y25041624D01*
X7565612Y25028459D01*
X7578459Y25015612D01*
X7591624Y25001087D01*
X7603149Y24987043D01*
X7614843Y24971276D01*
X7624922Y24956191D01*
X7635002Y24939375D01*
X7643577Y24923333D01*
X7651961Y24905605D01*
X7658902Y24888848D01*
X7665515Y24870366D01*
X7670787Y24852986D01*
X7675551Y24833966D01*
X7679093Y24816158D01*
X7681976Y24796726D01*
X7683753Y24778692D01*
X7684717Y24759067D01*
X7684717Y24740933D01*
X7683753Y24721308D01*
X7681976Y24703274D01*
X7679093Y24683842D01*
X7675551Y24666034D01*
X7670787Y24647014D01*
X7665515Y24629634D01*
X7658902Y24611152D01*
X7651961Y24594395D01*
X7643577Y24576667D01*
X7635002Y24560625D01*
X7624922Y24543809D01*
X7614843Y24528724D01*
X7603149Y24512957D01*
X7591624Y24498913D01*
X7578459Y24484388D01*
X7565612Y24471541D01*
X7551087Y24458376D01*
X7537043Y24446851D01*
X7521276Y24435157D01*
X7506191Y24425078D01*
X7489375Y24414998D01*
X7473333Y24406423D01*
X7455605Y24398039D01*
X7438848Y24391098D01*
X7420366Y24384485D01*
X7402986Y24379213D01*
X7383966Y24374449D01*
X7366158Y24370907D01*
X7346726Y24368024D01*
X7328692Y24366247D01*
X7309067Y24365283D01*
X7290933Y24365283D01*
X7271308Y24366247D01*
X7253274Y24368024D01*
X7233842Y24370907D01*
X7216034Y24374449D01*
X7197014Y24379213D01*
X7179634Y24384485D01*
X7161152Y24391098D01*
X7144395Y24398039D01*
X7126667Y24406423D01*
X7110625Y24414998D01*
X7093809Y24425078D01*
X7078724Y24435157D01*
X7062957Y24446851D01*
X7048913Y24458376D01*
X7034388Y24471541D01*
X7021541Y24484388D01*
X7008376Y24498913D01*
X6996851Y24512957D01*
X6985157Y24528724D01*
X6975078Y24543809D01*
X6964998Y24560625D01*
X6956423Y24576667D01*
X6948039Y24594395D01*
X6941098Y24611152D01*
X6934485Y24629634D01*
X6929213Y24647014D01*
X6924449Y24666034D01*
X6920907Y24683842D01*
X6918024Y24703274D01*
X6916247Y24721308D01*
X6915283Y24740933D01*
X6915283Y24759067D01*
X6916247Y24778692D01*
X6918024Y24796726D01*
X6920907Y24816158D01*
X6924449Y24833966D01*
X6929213Y24852986D01*
X6934485Y24870366D01*
X6941098Y24888848D01*
X6948039Y24905605D01*
X6956423Y24923333D01*
X6964998Y24939375D01*
X6975078Y24956191D01*
X6985157Y24971276D01*
X6996851Y24987043D01*
X7008376Y25001087D01*
X7021541Y25015612D01*
X7034388Y25028459D01*
X7048913Y25041624D01*
X7062957Y25053149D01*
X7078720Y25064840D01*
X7081732Y25066853D01*
X7109762Y25095108D01*
X7124552Y25132057D01*
X7123759Y25171849D01*
X7107509Y25208179D01*
X7078375Y25235295D01*
X7026175Y25250000D01*
X4873825Y25250000D01*
X4834821Y25242080D01*
X4801996Y25219575D01*
X4780548Y25186048D01*
X4773876Y25146812D01*
X4783035Y25108081D01*
X4818268Y25066853D01*
X4821280Y25064840D01*
X4837043Y25053149D01*
X4851087Y25041624D01*
X4865612Y25028459D01*
X4878459Y25015612D01*
X4891624Y25001087D01*
X4903149Y24987043D01*
X4914843Y24971276D01*
X4924922Y24956191D01*
X4935002Y24939375D01*
X4943577Y24923333D01*
X4951961Y24905605D01*
X4958902Y24888848D01*
X4965515Y24870366D01*
X4970787Y24852986D01*
X4975551Y24833966D01*
X4979093Y24816158D01*
X4981976Y24796726D01*
X4983753Y24778692D01*
X4984717Y24759067D01*
X4984717Y24740933D01*
X4983753Y24721308D01*
X4981976Y24703274D01*
X4979093Y24683842D01*
X4975551Y24666034D01*
X4970787Y24647014D01*
X4965515Y24629634D01*
X4958902Y24611152D01*
X4951961Y24594395D01*
X4943577Y24576667D01*
X4935002Y24560625D01*
X4924922Y24543809D01*
X4914843Y24528724D01*
X4903149Y24512957D01*
X4891624Y24498913D01*
X4878459Y24484388D01*
X4865612Y24471541D01*
X4851087Y24458376D01*
X4837043Y24446851D01*
X4821276Y24435157D01*
X4806191Y24425078D01*
X4789375Y24414998D01*
X4773333Y24406423D01*
X4755605Y24398039D01*
X4738848Y24391098D01*
X4720366Y24384485D01*
X4702986Y24379213D01*
X4683966Y24374449D01*
X4666158Y24370907D01*
X4646726Y24368024D01*
X4628692Y24366247D01*
X4609067Y24365283D01*
X4590933Y24365283D01*
X4571308Y24366247D01*
X4553274Y24368024D01*
X4533842Y24370907D01*
X4516034Y24374449D01*
X4497014Y24379213D01*
X4479634Y24384485D01*
X4461152Y24391098D01*
X4444395Y24398039D01*
X4426667Y24406423D01*
X4410640Y24414990D01*
X4401411Y24420522D01*
X4363885Y24433780D01*
X4324159Y24431353D01*
X4288527Y24413623D01*
X4262632Y24383399D01*
X4250000Y24334749D01*
X4250000Y23915251D01*
X4257920Y23876247D01*
X4280425Y23843422D01*
X4313952Y23821974D01*
X4353188Y23815302D01*
X4401411Y23829478D01*
X4410640Y23835010D01*
X4426667Y23843577D01*
X4444395Y23851961D01*
X4461152Y23858902D01*
X4479634Y23865515D01*
X4497014Y23870787D01*
X4516034Y23875551D01*
X4533842Y23879093D01*
X4553274Y23881976D01*
X4571308Y23883753D01*
X4590933Y23884717D01*
X4609067Y23884717D01*
X4628692Y23883753D01*
X4646726Y23881976D01*
X4666158Y23879093D01*
X4683966Y23875551D01*
X4702986Y23870787D01*
X4720366Y23865515D01*
X4738848Y23858902D01*
X4755605Y23851961D01*
X4773333Y23843577D01*
X4789375Y23835002D01*
X4806191Y23824922D01*
X4821276Y23814843D01*
X4837043Y23803149D01*
X4851087Y23791624D01*
X4865612Y23778459D01*
X4878459Y23765612D01*
X4891624Y23751087D01*
X4903149Y23737043D01*
X4914843Y23721276D01*
X4924922Y23706191D01*
X4935002Y23689375D01*
X4943577Y23673333D01*
X4951961Y23655605D01*
X4958902Y23638848D01*
X4965515Y23620366D01*
X4970787Y23602986D01*
X4975551Y23583966D01*
X4979093Y23566158D01*
X4981976Y23546726D01*
X4983753Y23528692D01*
X4984717Y23509067D01*
X4984717Y23490933D01*
X4983753Y23471308D01*
X4981976Y23453274D01*
X4979093Y23433842D01*
X4975551Y23416034D01*
X4970787Y23397014D01*
X4965515Y23379634D01*
X4958902Y23361152D01*
X4951961Y23344395D01*
X4943577Y23326667D01*
X4935002Y23310625D01*
X4924922Y23293809D01*
X4914843Y23278724D01*
X4903149Y23262957D01*
X4891624Y23248913D01*
X4878459Y23234388D01*
X4865612Y23221541D01*
X4851087Y23208376D01*
X4837043Y23196851D01*
X4821276Y23185157D01*
X4806191Y23175078D01*
X4789375Y23164998D01*
X4773333Y23156423D01*
X4755605Y23148039D01*
X4738848Y23141098D01*
X4720366Y23134485D01*
X4702986Y23129213D01*
X4683966Y23124449D01*
X4666158Y23120907D01*
X4646726Y23118024D01*
X4628692Y23116247D01*
X4609067Y23115283D01*
X4590933Y23115283D01*
X4571308Y23116247D01*
X4553274Y23118024D01*
X4533842Y23120907D01*
X4516034Y23124449D01*
X4497014Y23129213D01*
X4479634Y23134485D01*
X4461152Y23141098D01*
X4444395Y23148039D01*
X4426667Y23156423D01*
X4410640Y23164990D01*
X4401411Y23170522D01*
X4363885Y23183780D01*
X4324159Y23181353D01*
X4288527Y23163623D01*
X4262632Y23133399D01*
X4250000Y23084749D01*
X4250000Y22915251D01*
X4257920Y22876247D01*
X4280425Y22843422D01*
X4313952Y22821974D01*
X4353188Y22815302D01*
X4401411Y22829478D01*
X4410640Y22835010D01*
X4426667Y22843577D01*
X4444395Y22851961D01*
X4461152Y22858902D01*
X4479634Y22865515D01*
X4497014Y22870787D01*
X4516034Y22875551D01*
X4533842Y22879093D01*
X4553274Y22881976D01*
X4571308Y22883753D01*
X4590933Y22884717D01*
X4609067Y22884717D01*
X4628692Y22883753D01*
X4646726Y22881976D01*
X4666158Y22879093D01*
X4683966Y22875551D01*
X4702986Y22870787D01*
X4720366Y22865515D01*
X4738848Y22858902D01*
X4755605Y22851961D01*
X4773333Y22843577D01*
X4789375Y22835002D01*
X4806191Y22824922D01*
X4821276Y22814843D01*
X4837043Y22803149D01*
X4851087Y22791624D01*
X4865612Y22778459D01*
X4878459Y22765612D01*
X4891624Y22751087D01*
X4903149Y22737043D01*
X4914843Y22721276D01*
X4924922Y22706191D01*
X4935002Y22689375D01*
X4943577Y22673333D01*
X4951961Y22655605D01*
X4958902Y22638848D01*
X4965515Y22620366D01*
X4970787Y22602986D01*
X4975551Y22583966D01*
X4979093Y22566158D01*
X4981976Y22546726D01*
X4983753Y22528692D01*
X4984717Y22509067D01*
X4984717Y22490933D01*
X4983753Y22471308D01*
X4981976Y22453274D01*
X4979093Y22433842D01*
X4975551Y22416034D01*
X4970787Y22397014D01*
X4965515Y22379634D01*
X4958902Y22361152D01*
X4951961Y22344395D01*
X4943577Y22326667D01*
X4935002Y22310625D01*
X4924922Y22293809D01*
X4914843Y22278724D01*
X4903149Y22262957D01*
X4891624Y22248913D01*
X4878459Y22234388D01*
X4865612Y22221541D01*
X4851087Y22208376D01*
X4837043Y22196851D01*
X4821276Y22185157D01*
X4806191Y22175078D01*
X4789375Y22164998D01*
X4773333Y22156423D01*
X4755605Y22148039D01*
X4738848Y22141098D01*
X4720366Y22134485D01*
X4702986Y22129213D01*
X4683966Y22124449D01*
X4666158Y22120907D01*
X4646726Y22118024D01*
X4628692Y22116247D01*
X4609067Y22115283D01*
X4590933Y22115283D01*
X4571308Y22116247D01*
X4553274Y22118024D01*
X4533842Y22120907D01*
X4516034Y22124449D01*
X4497014Y22129213D01*
X4479634Y22134485D01*
X4461152Y22141098D01*
X4444395Y22148039D01*
X4426667Y22156423D01*
X4410640Y22164990D01*
X4401411Y22170522D01*
X4363885Y22183780D01*
X4324159Y22181353D01*
X4288527Y22163623D01*
X4262632Y22133399D01*
X4250000Y22084749D01*
X4250000Y21850000D01*
X4257920Y21810996D01*
X4280425Y21778171D01*
X4313952Y21756723D01*
X4350000Y21750000D01*
X43400000Y21750000D01*
D02*
G37*
%LPD*%
G36*
X7776175Y6900000D02*
X7815179Y6907920D01*
X7848004Y6930425D01*
X7869452Y6963952D01*
X7876124Y7003188D01*
X7866965Y7041919D01*
X7831732Y7083147D01*
X7828720Y7085160D01*
X7812957Y7096851D01*
X7798913Y7108376D01*
X7784388Y7121541D01*
X7771541Y7134388D01*
X7758376Y7148913D01*
X7746851Y7162957D01*
X7735157Y7178724D01*
X7725078Y7193809D01*
X7714998Y7210625D01*
X7706423Y7226667D01*
X7698039Y7244395D01*
X7691098Y7261152D01*
X7684486Y7279629D01*
X7681978Y7287898D01*
X7663077Y7322923D01*
X7632011Y7347802D01*
X7593703Y7358593D01*
X7554219Y7353589D01*
X7526712Y7339188D01*
X7521282Y7335161D01*
X7506191Y7325078D01*
X7489375Y7314998D01*
X7473333Y7306423D01*
X7455605Y7298039D01*
X7438848Y7291098D01*
X7420366Y7284485D01*
X7402986Y7279213D01*
X7383966Y7274449D01*
X7366158Y7270907D01*
X7346726Y7268024D01*
X7328692Y7266247D01*
X7309067Y7265283D01*
X7290933Y7265283D01*
X7271308Y7266247D01*
X7253274Y7268024D01*
X7233842Y7270907D01*
X7216034Y7274449D01*
X7197014Y7279213D01*
X7179634Y7284485D01*
X7161152Y7291098D01*
X7144395Y7298039D01*
X7126667Y7306423D01*
X7110625Y7314998D01*
X7093809Y7325078D01*
X7078724Y7335157D01*
X7062957Y7346851D01*
X7048913Y7358376D01*
X7034388Y7371541D01*
X7021541Y7384388D01*
X7008376Y7398913D01*
X6996851Y7412957D01*
X6985157Y7428724D01*
X6975078Y7443809D01*
X6964998Y7460625D01*
X6956423Y7476667D01*
X6948039Y7494395D01*
X6941098Y7511152D01*
X6934485Y7529634D01*
X6929213Y7547014D01*
X6924449Y7566034D01*
X6920907Y7583842D01*
X6918024Y7603274D01*
X6916247Y7621308D01*
X6915283Y7640933D01*
X6915283Y7659067D01*
X6916247Y7678692D01*
X6918024Y7696726D01*
X6920907Y7716158D01*
X6924449Y7733966D01*
X6929213Y7752986D01*
X6934485Y7770366D01*
X6941098Y7788848D01*
X6948039Y7805605D01*
X6956423Y7823333D01*
X6964998Y7839375D01*
X6975078Y7856191D01*
X6985157Y7871276D01*
X6996851Y7887043D01*
X7008376Y7901087D01*
X7021541Y7915612D01*
X7034388Y7928459D01*
X7048913Y7941624D01*
X7062957Y7953149D01*
X7078724Y7964843D01*
X7093809Y7974922D01*
X7110625Y7985002D01*
X7126667Y7993577D01*
X7144395Y8001961D01*
X7161152Y8008902D01*
X7179634Y8015515D01*
X7197014Y8020787D01*
X7216034Y8025551D01*
X7233842Y8029093D01*
X7253274Y8031976D01*
X7271308Y8033753D01*
X7290933Y8034717D01*
X7309067Y8034717D01*
X7328692Y8033753D01*
X7346726Y8031976D01*
X7366158Y8029093D01*
X7383966Y8025551D01*
X7402986Y8020787D01*
X7420366Y8015515D01*
X7438848Y8008902D01*
X7455605Y8001961D01*
X7473333Y7993577D01*
X7489375Y7985002D01*
X7506191Y7974922D01*
X7521276Y7964843D01*
X7537043Y7953149D01*
X7551087Y7941624D01*
X7565612Y7928459D01*
X7578459Y7915612D01*
X7591624Y7901087D01*
X7603149Y7887043D01*
X7614843Y7871276D01*
X7624922Y7856191D01*
X7635002Y7839375D01*
X7643577Y7823333D01*
X7651961Y7805605D01*
X7658902Y7788848D01*
X7665514Y7770371D01*
X7668022Y7762102D01*
X7686923Y7727077D01*
X7717989Y7702198D01*
X7756297Y7691407D01*
X7795781Y7696411D01*
X7823288Y7710812D01*
X7828718Y7714839D01*
X7843809Y7724922D01*
X7860625Y7735002D01*
X7876667Y7743577D01*
X7894395Y7751961D01*
X7911152Y7758902D01*
X7929634Y7765515D01*
X7947014Y7770787D01*
X7966034Y7775551D01*
X7983842Y7779093D01*
X8003274Y7781976D01*
X8021308Y7783753D01*
X8040933Y7784717D01*
X8059067Y7784717D01*
X8078692Y7783753D01*
X8096726Y7781976D01*
X8116158Y7779093D01*
X8133966Y7775551D01*
X8152986Y7770787D01*
X8170366Y7765515D01*
X8188848Y7758902D01*
X8205605Y7751961D01*
X8223333Y7743577D01*
X8239375Y7735002D01*
X8256191Y7724922D01*
X8271276Y7714843D01*
X8287043Y7703149D01*
X8301087Y7691624D01*
X8315612Y7678459D01*
X8328459Y7665612D01*
X8341624Y7651087D01*
X8353149Y7637043D01*
X8364843Y7621276D01*
X8374922Y7606191D01*
X8385002Y7589375D01*
X8393577Y7573333D01*
X8401961Y7555605D01*
X8408902Y7538848D01*
X8415515Y7520366D01*
X8420787Y7502986D01*
X8425551Y7483966D01*
X8429093Y7466158D01*
X8431976Y7446726D01*
X8433753Y7428692D01*
X8434717Y7409067D01*
X8434717Y7390920D01*
X8434644Y7389436D01*
X8434717Y7388957D01*
X8434717Y7388467D01*
X8434792Y7388467D01*
X8440638Y7350090D01*
X8461504Y7316199D01*
X8493935Y7293130D01*
X8538467Y7284825D01*
X8538467Y7284717D01*
X8539045Y7284717D01*
X8539436Y7284644D01*
X8540920Y7284717D01*
X8559067Y7284717D01*
X8578692Y7283753D01*
X8596726Y7281976D01*
X8616158Y7279093D01*
X8633966Y7275551D01*
X8652986Y7270787D01*
X8670366Y7265515D01*
X8688848Y7258902D01*
X8705605Y7251961D01*
X8723333Y7243577D01*
X8739375Y7235002D01*
X8756191Y7224922D01*
X8771276Y7214843D01*
X8787043Y7203149D01*
X8801087Y7191624D01*
X8815612Y7178459D01*
X8828459Y7165612D01*
X8841624Y7151087D01*
X8853149Y7137043D01*
X8864843Y7121276D01*
X8874922Y7106191D01*
X8885002Y7089375D01*
X8893577Y7073333D01*
X8901961Y7055605D01*
X8908902Y7038848D01*
X8915515Y7020366D01*
X8920787Y7002986D01*
X8925552Y6983965D01*
X8926241Y6980498D01*
X8941616Y6943788D01*
X8970091Y6915982D01*
X9024321Y6900000D01*
X43400000Y6900000D01*
X43439004Y6907920D01*
X43471829Y6930425D01*
X43493277Y6963952D01*
X43500000Y7000000D01*
X43500000Y10299807D01*
X43492080Y10338811D01*
X43469575Y10371636D01*
X43436048Y10393084D01*
X43399808Y10399807D01*
X30594769Y10375182D01*
X30555780Y10367187D01*
X30522998Y10344618D01*
X30506020Y10312317D01*
X30498581Y10301466D01*
X30498566Y10301457D01*
X30490754Y10300000D01*
X24910051Y10300000D01*
X24901397Y10301757D01*
X24898305Y10318334D01*
X24883368Y10355224D01*
X24855226Y10383367D01*
X24800000Y10400000D01*
X8024321Y10400000D01*
X7985317Y10392080D01*
X7952492Y10369575D01*
X7926241Y10319502D01*
X7925552Y10316035D01*
X7920787Y10297014D01*
X7915515Y10279634D01*
X7908902Y10261152D01*
X7901961Y10244395D01*
X7893577Y10226667D01*
X7885002Y10210625D01*
X7874922Y10193809D01*
X7864843Y10178724D01*
X7853149Y10162957D01*
X7841624Y10148913D01*
X7828459Y10134388D01*
X7815612Y10121541D01*
X7801087Y10108376D01*
X7787043Y10096851D01*
X7771276Y10085157D01*
X7756191Y10075078D01*
X7739375Y10064998D01*
X7723333Y10056423D01*
X7705605Y10048039D01*
X7688848Y10041098D01*
X7670366Y10034485D01*
X7652986Y10029213D01*
X7633966Y10024449D01*
X7616158Y10020907D01*
X7596726Y10018024D01*
X7578692Y10016247D01*
X7559067Y10015283D01*
X7540933Y10015283D01*
X7521308Y10016247D01*
X7503274Y10018024D01*
X7483842Y10020907D01*
X7466034Y10024449D01*
X7447014Y10029213D01*
X7429634Y10034485D01*
X7411152Y10041098D01*
X7394395Y10048039D01*
X7376667Y10056423D01*
X7360625Y10064998D01*
X7343809Y10075078D01*
X7328724Y10085157D01*
X7312957Y10096851D01*
X7298913Y10108376D01*
X7284388Y10121541D01*
X7271541Y10134388D01*
X7258376Y10148913D01*
X7246851Y10162957D01*
X7235157Y10178724D01*
X7225078Y10193809D01*
X7214998Y10210625D01*
X7206423Y10226667D01*
X7198039Y10244395D01*
X7191098Y10261152D01*
X7184485Y10279634D01*
X7179213Y10297014D01*
X7174448Y10316035D01*
X7173759Y10319502D01*
X7158384Y10356212D01*
X7129909Y10384018D01*
X7075679Y10400000D01*
X4350000Y10400000D01*
X4310996Y10392080D01*
X4278171Y10369575D01*
X4256723Y10336048D01*
X4250000Y10300000D01*
X4250000Y7815251D01*
X4257920Y7776247D01*
X4280425Y7743422D01*
X4313952Y7721974D01*
X4353188Y7715302D01*
X4401411Y7729478D01*
X4410640Y7735010D01*
X4426667Y7743577D01*
X4444395Y7751961D01*
X4461152Y7758902D01*
X4479634Y7765515D01*
X4497014Y7770787D01*
X4516034Y7775551D01*
X4533842Y7779093D01*
X4553274Y7781976D01*
X4571308Y7783753D01*
X4590933Y7784717D01*
X4609067Y7784717D01*
X4628692Y7783753D01*
X4646726Y7781976D01*
X4666158Y7779093D01*
X4683966Y7775551D01*
X4702986Y7770787D01*
X4720366Y7765515D01*
X4738848Y7758902D01*
X4755605Y7751961D01*
X4773333Y7743577D01*
X4789375Y7735002D01*
X4806191Y7724922D01*
X4821276Y7714843D01*
X4837043Y7703149D01*
X4851087Y7691624D01*
X4865612Y7678459D01*
X4878459Y7665612D01*
X4891624Y7651087D01*
X4903149Y7637043D01*
X4914843Y7621276D01*
X4924922Y7606191D01*
X4935002Y7589375D01*
X4943577Y7573333D01*
X4951961Y7555605D01*
X4958902Y7538848D01*
X4965515Y7520366D01*
X4970787Y7502986D01*
X4975551Y7483966D01*
X4979093Y7466158D01*
X4981976Y7446726D01*
X4983753Y7428692D01*
X4984717Y7409067D01*
X4984717Y7390933D01*
X4983753Y7371308D01*
X4981976Y7353274D01*
X4979093Y7333842D01*
X4975551Y7316034D01*
X4970787Y7297014D01*
X4965515Y7279634D01*
X4958902Y7261152D01*
X4951961Y7244395D01*
X4943577Y7226667D01*
X4935002Y7210625D01*
X4924922Y7193809D01*
X4914843Y7178724D01*
X4903149Y7162957D01*
X4891624Y7148913D01*
X4878459Y7134388D01*
X4865612Y7121541D01*
X4851087Y7108376D01*
X4837043Y7096851D01*
X4821280Y7085160D01*
X4818268Y7083147D01*
X4790238Y7054892D01*
X4775448Y7017943D01*
X4776241Y6978151D01*
X4792491Y6941821D01*
X4821625Y6914705D01*
X4873825Y6900000D01*
X7776175Y6900000D01*
D02*
G37*
%LPC*%
G36*
X9059067Y8015283D02*
X9040933Y8015283D01*
X9021308Y8016247D01*
X9003274Y8018024D01*
X8983842Y8020907D01*
X8966034Y8024449D01*
X8947014Y8029213D01*
X8929634Y8034485D01*
X8911152Y8041098D01*
X8894395Y8048039D01*
X8876667Y8056423D01*
X8860625Y8064998D01*
X8843809Y8075078D01*
X8828724Y8085157D01*
X8812957Y8096851D01*
X8798913Y8108376D01*
X8784388Y8121541D01*
X8771541Y8134388D01*
X8758376Y8148913D01*
X8746851Y8162957D01*
X8735157Y8178724D01*
X8725078Y8193809D01*
X8714998Y8210625D01*
X8706423Y8226667D01*
X8698039Y8244395D01*
X8691098Y8261152D01*
X8684486Y8279629D01*
X8681978Y8287898D01*
X8663077Y8322923D01*
X8632011Y8347802D01*
X8593703Y8358593D01*
X8554219Y8353589D01*
X8526712Y8339188D01*
X8521282Y8335161D01*
X8506191Y8325078D01*
X8489375Y8314998D01*
X8473333Y8306423D01*
X8455605Y8298039D01*
X8438848Y8291098D01*
X8420366Y8284485D01*
X8402986Y8279213D01*
X8383966Y8274449D01*
X8366158Y8270907D01*
X8346726Y8268024D01*
X8328692Y8266247D01*
X8309067Y8265283D01*
X8290933Y8265283D01*
X8271308Y8266247D01*
X8253274Y8268024D01*
X8233842Y8270907D01*
X8216034Y8274449D01*
X8197014Y8279213D01*
X8179634Y8284485D01*
X8161152Y8291098D01*
X8144395Y8298039D01*
X8126667Y8306423D01*
X8110625Y8314998D01*
X8093809Y8325078D01*
X8078724Y8335157D01*
X8062957Y8346851D01*
X8048913Y8358376D01*
X8034388Y8371541D01*
X8021541Y8384388D01*
X8008376Y8398913D01*
X7996851Y8412957D01*
X7985157Y8428724D01*
X7975078Y8443809D01*
X7964998Y8460625D01*
X7956423Y8476667D01*
X7948039Y8494395D01*
X7941098Y8511152D01*
X7934485Y8529634D01*
X7929213Y8547014D01*
X7924449Y8566034D01*
X7920907Y8583842D01*
X7918024Y8603274D01*
X7916247Y8621308D01*
X7915283Y8640933D01*
X7915283Y8659067D01*
X7916247Y8678692D01*
X7918024Y8696726D01*
X7920907Y8716158D01*
X7924449Y8733966D01*
X7929213Y8752986D01*
X7934485Y8770366D01*
X7941098Y8788848D01*
X7948039Y8805605D01*
X7956423Y8823333D01*
X7964998Y8839375D01*
X7975078Y8856191D01*
X7985157Y8871276D01*
X7996851Y8887043D01*
X8008376Y8901087D01*
X8021541Y8915612D01*
X8034388Y8928459D01*
X8048916Y8941627D01*
X8056316Y8947700D01*
X8081441Y8978566D01*
X8092537Y9016788D01*
X8087847Y9056310D01*
X8056316Y9102300D01*
X8048916Y9108373D01*
X8034388Y9121541D01*
X8021541Y9134388D01*
X8008376Y9148913D01*
X7996851Y9162957D01*
X7985157Y9178724D01*
X7975078Y9193809D01*
X7964998Y9210625D01*
X7956423Y9226667D01*
X7948039Y9244395D01*
X7941098Y9261152D01*
X7934485Y9279634D01*
X7929213Y9297014D01*
X7924449Y9316034D01*
X7920907Y9333842D01*
X7918024Y9353274D01*
X7916247Y9371308D01*
X7915283Y9390933D01*
X7915283Y9409067D01*
X7916247Y9428692D01*
X7918024Y9446726D01*
X7920907Y9466158D01*
X7924449Y9483966D01*
X7929213Y9502986D01*
X7934485Y9520366D01*
X7941098Y9538848D01*
X7948039Y9555605D01*
X7956423Y9573333D01*
X7964998Y9589375D01*
X7975078Y9606191D01*
X7985157Y9621276D01*
X7996851Y9637043D01*
X8008376Y9651087D01*
X8021541Y9665612D01*
X8034388Y9678459D01*
X8048913Y9691624D01*
X8062957Y9703149D01*
X8078724Y9714843D01*
X8093809Y9724922D01*
X8110625Y9735002D01*
X8126667Y9743577D01*
X8144395Y9751961D01*
X8161152Y9758902D01*
X8179634Y9765515D01*
X8197014Y9770787D01*
X8216034Y9775551D01*
X8233842Y9779093D01*
X8253274Y9781976D01*
X8271308Y9783753D01*
X8290933Y9784717D01*
X8309067Y9784717D01*
X8328692Y9783753D01*
X8346726Y9781976D01*
X8366158Y9779093D01*
X8383966Y9775551D01*
X8402986Y9770787D01*
X8420366Y9765515D01*
X8438848Y9758902D01*
X8455605Y9751961D01*
X8473333Y9743577D01*
X8489375Y9735002D01*
X8506191Y9724922D01*
X8521276Y9714843D01*
X8537043Y9703149D01*
X8551087Y9691624D01*
X8565612Y9678459D01*
X8578459Y9665612D01*
X8591624Y9651087D01*
X8603149Y9637043D01*
X8614843Y9621276D01*
X8624922Y9606191D01*
X8635002Y9589375D01*
X8643577Y9573333D01*
X8651961Y9555605D01*
X8658902Y9538848D01*
X8665515Y9520366D01*
X8670787Y9502986D01*
X8675551Y9483966D01*
X8679093Y9466158D01*
X8681976Y9446726D01*
X8683753Y9428692D01*
X8684717Y9409067D01*
X8684717Y9390933D01*
X8683753Y9371308D01*
X8681976Y9353274D01*
X8679093Y9333842D01*
X8675551Y9316034D01*
X8670787Y9297014D01*
X8665515Y9279634D01*
X8658902Y9261152D01*
X8651961Y9244395D01*
X8643577Y9226667D01*
X8635002Y9210625D01*
X8624922Y9193809D01*
X8614843Y9178724D01*
X8603149Y9162957D01*
X8591624Y9148913D01*
X8578459Y9134388D01*
X8565612Y9121541D01*
X8551084Y9108373D01*
X8543684Y9102300D01*
X8518559Y9071434D01*
X8507463Y9033212D01*
X8512153Y8993690D01*
X8543684Y8947700D01*
X8551084Y8941627D01*
X8565612Y8928459D01*
X8578459Y8915612D01*
X8591624Y8901087D01*
X8603149Y8887043D01*
X8614843Y8871276D01*
X8624922Y8856191D01*
X8635002Y8839375D01*
X8643577Y8823333D01*
X8651961Y8805605D01*
X8658902Y8788848D01*
X8665514Y8770371D01*
X8668022Y8762102D01*
X8686923Y8727077D01*
X8717989Y8702198D01*
X8756297Y8691407D01*
X8795781Y8696411D01*
X8823288Y8710812D01*
X8828718Y8714839D01*
X8843809Y8724922D01*
X8860625Y8735002D01*
X8876667Y8743577D01*
X8894395Y8751961D01*
X8911152Y8758902D01*
X8929634Y8765515D01*
X8947014Y8770787D01*
X8966034Y8775551D01*
X8983842Y8779093D01*
X9003274Y8781976D01*
X9021308Y8783753D01*
X9040933Y8784717D01*
X9059067Y8784717D01*
X9078692Y8783753D01*
X9096726Y8781976D01*
X9116158Y8779093D01*
X9133966Y8775551D01*
X9152986Y8770787D01*
X9170366Y8765515D01*
X9188848Y8758902D01*
X9205605Y8751961D01*
X9223333Y8743577D01*
X9239375Y8735002D01*
X9256191Y8724922D01*
X9271276Y8714843D01*
X9287043Y8703149D01*
X9301087Y8691624D01*
X9315612Y8678459D01*
X9328459Y8665612D01*
X9341624Y8651087D01*
X9353149Y8637043D01*
X9364843Y8621276D01*
X9374922Y8606191D01*
X9385002Y8589375D01*
X9393577Y8573333D01*
X9401961Y8555605D01*
X9408902Y8538848D01*
X9415515Y8520366D01*
X9420787Y8502986D01*
X9425551Y8483966D01*
X9429093Y8466158D01*
X9431976Y8446726D01*
X9433753Y8428692D01*
X9434717Y8409067D01*
X9434717Y8390933D01*
X9433753Y8371308D01*
X9431976Y8353274D01*
X9429093Y8333842D01*
X9425551Y8316034D01*
X9420787Y8297014D01*
X9415515Y8279634D01*
X9408902Y8261152D01*
X9401961Y8244395D01*
X9393577Y8226667D01*
X9385002Y8210625D01*
X9374922Y8193809D01*
X9364843Y8178724D01*
X9353149Y8162957D01*
X9341624Y8148913D01*
X9328459Y8134388D01*
X9315612Y8121541D01*
X9301087Y8108376D01*
X9287043Y8096851D01*
X9271276Y8085157D01*
X9256191Y8075078D01*
X9239375Y8064998D01*
X9223333Y8056423D01*
X9205605Y8048039D01*
X9188848Y8041098D01*
X9170366Y8034485D01*
X9152986Y8029213D01*
X9133966Y8024449D01*
X9116158Y8020907D01*
X9096726Y8018024D01*
X9078692Y8016247D01*
X9059067Y8015283D01*
D02*
G37*
%LPD*%
G36*
X43400000Y3150000D02*
X43439004Y3157920D01*
X43471829Y3180425D01*
X43493277Y3213952D01*
X43500000Y3250000D01*
X43500000Y6550000D01*
X43492080Y6589004D01*
X43469575Y6621829D01*
X43436048Y6643277D01*
X43400000Y6650000D01*
X8885493Y6650000D01*
X8846489Y6642080D01*
X8817829Y6622765D01*
X8817438Y6623196D01*
X8801087Y6608376D01*
X8787043Y6596851D01*
X8771276Y6585157D01*
X8756191Y6575078D01*
X8739375Y6564998D01*
X8723333Y6556423D01*
X8705605Y6548039D01*
X8688848Y6541098D01*
X8670366Y6534485D01*
X8652986Y6529213D01*
X8633966Y6524449D01*
X8616158Y6520907D01*
X8596726Y6518024D01*
X8578692Y6516247D01*
X8559067Y6515283D01*
X8540933Y6515283D01*
X8521308Y6516247D01*
X8503274Y6518024D01*
X8483842Y6520907D01*
X8466034Y6524449D01*
X8447014Y6529213D01*
X8429634Y6534485D01*
X8411152Y6541098D01*
X8394395Y6548039D01*
X8376667Y6556423D01*
X8360625Y6564998D01*
X8343809Y6575078D01*
X8328724Y6585157D01*
X8312957Y6596851D01*
X8298913Y6608376D01*
X8282562Y6623196D01*
X8282151Y6622743D01*
X8252038Y6642690D01*
X8214507Y6650000D01*
X7573825Y6650000D01*
X7534821Y6642080D01*
X7501996Y6619575D01*
X7480548Y6586048D01*
X7473876Y6546812D01*
X7483035Y6508081D01*
X7518268Y6466853D01*
X7521280Y6464840D01*
X7537043Y6453149D01*
X7551087Y6441624D01*
X7565612Y6428459D01*
X7578459Y6415612D01*
X7591624Y6401087D01*
X7603149Y6387043D01*
X7614843Y6371276D01*
X7624922Y6356191D01*
X7635002Y6339375D01*
X7643577Y6323333D01*
X7651961Y6305605D01*
X7658902Y6288848D01*
X7665515Y6270366D01*
X7670787Y6252986D01*
X7675551Y6233966D01*
X7679093Y6216158D01*
X7681976Y6196726D01*
X7683753Y6178692D01*
X7684717Y6159067D01*
X7684717Y6140933D01*
X7683753Y6121308D01*
X7681976Y6103274D01*
X7679093Y6083842D01*
X7675551Y6066034D01*
X7670787Y6047014D01*
X7665515Y6029634D01*
X7658902Y6011152D01*
X7651961Y5994395D01*
X7643577Y5976667D01*
X7635002Y5960625D01*
X7624922Y5943809D01*
X7614843Y5928724D01*
X7603149Y5912957D01*
X7591624Y5898913D01*
X7578459Y5884388D01*
X7565612Y5871541D01*
X7551087Y5858376D01*
X7537043Y5846851D01*
X7521276Y5835157D01*
X7506191Y5825078D01*
X7489375Y5814998D01*
X7473333Y5806423D01*
X7455605Y5798039D01*
X7438848Y5791098D01*
X7420366Y5784485D01*
X7402986Y5779213D01*
X7383966Y5774449D01*
X7366158Y5770907D01*
X7346726Y5768024D01*
X7328692Y5766247D01*
X7309067Y5765283D01*
X7290933Y5765283D01*
X7271308Y5766247D01*
X7253274Y5768024D01*
X7233842Y5770907D01*
X7216034Y5774449D01*
X7197014Y5779213D01*
X7179634Y5784485D01*
X7161152Y5791098D01*
X7144395Y5798039D01*
X7126667Y5806423D01*
X7110625Y5814998D01*
X7093809Y5825078D01*
X7078724Y5835157D01*
X7062957Y5846851D01*
X7048913Y5858376D01*
X7034388Y5871541D01*
X7021541Y5884388D01*
X7008376Y5898913D01*
X6996851Y5912957D01*
X6985157Y5928724D01*
X6975078Y5943809D01*
X6964998Y5960625D01*
X6956423Y5976667D01*
X6948039Y5994395D01*
X6941098Y6011152D01*
X6934485Y6029634D01*
X6929213Y6047014D01*
X6924449Y6066034D01*
X6920907Y6083842D01*
X6918024Y6103274D01*
X6916247Y6121308D01*
X6915283Y6140933D01*
X6915283Y6159067D01*
X6916247Y6178692D01*
X6918024Y6196726D01*
X6920907Y6216158D01*
X6924449Y6233966D01*
X6929213Y6252986D01*
X6934485Y6270366D01*
X6941098Y6288848D01*
X6948039Y6305605D01*
X6956423Y6323333D01*
X6964998Y6339375D01*
X6975078Y6356191D01*
X6985157Y6371276D01*
X6996851Y6387043D01*
X7008376Y6401087D01*
X7021541Y6415612D01*
X7034388Y6428459D01*
X7048913Y6441624D01*
X7062957Y6453149D01*
X7078720Y6464840D01*
X7081732Y6466853D01*
X7109762Y6495108D01*
X7124552Y6532057D01*
X7123759Y6571849D01*
X7107509Y6608179D01*
X7078375Y6635295D01*
X7026175Y6650000D01*
X4873825Y6650000D01*
X4834821Y6642080D01*
X4801996Y6619575D01*
X4780548Y6586048D01*
X4773876Y6546812D01*
X4783035Y6508081D01*
X4818268Y6466853D01*
X4821280Y6464840D01*
X4837043Y6453149D01*
X4851087Y6441624D01*
X4865612Y6428459D01*
X4878459Y6415612D01*
X4891624Y6401087D01*
X4903149Y6387043D01*
X4914843Y6371276D01*
X4924922Y6356191D01*
X4935002Y6339375D01*
X4943577Y6323333D01*
X4951961Y6305605D01*
X4958902Y6288848D01*
X4965515Y6270366D01*
X4970787Y6252986D01*
X4975551Y6233966D01*
X4979093Y6216158D01*
X4981976Y6196726D01*
X4983753Y6178692D01*
X4984717Y6159067D01*
X4984717Y6140933D01*
X4983753Y6121308D01*
X4981976Y6103274D01*
X4979093Y6083842D01*
X4975551Y6066034D01*
X4970787Y6047014D01*
X4965515Y6029634D01*
X4958902Y6011152D01*
X4951961Y5994395D01*
X4943577Y5976667D01*
X4935002Y5960625D01*
X4924922Y5943809D01*
X4914843Y5928724D01*
X4903149Y5912957D01*
X4891624Y5898913D01*
X4878459Y5884388D01*
X4865612Y5871541D01*
X4851087Y5858376D01*
X4837043Y5846851D01*
X4821276Y5835157D01*
X4806191Y5825078D01*
X4789375Y5814998D01*
X4773333Y5806423D01*
X4755605Y5798039D01*
X4738848Y5791098D01*
X4720366Y5784485D01*
X4702986Y5779213D01*
X4683966Y5774449D01*
X4666158Y5770907D01*
X4646726Y5768024D01*
X4628692Y5766247D01*
X4609067Y5765283D01*
X4590933Y5765283D01*
X4571308Y5766247D01*
X4553274Y5768024D01*
X4533842Y5770907D01*
X4516034Y5774449D01*
X4497014Y5779213D01*
X4479634Y5784485D01*
X4461152Y5791098D01*
X4444395Y5798039D01*
X4426667Y5806423D01*
X4410640Y5814990D01*
X4401411Y5820522D01*
X4363885Y5833780D01*
X4324159Y5831353D01*
X4288527Y5813623D01*
X4262632Y5783399D01*
X4250000Y5734749D01*
X4250000Y5315251D01*
X4257920Y5276247D01*
X4280425Y5243422D01*
X4313952Y5221974D01*
X4353188Y5215302D01*
X4401411Y5229478D01*
X4410640Y5235010D01*
X4426667Y5243577D01*
X4444395Y5251961D01*
X4461152Y5258902D01*
X4479634Y5265515D01*
X4497014Y5270787D01*
X4516034Y5275551D01*
X4533842Y5279093D01*
X4553274Y5281976D01*
X4571308Y5283753D01*
X4590933Y5284717D01*
X4609067Y5284717D01*
X4628692Y5283753D01*
X4646726Y5281976D01*
X4666158Y5279093D01*
X4683966Y5275551D01*
X4702986Y5270787D01*
X4720366Y5265515D01*
X4738848Y5258902D01*
X4755605Y5251961D01*
X4773333Y5243577D01*
X4789375Y5235002D01*
X4806191Y5224922D01*
X4821276Y5214843D01*
X4837043Y5203149D01*
X4851087Y5191624D01*
X4865612Y5178459D01*
X4878459Y5165612D01*
X4891624Y5151087D01*
X4903149Y5137043D01*
X4914843Y5121276D01*
X4924922Y5106191D01*
X4935002Y5089375D01*
X4943577Y5073333D01*
X4951961Y5055605D01*
X4958902Y5038848D01*
X4965515Y5020366D01*
X4970787Y5002986D01*
X4975551Y4983966D01*
X4979093Y4966158D01*
X4981976Y4946726D01*
X4983753Y4928692D01*
X4984717Y4909067D01*
X4984717Y4890933D01*
X4983753Y4871308D01*
X4981976Y4853274D01*
X4979093Y4833842D01*
X4975551Y4816034D01*
X4970787Y4797014D01*
X4965515Y4779634D01*
X4958902Y4761152D01*
X4951961Y4744395D01*
X4943577Y4726667D01*
X4935002Y4710625D01*
X4924922Y4693809D01*
X4914843Y4678724D01*
X4903149Y4662957D01*
X4891624Y4648913D01*
X4878459Y4634388D01*
X4865612Y4621541D01*
X4851087Y4608376D01*
X4837043Y4596851D01*
X4821276Y4585157D01*
X4806191Y4575078D01*
X4789375Y4564998D01*
X4773333Y4556423D01*
X4755605Y4548039D01*
X4738848Y4541098D01*
X4720366Y4534485D01*
X4702986Y4529213D01*
X4683966Y4524449D01*
X4666158Y4520907D01*
X4646726Y4518024D01*
X4628692Y4516247D01*
X4609067Y4515283D01*
X4590933Y4515283D01*
X4571308Y4516247D01*
X4553274Y4518024D01*
X4533842Y4520907D01*
X4516034Y4524449D01*
X4497014Y4529213D01*
X4479634Y4534485D01*
X4461152Y4541098D01*
X4444395Y4548039D01*
X4426667Y4556423D01*
X4410640Y4564990D01*
X4401411Y4570522D01*
X4363885Y4583780D01*
X4324159Y4581353D01*
X4288527Y4563623D01*
X4262632Y4533399D01*
X4250000Y4484749D01*
X4250000Y4315251D01*
X4257920Y4276247D01*
X4280425Y4243422D01*
X4313952Y4221974D01*
X4353188Y4215302D01*
X4401411Y4229478D01*
X4410640Y4235010D01*
X4426667Y4243577D01*
X4444395Y4251961D01*
X4461152Y4258902D01*
X4479634Y4265515D01*
X4497014Y4270787D01*
X4516034Y4275551D01*
X4533842Y4279093D01*
X4553274Y4281976D01*
X4571308Y4283753D01*
X4590933Y4284717D01*
X4609067Y4284717D01*
X4628692Y4283753D01*
X4646726Y4281976D01*
X4666158Y4279093D01*
X4683966Y4275551D01*
X4702986Y4270787D01*
X4720366Y4265515D01*
X4738848Y4258902D01*
X4755605Y4251961D01*
X4773333Y4243577D01*
X4789375Y4235002D01*
X4806191Y4224922D01*
X4821276Y4214843D01*
X4837043Y4203149D01*
X4851087Y4191624D01*
X4865612Y4178459D01*
X4878459Y4165612D01*
X4891624Y4151087D01*
X4903149Y4137043D01*
X4914843Y4121276D01*
X4924922Y4106191D01*
X4935002Y4089375D01*
X4943577Y4073333D01*
X4951961Y4055605D01*
X4958902Y4038848D01*
X4965515Y4020366D01*
X4970787Y4002986D01*
X4975551Y3983966D01*
X4979093Y3966158D01*
X4981976Y3946726D01*
X4983753Y3928692D01*
X4984717Y3909067D01*
X4984717Y3890933D01*
X4983753Y3871308D01*
X4981976Y3853274D01*
X4979093Y3833842D01*
X4975551Y3816034D01*
X4970787Y3797014D01*
X4965515Y3779634D01*
X4958902Y3761152D01*
X4951961Y3744395D01*
X4943577Y3726667D01*
X4935002Y3710625D01*
X4924922Y3693809D01*
X4914843Y3678724D01*
X4903149Y3662957D01*
X4891624Y3648913D01*
X4878459Y3634388D01*
X4865612Y3621541D01*
X4851087Y3608376D01*
X4837043Y3596851D01*
X4821276Y3585157D01*
X4806191Y3575078D01*
X4789375Y3564998D01*
X4773333Y3556423D01*
X4755605Y3548039D01*
X4738848Y3541098D01*
X4720366Y3534485D01*
X4702986Y3529213D01*
X4683966Y3524449D01*
X4666158Y3520907D01*
X4646726Y3518024D01*
X4628692Y3516247D01*
X4609067Y3515283D01*
X4590933Y3515283D01*
X4571308Y3516247D01*
X4553274Y3518024D01*
X4533842Y3520907D01*
X4516034Y3524449D01*
X4497014Y3529213D01*
X4479634Y3534485D01*
X4461152Y3541098D01*
X4444395Y3548039D01*
X4426667Y3556423D01*
X4410640Y3564990D01*
X4401411Y3570522D01*
X4363885Y3583780D01*
X4324159Y3581353D01*
X4288527Y3563623D01*
X4262632Y3533399D01*
X4250000Y3484749D01*
X4250000Y3250000D01*
X4257920Y3210996D01*
X4280425Y3178171D01*
X4313952Y3156723D01*
X4350000Y3150000D01*
X43400000Y3150000D01*
D02*
G37*
%LPD*%
G01*
%LPD*%
G75*
D10*
X1600000Y38175000D03*
D11*
X5550000Y38175000D03*
D11*
X5550000Y49025000D03*
D10*
X1600000Y49025000D03*
D12*
X4600000Y41100000D03*
D12*
X4600000Y42100000D03*
D12*
X4600000Y43350000D03*
D12*
X8300000Y46600000D03*
D12*
X46075000Y45000000D03*
D12*
X9050000Y45600000D03*
D12*
X43000000Y44600000D03*
D12*
X4600000Y44600000D03*
D12*
X8550000Y44100000D03*
D12*
X43000000Y43100000D03*
D12*
X46075000Y42600000D03*
D12*
X46075000Y47400000D03*
D12*
X7300000Y43350000D03*
D12*
X7300000Y44850000D03*
D12*
X8300000Y45850000D03*
D12*
X4600000Y39850000D03*
D12*
X46075000Y40200000D03*
D12*
X7300000Y42600000D03*
D12*
X7550000Y46850000D03*
D12*
X8050000Y44600000D03*
D12*
X7550000Y47600000D03*
D10*
X1600000Y19575000D03*
D11*
X5550000Y19575000D03*
D11*
X5550000Y30425000D03*
D10*
X1600000Y30425000D03*
D12*
X4600000Y22500000D03*
D12*
X4600000Y23500000D03*
D12*
X4600000Y24750000D03*
D12*
X8300000Y28000000D03*
D12*
X46075000Y26400000D03*
D12*
X9050000Y27000000D03*
D12*
X43000000Y26000000D03*
D12*
X4600000Y26000000D03*
D12*
X8550000Y25500000D03*
D12*
X43000000Y24500000D03*
D12*
X46075000Y24000000D03*
D12*
X46075000Y28800000D03*
D12*
X7300000Y24750000D03*
D12*
X7300000Y26250000D03*
D12*
X8300000Y27250000D03*
D12*
X4600000Y21250000D03*
D12*
X46075000Y21600000D03*
D12*
X7300000Y24000000D03*
D12*
X7550000Y28250000D03*
D12*
X8050000Y26000000D03*
D12*
X7550000Y29000000D03*
D10*
X1600000Y975000D03*
D11*
X5550000Y975000D03*
D11*
X5550000Y11825000D03*
D10*
X1600000Y11825000D03*
D12*
X4600000Y3900000D03*
D12*
X4600000Y4900000D03*
D12*
X4600000Y6150000D03*
D12*
X8300000Y9400000D03*
D12*
X46075000Y7800000D03*
D12*
X9050000Y8400000D03*
D12*
X43000000Y7400000D03*
D12*
X4600000Y7400000D03*
D12*
X8550000Y6900000D03*
D12*
X43000000Y5900000D03*
D12*
X46075000Y5400000D03*
D12*
X46075000Y10200000D03*
D12*
X7300000Y6150000D03*
D12*
X7300000Y7650000D03*
D12*
X8300000Y8650000D03*
D12*
X4600000Y2650000D03*
D12*
X46075000Y3000000D03*
D12*
X7300000Y5400000D03*
D12*
X7550000Y9650000D03*
D12*
X8050000Y7400000D03*
D12*
X7550000Y10400000D03*
M02*
