%FSLAX46Y46*%
%MOMM*%
%AMPS12*
21,1,2.400000,0.800000,0.000000,0.000000,0.000000*
%
%ADD12PS12*%
%AMPS13*
21,1,3.200000,0.800000,0.000000,0.000000,0.000000*
%
%ADD13PS13*%
%AMPS16*
1,1,0.450000,0.000000,0.000000*
%
%ADD16PS16*%
%AMPS15*
21,1,1.150000,1.650000,0.000000,0.000000,0.000000*
1,1,1.650000,0.575000,0.000000*
1,1,1.650000,-0.575000,0.000000*
%
%ADD15PS15*%
%AMPS14*
21,1,0.850000,1.650000,0.000000,0.000000,0.000000*
1,1,1.650000,0.425000,0.000000*
1,1,1.650000,-0.425000,0.000000*
%
%ADD14PS14*%
%AMPS11*
1,1,0.580000,0.000000,0.000000*
%
%ADD11PS11*%
%AMPS10*
1,1,0.580000,0.000000,0.000000*
%
%ADD10PS10*%
G01*
%LPD*%
G01*
%LPD*%
G75*
D10*
X34540000Y30010000D03*
D11*
X17820000Y38590000D03*
D11*
X16540000Y19990000D03*
D11*
X34540000Y19990000D03*
D10*
X15900000Y11410000D03*
D11*
X17180000Y38590000D03*
D10*
X19100000Y30010000D03*
D11*
X35820000Y19990000D03*
D10*
X33900000Y30010000D03*
D10*
X36460000Y30010000D03*
D11*
X15900000Y19990000D03*
D10*
X37100000Y30010000D03*
D10*
X35180000Y11410000D03*
D10*
X18460000Y30010000D03*
D11*
X19100000Y38590000D03*
D10*
X34540000Y11410000D03*
D11*
X37100000Y19990000D03*
D11*
X19100000Y19990000D03*
D10*
X33900000Y11410000D03*
D11*
X16540000Y38590000D03*
D11*
X35820000Y38590000D03*
D10*
X17180000Y11410000D03*
D10*
X18460000Y11410000D03*
D10*
X19100000Y11410000D03*
D10*
X35820000Y30010000D03*
D10*
X17820000Y30010000D03*
D11*
X34540000Y38590000D03*
D11*
X36460000Y19990000D03*
D10*
X15900000Y30010000D03*
D10*
X16540000Y30010000D03*
D11*
X35180000Y19990000D03*
D10*
X35820000Y11410000D03*
D10*
X36460000Y11410000D03*
D10*
X35180000Y30010000D03*
D11*
X15900000Y38590000D03*
D11*
X35180000Y38590000D03*
D10*
X17180000Y30010000D03*
D11*
X17180000Y19990000D03*
D11*
X33900000Y38590000D03*
D11*
X18460000Y19990000D03*
D11*
X17820000Y19990000D03*
D10*
X16540000Y11410000D03*
D10*
X17820000Y11410000D03*
D10*
X37100000Y11410000D03*
D11*
X33900000Y19990000D03*
D11*
X37100000Y38590000D03*
D11*
X18460000Y38590000D03*
D11*
X36460000Y38590000D03*
D12*
X47600000Y40600000D03*
D12*
X47600000Y43800000D03*
D13*
X48000000Y39800000D03*
D13*
X48000000Y47000000D03*
D12*
X47600000Y45400000D03*
D12*
X47600000Y43000000D03*
D12*
X47600000Y41400000D03*
D12*
X47600000Y44600000D03*
D12*
X47600000Y46200000D03*
D12*
X47600000Y42200000D03*
D14*
X1600000Y38175000D03*
D15*
X5550000Y38175000D03*
D15*
X5550000Y49025000D03*
D14*
X1600000Y49025000D03*
D16*
X4600000Y41100000D03*
D16*
X4600000Y42100000D03*
D16*
X4600000Y43350000D03*
D16*
X8300000Y46600000D03*
D16*
X46075000Y45000000D03*
D16*
X9050000Y45600000D03*
D16*
X43000000Y44600000D03*
D16*
X4600000Y44600000D03*
D16*
X8550000Y44100000D03*
D16*
X43000000Y43100000D03*
D16*
X46075000Y42600000D03*
D16*
X46075000Y47400000D03*
D16*
X7300000Y43350000D03*
D16*
X7300000Y44850000D03*
D16*
X8300000Y45850000D03*
D16*
X4600000Y39850000D03*
D16*
X46075000Y40200000D03*
D16*
X7300000Y42600000D03*
D16*
X7550000Y46850000D03*
D16*
X8050000Y44600000D03*
D16*
X7550000Y47600000D03*
D12*
X47600000Y22000000D03*
D12*
X47600000Y25200000D03*
D13*
X48000000Y21200000D03*
D13*
X48000000Y28400000D03*
D12*
X47600000Y26800000D03*
D12*
X47600000Y24400000D03*
D12*
X47600000Y22800000D03*
D12*
X47600000Y26000000D03*
D12*
X47600000Y27600000D03*
D12*
X47600000Y23600000D03*
D14*
X1600000Y19575000D03*
D15*
X5550000Y19575000D03*
D15*
X5550000Y30425000D03*
D14*
X1600000Y30425000D03*
D16*
X4600000Y22500000D03*
D16*
X4600000Y23500000D03*
D16*
X4600000Y24750000D03*
D16*
X8300000Y28000000D03*
D16*
X46075000Y26400000D03*
D16*
X9050000Y27000000D03*
D16*
X43000000Y26000000D03*
D16*
X4600000Y26000000D03*
D16*
X8550000Y25500000D03*
D16*
X43000000Y24500000D03*
D16*
X46075000Y24000000D03*
D16*
X46075000Y28800000D03*
D16*
X7300000Y24750000D03*
D16*
X7300000Y26250000D03*
D16*
X8300000Y27250000D03*
D16*
X4600000Y21250000D03*
D16*
X46075000Y21600000D03*
D16*
X7300000Y24000000D03*
D16*
X7550000Y28250000D03*
D16*
X8050000Y26000000D03*
D16*
X7550000Y29000000D03*
D12*
X47600000Y3400000D03*
D12*
X47600000Y6600000D03*
D13*
X48000000Y2600000D03*
D13*
X48000000Y9800000D03*
D12*
X47600000Y8200000D03*
D12*
X47600000Y5800000D03*
D12*
X47600000Y4200000D03*
D12*
X47600000Y7400000D03*
D12*
X47600000Y9000000D03*
D12*
X47600000Y5000000D03*
D14*
X1600000Y975000D03*
D15*
X5550000Y975000D03*
D15*
X5550000Y11825000D03*
D14*
X1600000Y11825000D03*
D16*
X4600000Y3900000D03*
D16*
X4600000Y4900000D03*
D16*
X4600000Y6150000D03*
D16*
X8300000Y9400000D03*
D16*
X46075000Y7800000D03*
D16*
X9050000Y8400000D03*
D16*
X43000000Y7400000D03*
D16*
X4600000Y7400000D03*
D16*
X8550000Y6900000D03*
D16*
X43000000Y5900000D03*
D16*
X46075000Y5400000D03*
D16*
X46075000Y10200000D03*
D16*
X7300000Y6150000D03*
D16*
X7300000Y7650000D03*
D16*
X8300000Y8650000D03*
D16*
X4600000Y2650000D03*
D16*
X46075000Y3000000D03*
D16*
X7300000Y5400000D03*
D16*
X7550000Y9650000D03*
D16*
X8050000Y7400000D03*
D16*
X7550000Y10400000D03*
M02*
