%FSLAX46Y46*%
%MOMM*%
%ADD12C,0.200000*%
%ADD10C,0.205230*%
%ADD11C,0.500000*%
%AMPS17*
21,1,0.220000,1.250000,0.000000,0.000000,270.000000*
%
%ADD17PS17*%
%AMPS20*
1,1,0.500000,0.000000,0.000000*
%
%ADD20PS20*%
%AMPS19*
21,1,1.150000,1.450000,0.000000,0.000000,0.000000*
1,1,1.450000,0.575000,0.000000*
1,1,1.450000,-0.575000,0.000000*
%
%ADD19PS19*%
%AMPS18*
21,1,0.850000,1.450000,0.000000,0.000000,0.000000*
1,1,1.450000,0.425000,0.000000*
1,1,1.450000,-0.425000,0.000000*
%
%ADD18PS18*%
%AMPS15*
21,1,3.000000,0.600000,0.000000,0.000000,0.000000*
%
%ADD15PS15*%
%AMPS14*
21,1,2.200000,0.600000,0.000000,0.000000,0.000000*
%
%ADD14PS14*%
%AMPS13*
21,1,2.600000,0.600000,0.000000,0.000000,0.000000*
%
%ADD13PS13*%
%AMPS16*
1,1,0.240000,0.330000,0.130000*
1,1,0.240000,-0.330000,-0.130000*
1,1,0.240000,-0.330000,0.130000*
21,1,0.500000,0.660000,0.000000,0.000000,90.000000*
21,1,0.260000,0.900000,0.000000,0.000000,90.000000*
1,1,0.240000,0.330000,-0.130000*
%
%ADD16PS16*%
G01*
%LPD*%
G01*
%LPD*%
D10*
X5979215Y41919215D02*
X5975000Y41915000D01*
D11*
X45400000Y44200000D02*
X45000000Y44600000D01*
D11*
X45300000Y43400000D02*
X47800000Y43400000D01*
D10*
X13265411Y41604215D02*
X12380411Y40719215D01*
D12*
X5975000Y42315000D02*
X4815000Y42315000D01*
D12*
X7035000Y45115000D02*
X7300000Y44850000D01*
D12*
X5975000Y46315000D02*
X8015000Y46315000D01*
D12*
X4715000Y44715000D02*
X4600000Y44600000D01*
D12*
X5975000Y44715000D02*
X4715000Y44715000D01*
D11*
X48000000Y40200000D02*
X46075000Y40200000D01*
D10*
X45949999Y45800000D02*
X45754214Y45995785D01*
D12*
X5975000Y45115000D02*
X7035000Y45115000D01*
D10*
X47600000Y41000000D02*
X45949999Y41000000D01*
D10*
X13434589Y41195785D02*
X12549589Y40310785D01*
D12*
X4615000Y41115000D02*
X4600000Y41100000D01*
D12*
X5975000Y43915000D02*
X8365000Y43915000D01*
D10*
X10580411Y41919215D02*
X5979215Y41919215D01*
D10*
X45949999Y41000000D02*
X45754214Y41195785D01*
D12*
X6815000Y47115000D02*
X7065000Y47115000D01*
D12*
X7635000Y45515000D02*
X7885000Y45515000D01*
D11*
X48000000Y45000000D02*
X46075000Y45000000D01*
D12*
X8550000Y45100000D02*
X9050000Y45600000D01*
D10*
X5979215Y40310785D02*
X5975000Y40315000D01*
D11*
X44000000Y43100000D02*
X43000000Y43100000D01*
D12*
X4765000Y43515000D02*
X4600000Y43350000D01*
D10*
X45754214Y41195785D02*
X13434589Y41195785D01*
D10*
X45949999Y46600000D02*
X45754214Y46404215D01*
D12*
X8050000Y45350000D02*
X8300000Y45100000D01*
D12*
X5975000Y46715000D02*
X7415000Y46715000D01*
D12*
X5975000Y45915000D02*
X8235000Y45915000D01*
D10*
X45754214Y45995785D02*
X15234589Y45995785D01*
D10*
X12380411Y40719215D02*
X5979215Y40719215D01*
D12*
X5975000Y47115000D02*
X6815000Y47115000D01*
D11*
X48000000Y42600000D02*
X46075000Y42600000D01*
D12*
X5975000Y39915000D02*
X4665000Y39915000D01*
D10*
X15065411Y46404215D02*
X10580411Y41919215D01*
D12*
X8235000Y45915000D02*
X8300000Y45850000D01*
D10*
X10749589Y41510785D02*
X5979215Y41510785D01*
D10*
X45754214Y46404215D02*
X15065411Y46404215D01*
D12*
X5975000Y43515000D02*
X4765000Y43515000D01*
D11*
X47800000Y44200000D02*
X45400000Y44200000D01*
D12*
X7885000Y45515000D02*
X8050000Y45350000D01*
D11*
X44000000Y43100000D02*
X45000000Y43100000D01*
D12*
X7185000Y42715000D02*
X7300000Y42600000D01*
D11*
X44000000Y44600000D02*
X43000000Y44600000D01*
D10*
X45949999Y41800000D02*
X45754214Y41604215D01*
D10*
X5979215Y40719215D02*
X5975000Y40715000D01*
D12*
X8300000Y45100000D02*
X8550000Y45100000D01*
D12*
X8365000Y43915000D02*
X8550000Y44100000D01*
D12*
X5975000Y44315000D02*
X7765000Y44315000D01*
D10*
X45754214Y41604215D02*
X13265411Y41604215D01*
D11*
X45000000Y44600000D02*
X44000000Y44600000D01*
D12*
X8015000Y46315000D02*
X8300000Y46600000D01*
D10*
X15234589Y45995785D02*
X10749589Y41510785D01*
D12*
X4815000Y42315000D02*
X4600000Y42100000D01*
D12*
X5975000Y45515000D02*
X7635000Y45515000D01*
D12*
X7765000Y44315000D02*
X8050000Y44600000D01*
D12*
X5975000Y43115000D02*
X7065000Y43115000D01*
D12*
X5975000Y42715000D02*
X7185000Y42715000D01*
D10*
X47600000Y46600000D02*
X45949999Y46600000D01*
D10*
X47600000Y45800000D02*
X45949999Y45800000D01*
D12*
X7415000Y46715000D02*
X7550000Y46850000D01*
D11*
X45000000Y43100000D02*
X45300000Y43400000D01*
D10*
X12549589Y40310785D02*
X5979215Y40310785D01*
D11*
X48000000Y47400000D02*
X46075000Y47400000D01*
D10*
X5979215Y41510785D02*
X5975000Y41515000D01*
D10*
X47600000Y41800000D02*
X45949999Y41800000D01*
D12*
X4665000Y39915000D02*
X4600000Y39850000D01*
D12*
X5975000Y41115000D02*
X4615000Y41115000D01*
D12*
X7065000Y47115000D02*
X7550000Y47600000D01*
D12*
X7065000Y43115000D02*
X7300000Y43350000D01*
D10*
X5979215Y23319215D02*
X5975000Y23315000D01*
D11*
X45400000Y25600000D02*
X45000000Y26000000D01*
D11*
X45300000Y24800000D02*
X47800000Y24800000D01*
D10*
X13265411Y23004215D02*
X12380411Y22119215D01*
D12*
X5975000Y23715000D02*
X4815000Y23715000D01*
D12*
X7035000Y26515000D02*
X7300000Y26250000D01*
D12*
X5975000Y27715000D02*
X8015000Y27715000D01*
D12*
X4715000Y26115000D02*
X4600000Y26000000D01*
D12*
X5975000Y26115000D02*
X4715000Y26115000D01*
D11*
X48000000Y21600000D02*
X46075000Y21600000D01*
D10*
X45949999Y27200000D02*
X45754214Y27395785D01*
D12*
X5975000Y26515000D02*
X7035000Y26515000D01*
D10*
X47600000Y22400000D02*
X45949999Y22400000D01*
D10*
X13434589Y22595785D02*
X12549589Y21710785D01*
D12*
X4615000Y22515000D02*
X4600000Y22500000D01*
D12*
X5975000Y25315000D02*
X8365000Y25315000D01*
D10*
X10580411Y23319215D02*
X5979215Y23319215D01*
D10*
X45949999Y22400000D02*
X45754214Y22595785D01*
D12*
X6815000Y28515000D02*
X7065000Y28515000D01*
D12*
X7635000Y26915000D02*
X7885000Y26915000D01*
D11*
X48000000Y26400000D02*
X46075000Y26400000D01*
D12*
X8550000Y26500000D02*
X9050000Y27000000D01*
D10*
X5979215Y21710785D02*
X5975000Y21715000D01*
D11*
X44000000Y24500000D02*
X43000000Y24500000D01*
D12*
X4765000Y24915000D02*
X4600000Y24750000D01*
D10*
X45754214Y22595785D02*
X13434589Y22595785D01*
D10*
X45949999Y28000000D02*
X45754214Y27804215D01*
D12*
X8050000Y26750000D02*
X8300000Y26500000D01*
D12*
X5975000Y28115000D02*
X7415000Y28115000D01*
D12*
X5975000Y27315000D02*
X8235000Y27315000D01*
D10*
X45754214Y27395785D02*
X15234589Y27395785D01*
D10*
X12380411Y22119215D02*
X5979215Y22119215D01*
D12*
X5975000Y28515000D02*
X6815000Y28515000D01*
D11*
X48000000Y24000000D02*
X46075000Y24000000D01*
D12*
X5975000Y21315000D02*
X4665000Y21315000D01*
D10*
X15065411Y27804215D02*
X10580411Y23319215D01*
D12*
X8235000Y27315000D02*
X8300000Y27250000D01*
D10*
X10749589Y22910785D02*
X5979215Y22910785D01*
D10*
X45754214Y27804215D02*
X15065411Y27804215D01*
D12*
X5975000Y24915000D02*
X4765000Y24915000D01*
D11*
X47800000Y25600000D02*
X45400000Y25600000D01*
D12*
X7885000Y26915000D02*
X8050000Y26750000D01*
D11*
X44000000Y24500000D02*
X45000000Y24500000D01*
D12*
X7185000Y24115000D02*
X7300000Y24000000D01*
D11*
X44000000Y26000000D02*
X43000000Y26000000D01*
D10*
X45949999Y23200000D02*
X45754214Y23004215D01*
D10*
X5979215Y22119215D02*
X5975000Y22115000D01*
D12*
X8300000Y26500000D02*
X8550000Y26500000D01*
D12*
X8365000Y25315000D02*
X8550000Y25500000D01*
D12*
X5975000Y25715000D02*
X7765000Y25715000D01*
D10*
X45754214Y23004215D02*
X13265411Y23004215D01*
D11*
X45000000Y26000000D02*
X44000000Y26000000D01*
D12*
X8015000Y27715000D02*
X8300000Y28000000D01*
D10*
X15234589Y27395785D02*
X10749589Y22910785D01*
D12*
X4815000Y23715000D02*
X4600000Y23500000D01*
D12*
X5975000Y26915000D02*
X7635000Y26915000D01*
D12*
X7765000Y25715000D02*
X8050000Y26000000D01*
D12*
X5975000Y24515000D02*
X7065000Y24515000D01*
D12*
X5975000Y24115000D02*
X7185000Y24115000D01*
D10*
X47600000Y28000000D02*
X45949999Y28000000D01*
D10*
X47600000Y27200000D02*
X45949999Y27200000D01*
D12*
X7415000Y28115000D02*
X7550000Y28250000D01*
D11*
X45000000Y24500000D02*
X45300000Y24800000D01*
D10*
X12549589Y21710785D02*
X5979215Y21710785D01*
D11*
X48000000Y28800000D02*
X46075000Y28800000D01*
D10*
X5979215Y22910785D02*
X5975000Y22915000D01*
D10*
X47600000Y23200000D02*
X45949999Y23200000D01*
D12*
X4665000Y21315000D02*
X4600000Y21250000D01*
D12*
X5975000Y22515000D02*
X4615000Y22515000D01*
D12*
X7065000Y28515000D02*
X7550000Y29000000D01*
D12*
X7065000Y24515000D02*
X7300000Y24750000D01*
D10*
X5979215Y4719215D02*
X5975000Y4715000D01*
D11*
X45400000Y7000000D02*
X45000000Y7400000D01*
D11*
X45300000Y6200000D02*
X47800000Y6200000D01*
D10*
X13265411Y4404215D02*
X12380411Y3519215D01*
D12*
X5975000Y5115000D02*
X4815000Y5115000D01*
D12*
X7035000Y7915000D02*
X7300000Y7650000D01*
D12*
X5975000Y9115000D02*
X8015000Y9115000D01*
D12*
X4715000Y7515000D02*
X4600000Y7400000D01*
D12*
X5975000Y7515000D02*
X4715000Y7515000D01*
D11*
X48000000Y3000000D02*
X46075000Y3000000D01*
D10*
X45949999Y8600000D02*
X45754214Y8795785D01*
D12*
X5975000Y7915000D02*
X7035000Y7915000D01*
D10*
X47600000Y3800000D02*
X45949999Y3800000D01*
D10*
X13434589Y3995785D02*
X12549589Y3110785D01*
D12*
X4615000Y3915000D02*
X4600000Y3900000D01*
D12*
X5975000Y6715000D02*
X8365000Y6715000D01*
D10*
X10580411Y4719215D02*
X5979215Y4719215D01*
D10*
X45949999Y3800000D02*
X45754214Y3995785D01*
D12*
X6815000Y9915000D02*
X7065000Y9915000D01*
D12*
X7635000Y8315000D02*
X7885000Y8315000D01*
D11*
X48000000Y7800000D02*
X46075000Y7800000D01*
D12*
X8550000Y7900000D02*
X9050000Y8400000D01*
D10*
X5979215Y3110785D02*
X5975000Y3115000D01*
D11*
X44000000Y5900000D02*
X43000000Y5900000D01*
D12*
X4765000Y6315000D02*
X4600000Y6150000D01*
D10*
X45754214Y3995785D02*
X13434589Y3995785D01*
D10*
X45949999Y9400000D02*
X45754214Y9204215D01*
D12*
X8050000Y8150000D02*
X8300000Y7900000D01*
D12*
X5975000Y9515000D02*
X7415000Y9515000D01*
D12*
X5975000Y8715000D02*
X8235000Y8715000D01*
D10*
X45754214Y8795785D02*
X15234589Y8795785D01*
D10*
X12380411Y3519215D02*
X5979215Y3519215D01*
D12*
X5975000Y9915000D02*
X6815000Y9915000D01*
D11*
X48000000Y5400000D02*
X46075000Y5400000D01*
D12*
X5975000Y2715000D02*
X4665000Y2715000D01*
D10*
X15065411Y9204215D02*
X10580411Y4719215D01*
D12*
X8235000Y8715000D02*
X8300000Y8650000D01*
D10*
X10749589Y4310785D02*
X5979215Y4310785D01*
D10*
X45754214Y9204215D02*
X15065411Y9204215D01*
D12*
X5975000Y6315000D02*
X4765000Y6315000D01*
D11*
X47800000Y7000000D02*
X45400000Y7000000D01*
D12*
X7885000Y8315000D02*
X8050000Y8150000D01*
D11*
X44000000Y5900000D02*
X45000000Y5900000D01*
D12*
X7185000Y5515000D02*
X7300000Y5400000D01*
D11*
X44000000Y7400000D02*
X43000000Y7400000D01*
D10*
X45949999Y4600000D02*
X45754214Y4404215D01*
D10*
X5979215Y3519215D02*
X5975000Y3515000D01*
D12*
X8300000Y7900000D02*
X8550000Y7900000D01*
D12*
X8365000Y6715000D02*
X8550000Y6900000D01*
D12*
X5975000Y7115000D02*
X7765000Y7115000D01*
D10*
X45754214Y4404215D02*
X13265411Y4404215D01*
D11*
X45000000Y7400000D02*
X44000000Y7400000D01*
D12*
X8015000Y9115000D02*
X8300000Y9400000D01*
D10*
X15234589Y8795785D02*
X10749589Y4310785D01*
D12*
X4815000Y5115000D02*
X4600000Y4900000D01*
D12*
X5975000Y8315000D02*
X7635000Y8315000D01*
D12*
X7765000Y7115000D02*
X8050000Y7400000D01*
D12*
X5975000Y5915000D02*
X7065000Y5915000D01*
D12*
X5975000Y5515000D02*
X7185000Y5515000D01*
D10*
X47600000Y9400000D02*
X45949999Y9400000D01*
D10*
X47600000Y8600000D02*
X45949999Y8600000D01*
D12*
X7415000Y9515000D02*
X7550000Y9650000D01*
D11*
X45000000Y5900000D02*
X45300000Y6200000D01*
D10*
X12549589Y3110785D02*
X5979215Y3110785D01*
D11*
X48000000Y10200000D02*
X46075000Y10200000D01*
D10*
X5979215Y4310785D02*
X5975000Y4315000D01*
D10*
X47600000Y4600000D02*
X45949999Y4600000D01*
D12*
X4665000Y2715000D02*
X4600000Y2650000D01*
D12*
X5975000Y3915000D02*
X4615000Y3915000D01*
D12*
X7065000Y9915000D02*
X7550000Y10400000D01*
D12*
X7065000Y5915000D02*
X7300000Y6150000D01*
G75*
D13*
X47800000Y44200000D03*
D14*
X47600000Y45800000D03*
D15*
X48000000Y42600000D03*
D14*
X47600000Y41000000D03*
D15*
X48000000Y40200000D03*
D14*
X47600000Y46600000D03*
D13*
X47800000Y43400000D03*
D15*
X48000000Y45000000D03*
D14*
X47600000Y41800000D03*
D15*
X48000000Y47400000D03*
D16*
X44000000Y43100000D03*
D16*
X44000000Y44600000D03*
D17*
X5975000Y41115000D03*
D17*
X5975000Y40715000D03*
D18*
X1600000Y38175000D03*
D17*
X5975000Y46715000D03*
D17*
X5975000Y43115000D03*
D17*
X5975000Y42715000D03*
D19*
X5550000Y38175000D03*
D17*
X5975000Y43915000D03*
D17*
X5975000Y43515000D03*
D17*
X5975000Y45115000D03*
D17*
X5975000Y44315000D03*
D17*
X5975000Y39915000D03*
D17*
X5975000Y47115000D03*
D19*
X5550000Y49025000D03*
D17*
X5975000Y46315000D03*
D17*
X5975000Y42315000D03*
D17*
X5975000Y45515000D03*
D17*
X5975000Y41515000D03*
D17*
X5975000Y40315000D03*
D17*
X5975000Y44715000D03*
D17*
X5975000Y41915000D03*
D18*
X1600000Y49025000D03*
D17*
X5975000Y45915000D03*
D20*
X4600000Y41100000D03*
D20*
X4600000Y42100000D03*
D20*
X4600000Y43350000D03*
D20*
X8300000Y46600000D03*
D20*
X46075000Y45000000D03*
D20*
X9050000Y45600000D03*
D20*
X43000000Y44600000D03*
D20*
X4600000Y44600000D03*
D20*
X8550000Y44100000D03*
D20*
X43000000Y43100000D03*
D20*
X46075000Y42600000D03*
D20*
X46075000Y47400000D03*
D20*
X7300000Y43350000D03*
D20*
X7300000Y44850000D03*
D20*
X8300000Y45850000D03*
D20*
X4600000Y39850000D03*
D20*
X46075000Y40200000D03*
D20*
X7300000Y42600000D03*
D20*
X7550000Y46850000D03*
D20*
X8050000Y44600000D03*
D20*
X7550000Y47600000D03*
D13*
X47800000Y25600000D03*
D14*
X47600000Y27200000D03*
D15*
X48000000Y24000000D03*
D14*
X47600000Y22400000D03*
D15*
X48000000Y21600000D03*
D14*
X47600000Y28000000D03*
D13*
X47800000Y24800000D03*
D15*
X48000000Y26400000D03*
D14*
X47600000Y23200000D03*
D15*
X48000000Y28800000D03*
D16*
X44000000Y24500000D03*
D16*
X44000000Y26000000D03*
D17*
X5975000Y22515000D03*
D17*
X5975000Y22115000D03*
D18*
X1600000Y19575000D03*
D17*
X5975000Y28115000D03*
D17*
X5975000Y24515000D03*
D17*
X5975000Y24115000D03*
D19*
X5550000Y19575000D03*
D17*
X5975000Y25315000D03*
D17*
X5975000Y24915000D03*
D17*
X5975000Y26515000D03*
D17*
X5975000Y25715000D03*
D17*
X5975000Y21315000D03*
D17*
X5975000Y28515000D03*
D19*
X5550000Y30425000D03*
D17*
X5975000Y27715000D03*
D17*
X5975000Y23715000D03*
D17*
X5975000Y26915000D03*
D17*
X5975000Y22915000D03*
D17*
X5975000Y21715000D03*
D17*
X5975000Y26115000D03*
D17*
X5975000Y23315000D03*
D18*
X1600000Y30425000D03*
D17*
X5975000Y27315000D03*
D20*
X4600000Y22500000D03*
D20*
X4600000Y23500000D03*
D20*
X4600000Y24750000D03*
D20*
X8300000Y28000000D03*
D20*
X46075000Y26400000D03*
D20*
X9050000Y27000000D03*
D20*
X43000000Y26000000D03*
D20*
X4600000Y26000000D03*
D20*
X8550000Y25500000D03*
D20*
X43000000Y24500000D03*
D20*
X46075000Y24000000D03*
D20*
X46075000Y28800000D03*
D20*
X7300000Y24750000D03*
D20*
X7300000Y26250000D03*
D20*
X8300000Y27250000D03*
D20*
X4600000Y21250000D03*
D20*
X46075000Y21600000D03*
D20*
X7300000Y24000000D03*
D20*
X7550000Y28250000D03*
D20*
X8050000Y26000000D03*
D20*
X7550000Y29000000D03*
D13*
X47800000Y7000000D03*
D14*
X47600000Y8600000D03*
D15*
X48000000Y5400000D03*
D14*
X47600000Y3800000D03*
D15*
X48000000Y3000000D03*
D14*
X47600000Y9400000D03*
D13*
X47800000Y6200000D03*
D15*
X48000000Y7800000D03*
D14*
X47600000Y4600000D03*
D15*
X48000000Y10200000D03*
D16*
X44000000Y5900000D03*
D16*
X44000000Y7400000D03*
D17*
X5975000Y3915000D03*
D17*
X5975000Y3515000D03*
D18*
X1600000Y975000D03*
D17*
X5975000Y9515000D03*
D17*
X5975000Y5915000D03*
D17*
X5975000Y5515000D03*
D19*
X5550000Y975000D03*
D17*
X5975000Y6715000D03*
D17*
X5975000Y6315000D03*
D17*
X5975000Y7915000D03*
D17*
X5975000Y7115000D03*
D17*
X5975000Y2715000D03*
D17*
X5975000Y9915000D03*
D19*
X5550000Y11825000D03*
D17*
X5975000Y9115000D03*
D17*
X5975000Y5115000D03*
D17*
X5975000Y8315000D03*
D17*
X5975000Y4315000D03*
D17*
X5975000Y3115000D03*
D17*
X5975000Y7515000D03*
D17*
X5975000Y4715000D03*
D18*
X1600000Y11825000D03*
D17*
X5975000Y8715000D03*
D20*
X4600000Y3900000D03*
D20*
X4600000Y4900000D03*
D20*
X4600000Y6150000D03*
D20*
X8300000Y9400000D03*
D20*
X46075000Y7800000D03*
D20*
X9050000Y8400000D03*
D20*
X43000000Y7400000D03*
D20*
X4600000Y7400000D03*
D20*
X8550000Y6900000D03*
D20*
X43000000Y5900000D03*
D20*
X46075000Y5400000D03*
D20*
X46075000Y10200000D03*
D20*
X7300000Y6150000D03*
D20*
X7300000Y7650000D03*
D20*
X8300000Y8650000D03*
D20*
X4600000Y2650000D03*
D20*
X46075000Y3000000D03*
D20*
X7300000Y5400000D03*
D20*
X7550000Y9650000D03*
D20*
X8050000Y7400000D03*
D20*
X7550000Y10400000D03*
M02*
