M48
FMAT,2
METRIC,TZ
T3C0.250
T1C0.380
T2C0.450
%
G90
G05
M71
T3
X4.600Y41.100
X4.600Y42.100
X4.600Y43.350
X8.300Y46.600
X46.075Y45.000
X9.050Y45.600
X43.000Y44.600
X4.600Y44.600
X8.550Y44.100
X43.000Y43.100
X46.075Y42.600
X46.075Y47.400
X7.300Y43.350
X7.300Y44.850
X8.300Y45.850
X4.600Y39.850
X46.075Y40.200
X7.300Y42.600
X7.550Y46.850
X8.050Y44.600
X7.550Y47.600
X4.600Y22.500
X4.600Y23.500
X4.600Y24.750
X8.300Y28.000
X46.075Y26.400
X9.050Y27.000
X43.000Y26.000
X4.600Y26.000
X8.550Y25.500
X43.000Y24.500
X46.075Y24.000
X46.075Y28.800
X7.300Y24.750
X7.300Y26.250
X8.300Y27.250
X4.600Y21.250
X46.075Y21.600
X7.300Y24.000
X7.550Y28.250
X8.050Y26.000
X7.550Y29.000
X4.600Y3.900
X4.600Y4.900
X4.600Y6.150
X8.300Y9.400
X46.075Y7.800
X9.050Y8.400
X43.000Y7.400
X4.600Y7.400
X8.550Y6.900
X43.000Y5.900
X46.075Y5.400
X46.075Y10.200
X7.300Y6.150
X7.300Y7.650
X8.300Y8.650
X4.600Y2.650
X46.075Y3.000
X7.300Y5.400
X7.550Y9.650
X8.050Y7.400
X7.550Y10.400
T1
X34.540Y30.010
X17.820Y38.590
X16.540Y19.990
X34.540Y19.990
X15.900Y11.410
X17.180Y38.590
X19.100Y30.010
X35.820Y19.990
X33.900Y30.010
X36.460Y30.010
X15.900Y19.990
X37.100Y30.010
X35.180Y11.410
X18.460Y30.010
X19.100Y38.590
X34.540Y11.410
X37.100Y19.990
X19.100Y19.990
X33.900Y11.410
X16.540Y38.590
X35.820Y38.590
X17.180Y11.410
X18.460Y11.410
X19.100Y11.410
X35.820Y30.010
X17.820Y30.010
X34.540Y38.590
X36.460Y19.990
X15.900Y30.010
X16.540Y30.010
X35.180Y19.990
X35.820Y11.410
X36.460Y11.410
X35.180Y30.010
X15.900Y38.590
X35.180Y38.590
X17.180Y30.010
X17.180Y19.990
X33.900Y38.590
X18.460Y19.990
X17.820Y19.990
X16.540Y11.410
X17.820Y11.410
X37.100Y11.410
X33.900Y19.990
X37.100Y38.590
X18.460Y38.590
X36.460Y38.590
T2
X1.175Y38.175G85X2.025Y38.175
X4.975Y38.175G85X6.125Y38.175
X4.975Y49.025G85X6.125Y49.025
X1.175Y49.025G85X2.025Y49.025
X1.175Y19.575G85X2.025Y19.575
X4.975Y19.575G85X6.125Y19.575
X4.975Y30.425G85X6.125Y30.425
X1.175Y30.425G85X2.025Y30.425
X1.175Y0.975G85X2.025Y0.975
X4.975Y0.975G85X6.125Y0.975
X4.975Y11.825G85X6.125Y11.825
X1.175Y11.825G85X2.025Y11.825
M30
