%FSLAX46Y46*%
%MOMM*%
%AMPS11*
21,1,0.220000,1.250000,0.000000,0.000000,270.000000*
%
%ADD11PS11*%
%AMPS10*
1,1,0.240000,0.330000,-0.130000*
1,1,0.240000,-0.330000,-0.130000*
21,1,0.500000,0.660000,0.000000,0.000000,90.000000*
21,1,0.260000,0.900000,0.000000,0.000000,90.000000*
1,1,0.240000,0.330000,0.130000*
1,1,0.240000,-0.330000,0.130000*
%
%ADD10PS10*%
G01*
%LPD*%
G01*
%LPD*%
G75*
D10*
X44000000Y43100000D03*
D10*
X44000000Y44600000D03*
D11*
X5975000Y41115000D03*
D11*
X5975000Y40715000D03*
D11*
X5975000Y46715000D03*
D11*
X5975000Y43115000D03*
D11*
X5975000Y42715000D03*
D11*
X5975000Y43915000D03*
D11*
X5975000Y43515000D03*
D11*
X5975000Y45115000D03*
D11*
X5975000Y44315000D03*
D11*
X5975000Y39915000D03*
D11*
X5975000Y47115000D03*
D11*
X5975000Y46315000D03*
D11*
X5975000Y42315000D03*
D11*
X5975000Y45515000D03*
D11*
X5975000Y41515000D03*
D11*
X5975000Y40315000D03*
D11*
X5975000Y44715000D03*
D11*
X5975000Y41915000D03*
D11*
X5975000Y45915000D03*
D10*
X44000000Y24500000D03*
D10*
X44000000Y26000000D03*
D11*
X5975000Y22515000D03*
D11*
X5975000Y22115000D03*
D11*
X5975000Y28115000D03*
D11*
X5975000Y24515000D03*
D11*
X5975000Y24115000D03*
D11*
X5975000Y25315000D03*
D11*
X5975000Y24915000D03*
D11*
X5975000Y26515000D03*
D11*
X5975000Y25715000D03*
D11*
X5975000Y21315000D03*
D11*
X5975000Y28515000D03*
D11*
X5975000Y27715000D03*
D11*
X5975000Y23715000D03*
D11*
X5975000Y26915000D03*
D11*
X5975000Y22915000D03*
D11*
X5975000Y21715000D03*
D11*
X5975000Y26115000D03*
D11*
X5975000Y23315000D03*
D11*
X5975000Y27315000D03*
D10*
X44000000Y5900000D03*
D10*
X44000000Y7400000D03*
D11*
X5975000Y3915000D03*
D11*
X5975000Y3515000D03*
D11*
X5975000Y9515000D03*
D11*
X5975000Y5915000D03*
D11*
X5975000Y5515000D03*
D11*
X5975000Y6715000D03*
D11*
X5975000Y6315000D03*
D11*
X5975000Y7915000D03*
D11*
X5975000Y7115000D03*
D11*
X5975000Y2715000D03*
D11*
X5975000Y9915000D03*
D11*
X5975000Y9115000D03*
D11*
X5975000Y5115000D03*
D11*
X5975000Y8315000D03*
D11*
X5975000Y4315000D03*
D11*
X5975000Y3115000D03*
D11*
X5975000Y7515000D03*
D11*
X5975000Y4715000D03*
D11*
X5975000Y8715000D03*
M02*
