%FSLAX46Y46*%
%MOMM*%
%AMPS10*
1,1,0.240000,-0.130000,0.330000*
1,1,0.240000,-0.130000,-0.330000*
21,1,0.500000,0.660000,0.000000,0.000000,180.000000*
21,1,0.260000,0.900000,0.000000,0.000000,180.000000*
1,1,0.240000,0.130000,0.330000*
1,1,0.240000,0.130000,-0.330000*
%
%ADD10PS10*%
G01*
%LPD*%
G01*
%LPD*%
G75*
D10*
X21310000Y77057500D03*
D10*
X22810000Y77057500D03*
D10*
X21310000Y94837500D03*
D10*
X22810000Y94837500D03*
D10*
X21310000Y82137500D03*
D10*
X22810000Y82137500D03*
D10*
X21310000Y92297500D03*
D10*
X22810000Y92297500D03*
D10*
X21310000Y89757500D03*
D10*
X22810000Y89757500D03*
D10*
X21310000Y71977500D03*
D10*
X22810000Y71977500D03*
D10*
X21310000Y79597500D03*
D10*
X22810000Y79597500D03*
D10*
X21310000Y87217500D03*
D10*
X22810000Y87217500D03*
D10*
X21310000Y84677500D03*
D10*
X22810000Y84677500D03*
D10*
X21310000Y74517500D03*
D10*
X22810000Y74517500D03*
D10*
X21310000Y27057500D03*
D10*
X22810000Y27057500D03*
D10*
X21310000Y44837500D03*
D10*
X22810000Y44837500D03*
D10*
X21310000Y32137500D03*
D10*
X22810000Y32137500D03*
D10*
X21310000Y42297500D03*
D10*
X22810000Y42297500D03*
D10*
X21310000Y39757500D03*
D10*
X22810000Y39757500D03*
D10*
X21310000Y21977500D03*
D10*
X22810000Y21977500D03*
D10*
X21310000Y29597500D03*
D10*
X22810000Y29597500D03*
D10*
X21310000Y37217500D03*
D10*
X22810000Y37217500D03*
D10*
X21310000Y34677500D03*
D10*
X22810000Y34677500D03*
D10*
X21310000Y24517500D03*
D10*
X22810000Y24517500D03*
M02*
