%FSLAX46Y46*%
%MOMM*%
%ADD11C,0.205230*%
%ADD10C,0.250000*%
%AMPS12*
1,1,1.700000,0.000000,0.000000*
%
%ADD12PS12*%
%AMPS13*
1,1,1.700000,0.000000,0.000000*
%
%ADD13PS13*%
%AMPS17*
1,1,1.700000,0.000000,0.000000*
%
%ADD17PS17*%
%AMPS19*
1,1,0.500000,0.000000,0.000000*
%
%ADD19PS19*%
%AMPS15*
21,1,1.800000,1.500000,0.000000,0.000000,0.000000*
1,1,1.500000,0.900000,0.000000*
1,1,1.500000,-0.900000,0.000000*
%
%ADD15PS15*%
%AMPS16*
21,1,0.800000,1.500000,0.000000,0.000000,0.000000*
1,1,1.500000,0.400000,0.000000*
1,1,1.500000,-0.400000,0.000000*
%
%ADD16PS16*%
%AMPS14*
1,1,0.240000,0.130000,0.330000*
1,1,0.240000,-0.130000,-0.330000*
1,1,0.240000,0.130000,-0.330000*
21,1,0.500000,0.660000,0.000000,0.000000,180.000000*
21,1,0.260000,0.900000,0.000000,0.000000,180.000000*
1,1,0.240000,-0.130000,0.330000*
%
%ADD14PS14*%
%AMPS18*
21,1,2.000000,2.000000,0.000000,0.000000,180.000000*
%
%ADD18PS18*%
G01*
%LPD*%
G01*
%LPD*%
D10*
X38985000Y68062500D02*
X33590000Y73457500D01*
D11*
X17645785Y69038369D02*
X17645785Y68542089D01*
D11*
X28174589Y74253285D02*
X27794215Y73872911D01*
D10*
X21310000Y92297500D02*
X21310000Y92182500D01*
D10*
X38090000Y79707500D02*
X37590000Y80207500D01*
D10*
X22810000Y71977500D02*
X22810000Y71862500D01*
D10*
X42190000Y72062500D02*
X41485000Y72062500D01*
D10*
X35340000Y75707500D02*
X36840000Y77207500D01*
D10*
X42190000Y72862500D02*
X41390000Y72862500D01*
D11*
X14495785Y68003285D02*
X14934589Y68003285D01*
D10*
X40785000Y71262500D02*
X38090000Y73957500D01*
D10*
X22810000Y84562500D02*
X23330000Y84042500D01*
D11*
X30294215Y74042089D02*
X29674589Y74661715D01*
D11*
X29090000Y73212500D02*
X29235785Y73066715D01*
D10*
X22810000Y87217500D02*
X22810000Y87102500D01*
D10*
X38340000Y80457500D02*
X38340000Y81957500D01*
D11*
X18054215Y69207547D02*
X18054215Y68372911D01*
D10*
X22810000Y71862500D02*
X23330000Y71342500D01*
D10*
X34090000Y73707500D02*
X38935000Y68862500D01*
D10*
X21310000Y74517500D02*
X21310000Y74402500D01*
D11*
X14495785Y66911715D02*
X14350000Y67057500D01*
D10*
X21310000Y79482500D02*
X20790000Y78962500D01*
D10*
X33590000Y73457500D02*
X33590000Y73957500D01*
D11*
X29235785Y73066715D02*
X29660411Y73066715D01*
D11*
X27794215Y73872911D02*
X27794215Y68335443D01*
D10*
X13100000Y75457500D02*
X17215000Y71342500D01*
D10*
X38590000Y74957500D02*
X38590000Y80207500D01*
D10*
X22810000Y74402500D02*
X23330000Y73882500D01*
D11*
X27794215Y68335443D02*
X25962057Y66503285D01*
D11*
X29505411Y74253285D02*
X28174589Y74253285D01*
D10*
X41390000Y72862500D02*
X39090000Y75162500D01*
D11*
X15002818Y68649122D02*
X15002818Y69149122D01*
D10*
X21310000Y82022500D02*
X20790000Y81502500D01*
D10*
X21310000Y87217500D02*
X21310000Y87102500D01*
D11*
X29090000Y72512500D02*
X29235785Y72658285D01*
D10*
X35340000Y74207500D02*
X35340000Y75707500D01*
D10*
X21310000Y87102500D02*
X20790000Y86582500D01*
D10*
X21310000Y79597500D02*
X21310000Y79482500D01*
D10*
X21310000Y94722500D02*
X20790000Y94202500D01*
D10*
X38935000Y68862500D02*
X42190000Y68862500D01*
D10*
X22810000Y79597500D02*
X22810000Y79482500D01*
D10*
X39085000Y70462500D02*
X35340000Y74207500D01*
D11*
X15411248Y68979944D02*
X15684589Y69253285D01*
D10*
X22810000Y82137500D02*
X22810000Y82022500D01*
D10*
X38590000Y80207500D02*
X38340000Y80457500D01*
D10*
X33590000Y73957500D02*
X29340000Y78207500D01*
D11*
X18054215Y68372911D02*
X17539589Y67858285D01*
D10*
X21310000Y71862500D02*
X20790000Y71342500D01*
D10*
X41090000Y74762500D02*
X42190000Y73662500D01*
D10*
X21310000Y84562500D02*
X20790000Y84042500D01*
D10*
X36840000Y77207500D02*
X36840000Y84207500D01*
D10*
X34840000Y75957500D02*
X36090000Y77207500D01*
D10*
X21310000Y89757500D02*
X21310000Y89642500D01*
D11*
X29660411Y73066715D02*
X29885785Y73292089D01*
D10*
X22810000Y94837500D02*
X22810000Y94722500D01*
D10*
X22810000Y84677500D02*
X22810000Y84562500D01*
D10*
X21310000Y94837500D02*
X21310000Y94722500D01*
D11*
X17600047Y69661715D02*
X18054215Y69207547D01*
D11*
X15515411Y69661715D02*
X17600047Y69661715D01*
D11*
X27385785Y74042089D02*
X27385785Y68512651D01*
D11*
X14350000Y68557500D02*
X14495785Y68411715D01*
D11*
X29235785Y72658285D02*
X29829589Y72658285D01*
D10*
X42190000Y71262500D02*
X40785000Y71262500D01*
D10*
X17215000Y71342500D02*
X20790000Y71342500D01*
D10*
X21310000Y82137500D02*
X21310000Y82022500D01*
D10*
X22810000Y77057500D02*
X22810000Y76942500D01*
D10*
X34090000Y83457500D02*
X34090000Y73707500D01*
D10*
X21310000Y74402500D02*
X20790000Y73882500D01*
D11*
X15002818Y69149122D02*
X15515411Y69661715D01*
D11*
X27385785Y68512651D02*
X25784849Y66911715D01*
D11*
X16745785Y67858285D02*
X16600000Y67712500D01*
D11*
X14495785Y66503285D02*
X14350000Y66357500D01*
D10*
X21310000Y76942500D02*
X20790000Y76422500D01*
D11*
X14350000Y67857500D02*
X14495785Y68003285D01*
D11*
X14934589Y68003285D02*
X15411248Y68479944D01*
D10*
X39135000Y69662500D02*
X34840000Y73957500D01*
D11*
X29829589Y72658285D02*
X30294215Y73122911D01*
D10*
X22810000Y82022500D02*
X23330000Y81502500D01*
D10*
X21310000Y71977500D02*
X21310000Y71862500D01*
D11*
X16745785Y68266715D02*
X16600000Y68412500D01*
D10*
X36090000Y77207500D02*
X36090000Y84957500D01*
D10*
X38090000Y73957500D02*
X38090000Y79707500D01*
D10*
X21310000Y84677500D02*
X21310000Y84562500D01*
D10*
X21310000Y77057500D02*
X21310000Y76942500D01*
D11*
X29674589Y74661715D02*
X28005411Y74661715D01*
D10*
X21310000Y89642500D02*
X20790000Y89122500D01*
D11*
X15684589Y69253285D02*
X17430869Y69253285D01*
D10*
X22810000Y76942500D02*
X23330000Y76422500D01*
D11*
X14495785Y68411715D02*
X14765411Y68411715D01*
D10*
X29340000Y78207500D02*
X29340000Y89457500D01*
D11*
X29885785Y73292089D02*
X29885785Y73872911D01*
D11*
X14765411Y68411715D02*
X15002818Y68649122D01*
D11*
X29885785Y73872911D02*
X29505411Y74253285D01*
D11*
X28005411Y74661715D02*
X27385785Y74042089D01*
D11*
X17430869Y69253285D02*
X17645785Y69038369D01*
D10*
X21310000Y92182500D02*
X20790000Y91662500D01*
D11*
X30294215Y73122911D02*
X30294215Y74042089D01*
D10*
X42190000Y69662500D02*
X39135000Y69662500D01*
D10*
X42190000Y70462500D02*
X39085000Y70462500D01*
D10*
X22810000Y89757500D02*
X22810000Y89642500D01*
D10*
X41090000Y80207500D02*
X41090000Y74762500D01*
D11*
X15411248Y68479944D02*
X15411248Y68979944D01*
D11*
X17539589Y67858285D02*
X16745785Y67858285D01*
D11*
X17370411Y68266715D02*
X16745785Y68266715D01*
D10*
X22810000Y74517500D02*
X22810000Y74402500D01*
D11*
X17645785Y68542089D02*
X17370411Y68266715D01*
D10*
X42190000Y68062500D02*
X38985000Y68062500D01*
D10*
X41485000Y72062500D02*
X38590000Y74957500D01*
D10*
X39090000Y75162500D02*
X39090000Y81207500D01*
D10*
X22810000Y94722500D02*
X23330000Y94202500D01*
D10*
X22810000Y89642500D02*
X23330000Y89122500D01*
D11*
X25784849Y66911715D02*
X14495785Y66911715D01*
D11*
X25962057Y66503285D02*
X14495785Y66503285D01*
D10*
X37590000Y80207500D02*
X37590000Y82707500D01*
D10*
X22810000Y79482500D02*
X23330000Y78962500D01*
D10*
X22810000Y87102500D02*
X23330000Y86582500D01*
D10*
X34840000Y73957500D02*
X34840000Y75957500D01*
D10*
X22810000Y92182500D02*
X23330000Y91662500D01*
D10*
X22810000Y92297500D02*
X22810000Y92182500D01*
D10*
X38985000Y18062500D02*
X33590000Y23457500D01*
D11*
X17645785Y19038369D02*
X17645785Y18542089D01*
D11*
X28174589Y24253285D02*
X27794215Y23872911D01*
D10*
X21310000Y42297500D02*
X21310000Y42182500D01*
D10*
X38090000Y29707500D02*
X37590000Y30207500D01*
D10*
X22810000Y21977500D02*
X22810000Y21862500D01*
D10*
X42190000Y22062500D02*
X41485000Y22062500D01*
D10*
X35340000Y25707500D02*
X36840000Y27207500D01*
D10*
X42190000Y22862500D02*
X41390000Y22862500D01*
D11*
X14495785Y18003285D02*
X14934589Y18003285D01*
D10*
X40785000Y21262500D02*
X38090000Y23957500D01*
D10*
X22810000Y34562500D02*
X23330000Y34042500D01*
D11*
X30294215Y24042089D02*
X29674589Y24661715D01*
D11*
X29090000Y23212500D02*
X29235785Y23066715D01*
D10*
X22810000Y37217500D02*
X22810000Y37102500D01*
D10*
X38340000Y30457500D02*
X38340000Y31957500D01*
D11*
X18054215Y19207547D02*
X18054215Y18372911D01*
D10*
X22810000Y21862500D02*
X23330000Y21342500D01*
D10*
X34090000Y23707500D02*
X38935000Y18862500D01*
D10*
X21310000Y24517500D02*
X21310000Y24402500D01*
D11*
X14495785Y16911715D02*
X14350000Y17057500D01*
D10*
X21310000Y29482500D02*
X20790000Y28962500D01*
D10*
X33590000Y23457500D02*
X33590000Y23957500D01*
D11*
X29235785Y23066715D02*
X29660411Y23066715D01*
D11*
X27794215Y23872911D02*
X27794215Y18335443D01*
D10*
X13100000Y25457500D02*
X17215000Y21342500D01*
D10*
X38590000Y24957500D02*
X38590000Y30207500D01*
D10*
X22810000Y24402500D02*
X23330000Y23882500D01*
D11*
X27794215Y18335443D02*
X25962057Y16503285D01*
D11*
X29505411Y24253285D02*
X28174589Y24253285D01*
D10*
X41390000Y22862500D02*
X39090000Y25162500D01*
D11*
X15002818Y18649122D02*
X15002818Y19149122D01*
D10*
X21310000Y32022500D02*
X20790000Y31502500D01*
D10*
X21310000Y37217500D02*
X21310000Y37102500D01*
D11*
X29090000Y22512500D02*
X29235785Y22658285D01*
D10*
X35340000Y24207500D02*
X35340000Y25707500D01*
D10*
X21310000Y37102500D02*
X20790000Y36582500D01*
D10*
X21310000Y29597500D02*
X21310000Y29482500D01*
D10*
X21310000Y44722500D02*
X20790000Y44202500D01*
D10*
X38935000Y18862500D02*
X42190000Y18862500D01*
D10*
X22810000Y29597500D02*
X22810000Y29482500D01*
D10*
X39085000Y20462500D02*
X35340000Y24207500D01*
D11*
X15411248Y18979944D02*
X15684589Y19253285D01*
D10*
X22810000Y32137500D02*
X22810000Y32022500D01*
D10*
X38590000Y30207500D02*
X38340000Y30457500D01*
D10*
X33590000Y23957500D02*
X29340000Y28207500D01*
D11*
X18054215Y18372911D02*
X17539589Y17858285D01*
D10*
X21310000Y21862500D02*
X20790000Y21342500D01*
D10*
X41090000Y24762500D02*
X42190000Y23662500D01*
D10*
X21310000Y34562500D02*
X20790000Y34042500D01*
D10*
X36840000Y27207500D02*
X36840000Y34207500D01*
D10*
X34840000Y25957500D02*
X36090000Y27207500D01*
D10*
X21310000Y39757500D02*
X21310000Y39642500D01*
D11*
X29660411Y23066715D02*
X29885785Y23292089D01*
D10*
X22810000Y44837500D02*
X22810000Y44722500D01*
D10*
X22810000Y34677500D02*
X22810000Y34562500D01*
D10*
X21310000Y44837500D02*
X21310000Y44722500D01*
D11*
X17600047Y19661715D02*
X18054215Y19207547D01*
D11*
X15515411Y19661715D02*
X17600047Y19661715D01*
D11*
X27385785Y24042089D02*
X27385785Y18512651D01*
D11*
X14350000Y18557500D02*
X14495785Y18411715D01*
D11*
X29235785Y22658285D02*
X29829589Y22658285D01*
D10*
X42190000Y21262500D02*
X40785000Y21262500D01*
D10*
X17215000Y21342500D02*
X20790000Y21342500D01*
D10*
X21310000Y32137500D02*
X21310000Y32022500D01*
D10*
X22810000Y27057500D02*
X22810000Y26942500D01*
D10*
X34090000Y33457500D02*
X34090000Y23707500D01*
D10*
X21310000Y24402500D02*
X20790000Y23882500D01*
D11*
X15002818Y19149122D02*
X15515411Y19661715D01*
D11*
X27385785Y18512651D02*
X25784849Y16911715D01*
D11*
X16745785Y17858285D02*
X16600000Y17712500D01*
D11*
X14495785Y16503285D02*
X14350000Y16357500D01*
D10*
X21310000Y26942500D02*
X20790000Y26422500D01*
D11*
X14350000Y17857500D02*
X14495785Y18003285D01*
D11*
X14934589Y18003285D02*
X15411248Y18479944D01*
D10*
X39135000Y19662500D02*
X34840000Y23957500D01*
D11*
X29829589Y22658285D02*
X30294215Y23122911D01*
D10*
X22810000Y32022500D02*
X23330000Y31502500D01*
D10*
X21310000Y21977500D02*
X21310000Y21862500D01*
D11*
X16745785Y18266715D02*
X16600000Y18412500D01*
D10*
X36090000Y27207500D02*
X36090000Y34957500D01*
D10*
X38090000Y23957500D02*
X38090000Y29707500D01*
D10*
X21310000Y34677500D02*
X21310000Y34562500D01*
D10*
X21310000Y27057500D02*
X21310000Y26942500D01*
D11*
X29674589Y24661715D02*
X28005411Y24661715D01*
D10*
X21310000Y39642500D02*
X20790000Y39122500D01*
D11*
X15684589Y19253285D02*
X17430869Y19253285D01*
D10*
X22810000Y26942500D02*
X23330000Y26422500D01*
D11*
X14495785Y18411715D02*
X14765411Y18411715D01*
D10*
X29340000Y28207500D02*
X29340000Y39457500D01*
D11*
X29885785Y23292089D02*
X29885785Y23872911D01*
D11*
X14765411Y18411715D02*
X15002818Y18649122D01*
D11*
X29885785Y23872911D02*
X29505411Y24253285D01*
D11*
X28005411Y24661715D02*
X27385785Y24042089D01*
D11*
X17430869Y19253285D02*
X17645785Y19038369D01*
D10*
X21310000Y42182500D02*
X20790000Y41662500D01*
D11*
X30294215Y23122911D02*
X30294215Y24042089D01*
D10*
X42190000Y19662500D02*
X39135000Y19662500D01*
D10*
X42190000Y20462500D02*
X39085000Y20462500D01*
D10*
X22810000Y39757500D02*
X22810000Y39642500D01*
D10*
X41090000Y30207500D02*
X41090000Y24762500D01*
D11*
X15411248Y18479944D02*
X15411248Y18979944D01*
D11*
X17539589Y17858285D02*
X16745785Y17858285D01*
D11*
X17370411Y18266715D02*
X16745785Y18266715D01*
D10*
X22810000Y24517500D02*
X22810000Y24402500D01*
D11*
X17645785Y18542089D02*
X17370411Y18266715D01*
D10*
X42190000Y18062500D02*
X38985000Y18062500D01*
D10*
X41485000Y22062500D02*
X38590000Y24957500D01*
D10*
X39090000Y25162500D02*
X39090000Y31207500D01*
D10*
X22810000Y44722500D02*
X23330000Y44202500D01*
D10*
X22810000Y39642500D02*
X23330000Y39122500D01*
D11*
X25784849Y16911715D02*
X14495785Y16911715D01*
D11*
X25962057Y16503285D02*
X14495785Y16503285D01*
D10*
X37590000Y30207500D02*
X37590000Y32707500D01*
D10*
X22810000Y29482500D02*
X23330000Y28962500D01*
D10*
X22810000Y37102500D02*
X23330000Y36582500D01*
D10*
X34840000Y23957500D02*
X34840000Y25957500D01*
D10*
X22810000Y42182500D02*
X23330000Y41662500D01*
D10*
X22810000Y42297500D02*
X22810000Y42182500D01*
G75*
D12*
X25870000Y94202500D03*
D13*
X20790000Y73882500D03*
D13*
X23330000Y73882500D03*
D12*
X25870000Y84042500D03*
D14*
X21310000Y77057500D03*
D14*
X22810000Y77057500D03*
D14*
X21310000Y94837500D03*
D14*
X22810000Y94837500D03*
D14*
X21310000Y82137500D03*
D14*
X22810000Y82137500D03*
D12*
X25870000Y76422500D03*
D13*
X20790000Y81502500D03*
D13*
X23330000Y81502500D03*
D13*
X20790000Y84042500D03*
D13*
X23330000Y84042500D03*
D13*
X20790000Y71342500D03*
D13*
X23330000Y71342500D03*
D15*
X10460000Y63457500D03*
D15*
X10460000Y77957500D03*
D16*
X4500000Y77957500D03*
D16*
X4500000Y63457500D03*
D14*
X21310000Y92297500D03*
D14*
X22810000Y92297500D03*
D13*
X20790000Y76422500D03*
D13*
X23330000Y76422500D03*
D12*
X25870000Y89122500D03*
D17*
X25870000Y96742500D03*
D17*
X23330000Y96742500D03*
D17*
X20790000Y96742500D03*
D14*
X21310000Y89757500D03*
D14*
X22810000Y89757500D03*
D12*
X25870000Y73882500D03*
D14*
X21310000Y71977500D03*
D14*
X22810000Y71977500D03*
D12*
X25870000Y78962500D03*
D12*
X25870000Y71342500D03*
D12*
X25870000Y81502500D03*
D14*
X21310000Y79597500D03*
D14*
X22810000Y79597500D03*
D13*
X20790000Y91662500D03*
D13*
X23330000Y91662500D03*
D13*
X20790000Y94202500D03*
D13*
X23330000Y94202500D03*
D14*
X21310000Y87217500D03*
D14*
X22810000Y87217500D03*
D14*
X21310000Y84677500D03*
D14*
X22810000Y84677500D03*
D13*
X20790000Y86582500D03*
D13*
X23330000Y86582500D03*
D13*
X20790000Y89122500D03*
D13*
X23330000Y89122500D03*
D12*
X25870000Y86582500D03*
D14*
X21310000Y74517500D03*
D14*
X22810000Y74517500D03*
D13*
X20790000Y78962500D03*
D13*
X23330000Y78962500D03*
D18*
X52590000Y77832500D03*
D18*
X62590000Y77832500D03*
D18*
X37590000Y63582500D03*
D18*
X47590000Y74662500D03*
D18*
X42590000Y77832500D03*
D18*
X47590000Y63582500D03*
D18*
X47590000Y69262500D03*
D18*
X67590000Y72162500D03*
D18*
X32590000Y77832500D03*
D18*
X57590000Y63582500D03*
D18*
X67590000Y63582500D03*
D12*
X25870000Y91662500D03*
D19*
X42190000Y68062500D03*
D19*
X16600000Y67712500D03*
D19*
X42190000Y67262500D03*
D19*
X9350000Y71207500D03*
D19*
X42190000Y70462500D03*
D19*
X34090000Y83457500D03*
D19*
X14350000Y66357500D03*
D19*
X12850000Y66707500D03*
D19*
X14350000Y67057500D03*
D19*
X42190000Y69662500D03*
D19*
X12850000Y68207500D03*
D19*
X42190000Y74462500D03*
D19*
X31340000Y71682500D03*
D19*
X15950000Y68032500D03*
D19*
X29090000Y73212500D03*
D19*
X29090000Y72512500D03*
D19*
X42190000Y68862500D03*
D19*
X36840000Y84207500D03*
D19*
X14350000Y69307500D03*
D19*
X42190000Y71262500D03*
D19*
X41090000Y80207500D03*
D19*
X14350000Y65607500D03*
D19*
X36090000Y84957500D03*
D19*
X29340000Y89457500D03*
D19*
X42190000Y72862500D03*
D19*
X28415000Y72882500D03*
D19*
X31340000Y69257500D03*
D19*
X9350000Y68207500D03*
D19*
X15100000Y67457500D03*
D19*
X42190000Y72062500D03*
D19*
X42190000Y73662500D03*
D19*
X31340000Y66882500D03*
D19*
X9350000Y66707500D03*
D19*
X9350000Y69707500D03*
D19*
X9350000Y74207500D03*
D19*
X38340000Y81957500D03*
D19*
X39090000Y81207500D03*
D19*
X14350000Y68557500D03*
D19*
X37590000Y82707500D03*
D19*
X13625000Y67457500D03*
D19*
X29090000Y71757500D03*
D19*
X14350000Y67857500D03*
D19*
X16600000Y68412500D03*
D19*
X13100000Y75457500D03*
D19*
X31340000Y74057500D03*
D12*
X25870000Y44202500D03*
D13*
X20790000Y23882500D03*
D13*
X23330000Y23882500D03*
D12*
X25870000Y34042500D03*
D14*
X21310000Y27057500D03*
D14*
X22810000Y27057500D03*
D14*
X21310000Y44837500D03*
D14*
X22810000Y44837500D03*
D14*
X21310000Y32137500D03*
D14*
X22810000Y32137500D03*
D12*
X25870000Y26422500D03*
D13*
X20790000Y31502500D03*
D13*
X23330000Y31502500D03*
D13*
X20790000Y34042500D03*
D13*
X23330000Y34042500D03*
D13*
X20790000Y21342500D03*
D13*
X23330000Y21342500D03*
D15*
X10460000Y13457500D03*
D15*
X10460000Y27957500D03*
D16*
X4500000Y27957500D03*
D16*
X4500000Y13457500D03*
D14*
X21310000Y42297500D03*
D14*
X22810000Y42297500D03*
D13*
X20790000Y26422500D03*
D13*
X23330000Y26422500D03*
D12*
X25870000Y39122500D03*
D17*
X25870000Y46742500D03*
D17*
X23330000Y46742500D03*
D17*
X20790000Y46742500D03*
D14*
X21310000Y39757500D03*
D14*
X22810000Y39757500D03*
D12*
X25870000Y23882500D03*
D14*
X21310000Y21977500D03*
D14*
X22810000Y21977500D03*
D12*
X25870000Y28962500D03*
D12*
X25870000Y21342500D03*
D12*
X25870000Y31502500D03*
D14*
X21310000Y29597500D03*
D14*
X22810000Y29597500D03*
D13*
X20790000Y41662500D03*
D13*
X23330000Y41662500D03*
D13*
X20790000Y44202500D03*
D13*
X23330000Y44202500D03*
D14*
X21310000Y37217500D03*
D14*
X22810000Y37217500D03*
D14*
X21310000Y34677500D03*
D14*
X22810000Y34677500D03*
D13*
X20790000Y36582500D03*
D13*
X23330000Y36582500D03*
D13*
X20790000Y39122500D03*
D13*
X23330000Y39122500D03*
D12*
X25870000Y36582500D03*
D14*
X21310000Y24517500D03*
D14*
X22810000Y24517500D03*
D13*
X20790000Y28962500D03*
D13*
X23330000Y28962500D03*
D18*
X52590000Y27832500D03*
D18*
X62590000Y27832500D03*
D18*
X37590000Y13582500D03*
D18*
X47590000Y24662500D03*
D18*
X42590000Y27832500D03*
D18*
X47590000Y13582500D03*
D18*
X47590000Y19262500D03*
D18*
X67590000Y22162500D03*
D18*
X32590000Y27832500D03*
D18*
X57590000Y13582500D03*
D18*
X67590000Y13582500D03*
D12*
X25870000Y41662500D03*
D19*
X42190000Y18062500D03*
D19*
X16600000Y17712500D03*
D19*
X42190000Y17262500D03*
D19*
X9350000Y21207500D03*
D19*
X42190000Y20462500D03*
D19*
X34090000Y33457500D03*
D19*
X14350000Y16357500D03*
D19*
X12850000Y16707500D03*
D19*
X14350000Y17057500D03*
D19*
X42190000Y19662500D03*
D19*
X12850000Y18207500D03*
D19*
X42190000Y24462500D03*
D19*
X31340000Y21682500D03*
D19*
X15950000Y18032500D03*
D19*
X29090000Y23212500D03*
D19*
X29090000Y22512500D03*
D19*
X42190000Y18862500D03*
D19*
X36840000Y34207500D03*
D19*
X14350000Y19307500D03*
D19*
X42190000Y21262500D03*
D19*
X41090000Y30207500D03*
D19*
X14350000Y15607500D03*
D19*
X36090000Y34957500D03*
D19*
X29340000Y39457500D03*
D19*
X42190000Y22862500D03*
D19*
X28415000Y22882500D03*
D19*
X31340000Y19257500D03*
D19*
X9350000Y18207500D03*
D19*
X15100000Y17457500D03*
D19*
X42190000Y22062500D03*
D19*
X42190000Y23662500D03*
D19*
X31340000Y16882500D03*
D19*
X9350000Y16707500D03*
D19*
X9350000Y19707500D03*
D19*
X9350000Y24207500D03*
D19*
X38340000Y31957500D03*
D19*
X39090000Y31207500D03*
D19*
X14350000Y18557500D03*
D19*
X37590000Y32707500D03*
D19*
X13625000Y17457500D03*
D19*
X29090000Y21757500D03*
D19*
X14350000Y17857500D03*
D19*
X16600000Y18412500D03*
D19*
X13100000Y25457500D03*
D19*
X31340000Y24057500D03*
M02*
