M48
FMAT,2
METRIC,TZ
T7C0.250
T4C0.900
T6C0.950
T2C1.000
T5C1.050
T3C1.550
T1C3.200
%
G90
G05
M71
T7
X42.190Y68.062
X16.600Y67.713
X42.190Y67.263
X9.350Y71.207
X42.190Y70.463
X34.090Y83.457
X14.350Y66.358
X12.850Y66.707
X14.350Y67.058
X42.190Y69.662
X12.850Y68.207
X42.190Y74.463
X31.340Y71.683
X15.950Y68.032
X29.090Y73.213
X29.090Y72.513
X42.190Y68.862
X36.840Y84.207
X14.350Y69.308
X42.190Y71.263
X41.090Y80.207
X14.350Y65.608
X36.090Y84.957
X29.340Y89.457
X42.190Y72.862
X28.415Y72.882
X31.340Y69.257
X9.350Y68.207
X15.100Y67.457
X42.190Y72.062
X42.190Y73.662
X31.340Y66.882
X9.350Y66.707
X9.350Y69.707
X9.350Y74.207
X38.340Y81.957
X39.090Y81.207
X14.350Y68.558
X37.590Y82.707
X13.625Y67.457
X29.090Y71.757
X14.350Y67.858
X16.600Y68.412
X13.100Y75.457
X31.340Y74.058
X42.190Y18.062
X16.600Y17.712
X42.190Y17.262
X9.350Y21.207
X42.190Y20.462
X34.090Y33.458
X14.350Y16.358
X12.850Y16.707
X14.350Y17.058
X42.190Y19.663
X12.850Y18.207
X42.190Y24.462
X31.340Y21.683
X15.950Y18.032
X29.090Y23.212
X29.090Y22.512
X42.190Y18.863
X36.840Y34.208
X14.350Y19.308
X42.190Y21.262
X41.090Y30.207
X14.350Y15.607
X36.090Y34.958
X29.340Y39.458
X42.190Y22.863
X28.415Y22.883
X31.340Y19.258
X9.350Y18.207
X15.100Y17.457
X42.190Y22.062
X42.190Y23.663
X31.340Y16.883
X9.350Y16.707
X9.350Y19.707
X9.350Y24.207
X38.340Y31.957
X39.090Y31.207
X14.350Y18.558
X37.590Y32.708
X13.625Y17.457
X29.090Y21.758
X14.350Y17.858
X16.600Y18.413
X13.100Y25.457
X31.340Y24.058
T4
X9.560Y63.458G85X11.360Y63.458
X9.560Y77.957G85X11.360Y77.957
X4.100Y77.957G85X4.900Y77.957
X4.100Y63.458G85X4.900Y63.458
X9.560Y13.457G85X11.360Y13.457
X9.560Y27.957G85X11.360Y27.957
X4.100Y27.957G85X4.900Y27.957
X4.100Y13.457G85X4.900Y13.457
T6
X30.490Y65.912
X35.090Y77.832
X44.790Y77.832
X40.090Y77.832
X30.490Y70.713
X30.490Y75.513
X44.790Y63.583
X35.090Y63.583
X40.090Y63.583
X30.490Y15.912
X35.090Y27.832
X44.790Y27.832
X40.090Y27.832
X30.490Y20.712
X30.490Y25.512
X44.790Y13.582
X35.090Y13.582
X40.090Y13.582
T2
X25.870Y94.203
X20.790Y73.882
X23.330Y73.882
X25.870Y84.043
X25.870Y76.422
X20.790Y81.502
X23.330Y81.502
X20.790Y84.043
X23.330Y84.043
X20.790Y71.343
X23.330Y71.343
X20.790Y76.422
X23.330Y76.422
X25.870Y89.123
X25.870Y96.743
X23.330Y96.743
X20.790Y96.743
X25.870Y73.882
X25.870Y78.963
X25.870Y71.343
X25.870Y81.502
X20.790Y91.662
X23.330Y91.662
X20.790Y94.203
X23.330Y94.203
X20.790Y86.582
X23.330Y86.582
X20.790Y89.123
X23.330Y89.123
X25.870Y86.582
X20.790Y78.963
X23.330Y78.963
X25.870Y91.662
X25.870Y44.203
X20.790Y23.883
X23.330Y23.883
X25.870Y34.042
X25.870Y26.422
X20.790Y31.503
X23.330Y31.503
X20.790Y34.042
X23.330Y34.042
X20.790Y21.343
X23.330Y21.343
X20.790Y26.422
X23.330Y26.422
X25.870Y39.123
X25.870Y46.742
X23.330Y46.742
X20.790Y46.742
X25.870Y23.883
X25.870Y28.962
X25.870Y21.343
X25.870Y31.503
X20.790Y41.663
X23.330Y41.663
X20.790Y44.203
X23.330Y44.203
X20.790Y36.583
X23.330Y36.583
X20.790Y39.123
X23.330Y39.123
X25.870Y36.583
X20.790Y28.962
X23.330Y28.962
X25.870Y41.663
T5
X52.590Y77.832
X62.590Y77.832
X37.590Y63.583
X47.590Y74.662
X42.590Y77.832
X47.590Y63.583
X47.590Y69.263
X67.590Y72.162
X32.590Y77.832
X57.590Y63.583
X67.590Y63.583
X52.590Y27.832
X62.590Y27.832
X37.590Y13.582
X47.590Y24.663
X42.590Y27.832
X47.590Y13.582
X47.590Y19.262
X67.590Y22.163
X32.590Y27.832
X57.590Y13.582
X67.590Y13.582
T3
X36.690Y65.862
X36.690Y75.463
X36.690Y15.863
X36.690Y25.462
T1
X38.190Y94.000
X6.000Y94.000
X73.090Y56.000
X38.190Y56.000
X6.000Y56.000
X73.090Y94.000
X38.190Y44.000
X6.000Y44.000
X73.090Y6.000
X38.190Y6.000
X6.000Y6.000
X73.090Y44.000
M30
