%FSLAX46Y46*%
%MOMM*%
%AMPS11*
1,1,1.900000,0.000000,0.000000*
%
%ADD11PS11*%
%AMPS12*
1,1,1.900000,0.000000,0.000000*
%
%ADD12PS12*%
%AMPS18*
1,1,1.900000,0.000000,0.000000*
%
%ADD18PS18*%
%AMPS22*
1,1,0.450000,0.000000,0.000000*
%
%ADD22PS22*%
%AMPS16*
21,1,1.800000,1.700000,0.000000,0.000000,0.000000*
1,1,1.700000,0.900000,0.000000*
1,1,1.700000,-0.900000,0.000000*
%
%ADD16PS16*%
%AMPS17*
21,1,0.800000,1.700000,0.000000,0.000000,0.000000*
1,1,1.700000,0.400000,0.000000*
1,1,1.700000,-0.400000,0.000000*
%
%ADD17PS17*%
%AMPS20*
1,1,1.150000,0.000000,0.000000*
%
%ADD20PS20*%
%AMPS21*
1,1,1.150000,0.000000,0.000000*
%
%ADD21PS21*%
%AMPS14*
1,1,1.750000,0.000000,0.000000*
%
%ADD14PS14*%
%AMPS13*
1,1,1.750000,0.000000,0.000000*
%
%ADD13PS13*%
%AMPS10*
1,1,3.400000,0.000000,0.000000*
%
%ADD10PS10*%
%AMPS15*
1,1,0.440000,-0.130000,-0.330000*
1,1,0.440000,0.130000,0.330000*
1,1,0.440000,0.130000,-0.330000*
1,1,0.440000,-0.130000,0.330000*
21,1,0.700000,0.660000,0.000000,0.000000,180.000000*
21,1,0.260000,1.100000,0.000000,0.000000,180.000000*
%
%ADD15PS15*%
%AMPS19*
21,1,2.200000,2.200000,0.000000,0.000000,180.000000*
%
%ADD19PS19*%
G01*
%LPD*%
G01*
%LPD*%
G75*
D10*
X38190001Y94000000D03*
D10*
X5999999Y94000000D03*
D10*
X73090000Y56000000D03*
D10*
X38190001Y56000000D03*
D10*
X5999999Y56000000D03*
D10*
X73090000Y94000000D03*
D11*
X25870000Y94202500D03*
D12*
X20790000Y73882500D03*
D12*
X23330000Y73882500D03*
D11*
X25870000Y84042500D03*
D13*
X36690000Y65862500D03*
D14*
X36690000Y75462500D03*
D15*
X21310000Y77057500D03*
D15*
X22810000Y77057500D03*
D15*
X21310000Y94837500D03*
D15*
X22810000Y94837500D03*
D15*
X21310000Y82137500D03*
D15*
X22810000Y82137500D03*
D11*
X25870000Y76422500D03*
D12*
X20790000Y81502500D03*
D12*
X23330000Y81502500D03*
D12*
X20790000Y84042500D03*
D12*
X23330000Y84042500D03*
D12*
X20790000Y71342500D03*
D12*
X23330000Y71342500D03*
D16*
X10460000Y63457500D03*
D16*
X10460000Y77957500D03*
D17*
X4500000Y77957500D03*
D17*
X4500000Y63457500D03*
D15*
X21310000Y92297500D03*
D15*
X22810000Y92297500D03*
D12*
X20790000Y76422500D03*
D12*
X23330000Y76422500D03*
D11*
X25870000Y89122500D03*
D18*
X25870000Y96742500D03*
D18*
X23330000Y96742500D03*
D18*
X20790000Y96742500D03*
D15*
X21310000Y89757500D03*
D15*
X22810000Y89757500D03*
D11*
X25870000Y73882500D03*
D15*
X21310000Y71977500D03*
D15*
X22810000Y71977500D03*
D11*
X25870000Y78962500D03*
D11*
X25870000Y71342500D03*
D11*
X25870000Y81502500D03*
D15*
X21310000Y79597500D03*
D15*
X22810000Y79597500D03*
D12*
X20790000Y91662500D03*
D12*
X23330000Y91662500D03*
D12*
X20790000Y94202500D03*
D12*
X23330000Y94202500D03*
D15*
X21310000Y87217500D03*
D15*
X22810000Y87217500D03*
D15*
X21310000Y84677500D03*
D15*
X22810000Y84677500D03*
D12*
X20790000Y86582500D03*
D12*
X23330000Y86582500D03*
D12*
X20790000Y89122500D03*
D12*
X23330000Y89122500D03*
D11*
X25870000Y86582500D03*
D15*
X21310000Y74517500D03*
D15*
X22810000Y74517500D03*
D12*
X20790000Y78962500D03*
D12*
X23330000Y78962500D03*
D19*
X52590000Y77832500D03*
D20*
X30490000Y65912500D03*
D21*
X35090000Y77832500D03*
D19*
X62590000Y77832500D03*
D19*
X37590000Y63582500D03*
D19*
X47590000Y74662500D03*
D20*
X44790000Y77832500D03*
D19*
X42590000Y77832500D03*
D20*
X40090000Y77832500D03*
D21*
X30490000Y70712500D03*
D21*
X30490000Y75512500D03*
D19*
X47590000Y63582500D03*
D19*
X47590000Y69262500D03*
D19*
X67590000Y72162500D03*
D19*
X32590000Y77832500D03*
D20*
X44790000Y63582500D03*
D21*
X35090000Y63582500D03*
D19*
X57590000Y63582500D03*
D20*
X40090000Y63582500D03*
D19*
X67590000Y63582500D03*
D11*
X25870000Y91662500D03*
D22*
X42190000Y68062500D03*
D22*
X16600000Y67712500D03*
D22*
X42190000Y67262500D03*
D22*
X9350000Y71207500D03*
D22*
X42190000Y70462500D03*
D22*
X34090000Y83457500D03*
D22*
X14350000Y66357500D03*
D22*
X12850000Y66707500D03*
D22*
X14350000Y67057500D03*
D22*
X42190000Y69662500D03*
D22*
X12850000Y68207500D03*
D22*
X42190000Y74462500D03*
D22*
X31340000Y71682500D03*
D22*
X15950000Y68032500D03*
D22*
X29090000Y73212500D03*
D22*
X29090000Y72512500D03*
D22*
X42190000Y68862500D03*
D22*
X36840000Y84207500D03*
D22*
X14350000Y69307500D03*
D22*
X42190000Y71262500D03*
D22*
X41090000Y80207500D03*
D22*
X14350000Y65607500D03*
D22*
X36090000Y84957500D03*
D22*
X29340000Y89457500D03*
D22*
X42190000Y72862500D03*
D22*
X28415000Y72882500D03*
D22*
X31340000Y69257500D03*
D22*
X9350000Y68207500D03*
D22*
X15100000Y67457500D03*
D22*
X42190000Y72062500D03*
D22*
X42190000Y73662500D03*
D22*
X31340000Y66882500D03*
D22*
X9350000Y66707500D03*
D22*
X9350000Y69707500D03*
D22*
X9350000Y74207500D03*
D22*
X38340000Y81957500D03*
D22*
X39090000Y81207500D03*
D22*
X14350000Y68557500D03*
D22*
X37590000Y82707500D03*
D22*
X13625000Y67457500D03*
D22*
X29090000Y71757500D03*
D22*
X14350000Y67857500D03*
D22*
X16600000Y68412500D03*
D22*
X13100000Y75457500D03*
D22*
X31340000Y74057500D03*
D10*
X38190001Y44000000D03*
D10*
X5999999Y44000000D03*
D10*
X73090000Y6000000D03*
D10*
X38190001Y6000000D03*
D10*
X5999999Y6000000D03*
D10*
X73090000Y44000000D03*
D11*
X25870000Y44202500D03*
D12*
X20790000Y23882500D03*
D12*
X23330000Y23882500D03*
D11*
X25870000Y34042500D03*
D13*
X36690000Y15862500D03*
D14*
X36690000Y25462500D03*
D15*
X21310000Y27057500D03*
D15*
X22810000Y27057500D03*
D15*
X21310000Y44837500D03*
D15*
X22810000Y44837500D03*
D15*
X21310000Y32137500D03*
D15*
X22810000Y32137500D03*
D11*
X25870000Y26422500D03*
D12*
X20790000Y31502500D03*
D12*
X23330000Y31502500D03*
D12*
X20790000Y34042500D03*
D12*
X23330000Y34042500D03*
D12*
X20790000Y21342500D03*
D12*
X23330000Y21342500D03*
D16*
X10460000Y13457500D03*
D16*
X10460000Y27957500D03*
D17*
X4500000Y27957500D03*
D17*
X4500000Y13457500D03*
D15*
X21310000Y42297500D03*
D15*
X22810000Y42297500D03*
D12*
X20790000Y26422500D03*
D12*
X23330000Y26422500D03*
D11*
X25870000Y39122500D03*
D18*
X25870000Y46742500D03*
D18*
X23330000Y46742500D03*
D18*
X20790000Y46742500D03*
D15*
X21310000Y39757500D03*
D15*
X22810000Y39757500D03*
D11*
X25870000Y23882500D03*
D15*
X21310000Y21977500D03*
D15*
X22810000Y21977500D03*
D11*
X25870000Y28962500D03*
D11*
X25870000Y21342500D03*
D11*
X25870000Y31502500D03*
D15*
X21310000Y29597500D03*
D15*
X22810000Y29597500D03*
D12*
X20790000Y41662500D03*
D12*
X23330000Y41662500D03*
D12*
X20790000Y44202500D03*
D12*
X23330000Y44202500D03*
D15*
X21310000Y37217500D03*
D15*
X22810000Y37217500D03*
D15*
X21310000Y34677500D03*
D15*
X22810000Y34677500D03*
D12*
X20790000Y36582500D03*
D12*
X23330000Y36582500D03*
D12*
X20790000Y39122500D03*
D12*
X23330000Y39122500D03*
D11*
X25870000Y36582500D03*
D15*
X21310000Y24517500D03*
D15*
X22810000Y24517500D03*
D12*
X20790000Y28962500D03*
D12*
X23330000Y28962500D03*
D19*
X52590000Y27832500D03*
D20*
X30490000Y15912500D03*
D21*
X35090000Y27832500D03*
D19*
X62590000Y27832500D03*
D19*
X37590000Y13582500D03*
D19*
X47590000Y24662500D03*
D20*
X44790000Y27832500D03*
D19*
X42590000Y27832500D03*
D20*
X40090000Y27832500D03*
D21*
X30490000Y20712500D03*
D21*
X30490000Y25512500D03*
D19*
X47590000Y13582500D03*
D19*
X47590000Y19262500D03*
D19*
X67590000Y22162500D03*
D19*
X32590000Y27832500D03*
D20*
X44790000Y13582500D03*
D21*
X35090000Y13582500D03*
D19*
X57590000Y13582500D03*
D20*
X40090000Y13582500D03*
D19*
X67590000Y13582500D03*
D11*
X25870000Y41662500D03*
D22*
X42190000Y18062500D03*
D22*
X16600000Y17712500D03*
D22*
X42190000Y17262500D03*
D22*
X9350000Y21207500D03*
D22*
X42190000Y20462500D03*
D22*
X34090000Y33457500D03*
D22*
X14350000Y16357500D03*
D22*
X12850000Y16707500D03*
D22*
X14350000Y17057500D03*
D22*
X42190000Y19662500D03*
D22*
X12850000Y18207500D03*
D22*
X42190000Y24462500D03*
D22*
X31340000Y21682500D03*
D22*
X15950000Y18032500D03*
D22*
X29090000Y23212500D03*
D22*
X29090000Y22512500D03*
D22*
X42190000Y18862500D03*
D22*
X36840000Y34207500D03*
D22*
X14350000Y19307500D03*
D22*
X42190000Y21262500D03*
D22*
X41090000Y30207500D03*
D22*
X14350000Y15607500D03*
D22*
X36090000Y34957500D03*
D22*
X29340000Y39457500D03*
D22*
X42190000Y22862500D03*
D22*
X28415000Y22882500D03*
D22*
X31340000Y19257500D03*
D22*
X9350000Y18207500D03*
D22*
X15100000Y17457500D03*
D22*
X42190000Y22062500D03*
D22*
X42190000Y23662500D03*
D22*
X31340000Y16882500D03*
D22*
X9350000Y16707500D03*
D22*
X9350000Y19707500D03*
D22*
X9350000Y24207500D03*
D22*
X38340000Y31957500D03*
D22*
X39090000Y31207500D03*
D22*
X14350000Y18557500D03*
D22*
X37590000Y32707500D03*
D22*
X13625000Y17457500D03*
D22*
X29090000Y21757500D03*
D22*
X14350000Y17857500D03*
D22*
X16600000Y18412500D03*
D22*
X13100000Y25457500D03*
D22*
X31340000Y24057500D03*
M02*
