%FSLAX46Y46*%
%MOMM*%
%ADD10C,0.150000*%
G01*
%LPD*%
G36*
X4367623Y87344675D02*
X4554979Y87365262D01*
X4600000Y87355866D01*
X4600000Y85471577D01*
X4584981Y85474537D01*
X4584981Y85474518D01*
X4509957Y85459517D01*
X4355600Y85398292D01*
X4230911Y85287717D01*
X4148211Y85142997D01*
X4119819Y84979354D01*
X4119819Y83088609D01*
X4157645Y82906562D01*
X4263411Y82753388D01*
X4417435Y82647789D01*
X4600000Y82608446D01*
X4600000Y82128246D01*
X4413088Y82090512D01*
X4260470Y81987594D01*
X4157552Y81834976D01*
X4119819Y81648064D01*
X4157552Y81461151D01*
X4260470Y81308533D01*
X4413088Y81205615D01*
X4600000Y81167882D01*
X4600000Y80207500D01*
X1388756Y80207500D01*
X1211554Y80236891D01*
X1058880Y80318296D01*
X934414Y80441634D01*
X841837Y80596750D01*
X784792Y80773563D01*
X766942Y80961936D01*
X791987Y81151771D01*
X863552Y81332949D01*
X3864726Y86900082D01*
X4017974Y87113611D01*
X4187129Y87261291D01*
X4367623Y87344675D01*
D02*
G37*
G36*
X4600000Y85471596D02*
X4600000Y87355884D01*
X4744702Y87325716D01*
X4930448Y87228866D01*
X5104764Y87076413D01*
X5260250Y86870061D01*
X8291408Y81332949D01*
X8379953Y81121306D01*
X8404887Y80917173D01*
X8374959Y80726932D01*
X8298806Y80556963D01*
X8185161Y80413648D01*
X8042716Y80303388D01*
X7880164Y80232544D01*
X7706181Y80207500D01*
X4600000Y80207500D01*
X4600000Y81167882D01*
X4786893Y81205615D01*
X4939530Y81308533D01*
X5042448Y81461151D01*
X5080181Y81648064D01*
X5042448Y81834976D01*
X4939530Y81987594D01*
X4786893Y82090512D01*
X4600000Y82128246D01*
X4600000Y82608446D01*
X4782528Y82647789D01*
X4936497Y82753407D01*
X5042244Y82906562D01*
X5080181Y83088628D01*
X5080181Y84979354D01*
X5043058Y85168190D01*
X4933722Y85328078D01*
X4773816Y85437413D01*
X4600000Y85471596D01*
D02*
G37*
G36*
X4367623Y37344675D02*
X4554979Y37365262D01*
X4600000Y37355866D01*
X4600000Y35471577D01*
X4584981Y35474537D01*
X4584981Y35474518D01*
X4509957Y35459517D01*
X4355600Y35398292D01*
X4230911Y35287717D01*
X4148211Y35142997D01*
X4119819Y34979354D01*
X4119819Y33088609D01*
X4157645Y32906562D01*
X4263411Y32753388D01*
X4417435Y32647789D01*
X4600000Y32608446D01*
X4600000Y32128246D01*
X4413088Y32090512D01*
X4260470Y31987594D01*
X4157552Y31834976D01*
X4119819Y31648064D01*
X4157552Y31461151D01*
X4260470Y31308533D01*
X4413088Y31205615D01*
X4600000Y31167882D01*
X4600000Y30207500D01*
X1388756Y30207500D01*
X1211554Y30236891D01*
X1058880Y30318296D01*
X934414Y30441634D01*
X841837Y30596750D01*
X784792Y30773563D01*
X766942Y30961936D01*
X791987Y31151771D01*
X863552Y31332949D01*
X3864726Y36900082D01*
X4017974Y37113611D01*
X4187129Y37261291D01*
X4367623Y37344675D01*
D02*
G37*
G36*
X4600000Y35471596D02*
X4600000Y37355884D01*
X4744702Y37325716D01*
X4930448Y37228866D01*
X5104764Y37076413D01*
X5260250Y36870061D01*
X8291408Y31332949D01*
X8379953Y31121306D01*
X8404887Y30917173D01*
X8374959Y30726932D01*
X8298806Y30556963D01*
X8185161Y30413648D01*
X8042716Y30303388D01*
X7880164Y30232544D01*
X7706181Y30207500D01*
X4600000Y30207500D01*
X4600000Y31167882D01*
X4786893Y31205615D01*
X4939530Y31308533D01*
X5042448Y31461151D01*
X5080181Y31648064D01*
X5042448Y31834976D01*
X4939530Y31987594D01*
X4786893Y32090512D01*
X4600000Y32128246D01*
X4600000Y32608446D01*
X4782528Y32647789D01*
X4936497Y32753407D01*
X5042244Y32906562D01*
X5080181Y33088628D01*
X5080181Y34979354D01*
X5043058Y35168190D01*
X4933722Y35328078D01*
X4773816Y35437413D01*
X4600000Y35471596D01*
D02*
G37*
G01*
%LPD*%
D10*
X12706428Y83328208D02*
X13135000Y84828208D01*
D10*
X12777857Y83328208D02*
X13206428Y84828208D01*
D10*
X13777857Y84828208D02*
X12920714Y84828208D01*
D10*
X13992143Y84756784D02*
X13777857Y84828208D01*
D10*
X14063572Y84613928D02*
X13992143Y84756784D01*
D10*
X14063572Y84471064D02*
X14063572Y84613928D01*
D10*
X13992143Y84256784D02*
X14063572Y84471064D01*
D10*
X13849286Y84113928D02*
X13992143Y84256784D01*
D10*
X13563572Y84042496D02*
X13849286Y84113928D01*
D10*
X12992143Y84042496D02*
X13563572Y84042496D01*
D10*
X13920714Y84756784D02*
X13777857Y84828208D01*
D10*
X13992143Y84613928D02*
X13920714Y84756784D01*
D10*
X13992143Y84471064D02*
X13992143Y84613928D01*
D10*
X13920714Y84256784D02*
X13992143Y84471064D01*
D10*
X13777857Y84113928D02*
X13920714Y84256784D01*
D10*
X13563572Y84042496D02*
X13777857Y84113928D01*
D10*
X12992143Y83328208D02*
X12492143Y83328208D01*
D10*
X14349286Y83328208D02*
X14777857Y84828208D01*
D10*
X14420714Y83328208D02*
X14849286Y84828208D01*
D10*
X15349286Y84828208D02*
X14563572Y84828208D01*
D10*
X15563572Y84756784D02*
X15349286Y84828208D01*
D10*
X15635000Y84613928D02*
X15563572Y84756784D01*
D10*
X15635000Y84471064D02*
X15635000Y84613928D01*
D10*
X15563572Y84256784D02*
X15635000Y84471064D01*
D10*
X15492143Y84185352D02*
X15563572Y84256784D01*
D10*
X15277857Y84113928D02*
X15492143Y84185352D01*
D10*
X14635000Y84113928D02*
X15277857Y84113928D01*
D10*
X15492143Y84756784D02*
X15349286Y84828208D01*
D10*
X15563572Y84613928D02*
X15492143Y84756784D01*
D10*
X15563572Y84471064D02*
X15563572Y84613928D01*
D10*
X15492143Y84256784D02*
X15563572Y84471064D01*
D10*
X15420714Y84185352D02*
X15492143Y84256784D01*
D10*
X15277857Y84113928D02*
X15420714Y84185352D01*
D10*
X15135000Y84042496D02*
X14992143Y84113928D01*
D10*
X15206429Y83971064D02*
X15135000Y84042496D01*
D10*
X15277857Y83399640D02*
X15206429Y83971064D01*
D10*
X15349286Y83328208D02*
X15277857Y83399640D01*
D10*
X15492143Y83328208D02*
X15349286Y83328208D01*
D10*
X15563572Y83471064D02*
X15492143Y83328208D01*
D10*
X15563572Y83542496D02*
X15563572Y83471064D01*
D10*
X15349286Y83471064D02*
X15206429Y83971064D01*
D10*
X15420714Y83399640D02*
X15349286Y83471064D01*
D10*
X15492143Y83399640D02*
X15420714Y83399640D01*
D10*
X15563572Y83471064D02*
X15492143Y83399640D01*
D10*
X14635000Y83328208D02*
X14135000Y83328208D01*
D10*
X16063572Y83328208D02*
X16492143Y84828208D01*
D10*
X16135000Y83328208D02*
X16563572Y84828208D01*
D10*
X16706428Y83828208D02*
X16849286Y84399640D01*
D10*
X17349286Y84828208D02*
X16277857Y84828208D01*
D10*
X17277858Y84399640D02*
X17349286Y84828208D01*
D10*
X17277858Y84828208D02*
X17277858Y84399640D01*
D10*
X16777858Y84113928D02*
X16349286Y84113928D01*
D10*
X16920714Y83328208D02*
X15849286Y83328208D01*
D10*
X17063572Y83685352D02*
X16920714Y83328208D01*
D10*
X16849286Y83328208D02*
X17063572Y83685352D01*
D10*
X18920714Y84685352D02*
X18849286Y84685352D01*
D10*
X18992142Y84828208D02*
X18920714Y84685352D01*
D10*
X18920714Y84399640D02*
X18992142Y84828208D01*
D10*
X18920714Y84542496D02*
X18920714Y84399640D01*
D10*
X18849286Y84685352D02*
X18920714Y84542496D01*
D10*
X18777858Y84756784D02*
X18849286Y84685352D01*
D10*
X18563572Y84828208D02*
X18777858Y84756784D01*
D10*
X18277858Y84828208D02*
X18563572Y84828208D01*
D10*
X18063572Y84756784D02*
X18277858Y84828208D01*
D10*
X17920714Y84613928D02*
X18063572Y84756784D01*
D10*
X17920714Y84471064D02*
X17920714Y84613928D01*
D10*
X17992142Y84328208D02*
X17920714Y84471064D01*
D10*
X18063572Y84256784D02*
X17992142Y84328208D01*
D10*
X18563572Y83971064D02*
X18063572Y84256784D01*
D10*
X18706428Y83828208D02*
X18563572Y83971064D01*
D10*
X18063572Y84328208D02*
X17920714Y84471064D01*
D10*
X18563572Y84042496D02*
X18063572Y84328208D01*
D10*
X18635000Y83971064D02*
X18563572Y84042496D01*
D10*
X18706428Y83828208D02*
X18635000Y83971064D01*
D10*
X18706428Y83613928D02*
X18706428Y83828208D01*
D10*
X18635000Y83471064D02*
X18706428Y83613928D01*
D10*
X18563572Y83399640D02*
X18635000Y83471064D01*
D10*
X18349286Y83328208D02*
X18563572Y83399640D01*
D10*
X18063572Y83328208D02*
X18349286Y83328208D01*
D10*
X17849286Y83399640D02*
X18063572Y83328208D01*
D10*
X17777858Y83471064D02*
X17849286Y83399640D01*
D10*
X17706428Y83613928D02*
X17777858Y83471064D01*
D10*
X17706428Y83756784D02*
X17706428Y83613928D01*
D10*
X17635000Y83328208D02*
X17706428Y83756784D01*
D10*
X17706428Y83471064D02*
X17635000Y83328208D01*
D10*
X17777858Y83471064D02*
X17706428Y83471064D01*
D10*
X12492143Y85042496D02*
X19135000Y85042496D01*
D10*
X11911389Y55602352D02*
X11839960Y55602352D01*
D10*
X11982817Y55745212D02*
X11911389Y55602352D01*
D10*
X11911389Y55316640D02*
X11982817Y55745212D01*
D10*
X11911389Y55459496D02*
X11911389Y55316640D01*
D10*
X11839960Y55602352D02*
X11911389Y55459496D01*
D10*
X11768532Y55673780D02*
X11839960Y55602352D01*
D10*
X11554246Y55745212D02*
X11768532Y55673780D01*
D10*
X11268532Y55745212D02*
X11554246Y55745212D01*
D10*
X11054246Y55673780D02*
X11268532Y55745212D01*
D10*
X10911389Y55530924D02*
X11054246Y55673780D01*
D10*
X10911389Y55388068D02*
X10911389Y55530924D01*
D10*
X10982817Y55245212D02*
X10911389Y55388068D01*
D10*
X11054246Y55173780D02*
X10982817Y55245212D01*
D10*
X11554246Y54888068D02*
X11054246Y55173780D01*
D10*
X11697103Y54745212D02*
X11554246Y54888068D01*
D10*
X11054246Y55245212D02*
X10911389Y55388068D01*
D10*
X11554246Y54959496D02*
X11054246Y55245212D01*
D10*
X11625674Y54888068D02*
X11554246Y54959496D01*
D10*
X11697103Y54745212D02*
X11625674Y54888068D01*
D10*
X11697103Y54530924D02*
X11697103Y54745212D01*
D10*
X11625674Y54388068D02*
X11697103Y54530924D01*
D10*
X11554246Y54316640D02*
X11625674Y54388068D01*
D10*
X11339960Y54245212D02*
X11554246Y54316640D01*
D10*
X11054246Y54245212D02*
X11339960Y54245212D01*
D10*
X10839960Y54316640D02*
X11054246Y54245212D01*
D10*
X10768532Y54388068D02*
X10839960Y54316640D01*
D10*
X10697103Y54530924D02*
X10768532Y54388068D01*
D10*
X10697103Y54673780D02*
X10697103Y54530924D01*
D10*
X10625674Y54245212D02*
X10697103Y54673780D01*
D10*
X10697103Y54388068D02*
X10625674Y54245212D01*
D10*
X10768532Y54388068D02*
X10697103Y54388068D01*
D10*
X12339960Y54245212D02*
X12768532Y55745212D01*
D10*
X12411389Y54245212D02*
X12839960Y55745212D01*
D10*
X12982818Y54745212D02*
X13125674Y55316640D01*
D10*
X13625674Y55745212D02*
X12554246Y55745212D01*
D10*
X13554246Y55316640D02*
X13625674Y55745212D01*
D10*
X13554246Y55745212D02*
X13554246Y55316640D01*
D10*
X13054246Y55030924D02*
X12625674Y55030924D01*
D10*
X12625674Y54245212D02*
X12125674Y54245212D01*
D10*
X13911388Y54245212D02*
X14339960Y55745212D01*
D10*
X13982817Y54245212D02*
X14411388Y55745212D01*
D10*
X14982817Y55745212D02*
X14125674Y55745212D01*
D10*
X15197103Y55673780D02*
X14982817Y55745212D01*
D10*
X15268532Y55530924D02*
X15197103Y55673780D01*
D10*
X15268532Y55388068D02*
X15268532Y55530924D01*
D10*
X15197103Y55173780D02*
X15268532Y55388068D01*
D10*
X15054246Y55030924D02*
X15197103Y55173780D01*
D10*
X14768532Y54959496D02*
X15054246Y55030924D01*
D10*
X14197103Y54959496D02*
X14768532Y54959496D01*
D10*
X15125674Y55673780D02*
X14982817Y55745212D01*
D10*
X15197103Y55530924D02*
X15125674Y55673780D01*
D10*
X15197103Y55388068D02*
X15197103Y55530924D01*
D10*
X15125674Y55173780D02*
X15197103Y55388068D01*
D10*
X14982817Y55030924D02*
X15125674Y55173780D01*
D10*
X14768532Y54959496D02*
X14982817Y55030924D01*
D10*
X14197103Y54245212D02*
X13697103Y54245212D01*
D10*
X16911388Y55030924D02*
X16911388Y55102352D01*
D10*
X16982818Y55030924D02*
X16911388Y55030924D01*
D10*
X16982818Y55102352D02*
X16982818Y55030924D01*
D10*
X16911388Y55173780D02*
X16982818Y55102352D01*
D10*
X16697103Y55245212D02*
X16911388Y55173780D01*
D10*
X16482817Y55245212D02*
X16697103Y55245212D01*
D10*
X16268532Y55173780D02*
X16482817Y55245212D01*
D10*
X16197103Y55102352D02*
X16268532Y55173780D01*
D10*
X16197103Y54959496D02*
X16197103Y55102352D01*
D10*
X16268532Y54888068D02*
X16197103Y54959496D01*
D10*
X16768532Y54602352D02*
X16268532Y54888068D01*
D10*
X16839960Y54530924D02*
X16768532Y54602352D01*
D10*
X16268532Y54959496D02*
X16197103Y55030924D01*
D10*
X16768532Y54673780D02*
X16268532Y54959496D01*
D10*
X16839960Y54602352D02*
X16768532Y54673780D01*
D10*
X16839960Y54388068D02*
X16839960Y54602352D01*
D10*
X16768532Y54316640D02*
X16839960Y54388068D01*
D10*
X16554246Y54245212D02*
X16768532Y54316640D01*
D10*
X16339960Y54245212D02*
X16554246Y54245212D01*
D10*
X16125674Y54316640D02*
X16339960Y54245212D01*
D10*
X16054246Y54388068D02*
X16125674Y54316640D01*
D10*
X16054246Y54459496D02*
X16054246Y54388068D01*
D10*
X16125674Y54459496D02*
X16054246Y54459496D01*
D10*
X16125674Y54388068D02*
X16125674Y54459496D01*
D10*
X17697104Y55673780D02*
X17768532Y55745212D01*
D10*
X17768532Y55602352D02*
X17697104Y55673780D01*
D10*
X17839960Y55673780D02*
X17768532Y55602352D01*
D10*
X17768532Y55745212D02*
X17839960Y55673780D01*
D10*
X17268532Y55102352D02*
X17197104Y54959496D01*
D10*
X17411388Y55245212D02*
X17268532Y55102352D01*
D10*
X17625674Y55245212D02*
X17411388Y55245212D01*
D10*
X17697104Y55173780D02*
X17625674Y55245212D01*
D10*
X17697104Y54959496D02*
X17697104Y55173780D01*
D10*
X17554246Y54530924D02*
X17697104Y54959496D01*
D10*
X17554246Y54316640D02*
X17554246Y54530924D01*
D10*
X17625674Y54245212D02*
X17554246Y54316640D01*
D10*
X17625674Y55173780D02*
X17554246Y55245212D01*
D10*
X17625674Y54959496D02*
X17625674Y55173780D01*
D10*
X17482818Y54530924D02*
X17625674Y54959496D01*
D10*
X17482818Y54316640D02*
X17482818Y54530924D01*
D10*
X17554246Y54245212D02*
X17482818Y54316640D01*
D10*
X17768532Y54245212D02*
X17554246Y54245212D01*
D10*
X17911388Y54388068D02*
X17768532Y54245212D01*
D10*
X17982818Y54530924D02*
X17911388Y54388068D01*
D10*
X19054246Y54745212D02*
X19339960Y55745212D01*
D10*
X18982818Y54459496D02*
X19054246Y54745212D01*
D10*
X18982818Y54316640D02*
X18982818Y54459496D01*
D10*
X19054246Y54245212D02*
X18982818Y54316640D01*
D10*
X19268532Y54245212D02*
X19054246Y54245212D01*
D10*
X19411388Y54388068D02*
X19268532Y54245212D01*
D10*
X19482818Y54530924D02*
X19411388Y54388068D01*
D10*
X19125674Y54745212D02*
X19411388Y55745212D01*
D10*
X19054246Y54459496D02*
X19125674Y54745212D01*
D10*
X19054246Y54316640D02*
X19054246Y54459496D01*
D10*
X19125674Y54245212D02*
X19054246Y54316640D01*
D10*
X19054246Y54959496D02*
X19054246Y54745212D01*
D10*
X18982818Y55173780D02*
X19054246Y54959496D01*
D10*
X18839960Y55245212D02*
X18982818Y55173780D01*
D10*
X18697104Y55245212D02*
X18839960Y55245212D01*
D10*
X18482818Y55173780D02*
X18697104Y55245212D01*
D10*
X18339960Y54959496D02*
X18482818Y55173780D01*
D10*
X18268532Y54745212D02*
X18339960Y54959496D01*
D10*
X18268532Y54530924D02*
X18268532Y54745212D01*
D10*
X18339960Y54388068D02*
X18268532Y54530924D01*
D10*
X18411388Y54316640D02*
X18339960Y54388068D01*
D10*
X18554246Y54245212D02*
X18411388Y54316640D01*
D10*
X18697104Y54245212D02*
X18554246Y54245212D01*
D10*
X18839960Y54316640D02*
X18697104Y54245212D01*
D10*
X18982818Y54530924D02*
X18839960Y54316640D01*
D10*
X19054246Y54745212D02*
X18982818Y54530924D01*
D10*
X18554246Y55173780D02*
X18697104Y55245212D01*
D10*
X18411388Y54959496D02*
X18554246Y55173780D01*
D10*
X18339960Y54745212D02*
X18411388Y54959496D01*
D10*
X18339960Y54459496D02*
X18339960Y54745212D01*
D10*
X18411388Y54316640D02*
X18339960Y54459496D01*
D10*
X19411388Y55745212D02*
X19125674Y55745212D01*
D10*
X20125674Y54673780D02*
X19839960Y54602352D01*
D10*
X20339960Y54745212D02*
X20125674Y54673780D01*
D10*
X20554246Y54888068D02*
X20339960Y54745212D01*
D10*
X20625674Y55030924D02*
X20554246Y54888068D01*
D10*
X20554246Y55173780D02*
X20625674Y55030924D01*
D10*
X20411388Y55245212D02*
X20554246Y55173780D01*
D10*
X20197102Y55245212D02*
X20411388Y55245212D01*
D10*
X19982818Y55173780D02*
X20197102Y55245212D01*
D10*
X19839960Y54959496D02*
X19982818Y55173780D01*
D10*
X19768532Y54745212D02*
X19839960Y54959496D01*
D10*
X19768532Y54530924D02*
X19768532Y54745212D01*
D10*
X19839960Y54388068D02*
X19768532Y54530924D01*
D10*
X19911388Y54316640D02*
X19839960Y54388068D01*
D10*
X20054246Y54245212D02*
X19911388Y54316640D01*
D10*
X20197102Y54245212D02*
X20054246Y54245212D01*
D10*
X20411388Y54316640D02*
X20197102Y54245212D01*
D10*
X20554246Y54459496D02*
X20411388Y54316640D01*
D10*
X20054246Y55173780D02*
X20197102Y55245212D01*
D10*
X19911388Y54959496D02*
X20054246Y55173780D01*
D10*
X19839960Y54745212D02*
X19911388Y54959496D01*
D10*
X19839960Y54459496D02*
X19839960Y54745212D01*
D10*
X19911388Y54316640D02*
X19839960Y54459496D01*
D10*
X10197103Y56785212D02*
X10625674Y58285212D01*
D10*
X10268532Y56785212D02*
X10697103Y58285212D01*
D10*
X11125674Y56785212D02*
X11554246Y58285212D01*
D10*
X11197103Y56785212D02*
X11625674Y58285212D01*
D10*
X10911389Y58285212D02*
X10411389Y58285212D01*
D10*
X11839960Y58285212D02*
X11339960Y58285212D01*
D10*
X11339960Y57570924D02*
X10482817Y57570924D01*
D10*
X10482817Y56785212D02*
X9982817Y56785212D01*
D10*
X11411389Y56785212D02*
X10911389Y56785212D01*
D10*
X12268532Y57713780D02*
X12482818Y57785212D01*
D10*
X12125674Y57499496D02*
X12268532Y57713780D01*
D10*
X12054246Y57285212D02*
X12125674Y57499496D01*
D10*
X12054246Y57070924D02*
X12054246Y57285212D01*
D10*
X12125674Y56928068D02*
X12054246Y57070924D01*
D10*
X12197103Y56856640D02*
X12125674Y56928068D01*
D10*
X12339960Y56785212D02*
X12197103Y56856640D01*
D10*
X12482818Y56785212D02*
X12339960Y56785212D01*
D10*
X12697103Y56856640D02*
X12482818Y56785212D01*
D10*
X12839960Y57070924D02*
X12697103Y56856640D01*
D10*
X12911388Y57285212D02*
X12839960Y57070924D01*
D10*
X12911388Y57499496D02*
X12911388Y57285212D01*
D10*
X12839960Y57642352D02*
X12911388Y57499496D01*
D10*
X12768532Y57713780D02*
X12839960Y57642352D01*
D10*
X12625674Y57785212D02*
X12768532Y57713780D01*
D10*
X12482818Y57785212D02*
X12625674Y57785212D01*
D10*
X12339960Y57713780D02*
X12482818Y57785212D01*
D10*
X12197103Y57499496D02*
X12339960Y57713780D01*
D10*
X12125674Y57285212D02*
X12197103Y57499496D01*
D10*
X12125674Y56999496D02*
X12125674Y57285212D01*
D10*
X12197103Y56856640D02*
X12125674Y56999496D01*
D10*
X12625674Y56856640D02*
X12482818Y56785212D01*
D10*
X12768532Y57070924D02*
X12625674Y56856640D01*
D10*
X12839960Y57285212D02*
X12768532Y57070924D01*
D10*
X12839960Y57570924D02*
X12839960Y57285212D01*
D10*
X12768532Y57713780D02*
X12839960Y57570924D01*
D10*
X14125674Y57570924D02*
X14125674Y57642352D01*
D10*
X14197103Y57570924D02*
X14125674Y57570924D01*
D10*
X14197103Y57642352D02*
X14197103Y57570924D01*
D10*
X14125674Y57713780D02*
X14197103Y57642352D01*
D10*
X13911388Y57785212D02*
X14125674Y57713780D01*
D10*
X13697103Y57785212D02*
X13911388Y57785212D01*
D10*
X13482818Y57713780D02*
X13697103Y57785212D01*
D10*
X13411388Y57642352D02*
X13482818Y57713780D01*
D10*
X13411388Y57499496D02*
X13411388Y57642352D01*
D10*
X13482818Y57428068D02*
X13411388Y57499496D01*
D10*
X13982817Y57142352D02*
X13482818Y57428068D01*
D10*
X14054246Y57070924D02*
X13982817Y57142352D01*
D10*
X13482818Y57499496D02*
X13411388Y57570924D01*
D10*
X13982817Y57213780D02*
X13482818Y57499496D01*
D10*
X14054246Y57142352D02*
X13982817Y57213780D01*
D10*
X14054246Y56928068D02*
X14054246Y57142352D01*
D10*
X13982817Y56856640D02*
X14054246Y56928068D01*
D10*
X13768532Y56785212D02*
X13982817Y56856640D01*
D10*
X13554246Y56785212D02*
X13768532Y56785212D01*
D10*
X13339960Y56856640D02*
X13554246Y56785212D01*
D10*
X13268532Y56928068D02*
X13339960Y56856640D01*
D10*
X13268532Y56999496D02*
X13268532Y56928068D01*
D10*
X13339960Y56999496D02*
X13268532Y56999496D01*
D10*
X13339960Y56928068D02*
X13339960Y56999496D01*
D10*
X14697103Y57285212D02*
X14982817Y58285212D01*
D10*
X14625674Y56999496D02*
X14697103Y57285212D01*
D10*
X14625674Y56856640D02*
X14625674Y56999496D01*
D10*
X14697103Y56785212D02*
X14625674Y56856640D01*
D10*
X14911388Y56785212D02*
X14697103Y56785212D01*
D10*
X15054246Y56928068D02*
X14911388Y56785212D01*
D10*
X15125674Y57070924D02*
X15054246Y56928068D01*
D10*
X14768532Y57285212D02*
X15054246Y58285212D01*
D10*
X14697103Y56999496D02*
X14768532Y57285212D01*
D10*
X14697103Y56856640D02*
X14697103Y56999496D01*
D10*
X14768532Y56785212D02*
X14697103Y56856640D01*
D10*
X15197103Y57785212D02*
X14554246Y57785212D01*
D10*
X16911388Y57570924D02*
X16911388Y57642352D01*
D10*
X16982818Y57570924D02*
X16911388Y57570924D01*
D10*
X16982818Y57642352D02*
X16982818Y57570924D01*
D10*
X16911388Y57713780D02*
X16982818Y57642352D01*
D10*
X16697103Y57785212D02*
X16911388Y57713780D01*
D10*
X16482817Y57785212D02*
X16697103Y57785212D01*
D10*
X16268532Y57713780D02*
X16482817Y57785212D01*
D10*
X16197103Y57642352D02*
X16268532Y57713780D01*
D10*
X16197103Y57499496D02*
X16197103Y57642352D01*
D10*
X16268532Y57428068D02*
X16197103Y57499496D01*
D10*
X16768532Y57142352D02*
X16268532Y57428068D01*
D10*
X16839960Y57070924D02*
X16768532Y57142352D01*
D10*
X16268532Y57499496D02*
X16197103Y57570924D01*
D10*
X16768532Y57213780D02*
X16268532Y57499496D01*
D10*
X16839960Y57142352D02*
X16768532Y57213780D01*
D10*
X16839960Y56928068D02*
X16839960Y57142352D01*
D10*
X16768532Y56856640D02*
X16839960Y56928068D01*
D10*
X16554246Y56785212D02*
X16768532Y56856640D01*
D10*
X16339960Y56785212D02*
X16554246Y56785212D01*
D10*
X16125674Y56856640D02*
X16339960Y56785212D01*
D10*
X16054246Y56928068D02*
X16125674Y56856640D01*
D10*
X16054246Y56999496D02*
X16054246Y56928068D01*
D10*
X16125674Y56999496D02*
X16054246Y56999496D01*
D10*
X16125674Y56928068D02*
X16125674Y56999496D01*
D10*
X17697104Y58213780D02*
X17768532Y58285212D01*
D10*
X17768532Y58142352D02*
X17697104Y58213780D01*
D10*
X17839960Y58213780D02*
X17768532Y58142352D01*
D10*
X17768532Y58285212D02*
X17839960Y58213780D01*
D10*
X17268532Y57642352D02*
X17197104Y57499496D01*
D10*
X17411388Y57785212D02*
X17268532Y57642352D01*
D10*
X17625674Y57785212D02*
X17411388Y57785212D01*
D10*
X17697104Y57713780D02*
X17625674Y57785212D01*
D10*
X17697104Y57499496D02*
X17697104Y57713780D01*
D10*
X17554246Y57070924D02*
X17697104Y57499496D01*
D10*
X17554246Y56856640D02*
X17554246Y57070924D01*
D10*
X17625674Y56785212D02*
X17554246Y56856640D01*
D10*
X17625674Y57713780D02*
X17554246Y57785212D01*
D10*
X17625674Y57499496D02*
X17625674Y57713780D01*
D10*
X17482818Y57070924D02*
X17625674Y57499496D01*
D10*
X17482818Y56856640D02*
X17482818Y57070924D01*
D10*
X17554246Y56785212D02*
X17482818Y56856640D01*
D10*
X17768532Y56785212D02*
X17554246Y56785212D01*
D10*
X17911388Y56928068D02*
X17768532Y56785212D01*
D10*
X17982818Y57070924D02*
X17911388Y56928068D01*
D10*
X19054246Y57285212D02*
X19339960Y58285212D01*
D10*
X18982818Y56999496D02*
X19054246Y57285212D01*
D10*
X18982818Y56856640D02*
X18982818Y56999496D01*
D10*
X19054246Y56785212D02*
X18982818Y56856640D01*
D10*
X19268532Y56785212D02*
X19054246Y56785212D01*
D10*
X19411388Y56928068D02*
X19268532Y56785212D01*
D10*
X19482818Y57070924D02*
X19411388Y56928068D01*
D10*
X19125674Y57285212D02*
X19411388Y58285212D01*
D10*
X19054246Y56999496D02*
X19125674Y57285212D01*
D10*
X19054246Y56856640D02*
X19054246Y56999496D01*
D10*
X19125674Y56785212D02*
X19054246Y56856640D01*
D10*
X19054246Y57499496D02*
X19054246Y57285212D01*
D10*
X18982818Y57713780D02*
X19054246Y57499496D01*
D10*
X18839960Y57785212D02*
X18982818Y57713780D01*
D10*
X18697104Y57785212D02*
X18839960Y57785212D01*
D10*
X18482818Y57713780D02*
X18697104Y57785212D01*
D10*
X18339960Y57499496D02*
X18482818Y57713780D01*
D10*
X18268532Y57285212D02*
X18339960Y57499496D01*
D10*
X18268532Y57070924D02*
X18268532Y57285212D01*
D10*
X18339960Y56928068D02*
X18268532Y57070924D01*
D10*
X18411388Y56856640D02*
X18339960Y56928068D01*
D10*
X18554246Y56785212D02*
X18411388Y56856640D01*
D10*
X18697104Y56785212D02*
X18554246Y56785212D01*
D10*
X18839960Y56856640D02*
X18697104Y56785212D01*
D10*
X18982818Y57070924D02*
X18839960Y56856640D01*
D10*
X19054246Y57285212D02*
X18982818Y57070924D01*
D10*
X18554246Y57713780D02*
X18697104Y57785212D01*
D10*
X18411388Y57499496D02*
X18554246Y57713780D01*
D10*
X18339960Y57285212D02*
X18411388Y57499496D01*
D10*
X18339960Y56999496D02*
X18339960Y57285212D01*
D10*
X18411388Y56856640D02*
X18339960Y56999496D01*
D10*
X19411388Y58285212D02*
X19125674Y58285212D01*
D10*
X20125674Y57213780D02*
X19839960Y57142352D01*
D10*
X20339960Y57285212D02*
X20125674Y57213780D01*
D10*
X20554246Y57428068D02*
X20339960Y57285212D01*
D10*
X20625674Y57570924D02*
X20554246Y57428068D01*
D10*
X20554246Y57713780D02*
X20625674Y57570924D01*
D10*
X20411388Y57785212D02*
X20554246Y57713780D01*
D10*
X20197102Y57785212D02*
X20411388Y57785212D01*
D10*
X19982818Y57713780D02*
X20197102Y57785212D01*
D10*
X19839960Y57499496D02*
X19982818Y57713780D01*
D10*
X19768532Y57285212D02*
X19839960Y57499496D01*
D10*
X19768532Y57070924D02*
X19768532Y57285212D01*
D10*
X19839960Y56928068D02*
X19768532Y57070924D01*
D10*
X19911388Y56856640D02*
X19839960Y56928068D01*
D10*
X20054246Y56785212D02*
X19911388Y56856640D01*
D10*
X20197102Y56785212D02*
X20054246Y56785212D01*
D10*
X20411388Y56856640D02*
X20197102Y56785212D01*
D10*
X20554246Y56999496D02*
X20411388Y56856640D01*
D10*
X20054246Y57713780D02*
X20197102Y57785212D01*
D10*
X19911388Y57499496D02*
X20054246Y57713780D01*
D10*
X19839960Y57285212D02*
X19911388Y57499496D01*
D10*
X19839960Y56999496D02*
X19839960Y57285212D01*
D10*
X19911388Y56856640D02*
X19839960Y56999496D01*
D10*
X11635000Y97171064D02*
X11563572Y97242496D01*
D10*
X11563572Y97099640D02*
X11635000Y97171064D01*
D10*
X11492143Y97171064D02*
X11563572Y97099640D01*
D10*
X11492143Y97242496D02*
X11492143Y97171064D01*
D10*
X11563572Y97385352D02*
X11492143Y97242496D01*
D10*
X11635000Y97456784D02*
X11563572Y97385352D01*
D10*
X11849286Y97528208D02*
X11635000Y97456784D01*
D10*
X12063572Y97528208D02*
X11849286Y97528208D01*
D10*
X12277857Y97456784D02*
X12063572Y97528208D01*
D10*
X12349286Y97313928D02*
X12277857Y97456784D01*
D10*
X12349286Y97171064D02*
X12349286Y97313928D01*
D10*
X12277857Y97028208D02*
X12349286Y97171064D01*
D10*
X12063572Y96885352D02*
X12277857Y97028208D01*
D10*
X11849286Y96813928D02*
X12063572Y96885352D01*
D10*
X12206428Y97456784D02*
X12063572Y97528208D01*
D10*
X12277857Y97313928D02*
X12206428Y97456784D01*
D10*
X12277857Y97171064D02*
X12277857Y97313928D01*
D10*
X12206428Y97028208D02*
X12277857Y97171064D01*
D10*
X12063572Y96885352D02*
X12206428Y97028208D01*
D10*
X11849286Y96813928D02*
X11706428Y96813928D01*
D10*
X12063572Y96742496D02*
X11849286Y96813928D01*
D10*
X12135000Y96671064D02*
X12063572Y96742496D01*
D10*
X12206428Y96528208D02*
X12135000Y96671064D01*
D10*
X12206428Y96313928D02*
X12206428Y96528208D01*
D10*
X12135000Y96171064D02*
X12206428Y96313928D01*
D10*
X12063572Y96099640D02*
X12135000Y96171064D01*
D10*
X11849286Y96028208D02*
X12063572Y96099640D01*
D10*
X11563572Y96028208D02*
X11849286Y96028208D01*
D10*
X11349286Y96099640D02*
X11563572Y96028208D01*
D10*
X11277858Y96171064D02*
X11349286Y96099640D01*
D10*
X11206428Y96313928D02*
X11277858Y96171064D01*
D10*
X11206428Y96385352D02*
X11206428Y96313928D01*
D10*
X11277858Y96456784D02*
X11206428Y96385352D01*
D10*
X11349286Y96385352D02*
X11277858Y96456784D01*
D10*
X11277858Y96313928D02*
X11349286Y96385352D01*
D10*
X11992143Y96742496D02*
X11849286Y96813928D01*
D10*
X12063572Y96671064D02*
X11992143Y96742496D01*
D10*
X12135000Y96528208D02*
X12063572Y96671064D01*
D10*
X12135000Y96313928D02*
X12135000Y96528208D01*
D10*
X12063572Y96171064D02*
X12135000Y96313928D01*
D10*
X11992143Y96099640D02*
X12063572Y96171064D01*
D10*
X11849286Y96028208D02*
X11992143Y96099640D01*
D10*
X13849286Y96171064D02*
X12849286Y97171064D01*
D10*
X12849286Y96171064D02*
X13849286Y97171064D01*
D10*
X15492143Y97385352D02*
X15420714Y97385352D01*
D10*
X15563572Y97528208D02*
X15492143Y97385352D01*
D10*
X15492143Y97099640D02*
X15563572Y97528208D01*
D10*
X15492143Y97242496D02*
X15492143Y97099640D01*
D10*
X15420714Y97385352D02*
X15492143Y97242496D01*
D10*
X15349286Y97456784D02*
X15420714Y97385352D01*
D10*
X15206429Y97528208D02*
X15349286Y97456784D01*
D10*
X14992143Y97528208D02*
X15206429Y97528208D01*
D10*
X14777857Y97456784D02*
X14992143Y97528208D01*
D10*
X14635000Y97313928D02*
X14777857Y97456784D01*
D10*
X14492143Y97099640D02*
X14635000Y97313928D01*
D10*
X14420714Y96885352D02*
X14492143Y97099640D01*
D10*
X14349286Y96599640D02*
X14420714Y96885352D01*
D10*
X14349286Y96385352D02*
X14349286Y96599640D01*
D10*
X14420714Y96171064D02*
X14349286Y96385352D01*
D10*
X14492143Y96099640D02*
X14420714Y96171064D01*
D10*
X14706428Y96028208D02*
X14492143Y96099640D01*
D10*
X14849286Y96028208D02*
X14706428Y96028208D01*
D10*
X15063572Y96099640D02*
X14849286Y96028208D01*
D10*
X15206429Y96242496D02*
X15063572Y96099640D01*
D10*
X15349286Y96528208D02*
X15206429Y96242496D01*
D10*
X14849286Y97456784D02*
X14992143Y97528208D01*
D10*
X14706428Y97313928D02*
X14849286Y97456784D01*
D10*
X14563572Y97099640D02*
X14706428Y97313928D01*
D10*
X14492143Y96885352D02*
X14563572Y97099640D01*
D10*
X14420714Y96599640D02*
X14492143Y96885352D01*
D10*
X14420714Y96385352D02*
X14420714Y96599640D01*
D10*
X14492143Y96171064D02*
X14420714Y96385352D01*
D10*
X14563572Y96099640D02*
X14492143Y96171064D01*
D10*
X14706428Y96028208D02*
X14563572Y96099640D01*
D10*
X14992143Y96099640D02*
X14849286Y96028208D01*
D10*
X15135000Y96242496D02*
X14992143Y96099640D01*
D10*
X15277857Y96528208D02*
X15135000Y96242496D01*
D10*
X15563572Y96528208D02*
X15063572Y96528208D01*
D10*
X15920714Y96028208D02*
X16349286Y97528208D01*
D10*
X16849286Y96242496D02*
X16349286Y97528208D01*
D10*
X16849286Y96028208D02*
X16349286Y97313928D01*
D10*
X16849286Y96028208D02*
X17277858Y97528208D01*
D10*
X16349286Y97528208D02*
X16135000Y97528208D01*
D10*
X17492142Y97528208D02*
X17063572Y97528208D01*
D10*
X16135000Y96028208D02*
X15706428Y96028208D01*
D10*
X17706428Y96028208D02*
X18135000Y97528208D01*
D10*
X17777858Y96028208D02*
X18206428Y97528208D01*
D10*
X18563572Y97528208D02*
X17920714Y97528208D01*
D10*
X18777858Y97456784D02*
X18563572Y97528208D01*
D10*
X18849286Y97385352D02*
X18777858Y97456784D01*
D10*
X18920714Y97171064D02*
X18849286Y97385352D01*
D10*
X18920714Y96885352D02*
X18920714Y97171064D01*
D10*
X18849286Y96599640D02*
X18920714Y96885352D01*
D10*
X18706428Y96313928D02*
X18849286Y96599640D01*
D10*
X18563572Y96171064D02*
X18706428Y96313928D01*
D10*
X18420714Y96099640D02*
X18563572Y96171064D01*
D10*
X18135000Y96028208D02*
X18420714Y96099640D01*
D10*
X17492142Y96028208D02*
X18135000Y96028208D01*
D10*
X18706428Y97456784D02*
X18563572Y97528208D01*
D10*
X18777858Y97385352D02*
X18706428Y97456784D01*
D10*
X18849286Y97171064D02*
X18777858Y97385352D01*
D10*
X18849286Y96885352D02*
X18849286Y97171064D01*
D10*
X18777858Y96599640D02*
X18849286Y96885352D01*
D10*
X18635000Y96313928D02*
X18777858Y96599640D01*
D10*
X18492142Y96171064D02*
X18635000Y96313928D01*
D10*
X18349286Y96099640D02*
X18492142Y96171064D01*
D10*
X18135000Y96028208D02*
X18349286Y96099640D01*
D10*
X7206429Y85868208D02*
X7635000Y87368208D01*
D10*
X7277857Y85868208D02*
X7706429Y87368208D01*
D10*
X6992143Y86939640D02*
X7206429Y87368208D01*
D10*
X7135000Y87368208D02*
X6992143Y86939640D01*
D10*
X8206429Y87368208D02*
X7135000Y87368208D01*
D10*
X8135000Y86939640D02*
X8206429Y87368208D01*
D10*
X8135000Y87368208D02*
X8135000Y86939640D01*
D10*
X7492143Y85868208D02*
X6992143Y85868208D01*
D10*
X9206429Y85868208D02*
X8706429Y87368208D01*
D10*
X9277857Y85868208D02*
X8777857Y87368208D01*
D10*
X8277857Y85868208D02*
X9706429Y87368208D01*
D10*
X8992143Y87368208D02*
X8563572Y87368208D01*
D10*
X9849286Y87368208D02*
X9420714Y87368208D01*
D10*
X8563572Y85868208D02*
X8135000Y85868208D01*
D10*
X9420714Y85868208D02*
X8992143Y85868208D01*
D10*
X10563572Y85868208D02*
X10992143Y87368208D01*
D10*
X10635000Y85868208D02*
X11063572Y87368208D01*
D10*
X11420714Y87368208D02*
X10777858Y87368208D01*
D10*
X11635000Y87296784D02*
X11420714Y87368208D01*
D10*
X11706428Y87225352D02*
X11635000Y87296784D01*
D10*
X11777858Y87011064D02*
X11706428Y87225352D01*
D10*
X11777858Y86725352D02*
X11777858Y87011064D01*
D10*
X11706428Y86439640D02*
X11777858Y86725352D01*
D10*
X11563572Y86153928D02*
X11706428Y86439640D01*
D10*
X11420714Y86011064D02*
X11563572Y86153928D01*
D10*
X11277858Y85939640D02*
X11420714Y86011064D01*
D10*
X10992143Y85868208D02*
X11277858Y85939640D01*
D10*
X10349286Y85868208D02*
X10992143Y85868208D01*
D10*
X11563572Y87296784D02*
X11420714Y87368208D01*
D10*
X11635000Y87225352D02*
X11563572Y87296784D01*
D10*
X11706428Y87011064D02*
X11635000Y87225352D01*
D10*
X11706428Y86725352D02*
X11706428Y87011064D01*
D10*
X11635000Y86439640D02*
X11706428Y86725352D01*
D10*
X11492143Y86153928D02*
X11635000Y86439640D01*
D10*
X11349286Y86011064D02*
X11492143Y86153928D01*
D10*
X11206428Y85939640D02*
X11349286Y86011064D01*
D10*
X10992143Y85868208D02*
X11206428Y85939640D01*
D10*
X12563572Y87296784D02*
X12635000Y87368208D01*
D10*
X12635000Y87225352D02*
X12563572Y87296784D01*
D10*
X12706428Y87296784D02*
X12635000Y87225352D01*
D10*
X12635000Y87368208D02*
X12706428Y87296784D01*
D10*
X12135000Y86725352D02*
X12063572Y86582496D01*
D10*
X12277857Y86868208D02*
X12135000Y86725352D01*
D10*
X12492143Y86868208D02*
X12277857Y86868208D01*
D10*
X12563572Y86796784D02*
X12492143Y86868208D01*
D10*
X12563572Y86582496D02*
X12563572Y86796784D01*
D10*
X12420714Y86153928D02*
X12563572Y86582496D01*
D10*
X12420714Y85939640D02*
X12420714Y86153928D01*
D10*
X12492143Y85868208D02*
X12420714Y85939640D01*
D10*
X12492143Y86796784D02*
X12420714Y86868208D01*
D10*
X12492143Y86582496D02*
X12492143Y86796784D01*
D10*
X12349286Y86153928D02*
X12492143Y86582496D01*
D10*
X12349286Y85939640D02*
X12349286Y86153928D01*
D10*
X12420714Y85868208D02*
X12349286Y85939640D01*
D10*
X12635000Y85868208D02*
X12420714Y85868208D01*
D10*
X12777857Y86011064D02*
X12635000Y85868208D01*
D10*
X12849286Y86153928D02*
X12777857Y86011064D01*
D10*
X13920714Y86653928D02*
X13920714Y86725352D01*
D10*
X13992143Y86653928D02*
X13920714Y86653928D01*
D10*
X13992143Y86725352D02*
X13992143Y86653928D01*
D10*
X13920714Y86796784D02*
X13992143Y86725352D01*
D10*
X13706428Y86868208D02*
X13920714Y86796784D01*
D10*
X13492143Y86868208D02*
X13706428Y86868208D01*
D10*
X13277857Y86796784D02*
X13492143Y86868208D01*
D10*
X13206428Y86725352D02*
X13277857Y86796784D01*
D10*
X13206428Y86582496D02*
X13206428Y86725352D01*
D10*
X13277857Y86511064D02*
X13206428Y86582496D01*
D10*
X13777857Y86225352D02*
X13277857Y86511064D01*
D10*
X13849286Y86153928D02*
X13777857Y86225352D01*
D10*
X13277857Y86582496D02*
X13206428Y86653928D01*
D10*
X13777857Y86296784D02*
X13277857Y86582496D01*
D10*
X13849286Y86225352D02*
X13777857Y86296784D01*
D10*
X13849286Y86011064D02*
X13849286Y86225352D01*
D10*
X13777857Y85939640D02*
X13849286Y86011064D01*
D10*
X13563572Y85868208D02*
X13777857Y85939640D01*
D10*
X13349286Y85868208D02*
X13563572Y85868208D01*
D10*
X13135000Y85939640D02*
X13349286Y85868208D01*
D10*
X13063572Y86011064D02*
X13135000Y85939640D01*
D10*
X13063572Y86082496D02*
X13063572Y86011064D01*
D10*
X13135000Y86082496D02*
X13063572Y86082496D01*
D10*
X13135000Y86011064D02*
X13135000Y86082496D01*
D10*
X15135000Y86368208D02*
X15277857Y86868208D01*
D10*
X15063572Y86082496D02*
X15135000Y86368208D01*
D10*
X15063572Y85939640D02*
X15063572Y86082496D01*
D10*
X15135000Y85868208D02*
X15063572Y85939640D01*
D10*
X15349286Y85868208D02*
X15135000Y85868208D01*
D10*
X15492143Y86011064D02*
X15349286Y85868208D01*
D10*
X15563572Y86153928D02*
X15492143Y86011064D01*
D10*
X15206429Y86368208D02*
X15349286Y86868208D01*
D10*
X15135000Y86082496D02*
X15206429Y86368208D01*
D10*
X15135000Y85939640D02*
X15135000Y86082496D01*
D10*
X15206429Y85868208D02*
X15135000Y85939640D01*
D10*
X15135000Y86582496D02*
X15135000Y86368208D01*
D10*
X15063572Y86796784D02*
X15135000Y86582496D01*
D10*
X14920714Y86868208D02*
X15063572Y86796784D01*
D10*
X14777857Y86868208D02*
X14920714Y86868208D01*
D10*
X14563572Y86796784D02*
X14777857Y86868208D01*
D10*
X14420714Y86582496D02*
X14563572Y86796784D01*
D10*
X14349286Y86368208D02*
X14420714Y86582496D01*
D10*
X14349286Y86153928D02*
X14349286Y86368208D01*
D10*
X14420714Y86011064D02*
X14349286Y86153928D01*
D10*
X14492143Y85939640D02*
X14420714Y86011064D01*
D10*
X14635000Y85868208D02*
X14492143Y85939640D01*
D10*
X14777857Y85868208D02*
X14635000Y85868208D01*
D10*
X14920714Y85939640D02*
X14777857Y85868208D01*
D10*
X15063572Y86153928D02*
X14920714Y85939640D01*
D10*
X15135000Y86368208D02*
X15063572Y86153928D01*
D10*
X14635000Y86796784D02*
X14777857Y86868208D01*
D10*
X14492143Y86582496D02*
X14635000Y86796784D01*
D10*
X14420714Y86368208D02*
X14492143Y86582496D01*
D10*
X14420714Y86082496D02*
X14420714Y86368208D01*
D10*
X14492143Y85939640D02*
X14420714Y86082496D01*
D10*
X15920714Y86439640D02*
X16206428Y87368208D01*
D10*
X15920714Y86225352D02*
X15920714Y86439640D01*
D10*
X15992143Y86011064D02*
X15920714Y86225352D01*
D10*
X16063572Y85939640D02*
X15992143Y86011064D01*
D10*
X15992143Y86439640D02*
X16277857Y87368208D01*
D10*
X16063572Y86653928D02*
X15992143Y86439640D01*
D10*
X16206428Y86796784D02*
X16063572Y86653928D01*
D10*
X16349286Y86868208D02*
X16206428Y86796784D01*
D10*
X16492143Y86868208D02*
X16349286Y86868208D01*
D10*
X16635000Y86796784D02*
X16492143Y86868208D01*
D10*
X16706428Y86725352D02*
X16635000Y86796784D01*
D10*
X16777858Y86582496D02*
X16706428Y86725352D01*
D10*
X16777858Y86368208D02*
X16777858Y86582496D01*
D10*
X16706428Y86153928D02*
X16777858Y86368208D01*
D10*
X16563572Y85939640D02*
X16706428Y86153928D01*
D10*
X16349286Y85868208D02*
X16563572Y85939640D01*
D10*
X16206428Y85868208D02*
X16349286Y85868208D01*
D10*
X16063572Y85939640D02*
X16206428Y85868208D01*
D10*
X15992143Y86153928D02*
X16063572Y85939640D01*
D10*
X15992143Y86439640D02*
X15992143Y86153928D01*
D10*
X16706428Y86653928D02*
X16635000Y86796784D01*
D10*
X16706428Y86368208D02*
X16706428Y86653928D01*
D10*
X16635000Y86153928D02*
X16706428Y86368208D01*
D10*
X16492143Y85939640D02*
X16635000Y86153928D01*
D10*
X16349286Y85868208D02*
X16492143Y85939640D01*
D10*
X16277857Y87368208D02*
X15992143Y87368208D01*
D10*
X17277858Y86368208D02*
X17563572Y87368208D01*
D10*
X17206428Y86082496D02*
X17277858Y86368208D01*
D10*
X17206428Y85939640D02*
X17206428Y86082496D01*
D10*
X17277858Y85868208D02*
X17206428Y85939640D01*
D10*
X17492142Y85868208D02*
X17277858Y85868208D01*
D10*
X17635000Y86011064D02*
X17492142Y85868208D01*
D10*
X17706428Y86153928D02*
X17635000Y86011064D01*
D10*
X17349286Y86368208D02*
X17635000Y87368208D01*
D10*
X17277858Y86082496D02*
X17349286Y86368208D01*
D10*
X17277858Y85939640D02*
X17277858Y86082496D01*
D10*
X17349286Y85868208D02*
X17277858Y85939640D01*
D10*
X17635000Y87368208D02*
X17349286Y87368208D01*
D10*
X18420714Y86296784D02*
X18135000Y86225352D01*
D10*
X18635000Y86368208D02*
X18420714Y86296784D01*
D10*
X18849286Y86511064D02*
X18635000Y86368208D01*
D10*
X18920714Y86653928D02*
X18849286Y86511064D01*
D10*
X18849286Y86796784D02*
X18920714Y86653928D01*
D10*
X18706428Y86868208D02*
X18849286Y86796784D01*
D10*
X18492142Y86868208D02*
X18706428Y86868208D01*
D10*
X18277858Y86796784D02*
X18492142Y86868208D01*
D10*
X18135000Y86582496D02*
X18277858Y86796784D01*
D10*
X18063572Y86368208D02*
X18135000Y86582496D01*
D10*
X18063572Y86153928D02*
X18063572Y86368208D01*
D10*
X18135000Y86011064D02*
X18063572Y86153928D01*
D10*
X18206428Y85939640D02*
X18135000Y86011064D01*
D10*
X18349286Y85868208D02*
X18206428Y85939640D01*
D10*
X18492142Y85868208D02*
X18349286Y85868208D01*
D10*
X18706428Y85939640D02*
X18492142Y85868208D01*
D10*
X18849286Y86082496D02*
X18706428Y85939640D01*
D10*
X18349286Y86796784D02*
X18492142Y86868208D01*
D10*
X18206428Y86582496D02*
X18349286Y86796784D01*
D10*
X18135000Y86368208D02*
X18206428Y86582496D01*
D10*
X18135000Y86082496D02*
X18135000Y86368208D01*
D10*
X18206428Y85939640D02*
X18135000Y86082496D01*
D10*
X13920714Y73168208D02*
X13849286Y74668208D01*
D10*
X13992143Y73311064D02*
X13920714Y74668208D01*
D10*
X13920714Y73168208D02*
X14849286Y74668208D01*
D10*
X14135000Y74668208D02*
X13706428Y74668208D01*
D10*
X14992143Y74668208D02*
X14563572Y74668208D01*
D10*
X15849286Y73882496D02*
X15849286Y73953928D01*
D10*
X15920714Y73882496D02*
X15849286Y73882496D01*
D10*
X15920714Y73953928D02*
X15920714Y73882496D01*
D10*
X15849286Y74096784D02*
X15920714Y73953928D01*
D10*
X15706428Y74168208D02*
X15849286Y74096784D01*
D10*
X15492143Y74168208D02*
X15706428Y74168208D01*
D10*
X15277857Y74096784D02*
X15492143Y74168208D01*
D10*
X15135000Y73882496D02*
X15277857Y74096784D01*
D10*
X15063572Y73668208D02*
X15135000Y73882496D01*
D10*
X15063572Y73453928D02*
X15063572Y73668208D01*
D10*
X15135000Y73311064D02*
X15063572Y73453928D01*
D10*
X15206429Y73239640D02*
X15135000Y73311064D01*
D10*
X15349286Y73168208D02*
X15206429Y73239640D01*
D10*
X15492143Y73168208D02*
X15349286Y73168208D01*
D10*
X15706428Y73239640D02*
X15492143Y73168208D01*
D10*
X15849286Y73453928D02*
X15706428Y73239640D01*
D10*
X15349286Y74096784D02*
X15492143Y74168208D01*
D10*
X15206429Y73882496D02*
X15349286Y74096784D01*
D10*
X15135000Y73668208D02*
X15206429Y73882496D01*
D10*
X15135000Y73382496D02*
X15135000Y73668208D01*
D10*
X15206429Y73239640D02*
X15135000Y73382496D01*
D10*
X17135000Y73882496D02*
X17135000Y73953928D01*
D10*
X17206428Y73882496D02*
X17135000Y73882496D01*
D10*
X17206428Y73953928D02*
X17206428Y73882496D01*
D10*
X17135000Y74096784D02*
X17206428Y73953928D01*
D10*
X16992144Y74168208D02*
X17135000Y74096784D01*
D10*
X16777858Y74168208D02*
X16992144Y74168208D01*
D10*
X16563572Y74096784D02*
X16777858Y74168208D01*
D10*
X16420714Y73882496D02*
X16563572Y74096784D01*
D10*
X16349286Y73668208D02*
X16420714Y73882496D01*
D10*
X16349286Y73453928D02*
X16349286Y73668208D01*
D10*
X16420714Y73311064D02*
X16349286Y73453928D01*
D10*
X16492143Y73239640D02*
X16420714Y73311064D01*
D10*
X16635000Y73168208D02*
X16492143Y73239640D01*
D10*
X16777858Y73168208D02*
X16635000Y73168208D01*
D10*
X16992144Y73239640D02*
X16777858Y73168208D01*
D10*
X17135000Y73453928D02*
X16992144Y73239640D01*
D10*
X16635000Y74096784D02*
X16777858Y74168208D01*
D10*
X16492143Y73882496D02*
X16635000Y74096784D01*
D10*
X16420714Y73668208D02*
X16492143Y73882496D01*
D10*
X16420714Y73382496D02*
X16420714Y73668208D01*
D10*
X16492143Y73239640D02*
X16420714Y73382496D01*
D10*
X17635000Y73168208D02*
X18063572Y74668208D01*
D10*
X17706428Y73168208D02*
X18135000Y74668208D01*
D10*
X18635000Y74668208D02*
X17849286Y74668208D01*
D10*
X18849286Y74596784D02*
X18635000Y74668208D01*
D10*
X18920714Y74453928D02*
X18849286Y74596784D01*
D10*
X18920714Y74311064D02*
X18920714Y74453928D01*
D10*
X18849286Y74096784D02*
X18920714Y74311064D01*
D10*
X18777858Y74025352D02*
X18849286Y74096784D01*
D10*
X18563572Y73953928D02*
X18777858Y74025352D01*
D10*
X17920714Y73953928D02*
X18563572Y73953928D01*
D10*
X18777858Y74596784D02*
X18635000Y74668208D01*
D10*
X18849286Y74453928D02*
X18777858Y74596784D01*
D10*
X18849286Y74311064D02*
X18849286Y74453928D01*
D10*
X18777858Y74096784D02*
X18849286Y74311064D01*
D10*
X18706428Y74025352D02*
X18777858Y74096784D01*
D10*
X18563572Y73953928D02*
X18706428Y74025352D01*
D10*
X18420714Y73882496D02*
X18277858Y73953928D01*
D10*
X18492142Y73811064D02*
X18420714Y73882496D01*
D10*
X18563572Y73239640D02*
X18492142Y73811064D01*
D10*
X18635000Y73168208D02*
X18563572Y73239640D01*
D10*
X18777858Y73168208D02*
X18635000Y73168208D01*
D10*
X18849286Y73311064D02*
X18777858Y73168208D01*
D10*
X18849286Y73382496D02*
X18849286Y73311064D01*
D10*
X18635000Y73311064D02*
X18492142Y73811064D01*
D10*
X18706428Y73239640D02*
X18635000Y73311064D01*
D10*
X18777858Y73239640D02*
X18706428Y73239640D01*
D10*
X18849286Y73311064D02*
X18777858Y73239640D01*
D10*
X17920714Y73168208D02*
X17420714Y73168208D01*
D10*
X1774285Y59948216D02*
X2202857Y61448216D01*
D10*
X2702857Y60162500D02*
X2202857Y61448216D01*
D10*
X2702857Y59948216D02*
X2202857Y61233928D01*
D10*
X2702857Y59948216D02*
X3131428Y61448216D01*
D10*
X2202857Y61448216D02*
X1988571Y61448216D01*
D10*
X3345714Y61448216D02*
X2917143Y61448216D01*
D10*
X1988571Y59948216D02*
X1560000Y59948216D01*
D10*
X3988571Y61376784D02*
X4202857Y61448216D01*
D10*
X3845714Y61233928D02*
X3988571Y61376784D01*
D10*
X3702857Y61019644D02*
X3845714Y61233928D01*
D10*
X3631428Y60805356D02*
X3702857Y61019644D01*
D10*
X3560000Y60519644D02*
X3631428Y60805356D01*
D10*
X3560000Y60305356D02*
X3560000Y60519644D01*
D10*
X3631428Y60091072D02*
X3560000Y60305356D01*
D10*
X3702857Y60019644D02*
X3631428Y60091072D01*
D10*
X3845714Y59948216D02*
X3702857Y60019644D01*
D10*
X4060000Y59948216D02*
X3845714Y59948216D01*
D10*
X4274286Y60019644D02*
X4060000Y59948216D01*
D10*
X4417143Y60162500D02*
X4274286Y60019644D01*
D10*
X4560000Y60376784D02*
X4417143Y60162500D01*
D10*
X4631428Y60591072D02*
X4560000Y60376784D01*
D10*
X4702857Y60876784D02*
X4631428Y60591072D01*
D10*
X4702857Y61091072D02*
X4702857Y60876784D01*
D10*
X4631428Y61305356D02*
X4702857Y61091072D01*
D10*
X4560000Y61376784D02*
X4631428Y61305356D01*
D10*
X4417143Y61448216D02*
X4560000Y61376784D01*
D10*
X4202857Y61448216D02*
X4417143Y61448216D01*
D10*
X4060000Y61376784D02*
X4202857Y61448216D01*
D10*
X3917142Y61233928D02*
X4060000Y61376784D01*
D10*
X3774285Y61019644D02*
X3917142Y61233928D01*
D10*
X3702857Y60805356D02*
X3774285Y61019644D01*
D10*
X3631428Y60519644D02*
X3702857Y60805356D01*
D10*
X3631428Y60305356D02*
X3631428Y60519644D01*
D10*
X3702857Y60091072D02*
X3631428Y60305356D01*
D10*
X3845714Y59948216D02*
X3702857Y60091072D01*
D10*
X4202857Y60019644D02*
X4060000Y59948216D01*
D10*
X4345714Y60162500D02*
X4202857Y60019644D01*
D10*
X4488571Y60376784D02*
X4345714Y60162500D01*
D10*
X4560000Y60591072D02*
X4488571Y60376784D01*
D10*
X4631428Y60876784D02*
X4560000Y60591072D01*
D10*
X4631428Y61091072D02*
X4631428Y60876784D01*
D10*
X4560000Y61305356D02*
X4631428Y61091072D01*
D10*
X4417143Y61448216D02*
X4560000Y61305356D01*
D10*
X5417143Y59948216D02*
X5845714Y61448216D01*
D10*
X5488571Y59948216D02*
X5917143Y61448216D01*
D10*
X5202857Y61019644D02*
X5417143Y61448216D01*
D10*
X5345714Y61448216D02*
X5202857Y61019644D01*
D10*
X6417143Y61448216D02*
X5345714Y61448216D01*
D10*
X6345714Y61019644D02*
X6417143Y61448216D01*
D10*
X6345714Y61448216D02*
X6345714Y61019644D01*
D10*
X5702857Y59948216D02*
X5202857Y59948216D01*
D10*
X7202857Y59948216D02*
X7631428Y61448216D01*
D10*
X7274285Y59948216D02*
X7702857Y61448216D01*
D10*
X8131428Y59948216D02*
X8560000Y61448216D01*
D10*
X8202857Y59948216D02*
X8631428Y61448216D01*
D10*
X7917143Y61448216D02*
X7417143Y61448216D01*
D10*
X8845714Y61448216D02*
X8345714Y61448216D01*
D10*
X8345714Y60733928D02*
X7488571Y60733928D01*
D10*
X7488571Y59948216D02*
X6988571Y59948216D01*
D10*
X8417143Y59948216D02*
X7917143Y59948216D01*
D10*
X9060000Y59948216D02*
X9488572Y61448216D01*
D10*
X9131428Y59948216D02*
X9560000Y61448216D01*
D10*
X9917142Y61448216D02*
X9274286Y61448216D01*
D10*
X10131428Y61376784D02*
X9917142Y61448216D01*
D10*
X10202857Y61305356D02*
X10131428Y61376784D01*
D10*
X10274286Y61091072D02*
X10202857Y61305356D01*
D10*
X10274286Y60805356D02*
X10274286Y61091072D01*
D10*
X10202857Y60519644D02*
X10274286Y60805356D01*
D10*
X10060000Y60233928D02*
X10202857Y60519644D01*
D10*
X9917142Y60091072D02*
X10060000Y60233928D01*
D10*
X9774286Y60019644D02*
X9917142Y60091072D01*
D10*
X9488572Y59948216D02*
X9774286Y60019644D01*
D10*
X8845714Y59948216D02*
X9488572Y59948216D01*
D10*
X10060000Y61376784D02*
X9917142Y61448216D01*
D10*
X10131428Y61305356D02*
X10060000Y61376784D01*
D10*
X10202857Y61091072D02*
X10131428Y61305356D01*
D10*
X10202857Y60805356D02*
X10202857Y61091072D01*
D10*
X10131428Y60519644D02*
X10202857Y60805356D01*
D10*
X9988571Y60233928D02*
X10131428Y60519644D01*
D10*
X9845714Y60091072D02*
X9988571Y60233928D01*
D10*
X9702857Y60019644D02*
X9845714Y60091072D01*
D10*
X9488572Y59948216D02*
X9702857Y60019644D01*
D10*
X10702857Y59948216D02*
X11131428Y61448216D01*
D10*
X11202857Y59948216D02*
X11131428Y61448216D01*
D10*
X11274286Y60091072D02*
X11202857Y61448216D01*
D10*
X11202857Y59948216D02*
X12131428Y61448216D01*
D10*
X11702857Y59948216D02*
X12131428Y61448216D01*
D10*
X11774286Y59948216D02*
X12202857Y61448216D01*
D10*
X11202857Y61448216D02*
X10917143Y61448216D01*
D10*
X12417143Y61448216D02*
X12131428Y61448216D01*
D10*
X10917143Y59948216D02*
X10488571Y59948216D01*
D10*
X11988571Y59948216D02*
X11488571Y59948216D01*
D10*
X12631428Y59948216D02*
X13060000Y61448216D01*
D10*
X12702857Y59948216D02*
X13131428Y61448216D01*
D10*
X13345714Y61448216D02*
X12845714Y61448216D01*
D10*
X12917143Y59948216D02*
X12417143Y59948216D01*
D10*
X14706428Y78248208D02*
X15135000Y79748208D01*
D10*
X14777857Y78248208D02*
X15206429Y79748208D01*
D10*
X15420714Y79748208D02*
X14920714Y79748208D01*
D10*
X15563572Y78248208D02*
X14492143Y78248208D01*
D10*
X15706428Y78676784D02*
X15563572Y78248208D01*
D10*
X15492143Y78248208D02*
X15706428Y78676784D01*
D10*
X16563572Y79676784D02*
X16777858Y79748208D01*
D10*
X16420714Y79533928D02*
X16563572Y79676784D01*
D10*
X16277857Y79319640D02*
X16420714Y79533928D01*
D10*
X16206428Y79105352D02*
X16277857Y79319640D01*
D10*
X16135000Y78819640D02*
X16206428Y79105352D01*
D10*
X16135000Y78605352D02*
X16135000Y78819640D01*
D10*
X16206428Y78391064D02*
X16135000Y78605352D01*
D10*
X16277857Y78319640D02*
X16206428Y78391064D01*
D10*
X16420714Y78248208D02*
X16277857Y78319640D01*
D10*
X16635000Y78248208D02*
X16420714Y78248208D01*
D10*
X16849286Y78319640D02*
X16635000Y78248208D01*
D10*
X16992144Y78462496D02*
X16849286Y78319640D01*
D10*
X17135000Y78676784D02*
X16992144Y78462496D01*
D10*
X17206428Y78891064D02*
X17135000Y78676784D01*
D10*
X17277858Y79176784D02*
X17206428Y78891064D01*
D10*
X17277858Y79391064D02*
X17277858Y79176784D01*
D10*
X17206428Y79605352D02*
X17277858Y79391064D01*
D10*
X17135000Y79676784D02*
X17206428Y79605352D01*
D10*
X16992144Y79748208D02*
X17135000Y79676784D01*
D10*
X16777858Y79748208D02*
X16992144Y79748208D01*
D10*
X16635000Y79676784D02*
X16777858Y79748208D01*
D10*
X16492143Y79533928D02*
X16635000Y79676784D01*
D10*
X16349286Y79319640D02*
X16492143Y79533928D01*
D10*
X16277857Y79105352D02*
X16349286Y79319640D01*
D10*
X16206428Y78819640D02*
X16277857Y79105352D01*
D10*
X16206428Y78605352D02*
X16206428Y78819640D01*
D10*
X16277857Y78391064D02*
X16206428Y78605352D01*
D10*
X16420714Y78248208D02*
X16277857Y78391064D01*
D10*
X16777858Y78319640D02*
X16635000Y78248208D01*
D10*
X16920714Y78462496D02*
X16777858Y78319640D01*
D10*
X17063572Y78676784D02*
X16920714Y78462496D01*
D10*
X17135000Y78891064D02*
X17063572Y78676784D01*
D10*
X17206428Y79176784D02*
X17135000Y78891064D01*
D10*
X17206428Y79391064D02*
X17206428Y79176784D01*
D10*
X17135000Y79605352D02*
X17206428Y79391064D01*
D10*
X16992144Y79748208D02*
X17135000Y79605352D01*
D10*
X18920714Y79605352D02*
X18849286Y79605352D01*
D10*
X18992142Y79748208D02*
X18920714Y79605352D01*
D10*
X18920714Y79319640D02*
X18992142Y79748208D01*
D10*
X18920714Y79462496D02*
X18920714Y79319640D01*
D10*
X18849286Y79605352D02*
X18920714Y79462496D01*
D10*
X18777858Y79676784D02*
X18849286Y79605352D01*
D10*
X18563572Y79748208D02*
X18777858Y79676784D01*
D10*
X18277858Y79748208D02*
X18563572Y79748208D01*
D10*
X18063572Y79676784D02*
X18277858Y79748208D01*
D10*
X17920714Y79533928D02*
X18063572Y79676784D01*
D10*
X17920714Y79391064D02*
X17920714Y79533928D01*
D10*
X17992142Y79248208D02*
X17920714Y79391064D01*
D10*
X18063572Y79176784D02*
X17992142Y79248208D01*
D10*
X18563572Y78891064D02*
X18063572Y79176784D01*
D10*
X18706428Y78748208D02*
X18563572Y78891064D01*
D10*
X18063572Y79248208D02*
X17920714Y79391064D01*
D10*
X18563572Y78962496D02*
X18063572Y79248208D01*
D10*
X18635000Y78891064D02*
X18563572Y78962496D01*
D10*
X18706428Y78748208D02*
X18635000Y78891064D01*
D10*
X18706428Y78533928D02*
X18706428Y78748208D01*
D10*
X18635000Y78391064D02*
X18706428Y78533928D01*
D10*
X18563572Y78319640D02*
X18635000Y78391064D01*
D10*
X18349286Y78248208D02*
X18563572Y78319640D01*
D10*
X18063572Y78248208D02*
X18349286Y78248208D01*
D10*
X17849286Y78319640D02*
X18063572Y78248208D01*
D10*
X17777858Y78391064D02*
X17849286Y78319640D01*
D10*
X17706428Y78533928D02*
X17777858Y78391064D01*
D10*
X17706428Y78676784D02*
X17706428Y78533928D01*
D10*
X17635000Y78248208D02*
X17706428Y78676784D01*
D10*
X17706428Y78391064D02*
X17635000Y78248208D01*
D10*
X17777858Y78391064D02*
X17706428Y78391064D01*
D10*
X15849286Y92305352D02*
X15777857Y92305352D01*
D10*
X15920714Y92448208D02*
X15849286Y92305352D01*
D10*
X15849286Y92019640D02*
X15920714Y92448208D01*
D10*
X15849286Y92162496D02*
X15849286Y92019640D01*
D10*
X15777857Y92305352D02*
X15849286Y92162496D01*
D10*
X15706428Y92376784D02*
X15777857Y92305352D01*
D10*
X15492143Y92448208D02*
X15706428Y92376784D01*
D10*
X15206429Y92448208D02*
X15492143Y92448208D01*
D10*
X14992143Y92376784D02*
X15206429Y92448208D01*
D10*
X14849286Y92233928D02*
X14992143Y92376784D01*
D10*
X14849286Y92091064D02*
X14849286Y92233928D01*
D10*
X14920714Y91948208D02*
X14849286Y92091064D01*
D10*
X14992143Y91876784D02*
X14920714Y91948208D01*
D10*
X15492143Y91591064D02*
X14992143Y91876784D01*
D10*
X15635000Y91448208D02*
X15492143Y91591064D01*
D10*
X14992143Y91948208D02*
X14849286Y92091064D01*
D10*
X15492143Y91662496D02*
X14992143Y91948208D01*
D10*
X15563572Y91591064D02*
X15492143Y91662496D01*
D10*
X15635000Y91448208D02*
X15563572Y91591064D01*
D10*
X15635000Y91233928D02*
X15635000Y91448208D01*
D10*
X15563572Y91091064D02*
X15635000Y91233928D01*
D10*
X15492143Y91019640D02*
X15563572Y91091064D01*
D10*
X15277857Y90948208D02*
X15492143Y91019640D01*
D10*
X14992143Y90948208D02*
X15277857Y90948208D01*
D10*
X14777857Y91019640D02*
X14992143Y90948208D01*
D10*
X14706428Y91091064D02*
X14777857Y91019640D01*
D10*
X14635000Y91233928D02*
X14706428Y91091064D01*
D10*
X14635000Y91376784D02*
X14635000Y91233928D01*
D10*
X14563572Y90948208D02*
X14635000Y91376784D01*
D10*
X14635000Y91091064D02*
X14563572Y90948208D01*
D10*
X14706428Y91091064D02*
X14635000Y91091064D01*
D10*
X16277857Y90948208D02*
X16706428Y92448208D01*
D10*
X16349286Y90948208D02*
X16777858Y92448208D01*
D10*
X17135000Y92448208D02*
X16492143Y92448208D01*
D10*
X17349286Y92376784D02*
X17135000Y92448208D01*
D10*
X17420714Y92305352D02*
X17349286Y92376784D01*
D10*
X17492142Y92091064D02*
X17420714Y92305352D01*
D10*
X17492142Y91805352D02*
X17492142Y92091064D01*
D10*
X17420714Y91519640D02*
X17492142Y91805352D01*
D10*
X17277858Y91233928D02*
X17420714Y91519640D01*
D10*
X17135000Y91091064D02*
X17277858Y91233928D01*
D10*
X16992144Y91019640D02*
X17135000Y91091064D01*
D10*
X16706428Y90948208D02*
X16992144Y91019640D01*
D10*
X16063572Y90948208D02*
X16706428Y90948208D01*
D10*
X17277858Y92376784D02*
X17135000Y92448208D01*
D10*
X17349286Y92305352D02*
X17277858Y92376784D01*
D10*
X17420714Y92091064D02*
X17349286Y92305352D01*
D10*
X17420714Y91805352D02*
X17420714Y92091064D01*
D10*
X17349286Y91519640D02*
X17420714Y91805352D01*
D10*
X17206428Y91233928D02*
X17349286Y91519640D01*
D10*
X17063572Y91091064D02*
X17206428Y91233928D01*
D10*
X16920714Y91019640D02*
X17063572Y91091064D01*
D10*
X16706428Y90948208D02*
X16920714Y91019640D01*
D10*
X17706428Y90948208D02*
X18635000Y92448208D01*
D10*
X18706428Y90948208D02*
X18635000Y92448208D01*
D10*
X18635000Y90948208D02*
X18563572Y92305352D01*
D10*
X18635000Y91376784D02*
X17992142Y91376784D01*
D10*
X17992142Y90948208D02*
X17563572Y90948208D01*
D10*
X18849286Y90948208D02*
X18420714Y90948208D01*
D10*
X15992143Y89765352D02*
X15920714Y89765352D01*
D10*
X16063572Y89908208D02*
X15992143Y89765352D01*
D10*
X15992143Y89479640D02*
X16063572Y89908208D01*
D10*
X15992143Y89622496D02*
X15992143Y89479640D01*
D10*
X15920714Y89765352D02*
X15992143Y89622496D01*
D10*
X15849286Y89836784D02*
X15920714Y89765352D01*
D10*
X15635000Y89908208D02*
X15849286Y89836784D01*
D10*
X15349286Y89908208D02*
X15635000Y89908208D01*
D10*
X15135000Y89836784D02*
X15349286Y89908208D01*
D10*
X14992143Y89693928D02*
X15135000Y89836784D01*
D10*
X14992143Y89551064D02*
X14992143Y89693928D01*
D10*
X15063572Y89408208D02*
X14992143Y89551064D01*
D10*
X15135000Y89336784D02*
X15063572Y89408208D01*
D10*
X15635000Y89051064D02*
X15135000Y89336784D01*
D10*
X15777857Y88908208D02*
X15635000Y89051064D01*
D10*
X15135000Y89408208D02*
X14992143Y89551064D01*
D10*
X15635000Y89122496D02*
X15135000Y89408208D01*
D10*
X15706428Y89051064D02*
X15635000Y89122496D01*
D10*
X15777857Y88908208D02*
X15706428Y89051064D01*
D10*
X15777857Y88693928D02*
X15777857Y88908208D01*
D10*
X15706428Y88551064D02*
X15777857Y88693928D01*
D10*
X15635000Y88479640D02*
X15706428Y88551064D01*
D10*
X15420714Y88408208D02*
X15635000Y88479640D01*
D10*
X15135000Y88408208D02*
X15420714Y88408208D01*
D10*
X14920714Y88479640D02*
X15135000Y88408208D01*
D10*
X14849286Y88551064D02*
X14920714Y88479640D01*
D10*
X14777857Y88693928D02*
X14849286Y88551064D01*
D10*
X14777857Y88836784D02*
X14777857Y88693928D01*
D10*
X14706428Y88408208D02*
X14777857Y88836784D01*
D10*
X14777857Y88551064D02*
X14706428Y88408208D01*
D10*
X14849286Y88551064D02*
X14777857Y88551064D01*
D10*
X17563572Y89765352D02*
X17492142Y89765352D01*
D10*
X17635000Y89908208D02*
X17563572Y89765352D01*
D10*
X17563572Y89479640D02*
X17635000Y89908208D01*
D10*
X17563572Y89622496D02*
X17563572Y89479640D01*
D10*
X17492142Y89765352D02*
X17563572Y89622496D01*
D10*
X17420714Y89836784D02*
X17492142Y89765352D01*
D10*
X17277858Y89908208D02*
X17420714Y89836784D01*
D10*
X17063572Y89908208D02*
X17277858Y89908208D01*
D10*
X16849286Y89836784D02*
X17063572Y89908208D01*
D10*
X16706428Y89693928D02*
X16849286Y89836784D01*
D10*
X16563572Y89479640D02*
X16706428Y89693928D01*
D10*
X16492143Y89265352D02*
X16563572Y89479640D01*
D10*
X16420714Y88979640D02*
X16492143Y89265352D01*
D10*
X16420714Y88765352D02*
X16420714Y88979640D01*
D10*
X16492143Y88551064D02*
X16420714Y88765352D01*
D10*
X16563572Y88479640D02*
X16492143Y88551064D01*
D10*
X16777858Y88408208D02*
X16563572Y88479640D01*
D10*
X16992144Y88408208D02*
X16777858Y88408208D01*
D10*
X17135000Y88479640D02*
X16992144Y88408208D01*
D10*
X17277858Y88622496D02*
X17135000Y88479640D01*
D10*
X17349286Y88765352D02*
X17277858Y88622496D01*
D10*
X16920714Y89836784D02*
X17063572Y89908208D01*
D10*
X16777858Y89693928D02*
X16920714Y89836784D01*
D10*
X16635000Y89479640D02*
X16777858Y89693928D01*
D10*
X16563572Y89265352D02*
X16635000Y89479640D01*
D10*
X16492143Y88979640D02*
X16563572Y89265352D01*
D10*
X16492143Y88765352D02*
X16492143Y88979640D01*
D10*
X16563572Y88551064D02*
X16492143Y88765352D01*
D10*
X16635000Y88479640D02*
X16563572Y88551064D01*
D10*
X16777858Y88408208D02*
X16635000Y88479640D01*
D10*
X17920714Y88408208D02*
X18349286Y89908208D01*
D10*
X17992142Y88408208D02*
X18420714Y89908208D01*
D10*
X18635000Y89908208D02*
X18135000Y89908208D01*
D10*
X18777858Y88408208D02*
X17706428Y88408208D01*
D10*
X18920714Y88836784D02*
X18777858Y88408208D01*
D10*
X18706428Y88408208D02*
X18920714Y88836784D01*
D10*
X14135000Y70628208D02*
X14063572Y72128208D01*
D10*
X14206428Y70771064D02*
X14135000Y72128208D01*
D10*
X14135000Y70628208D02*
X15063572Y72128208D01*
D10*
X14349286Y72128208D02*
X13920714Y72128208D01*
D10*
X15206429Y72128208D02*
X14777857Y72128208D01*
D10*
X16063572Y71342496D02*
X16063572Y71413928D01*
D10*
X16135000Y71342496D02*
X16063572Y71342496D01*
D10*
X16135000Y71413928D02*
X16135000Y71342496D01*
D10*
X16063572Y71556784D02*
X16135000Y71413928D01*
D10*
X15920714Y71628208D02*
X16063572Y71556784D01*
D10*
X15706428Y71628208D02*
X15920714Y71628208D01*
D10*
X15492143Y71556784D02*
X15706428Y71628208D01*
D10*
X15349286Y71342496D02*
X15492143Y71556784D01*
D10*
X15277857Y71128208D02*
X15349286Y71342496D01*
D10*
X15277857Y70913928D02*
X15277857Y71128208D01*
D10*
X15349286Y70771064D02*
X15277857Y70913928D01*
D10*
X15420714Y70699640D02*
X15349286Y70771064D01*
D10*
X15563572Y70628208D02*
X15420714Y70699640D01*
D10*
X15706428Y70628208D02*
X15563572Y70628208D01*
D10*
X15920714Y70699640D02*
X15706428Y70628208D01*
D10*
X16063572Y70913928D02*
X15920714Y70699640D01*
D10*
X15563572Y71556784D02*
X15706428Y71628208D01*
D10*
X15420714Y71342496D02*
X15563572Y71556784D01*
D10*
X15349286Y71128208D02*
X15420714Y71342496D01*
D10*
X15349286Y70842496D02*
X15349286Y71128208D01*
D10*
X15420714Y70699640D02*
X15349286Y70842496D01*
D10*
X17349286Y71342496D02*
X17349286Y71413928D01*
D10*
X17420714Y71342496D02*
X17349286Y71342496D01*
D10*
X17420714Y71413928D02*
X17420714Y71342496D01*
D10*
X17349286Y71556784D02*
X17420714Y71413928D01*
D10*
X17206428Y71628208D02*
X17349286Y71556784D01*
D10*
X16992144Y71628208D02*
X17206428Y71628208D01*
D10*
X16777858Y71556784D02*
X16992144Y71628208D01*
D10*
X16635000Y71342496D02*
X16777858Y71556784D01*
D10*
X16563572Y71128208D02*
X16635000Y71342496D01*
D10*
X16563572Y70913928D02*
X16563572Y71128208D01*
D10*
X16635000Y70771064D02*
X16563572Y70913928D01*
D10*
X16706428Y70699640D02*
X16635000Y70771064D01*
D10*
X16849286Y70628208D02*
X16706428Y70699640D01*
D10*
X16992144Y70628208D02*
X16849286Y70628208D01*
D10*
X17206428Y70699640D02*
X16992144Y70628208D01*
D10*
X17349286Y70913928D02*
X17206428Y70699640D01*
D10*
X16849286Y71556784D02*
X16992144Y71628208D01*
D10*
X16706428Y71342496D02*
X16849286Y71556784D01*
D10*
X16635000Y71128208D02*
X16706428Y71342496D01*
D10*
X16635000Y70842496D02*
X16635000Y71128208D01*
D10*
X16706428Y70699640D02*
X16635000Y70842496D01*
D10*
X18135000Y70628208D02*
X18563572Y72128208D01*
D10*
X18206428Y70628208D02*
X18635000Y72128208D01*
D10*
X17920714Y71699640D02*
X18135000Y72128208D01*
D10*
X18063572Y72128208D02*
X17920714Y71699640D01*
D10*
X19135000Y72128208D02*
X18063572Y72128208D01*
D10*
X19063572Y71699640D02*
X19135000Y72128208D01*
D10*
X19063572Y72128208D02*
X19063572Y71699640D01*
D10*
X18420714Y70628208D02*
X17920714Y70628208D01*
D10*
X14492143Y80788208D02*
X14920714Y82288208D01*
D10*
X14563572Y80788208D02*
X14992143Y82288208D01*
D10*
X15492143Y82288208D02*
X14706428Y82288208D01*
D10*
X15706428Y82216784D02*
X15492143Y82288208D01*
D10*
X15777857Y82073928D02*
X15706428Y82216784D01*
D10*
X15777857Y81931064D02*
X15777857Y82073928D01*
D10*
X15706428Y81716784D02*
X15777857Y81931064D01*
D10*
X15635000Y81645352D02*
X15706428Y81716784D01*
D10*
X15420714Y81573928D02*
X15635000Y81645352D01*
D10*
X14777857Y81573928D02*
X15420714Y81573928D01*
D10*
X15635000Y82216784D02*
X15492143Y82288208D01*
D10*
X15706428Y82073928D02*
X15635000Y82216784D01*
D10*
X15706428Y81931064D02*
X15706428Y82073928D01*
D10*
X15635000Y81716784D02*
X15706428Y81931064D01*
D10*
X15563572Y81645352D02*
X15635000Y81716784D01*
D10*
X15420714Y81573928D02*
X15563572Y81645352D01*
D10*
X15277857Y81502496D02*
X15135000Y81573928D01*
D10*
X15349286Y81431064D02*
X15277857Y81502496D01*
D10*
X15420714Y80859640D02*
X15349286Y81431064D01*
D10*
X15492143Y80788208D02*
X15420714Y80859640D01*
D10*
X15635000Y80788208D02*
X15492143Y80788208D01*
D10*
X15706428Y80931064D02*
X15635000Y80788208D01*
D10*
X15706428Y81002496D02*
X15706428Y80931064D01*
D10*
X15492143Y80931064D02*
X15349286Y81431064D01*
D10*
X15563572Y80859640D02*
X15492143Y80931064D01*
D10*
X15635000Y80859640D02*
X15563572Y80859640D01*
D10*
X15706428Y80931064D02*
X15635000Y80859640D01*
D10*
X14777857Y80788208D02*
X14277857Y80788208D01*
D10*
X17420714Y82145352D02*
X17349286Y82145352D01*
D10*
X17492142Y82288208D02*
X17420714Y82145352D01*
D10*
X17420714Y81859640D02*
X17492142Y82288208D01*
D10*
X17420714Y82002496D02*
X17420714Y81859640D01*
D10*
X17349286Y82145352D02*
X17420714Y82002496D01*
D10*
X17277858Y82216784D02*
X17349286Y82145352D01*
D10*
X17063572Y82288208D02*
X17277858Y82216784D01*
D10*
X16777858Y82288208D02*
X17063572Y82288208D01*
D10*
X16563572Y82216784D02*
X16777858Y82288208D01*
D10*
X16420714Y82073928D02*
X16563572Y82216784D01*
D10*
X16420714Y81931064D02*
X16420714Y82073928D01*
D10*
X16492143Y81788208D02*
X16420714Y81931064D01*
D10*
X16563572Y81716784D02*
X16492143Y81788208D01*
D10*
X17063572Y81431064D02*
X16563572Y81716784D01*
D10*
X17206428Y81288208D02*
X17063572Y81431064D01*
D10*
X16563572Y81788208D02*
X16420714Y81931064D01*
D10*
X17063572Y81502496D02*
X16563572Y81788208D01*
D10*
X17135000Y81431064D02*
X17063572Y81502496D01*
D10*
X17206428Y81288208D02*
X17135000Y81431064D01*
D10*
X17206428Y81073928D02*
X17206428Y81288208D01*
D10*
X17135000Y80931064D02*
X17206428Y81073928D01*
D10*
X17063572Y80859640D02*
X17135000Y80931064D01*
D10*
X16849286Y80788208D02*
X17063572Y80859640D01*
D10*
X16563572Y80788208D02*
X16849286Y80788208D01*
D10*
X16349286Y80859640D02*
X16563572Y80788208D01*
D10*
X16277857Y80931064D02*
X16349286Y80859640D01*
D10*
X16206428Y81073928D02*
X16277857Y80931064D01*
D10*
X16206428Y81216784D02*
X16206428Y81073928D01*
D10*
X16135000Y80788208D02*
X16206428Y81216784D01*
D10*
X16206428Y80931064D02*
X16135000Y80788208D01*
D10*
X16277857Y80931064D02*
X16206428Y80931064D01*
D10*
X18277858Y82216784D02*
X18492142Y82288208D01*
D10*
X18135000Y82073928D02*
X18277858Y82216784D01*
D10*
X17992142Y81859640D02*
X18135000Y82073928D01*
D10*
X17920714Y81645352D02*
X17992142Y81859640D01*
D10*
X17849286Y81359640D02*
X17920714Y81645352D01*
D10*
X17849286Y81145352D02*
X17849286Y81359640D01*
D10*
X17920714Y80931064D02*
X17849286Y81145352D01*
D10*
X17992142Y80859640D02*
X17920714Y80931064D01*
D10*
X18135000Y80788208D02*
X17992142Y80859640D01*
D10*
X18277858Y80788208D02*
X18135000Y80788208D01*
D10*
X18492142Y80859640D02*
X18277858Y80788208D01*
D10*
X18635000Y81002496D02*
X18492142Y80859640D01*
D10*
X18777858Y81216784D02*
X18635000Y81002496D01*
D10*
X18849286Y81431064D02*
X18777858Y81216784D01*
D10*
X18920714Y81716784D02*
X18849286Y81431064D01*
D10*
X18920714Y81931064D02*
X18920714Y81716784D01*
D10*
X18849286Y82145352D02*
X18920714Y81931064D01*
D10*
X18777858Y82216784D02*
X18849286Y82145352D01*
D10*
X18635000Y82288208D02*
X18777858Y82216784D01*
D10*
X18492142Y82288208D02*
X18635000Y82288208D01*
D10*
X18349286Y82216784D02*
X18492142Y82288208D01*
D10*
X18206428Y82073928D02*
X18349286Y82216784D01*
D10*
X18063572Y81859640D02*
X18206428Y82073928D01*
D10*
X17992142Y81645352D02*
X18063572Y81859640D01*
D10*
X17920714Y81359640D02*
X17992142Y81645352D01*
D10*
X17920714Y81145352D02*
X17920714Y81359640D01*
D10*
X17992142Y80931064D02*
X17920714Y81145352D01*
D10*
X18135000Y80788208D02*
X17992142Y80931064D01*
D10*
X18420714Y80859640D02*
X18277858Y80788208D01*
D10*
X18563572Y81002496D02*
X18420714Y80859640D01*
D10*
X18706428Y81216784D02*
X18563572Y81002496D01*
D10*
X18777858Y81431064D02*
X18706428Y81216784D01*
D10*
X18849286Y81716784D02*
X18777858Y81431064D01*
D10*
X18849286Y81931064D02*
X18849286Y81716784D01*
D10*
X18777858Y82145352D02*
X18849286Y81931064D01*
D10*
X18635000Y82288208D02*
X18777858Y82145352D01*
D10*
X9420714Y93488208D02*
X9849286Y94988208D01*
D10*
X9492143Y93488208D02*
X9920714Y94988208D01*
D10*
X9206429Y94559640D02*
X9420714Y94988208D01*
D10*
X9349286Y94988208D02*
X9206429Y94559640D01*
D10*
X10420714Y94988208D02*
X9349286Y94988208D01*
D10*
X10349286Y94559640D02*
X10420714Y94988208D01*
D10*
X10349286Y94988208D02*
X10349286Y94559640D01*
D10*
X9706429Y93488208D02*
X9206429Y93488208D01*
D10*
X11420714Y93488208D02*
X10920714Y94988208D01*
D10*
X11492143Y93488208D02*
X10992143Y94988208D01*
D10*
X10492143Y93488208D02*
X11920714Y94988208D01*
D10*
X11206428Y94988208D02*
X10777858Y94988208D01*
D10*
X12063572Y94988208D02*
X11635000Y94988208D01*
D10*
X10777858Y93488208D02*
X10349286Y93488208D01*
D10*
X11635000Y93488208D02*
X11206428Y93488208D01*
D10*
X12777857Y93488208D02*
X13206428Y94988208D01*
D10*
X12849286Y93488208D02*
X13277857Y94988208D01*
D10*
X13420714Y93988208D02*
X13563572Y94559640D01*
D10*
X14063572Y94988208D02*
X12992143Y94988208D01*
D10*
X13992143Y94559640D02*
X14063572Y94988208D01*
D10*
X13992143Y94988208D02*
X13992143Y94559640D01*
D10*
X13492143Y94273928D02*
X13063572Y94273928D01*
D10*
X13063572Y93488208D02*
X12563572Y93488208D01*
D10*
X15135000Y93988208D02*
X15277857Y94488208D01*
D10*
X15063572Y93702496D02*
X15135000Y93988208D01*
D10*
X15063572Y93559640D02*
X15063572Y93702496D01*
D10*
X15135000Y93488208D02*
X15063572Y93559640D01*
D10*
X15349286Y93488208D02*
X15135000Y93488208D01*
D10*
X15492143Y93631064D02*
X15349286Y93488208D01*
D10*
X15563572Y93773928D02*
X15492143Y93631064D01*
D10*
X15206429Y93988208D02*
X15349286Y94488208D01*
D10*
X15135000Y93702496D02*
X15206429Y93988208D01*
D10*
X15135000Y93559640D02*
X15135000Y93702496D01*
D10*
X15206429Y93488208D02*
X15135000Y93559640D01*
D10*
X15135000Y94202496D02*
X15135000Y93988208D01*
D10*
X15063572Y94416784D02*
X15135000Y94202496D01*
D10*
X14920714Y94488208D02*
X15063572Y94416784D01*
D10*
X14777857Y94488208D02*
X14920714Y94488208D01*
D10*
X14563572Y94416784D02*
X14777857Y94488208D01*
D10*
X14420714Y94202496D02*
X14563572Y94416784D01*
D10*
X14349286Y93988208D02*
X14420714Y94202496D01*
D10*
X14349286Y93773928D02*
X14349286Y93988208D01*
D10*
X14420714Y93631064D02*
X14349286Y93773928D01*
D10*
X14492143Y93559640D02*
X14420714Y93631064D01*
D10*
X14635000Y93488208D02*
X14492143Y93559640D01*
D10*
X14777857Y93488208D02*
X14635000Y93488208D01*
D10*
X14920714Y93559640D02*
X14777857Y93488208D01*
D10*
X15063572Y93773928D02*
X14920714Y93559640D01*
D10*
X15135000Y93988208D02*
X15063572Y93773928D01*
D10*
X14635000Y94416784D02*
X14777857Y94488208D01*
D10*
X14492143Y94202496D02*
X14635000Y94416784D01*
D10*
X14420714Y93988208D02*
X14492143Y94202496D01*
D10*
X14420714Y93702496D02*
X14420714Y93988208D01*
D10*
X14492143Y93559640D02*
X14420714Y93702496D01*
D10*
X15777857Y94345352D02*
X15706428Y94202496D01*
D10*
X15920714Y94488208D02*
X15777857Y94345352D01*
D10*
X16135000Y94488208D02*
X15920714Y94488208D01*
D10*
X16206428Y94416784D02*
X16135000Y94488208D01*
D10*
X16206428Y94202496D02*
X16206428Y94416784D01*
D10*
X16063572Y93773928D02*
X16206428Y94202496D01*
D10*
X16063572Y93631064D02*
X16063572Y93773928D01*
D10*
X16206428Y93488208D02*
X16063572Y93631064D01*
D10*
X16135000Y94416784D02*
X16063572Y94488208D01*
D10*
X16135000Y94202496D02*
X16135000Y94416784D01*
D10*
X15992143Y93773928D02*
X16135000Y94202496D01*
D10*
X15992143Y93631064D02*
X15992143Y93773928D01*
D10*
X16063572Y93559640D02*
X15992143Y93631064D01*
D10*
X16206428Y93488208D02*
X16063572Y93559640D01*
D10*
X16349286Y93488208D02*
X16206428Y93488208D01*
D10*
X16492143Y93559640D02*
X16349286Y93488208D01*
D10*
X16635000Y93702496D02*
X16492143Y93559640D01*
D10*
X16777858Y93988208D02*
X16635000Y93702496D01*
D10*
X16777858Y93988208D02*
X16920714Y94488208D01*
D10*
X16706428Y93702496D02*
X16777858Y93988208D01*
D10*
X16706428Y93559640D02*
X16706428Y93702496D01*
D10*
X16777858Y93488208D02*
X16706428Y93559640D01*
D10*
X16992144Y93488208D02*
X16777858Y93488208D01*
D10*
X17135000Y93631064D02*
X16992144Y93488208D01*
D10*
X17206428Y93773928D02*
X17135000Y93631064D01*
D10*
X16849286Y93988208D02*
X16992144Y94488208D01*
D10*
X16777858Y93702496D02*
X16849286Y93988208D01*
D10*
X16777858Y93559640D02*
X16777858Y93702496D01*
D10*
X16849286Y93488208D02*
X16777858Y93559640D01*
D10*
X17563572Y93988208D02*
X17849286Y94988208D01*
D10*
X17492142Y93702496D02*
X17563572Y93988208D01*
D10*
X17492142Y93559640D02*
X17492142Y93702496D01*
D10*
X17563572Y93488208D02*
X17492142Y93559640D01*
D10*
X17777858Y93488208D02*
X17563572Y93488208D01*
D10*
X17920714Y93631064D02*
X17777858Y93488208D01*
D10*
X17992142Y93773928D02*
X17920714Y93631064D01*
D10*
X17635000Y93988208D02*
X17920714Y94988208D01*
D10*
X17563572Y93702496D02*
X17635000Y93988208D01*
D10*
X17563572Y93559640D02*
X17563572Y93702496D01*
D10*
X17635000Y93488208D02*
X17563572Y93559640D01*
D10*
X17920714Y94988208D02*
X17635000Y94988208D01*
D10*
X18492142Y93988208D02*
X18777858Y94988208D01*
D10*
X18420714Y93702496D02*
X18492142Y93988208D01*
D10*
X18420714Y93559640D02*
X18420714Y93702496D01*
D10*
X18492142Y93488208D02*
X18420714Y93559640D01*
D10*
X18706428Y93488208D02*
X18492142Y93488208D01*
D10*
X18849286Y93631064D02*
X18706428Y93488208D01*
D10*
X18920714Y93773928D02*
X18849286Y93631064D01*
D10*
X18563572Y93988208D02*
X18849286Y94988208D01*
D10*
X18492142Y93702496D02*
X18563572Y93988208D01*
D10*
X18492142Y93559640D02*
X18492142Y93702496D01*
D10*
X18563572Y93488208D02*
X18492142Y93559640D01*
D10*
X18992142Y94488208D02*
X18349286Y94488208D01*
D10*
X14492143Y75708208D02*
X14920714Y77208208D01*
D10*
X14563572Y75708208D02*
X14992143Y77208208D01*
D10*
X15492143Y77208208D02*
X14706428Y77208208D01*
D10*
X15706428Y77136784D02*
X15492143Y77208208D01*
D10*
X15777857Y76993928D02*
X15706428Y77136784D01*
D10*
X15777857Y76851064D02*
X15777857Y76993928D01*
D10*
X15706428Y76636784D02*
X15777857Y76851064D01*
D10*
X15635000Y76565352D02*
X15706428Y76636784D01*
D10*
X15420714Y76493928D02*
X15635000Y76565352D01*
D10*
X14777857Y76493928D02*
X15420714Y76493928D01*
D10*
X15635000Y77136784D02*
X15492143Y77208208D01*
D10*
X15706428Y76993928D02*
X15635000Y77136784D01*
D10*
X15706428Y76851064D02*
X15706428Y76993928D01*
D10*
X15635000Y76636784D02*
X15706428Y76851064D01*
D10*
X15563572Y76565352D02*
X15635000Y76636784D01*
D10*
X15420714Y76493928D02*
X15563572Y76565352D01*
D10*
X15277857Y76422496D02*
X15135000Y76493928D01*
D10*
X15349286Y76351064D02*
X15277857Y76422496D01*
D10*
X15420714Y75779640D02*
X15349286Y76351064D01*
D10*
X15492143Y75708208D02*
X15420714Y75779640D01*
D10*
X15635000Y75708208D02*
X15492143Y75708208D01*
D10*
X15706428Y75851064D02*
X15635000Y75708208D01*
D10*
X15706428Y75922496D02*
X15706428Y75851064D01*
D10*
X15492143Y75851064D02*
X15349286Y76351064D01*
D10*
X15563572Y75779640D02*
X15492143Y75851064D01*
D10*
X15635000Y75779640D02*
X15563572Y75779640D01*
D10*
X15706428Y75851064D02*
X15635000Y75779640D01*
D10*
X14777857Y75708208D02*
X14277857Y75708208D01*
D10*
X17420714Y77065352D02*
X17349286Y77065352D01*
D10*
X17492142Y77208208D02*
X17420714Y77065352D01*
D10*
X17420714Y76779640D02*
X17492142Y77208208D01*
D10*
X17420714Y76922496D02*
X17420714Y76779640D01*
D10*
X17349286Y77065352D02*
X17420714Y76922496D01*
D10*
X17277858Y77136784D02*
X17349286Y77065352D01*
D10*
X17063572Y77208208D02*
X17277858Y77136784D01*
D10*
X16777858Y77208208D02*
X17063572Y77208208D01*
D10*
X16563572Y77136784D02*
X16777858Y77208208D01*
D10*
X16420714Y76993928D02*
X16563572Y77136784D01*
D10*
X16420714Y76851064D02*
X16420714Y76993928D01*
D10*
X16492143Y76708208D02*
X16420714Y76851064D01*
D10*
X16563572Y76636784D02*
X16492143Y76708208D01*
D10*
X17063572Y76351064D02*
X16563572Y76636784D01*
D10*
X17206428Y76208208D02*
X17063572Y76351064D01*
D10*
X16563572Y76708208D02*
X16420714Y76851064D01*
D10*
X17063572Y76422496D02*
X16563572Y76708208D01*
D10*
X17135000Y76351064D02*
X17063572Y76422496D01*
D10*
X17206428Y76208208D02*
X17135000Y76351064D01*
D10*
X17206428Y75993928D02*
X17206428Y76208208D01*
D10*
X17135000Y75851064D02*
X17206428Y75993928D01*
D10*
X17063572Y75779640D02*
X17135000Y75851064D01*
D10*
X16849286Y75708208D02*
X17063572Y75779640D01*
D10*
X16563572Y75708208D02*
X16849286Y75708208D01*
D10*
X16349286Y75779640D02*
X16563572Y75708208D01*
D10*
X16277857Y75851064D02*
X16349286Y75779640D01*
D10*
X16206428Y75993928D02*
X16277857Y75851064D01*
D10*
X16206428Y76136784D02*
X16206428Y75993928D01*
D10*
X16135000Y75708208D02*
X16206428Y76136784D01*
D10*
X16206428Y75851064D02*
X16135000Y75708208D01*
D10*
X16277857Y75851064D02*
X16206428Y75851064D01*
D10*
X18135000Y75708208D02*
X18492142Y76922496D01*
D10*
X18206428Y75708208D02*
X18635000Y77208208D01*
D10*
X18420714Y76993928D02*
X18635000Y77208208D01*
D10*
X18206428Y76851064D02*
X18420714Y76993928D01*
D10*
X18063572Y76779640D02*
X18206428Y76851064D01*
D10*
X18277858Y76851064D02*
X18563572Y76993928D01*
D10*
X18063572Y76779640D02*
X18277858Y76851064D01*
D10*
X40890000Y64957500D02*
X39590000Y64957500D01*
D10*
X32790000Y64957500D02*
X32790000Y66257500D01*
D10*
X32790000Y75257500D02*
X32790000Y75057500D01*
D10*
X39590000Y76357500D02*
X40890000Y76357500D01*
D10*
X34090000Y64957500D02*
X32790000Y64957500D01*
D10*
X33890000Y76357500D02*
X32790000Y75257500D01*
D10*
X33890000Y76357500D02*
X34090000Y76357500D01*
D10*
X40890000Y66257500D02*
X40890000Y64957500D01*
D10*
X40890000Y76357500D02*
X40890000Y75057500D01*
D10*
X12600000Y79207500D02*
X12600000Y76707500D01*
D10*
X9100000Y79207500D02*
X12600000Y79207500D01*
D10*
X12600000Y62207500D02*
X12600000Y64707500D01*
D10*
X9100000Y62207500D02*
X12600000Y62207500D01*
D10*
X29590000Y79107500D02*
X71790000Y79107500D01*
D10*
X29590000Y62307500D02*
X29590000Y63582500D01*
D10*
X29590000Y79107500D02*
X29590000Y77832500D01*
D10*
X71790000Y62307500D02*
X29590000Y62307500D01*
D10*
X23330000Y57372500D02*
X21425000Y57372500D01*
D10*
X44190000Y79457500D02*
X44190000Y99282500D01*
D10*
X23330000Y66897500D02*
X25870000Y66897500D01*
D10*
X23330000Y59912500D02*
X23330000Y57372500D01*
D10*
X21425000Y54832500D02*
X25870000Y54832500D01*
D10*
X20790000Y59912500D02*
X23330000Y59912500D01*
D10*
X44190000Y64457500D02*
X44190000Y77207500D01*
D10*
X20789993Y69437500D02*
X20790000Y59912500D01*
D10*
X25869993Y69437500D02*
X25870000Y54832500D01*
D10*
X44190000Y51022500D02*
X44190000Y61957500D01*
D10*
X23329993Y69437500D02*
X23330000Y66897500D01*
D10*
X12706428Y33328214D02*
X13135000Y34828216D01*
D10*
X12777857Y33328214D02*
X13206428Y34828216D01*
D10*
X13777857Y34828216D02*
X12920714Y34828216D01*
D10*
X13992143Y34756784D02*
X13777857Y34828216D01*
D10*
X14063572Y34613928D02*
X13992143Y34756784D01*
D10*
X14063572Y34471072D02*
X14063572Y34613928D01*
D10*
X13992143Y34256784D02*
X14063572Y34471072D01*
D10*
X13849286Y34113928D02*
X13992143Y34256784D01*
D10*
X13563572Y34042500D02*
X13849286Y34113928D01*
D10*
X12992143Y34042500D02*
X13563572Y34042500D01*
D10*
X13920714Y34756784D02*
X13777857Y34828216D01*
D10*
X13992143Y34613928D02*
X13920714Y34756784D01*
D10*
X13992143Y34471072D02*
X13992143Y34613928D01*
D10*
X13920714Y34256784D02*
X13992143Y34471072D01*
D10*
X13777857Y34113928D02*
X13920714Y34256784D01*
D10*
X13563572Y34042500D02*
X13777857Y34113928D01*
D10*
X12992143Y33328214D02*
X12492143Y33328214D01*
D10*
X14349286Y33328214D02*
X14777857Y34828216D01*
D10*
X14420714Y33328214D02*
X14849286Y34828216D01*
D10*
X15349286Y34828216D02*
X14563572Y34828216D01*
D10*
X15563572Y34756784D02*
X15349286Y34828216D01*
D10*
X15635000Y34613928D02*
X15563572Y34756784D01*
D10*
X15635000Y34471072D02*
X15635000Y34613928D01*
D10*
X15563572Y34256784D02*
X15635000Y34471072D01*
D10*
X15492143Y34185356D02*
X15563572Y34256784D01*
D10*
X15277857Y34113928D02*
X15492143Y34185356D01*
D10*
X14635000Y34113928D02*
X15277857Y34113928D01*
D10*
X15492143Y34756784D02*
X15349286Y34828216D01*
D10*
X15563572Y34613928D02*
X15492143Y34756784D01*
D10*
X15563572Y34471072D02*
X15563572Y34613928D01*
D10*
X15492143Y34256784D02*
X15563572Y34471072D01*
D10*
X15420714Y34185356D02*
X15492143Y34256784D01*
D10*
X15277857Y34113928D02*
X15420714Y34185356D01*
D10*
X15135000Y34042500D02*
X14992143Y34113928D01*
D10*
X15206429Y33971072D02*
X15135000Y34042500D01*
D10*
X15277857Y33399642D02*
X15206429Y33971072D01*
D10*
X15349286Y33328214D02*
X15277857Y33399642D01*
D10*
X15492143Y33328214D02*
X15349286Y33328214D01*
D10*
X15563572Y33471072D02*
X15492143Y33328214D01*
D10*
X15563572Y33542500D02*
X15563572Y33471072D01*
D10*
X15349286Y33471072D02*
X15206429Y33971072D01*
D10*
X15420714Y33399642D02*
X15349286Y33471072D01*
D10*
X15492143Y33399642D02*
X15420714Y33399642D01*
D10*
X15563572Y33471072D02*
X15492143Y33399642D01*
D10*
X14635000Y33328214D02*
X14135000Y33328214D01*
D10*
X16063572Y33328214D02*
X16492143Y34828216D01*
D10*
X16135000Y33328214D02*
X16563572Y34828216D01*
D10*
X16706428Y33828216D02*
X16849286Y34399644D01*
D10*
X17349286Y34828216D02*
X16277857Y34828216D01*
D10*
X17277858Y34399644D02*
X17349286Y34828216D01*
D10*
X17277858Y34828216D02*
X17277858Y34399644D01*
D10*
X16777858Y34113928D02*
X16349286Y34113928D01*
D10*
X16920714Y33328214D02*
X15849286Y33328214D01*
D10*
X17063572Y33685356D02*
X16920714Y33328214D01*
D10*
X16849286Y33328214D02*
X17063572Y33685356D01*
D10*
X18920714Y34685356D02*
X18849286Y34685356D01*
D10*
X18992142Y34828216D02*
X18920714Y34685356D01*
D10*
X18920714Y34399644D02*
X18992142Y34828216D01*
D10*
X18920714Y34542500D02*
X18920714Y34399644D01*
D10*
X18849286Y34685356D02*
X18920714Y34542500D01*
D10*
X18777858Y34756784D02*
X18849286Y34685356D01*
D10*
X18563572Y34828216D02*
X18777858Y34756784D01*
D10*
X18277858Y34828216D02*
X18563572Y34828216D01*
D10*
X18063572Y34756784D02*
X18277858Y34828216D01*
D10*
X17920714Y34613928D02*
X18063572Y34756784D01*
D10*
X17920714Y34471072D02*
X17920714Y34613928D01*
D10*
X17992142Y34328216D02*
X17920714Y34471072D01*
D10*
X18063572Y34256784D02*
X17992142Y34328216D01*
D10*
X18563572Y33971072D02*
X18063572Y34256784D01*
D10*
X18706428Y33828216D02*
X18563572Y33971072D01*
D10*
X18063572Y34328216D02*
X17920714Y34471072D01*
D10*
X18563572Y34042500D02*
X18063572Y34328216D01*
D10*
X18635000Y33971072D02*
X18563572Y34042500D01*
D10*
X18706428Y33828216D02*
X18635000Y33971072D01*
D10*
X18706428Y33613928D02*
X18706428Y33828216D01*
D10*
X18635000Y33471072D02*
X18706428Y33613928D01*
D10*
X18563572Y33399642D02*
X18635000Y33471072D01*
D10*
X18349286Y33328214D02*
X18563572Y33399642D01*
D10*
X18063572Y33328214D02*
X18349286Y33328214D01*
D10*
X17849286Y33399642D02*
X18063572Y33328214D01*
D10*
X17777858Y33471072D02*
X17849286Y33399642D01*
D10*
X17706428Y33613928D02*
X17777858Y33471072D01*
D10*
X17706428Y33756784D02*
X17706428Y33613928D01*
D10*
X17635000Y33328214D02*
X17706428Y33756784D01*
D10*
X17706428Y33471072D02*
X17635000Y33328214D01*
D10*
X17777858Y33471072D02*
X17706428Y33471072D01*
D10*
X12492143Y35042500D02*
X19135000Y35042500D01*
D10*
X11911389Y5602354D02*
X11839960Y5602354D01*
D10*
X11982817Y5745211D02*
X11911389Y5602354D01*
D10*
X11911389Y5316640D02*
X11982817Y5745211D01*
D10*
X11911389Y5459497D02*
X11911389Y5316640D01*
D10*
X11839960Y5602354D02*
X11911389Y5459497D01*
D10*
X11768532Y5673782D02*
X11839960Y5602354D01*
D10*
X11554246Y5745211D02*
X11768532Y5673782D01*
D10*
X11268532Y5745211D02*
X11554246Y5745211D01*
D10*
X11054246Y5673782D02*
X11268532Y5745211D01*
D10*
X10911389Y5530925D02*
X11054246Y5673782D01*
D10*
X10911389Y5388068D02*
X10911389Y5530925D01*
D10*
X10982817Y5245211D02*
X10911389Y5388068D01*
D10*
X11054246Y5173782D02*
X10982817Y5245211D01*
D10*
X11554246Y4888068D02*
X11054246Y5173782D01*
D10*
X11697103Y4745211D02*
X11554246Y4888068D01*
D10*
X11054246Y5245211D02*
X10911389Y5388068D01*
D10*
X11554246Y4959497D02*
X11054246Y5245211D01*
D10*
X11625674Y4888068D02*
X11554246Y4959497D01*
D10*
X11697103Y4745211D02*
X11625674Y4888068D01*
D10*
X11697103Y4530925D02*
X11697103Y4745211D01*
D10*
X11625674Y4388068D02*
X11697103Y4530925D01*
D10*
X11554246Y4316640D02*
X11625674Y4388068D01*
D10*
X11339960Y4245211D02*
X11554246Y4316640D01*
D10*
X11054246Y4245211D02*
X11339960Y4245211D01*
D10*
X10839960Y4316640D02*
X11054246Y4245211D01*
D10*
X10768532Y4388068D02*
X10839960Y4316640D01*
D10*
X10697103Y4530925D02*
X10768532Y4388068D01*
D10*
X10697103Y4673782D02*
X10697103Y4530925D01*
D10*
X10625674Y4245211D02*
X10697103Y4673782D01*
D10*
X10697103Y4388068D02*
X10625674Y4245211D01*
D10*
X10768532Y4388068D02*
X10697103Y4388068D01*
D10*
X12339960Y4245211D02*
X12768532Y5745211D01*
D10*
X12411389Y4245211D02*
X12839960Y5745211D01*
D10*
X12982818Y4745211D02*
X13125674Y5316640D01*
D10*
X13625674Y5745211D02*
X12554246Y5745211D01*
D10*
X13554246Y5316640D02*
X13625674Y5745211D01*
D10*
X13554246Y5745211D02*
X13554246Y5316640D01*
D10*
X13054246Y5030925D02*
X12625674Y5030925D01*
D10*
X12625674Y4245211D02*
X12125674Y4245211D01*
D10*
X13911388Y4245211D02*
X14339960Y5745211D01*
D10*
X13982817Y4245211D02*
X14411388Y5745211D01*
D10*
X14982817Y5745211D02*
X14125674Y5745211D01*
D10*
X15197103Y5673782D02*
X14982817Y5745211D01*
D10*
X15268532Y5530925D02*
X15197103Y5673782D01*
D10*
X15268532Y5388068D02*
X15268532Y5530925D01*
D10*
X15197103Y5173782D02*
X15268532Y5388068D01*
D10*
X15054246Y5030925D02*
X15197103Y5173782D01*
D10*
X14768532Y4959497D02*
X15054246Y5030925D01*
D10*
X14197103Y4959497D02*
X14768532Y4959497D01*
D10*
X15125674Y5673782D02*
X14982817Y5745211D01*
D10*
X15197103Y5530925D02*
X15125674Y5673782D01*
D10*
X15197103Y5388068D02*
X15197103Y5530925D01*
D10*
X15125674Y5173782D02*
X15197103Y5388068D01*
D10*
X14982817Y5030925D02*
X15125674Y5173782D01*
D10*
X14768532Y4959497D02*
X14982817Y5030925D01*
D10*
X14197103Y4245211D02*
X13697103Y4245211D01*
D10*
X16911388Y5030925D02*
X16911388Y5102354D01*
D10*
X16982818Y5030925D02*
X16911388Y5030925D01*
D10*
X16982818Y5102354D02*
X16982818Y5030925D01*
D10*
X16911388Y5173782D02*
X16982818Y5102354D01*
D10*
X16697103Y5245211D02*
X16911388Y5173782D01*
D10*
X16482817Y5245211D02*
X16697103Y5245211D01*
D10*
X16268532Y5173782D02*
X16482817Y5245211D01*
D10*
X16197103Y5102354D02*
X16268532Y5173782D01*
D10*
X16197103Y4959497D02*
X16197103Y5102354D01*
D10*
X16268532Y4888068D02*
X16197103Y4959497D01*
D10*
X16768532Y4602354D02*
X16268532Y4888068D01*
D10*
X16839960Y4530925D02*
X16768532Y4602354D01*
D10*
X16268532Y4959497D02*
X16197103Y5030925D01*
D10*
X16768532Y4673782D02*
X16268532Y4959497D01*
D10*
X16839960Y4602354D02*
X16768532Y4673782D01*
D10*
X16839960Y4388068D02*
X16839960Y4602354D01*
D10*
X16768532Y4316640D02*
X16839960Y4388068D01*
D10*
X16554246Y4245211D02*
X16768532Y4316640D01*
D10*
X16339960Y4245211D02*
X16554246Y4245211D01*
D10*
X16125674Y4316640D02*
X16339960Y4245211D01*
D10*
X16054246Y4388068D02*
X16125674Y4316640D01*
D10*
X16054246Y4459497D02*
X16054246Y4388068D01*
D10*
X16125674Y4459497D02*
X16054246Y4459497D01*
D10*
X16125674Y4388068D02*
X16125674Y4459497D01*
D10*
X17697104Y5673782D02*
X17768532Y5745211D01*
D10*
X17768532Y5602354D02*
X17697104Y5673782D01*
D10*
X17839960Y5673782D02*
X17768532Y5602354D01*
D10*
X17768532Y5745211D02*
X17839960Y5673782D01*
D10*
X17268532Y5102354D02*
X17197104Y4959497D01*
D10*
X17411388Y5245211D02*
X17268532Y5102354D01*
D10*
X17625674Y5245211D02*
X17411388Y5245211D01*
D10*
X17697104Y5173782D02*
X17625674Y5245211D01*
D10*
X17697104Y4959497D02*
X17697104Y5173782D01*
D10*
X17554246Y4530925D02*
X17697104Y4959497D01*
D10*
X17554246Y4316640D02*
X17554246Y4530925D01*
D10*
X17625674Y4245211D02*
X17554246Y4316640D01*
D10*
X17625674Y5173782D02*
X17554246Y5245211D01*
D10*
X17625674Y4959497D02*
X17625674Y5173782D01*
D10*
X17482818Y4530925D02*
X17625674Y4959497D01*
D10*
X17482818Y4316640D02*
X17482818Y4530925D01*
D10*
X17554246Y4245211D02*
X17482818Y4316640D01*
D10*
X17768532Y4245211D02*
X17554246Y4245211D01*
D10*
X17911388Y4388068D02*
X17768532Y4245211D01*
D10*
X17982818Y4530925D02*
X17911388Y4388068D01*
D10*
X19054246Y4745211D02*
X19339960Y5745211D01*
D10*
X18982818Y4459497D02*
X19054246Y4745211D01*
D10*
X18982818Y4316640D02*
X18982818Y4459497D01*
D10*
X19054246Y4245211D02*
X18982818Y4316640D01*
D10*
X19268532Y4245211D02*
X19054246Y4245211D01*
D10*
X19411388Y4388068D02*
X19268532Y4245211D01*
D10*
X19482818Y4530925D02*
X19411388Y4388068D01*
D10*
X19125674Y4745211D02*
X19411388Y5745211D01*
D10*
X19054246Y4459497D02*
X19125674Y4745211D01*
D10*
X19054246Y4316640D02*
X19054246Y4459497D01*
D10*
X19125674Y4245211D02*
X19054246Y4316640D01*
D10*
X19054246Y4959497D02*
X19054246Y4745211D01*
D10*
X18982818Y5173782D02*
X19054246Y4959497D01*
D10*
X18839960Y5245211D02*
X18982818Y5173782D01*
D10*
X18697104Y5245211D02*
X18839960Y5245211D01*
D10*
X18482818Y5173782D02*
X18697104Y5245211D01*
D10*
X18339960Y4959497D02*
X18482818Y5173782D01*
D10*
X18268532Y4745211D02*
X18339960Y4959497D01*
D10*
X18268532Y4530925D02*
X18268532Y4745211D01*
D10*
X18339960Y4388068D02*
X18268532Y4530925D01*
D10*
X18411388Y4316640D02*
X18339960Y4388068D01*
D10*
X18554246Y4245211D02*
X18411388Y4316640D01*
D10*
X18697104Y4245211D02*
X18554246Y4245211D01*
D10*
X18839960Y4316640D02*
X18697104Y4245211D01*
D10*
X18982818Y4530925D02*
X18839960Y4316640D01*
D10*
X19054246Y4745211D02*
X18982818Y4530925D01*
D10*
X18554246Y5173782D02*
X18697104Y5245211D01*
D10*
X18411388Y4959497D02*
X18554246Y5173782D01*
D10*
X18339960Y4745211D02*
X18411388Y4959497D01*
D10*
X18339960Y4459497D02*
X18339960Y4745211D01*
D10*
X18411388Y4316640D02*
X18339960Y4459497D01*
D10*
X19411388Y5745211D02*
X19125674Y5745211D01*
D10*
X20125674Y4673782D02*
X19839960Y4602354D01*
D10*
X20339960Y4745211D02*
X20125674Y4673782D01*
D10*
X20554246Y4888068D02*
X20339960Y4745211D01*
D10*
X20625674Y5030925D02*
X20554246Y4888068D01*
D10*
X20554246Y5173782D02*
X20625674Y5030925D01*
D10*
X20411388Y5245211D02*
X20554246Y5173782D01*
D10*
X20197102Y5245211D02*
X20411388Y5245211D01*
D10*
X19982818Y5173782D02*
X20197102Y5245211D01*
D10*
X19839960Y4959497D02*
X19982818Y5173782D01*
D10*
X19768532Y4745211D02*
X19839960Y4959497D01*
D10*
X19768532Y4530925D02*
X19768532Y4745211D01*
D10*
X19839960Y4388068D02*
X19768532Y4530925D01*
D10*
X19911388Y4316640D02*
X19839960Y4388068D01*
D10*
X20054246Y4245211D02*
X19911388Y4316640D01*
D10*
X20197102Y4245211D02*
X20054246Y4245211D01*
D10*
X20411388Y4316640D02*
X20197102Y4245211D01*
D10*
X20554246Y4459497D02*
X20411388Y4316640D01*
D10*
X20054246Y5173782D02*
X20197102Y5245211D01*
D10*
X19911388Y4959497D02*
X20054246Y5173782D01*
D10*
X19839960Y4745211D02*
X19911388Y4959497D01*
D10*
X19839960Y4459497D02*
X19839960Y4745211D01*
D10*
X19911388Y4316640D02*
X19839960Y4459497D01*
D10*
X10197103Y6785211D02*
X10625674Y8285211D01*
D10*
X10268532Y6785211D02*
X10697103Y8285211D01*
D10*
X11125674Y6785211D02*
X11554246Y8285211D01*
D10*
X11197103Y6785211D02*
X11625674Y8285211D01*
D10*
X10911389Y8285211D02*
X10411389Y8285211D01*
D10*
X11839960Y8285211D02*
X11339960Y8285211D01*
D10*
X11339960Y7570925D02*
X10482817Y7570925D01*
D10*
X10482817Y6785211D02*
X9982817Y6785211D01*
D10*
X11411389Y6785211D02*
X10911389Y6785211D01*
D10*
X12268532Y7713782D02*
X12482818Y7785211D01*
D10*
X12125674Y7499497D02*
X12268532Y7713782D01*
D10*
X12054246Y7285211D02*
X12125674Y7499497D01*
D10*
X12054246Y7070925D02*
X12054246Y7285211D01*
D10*
X12125674Y6928068D02*
X12054246Y7070925D01*
D10*
X12197103Y6856640D02*
X12125674Y6928068D01*
D10*
X12339960Y6785211D02*
X12197103Y6856640D01*
D10*
X12482818Y6785211D02*
X12339960Y6785211D01*
D10*
X12697103Y6856640D02*
X12482818Y6785211D01*
D10*
X12839960Y7070925D02*
X12697103Y6856640D01*
D10*
X12911388Y7285211D02*
X12839960Y7070925D01*
D10*
X12911388Y7499497D02*
X12911388Y7285211D01*
D10*
X12839960Y7642354D02*
X12911388Y7499497D01*
D10*
X12768532Y7713782D02*
X12839960Y7642354D01*
D10*
X12625674Y7785211D02*
X12768532Y7713782D01*
D10*
X12482818Y7785211D02*
X12625674Y7785211D01*
D10*
X12339960Y7713782D02*
X12482818Y7785211D01*
D10*
X12197103Y7499497D02*
X12339960Y7713782D01*
D10*
X12125674Y7285211D02*
X12197103Y7499497D01*
D10*
X12125674Y6999497D02*
X12125674Y7285211D01*
D10*
X12197103Y6856640D02*
X12125674Y6999497D01*
D10*
X12625674Y6856640D02*
X12482818Y6785211D01*
D10*
X12768532Y7070925D02*
X12625674Y6856640D01*
D10*
X12839960Y7285211D02*
X12768532Y7070925D01*
D10*
X12839960Y7570925D02*
X12839960Y7285211D01*
D10*
X12768532Y7713782D02*
X12839960Y7570925D01*
D10*
X14125674Y7570925D02*
X14125674Y7642354D01*
D10*
X14197103Y7570925D02*
X14125674Y7570925D01*
D10*
X14197103Y7642354D02*
X14197103Y7570925D01*
D10*
X14125674Y7713782D02*
X14197103Y7642354D01*
D10*
X13911388Y7785211D02*
X14125674Y7713782D01*
D10*
X13697103Y7785211D02*
X13911388Y7785211D01*
D10*
X13482818Y7713782D02*
X13697103Y7785211D01*
D10*
X13411388Y7642354D02*
X13482818Y7713782D01*
D10*
X13411388Y7499497D02*
X13411388Y7642354D01*
D10*
X13482818Y7428068D02*
X13411388Y7499497D01*
D10*
X13982817Y7142354D02*
X13482818Y7428068D01*
D10*
X14054246Y7070925D02*
X13982817Y7142354D01*
D10*
X13482818Y7499497D02*
X13411388Y7570925D01*
D10*
X13982817Y7213782D02*
X13482818Y7499497D01*
D10*
X14054246Y7142354D02*
X13982817Y7213782D01*
D10*
X14054246Y6928068D02*
X14054246Y7142354D01*
D10*
X13982817Y6856640D02*
X14054246Y6928068D01*
D10*
X13768532Y6785211D02*
X13982817Y6856640D01*
D10*
X13554246Y6785211D02*
X13768532Y6785211D01*
D10*
X13339960Y6856640D02*
X13554246Y6785211D01*
D10*
X13268532Y6928068D02*
X13339960Y6856640D01*
D10*
X13268532Y6999497D02*
X13268532Y6928068D01*
D10*
X13339960Y6999497D02*
X13268532Y6999497D01*
D10*
X13339960Y6928068D02*
X13339960Y6999497D01*
D10*
X14697103Y7285211D02*
X14982817Y8285211D01*
D10*
X14625674Y6999497D02*
X14697103Y7285211D01*
D10*
X14625674Y6856640D02*
X14625674Y6999497D01*
D10*
X14697103Y6785211D02*
X14625674Y6856640D01*
D10*
X14911388Y6785211D02*
X14697103Y6785211D01*
D10*
X15054246Y6928068D02*
X14911388Y6785211D01*
D10*
X15125674Y7070925D02*
X15054246Y6928068D01*
D10*
X14768532Y7285211D02*
X15054246Y8285211D01*
D10*
X14697103Y6999497D02*
X14768532Y7285211D01*
D10*
X14697103Y6856640D02*
X14697103Y6999497D01*
D10*
X14768532Y6785211D02*
X14697103Y6856640D01*
D10*
X15197103Y7785211D02*
X14554246Y7785211D01*
D10*
X16911388Y7570925D02*
X16911388Y7642354D01*
D10*
X16982818Y7570925D02*
X16911388Y7570925D01*
D10*
X16982818Y7642354D02*
X16982818Y7570925D01*
D10*
X16911388Y7713782D02*
X16982818Y7642354D01*
D10*
X16697103Y7785211D02*
X16911388Y7713782D01*
D10*
X16482817Y7785211D02*
X16697103Y7785211D01*
D10*
X16268532Y7713782D02*
X16482817Y7785211D01*
D10*
X16197103Y7642354D02*
X16268532Y7713782D01*
D10*
X16197103Y7499497D02*
X16197103Y7642354D01*
D10*
X16268532Y7428068D02*
X16197103Y7499497D01*
D10*
X16768532Y7142354D02*
X16268532Y7428068D01*
D10*
X16839960Y7070925D02*
X16768532Y7142354D01*
D10*
X16268532Y7499497D02*
X16197103Y7570925D01*
D10*
X16768532Y7213782D02*
X16268532Y7499497D01*
D10*
X16839960Y7142354D02*
X16768532Y7213782D01*
D10*
X16839960Y6928068D02*
X16839960Y7142354D01*
D10*
X16768532Y6856640D02*
X16839960Y6928068D01*
D10*
X16554246Y6785211D02*
X16768532Y6856640D01*
D10*
X16339960Y6785211D02*
X16554246Y6785211D01*
D10*
X16125674Y6856640D02*
X16339960Y6785211D01*
D10*
X16054246Y6928068D02*
X16125674Y6856640D01*
D10*
X16054246Y6999497D02*
X16054246Y6928068D01*
D10*
X16125674Y6999497D02*
X16054246Y6999497D01*
D10*
X16125674Y6928068D02*
X16125674Y6999497D01*
D10*
X17697104Y8213782D02*
X17768532Y8285211D01*
D10*
X17768532Y8142354D02*
X17697104Y8213782D01*
D10*
X17839960Y8213782D02*
X17768532Y8142354D01*
D10*
X17768532Y8285211D02*
X17839960Y8213782D01*
D10*
X17268532Y7642354D02*
X17197104Y7499497D01*
D10*
X17411388Y7785211D02*
X17268532Y7642354D01*
D10*
X17625674Y7785211D02*
X17411388Y7785211D01*
D10*
X17697104Y7713782D02*
X17625674Y7785211D01*
D10*
X17697104Y7499497D02*
X17697104Y7713782D01*
D10*
X17554246Y7070925D02*
X17697104Y7499497D01*
D10*
X17554246Y6856640D02*
X17554246Y7070925D01*
D10*
X17625674Y6785211D02*
X17554246Y6856640D01*
D10*
X17625674Y7713782D02*
X17554246Y7785211D01*
D10*
X17625674Y7499497D02*
X17625674Y7713782D01*
D10*
X17482818Y7070925D02*
X17625674Y7499497D01*
D10*
X17482818Y6856640D02*
X17482818Y7070925D01*
D10*
X17554246Y6785211D02*
X17482818Y6856640D01*
D10*
X17768532Y6785211D02*
X17554246Y6785211D01*
D10*
X17911388Y6928068D02*
X17768532Y6785211D01*
D10*
X17982818Y7070925D02*
X17911388Y6928068D01*
D10*
X19054246Y7285211D02*
X19339960Y8285211D01*
D10*
X18982818Y6999497D02*
X19054246Y7285211D01*
D10*
X18982818Y6856640D02*
X18982818Y6999497D01*
D10*
X19054246Y6785211D02*
X18982818Y6856640D01*
D10*
X19268532Y6785211D02*
X19054246Y6785211D01*
D10*
X19411388Y6928068D02*
X19268532Y6785211D01*
D10*
X19482818Y7070925D02*
X19411388Y6928068D01*
D10*
X19125674Y7285211D02*
X19411388Y8285211D01*
D10*
X19054246Y6999497D02*
X19125674Y7285211D01*
D10*
X19054246Y6856640D02*
X19054246Y6999497D01*
D10*
X19125674Y6785211D02*
X19054246Y6856640D01*
D10*
X19054246Y7499497D02*
X19054246Y7285211D01*
D10*
X18982818Y7713782D02*
X19054246Y7499497D01*
D10*
X18839960Y7785211D02*
X18982818Y7713782D01*
D10*
X18697104Y7785211D02*
X18839960Y7785211D01*
D10*
X18482818Y7713782D02*
X18697104Y7785211D01*
D10*
X18339960Y7499497D02*
X18482818Y7713782D01*
D10*
X18268532Y7285211D02*
X18339960Y7499497D01*
D10*
X18268532Y7070925D02*
X18268532Y7285211D01*
D10*
X18339960Y6928068D02*
X18268532Y7070925D01*
D10*
X18411388Y6856640D02*
X18339960Y6928068D01*
D10*
X18554246Y6785211D02*
X18411388Y6856640D01*
D10*
X18697104Y6785211D02*
X18554246Y6785211D01*
D10*
X18839960Y6856640D02*
X18697104Y6785211D01*
D10*
X18982818Y7070925D02*
X18839960Y6856640D01*
D10*
X19054246Y7285211D02*
X18982818Y7070925D01*
D10*
X18554246Y7713782D02*
X18697104Y7785211D01*
D10*
X18411388Y7499497D02*
X18554246Y7713782D01*
D10*
X18339960Y7285211D02*
X18411388Y7499497D01*
D10*
X18339960Y6999497D02*
X18339960Y7285211D01*
D10*
X18411388Y6856640D02*
X18339960Y6999497D01*
D10*
X19411388Y8285211D02*
X19125674Y8285211D01*
D10*
X20125674Y7213782D02*
X19839960Y7142354D01*
D10*
X20339960Y7285211D02*
X20125674Y7213782D01*
D10*
X20554246Y7428068D02*
X20339960Y7285211D01*
D10*
X20625674Y7570925D02*
X20554246Y7428068D01*
D10*
X20554246Y7713782D02*
X20625674Y7570925D01*
D10*
X20411388Y7785211D02*
X20554246Y7713782D01*
D10*
X20197102Y7785211D02*
X20411388Y7785211D01*
D10*
X19982818Y7713782D02*
X20197102Y7785211D01*
D10*
X19839960Y7499497D02*
X19982818Y7713782D01*
D10*
X19768532Y7285211D02*
X19839960Y7499497D01*
D10*
X19768532Y7070925D02*
X19768532Y7285211D01*
D10*
X19839960Y6928068D02*
X19768532Y7070925D01*
D10*
X19911388Y6856640D02*
X19839960Y6928068D01*
D10*
X20054246Y6785211D02*
X19911388Y6856640D01*
D10*
X20197102Y6785211D02*
X20054246Y6785211D01*
D10*
X20411388Y6856640D02*
X20197102Y6785211D01*
D10*
X20554246Y6999497D02*
X20411388Y6856640D01*
D10*
X20054246Y7713782D02*
X20197102Y7785211D01*
D10*
X19911388Y7499497D02*
X20054246Y7713782D01*
D10*
X19839960Y7285211D02*
X19911388Y7499497D01*
D10*
X19839960Y6999497D02*
X19839960Y7285211D01*
D10*
X19911388Y6856640D02*
X19839960Y6999497D01*
D10*
X11635000Y47171072D02*
X11563572Y47242500D01*
D10*
X11563572Y47099644D02*
X11635000Y47171072D01*
D10*
X11492143Y47171072D02*
X11563572Y47099644D01*
D10*
X11492143Y47242500D02*
X11492143Y47171072D01*
D10*
X11563572Y47385356D02*
X11492143Y47242500D01*
D10*
X11635000Y47456784D02*
X11563572Y47385356D01*
D10*
X11849286Y47528216D02*
X11635000Y47456784D01*
D10*
X12063572Y47528216D02*
X11849286Y47528216D01*
D10*
X12277857Y47456784D02*
X12063572Y47528216D01*
D10*
X12349286Y47313928D02*
X12277857Y47456784D01*
D10*
X12349286Y47171072D02*
X12349286Y47313928D01*
D10*
X12277857Y47028216D02*
X12349286Y47171072D01*
D10*
X12063572Y46885356D02*
X12277857Y47028216D01*
D10*
X11849286Y46813928D02*
X12063572Y46885356D01*
D10*
X12206428Y47456784D02*
X12063572Y47528216D01*
D10*
X12277857Y47313928D02*
X12206428Y47456784D01*
D10*
X12277857Y47171072D02*
X12277857Y47313928D01*
D10*
X12206428Y47028216D02*
X12277857Y47171072D01*
D10*
X12063572Y46885356D02*
X12206428Y47028216D01*
D10*
X11849286Y46813928D02*
X11706428Y46813928D01*
D10*
X12063572Y46742500D02*
X11849286Y46813928D01*
D10*
X12135000Y46671072D02*
X12063572Y46742500D01*
D10*
X12206428Y46528216D02*
X12135000Y46671072D01*
D10*
X12206428Y46313928D02*
X12206428Y46528216D01*
D10*
X12135000Y46171072D02*
X12206428Y46313928D01*
D10*
X12063572Y46099644D02*
X12135000Y46171072D01*
D10*
X11849286Y46028216D02*
X12063572Y46099644D01*
D10*
X11563572Y46028216D02*
X11849286Y46028216D01*
D10*
X11349286Y46099644D02*
X11563572Y46028216D01*
D10*
X11277858Y46171072D02*
X11349286Y46099644D01*
D10*
X11206428Y46313928D02*
X11277858Y46171072D01*
D10*
X11206428Y46385356D02*
X11206428Y46313928D01*
D10*
X11277858Y46456784D02*
X11206428Y46385356D01*
D10*
X11349286Y46385356D02*
X11277858Y46456784D01*
D10*
X11277858Y46313928D02*
X11349286Y46385356D01*
D10*
X11992143Y46742500D02*
X11849286Y46813928D01*
D10*
X12063572Y46671072D02*
X11992143Y46742500D01*
D10*
X12135000Y46528216D02*
X12063572Y46671072D01*
D10*
X12135000Y46313928D02*
X12135000Y46528216D01*
D10*
X12063572Y46171072D02*
X12135000Y46313928D01*
D10*
X11992143Y46099644D02*
X12063572Y46171072D01*
D10*
X11849286Y46028216D02*
X11992143Y46099644D01*
D10*
X13849286Y46171072D02*
X12849286Y47171072D01*
D10*
X12849286Y46171072D02*
X13849286Y47171072D01*
D10*
X15492143Y47385356D02*
X15420714Y47385356D01*
D10*
X15563572Y47528216D02*
X15492143Y47385356D01*
D10*
X15492143Y47099644D02*
X15563572Y47528216D01*
D10*
X15492143Y47242500D02*
X15492143Y47099644D01*
D10*
X15420714Y47385356D02*
X15492143Y47242500D01*
D10*
X15349286Y47456784D02*
X15420714Y47385356D01*
D10*
X15206429Y47528216D02*
X15349286Y47456784D01*
D10*
X14992143Y47528216D02*
X15206429Y47528216D01*
D10*
X14777857Y47456784D02*
X14992143Y47528216D01*
D10*
X14635000Y47313928D02*
X14777857Y47456784D01*
D10*
X14492143Y47099644D02*
X14635000Y47313928D01*
D10*
X14420714Y46885356D02*
X14492143Y47099644D01*
D10*
X14349286Y46599644D02*
X14420714Y46885356D01*
D10*
X14349286Y46385356D02*
X14349286Y46599644D01*
D10*
X14420714Y46171072D02*
X14349286Y46385356D01*
D10*
X14492143Y46099644D02*
X14420714Y46171072D01*
D10*
X14706428Y46028216D02*
X14492143Y46099644D01*
D10*
X14849286Y46028216D02*
X14706428Y46028216D01*
D10*
X15063572Y46099644D02*
X14849286Y46028216D01*
D10*
X15206429Y46242500D02*
X15063572Y46099644D01*
D10*
X15349286Y46528216D02*
X15206429Y46242500D01*
D10*
X14849286Y47456784D02*
X14992143Y47528216D01*
D10*
X14706428Y47313928D02*
X14849286Y47456784D01*
D10*
X14563572Y47099644D02*
X14706428Y47313928D01*
D10*
X14492143Y46885356D02*
X14563572Y47099644D01*
D10*
X14420714Y46599644D02*
X14492143Y46885356D01*
D10*
X14420714Y46385356D02*
X14420714Y46599644D01*
D10*
X14492143Y46171072D02*
X14420714Y46385356D01*
D10*
X14563572Y46099644D02*
X14492143Y46171072D01*
D10*
X14706428Y46028216D02*
X14563572Y46099644D01*
D10*
X14992143Y46099644D02*
X14849286Y46028216D01*
D10*
X15135000Y46242500D02*
X14992143Y46099644D01*
D10*
X15277857Y46528216D02*
X15135000Y46242500D01*
D10*
X15563572Y46528216D02*
X15063572Y46528216D01*
D10*
X15920714Y46028216D02*
X16349286Y47528216D01*
D10*
X16849286Y46242500D02*
X16349286Y47528216D01*
D10*
X16849286Y46028216D02*
X16349286Y47313928D01*
D10*
X16849286Y46028216D02*
X17277858Y47528216D01*
D10*
X16349286Y47528216D02*
X16135000Y47528216D01*
D10*
X17492142Y47528216D02*
X17063572Y47528216D01*
D10*
X16135000Y46028216D02*
X15706428Y46028216D01*
D10*
X17706428Y46028216D02*
X18135000Y47528216D01*
D10*
X17777858Y46028216D02*
X18206428Y47528216D01*
D10*
X18563572Y47528216D02*
X17920714Y47528216D01*
D10*
X18777858Y47456784D02*
X18563572Y47528216D01*
D10*
X18849286Y47385356D02*
X18777858Y47456784D01*
D10*
X18920714Y47171072D02*
X18849286Y47385356D01*
D10*
X18920714Y46885356D02*
X18920714Y47171072D01*
D10*
X18849286Y46599644D02*
X18920714Y46885356D01*
D10*
X18706428Y46313928D02*
X18849286Y46599644D01*
D10*
X18563572Y46171072D02*
X18706428Y46313928D01*
D10*
X18420714Y46099644D02*
X18563572Y46171072D01*
D10*
X18135000Y46028216D02*
X18420714Y46099644D01*
D10*
X17492142Y46028216D02*
X18135000Y46028216D01*
D10*
X18706428Y47456784D02*
X18563572Y47528216D01*
D10*
X18777858Y47385356D02*
X18706428Y47456784D01*
D10*
X18849286Y47171072D02*
X18777858Y47385356D01*
D10*
X18849286Y46885356D02*
X18849286Y47171072D01*
D10*
X18777858Y46599644D02*
X18849286Y46885356D01*
D10*
X18635000Y46313928D02*
X18777858Y46599644D01*
D10*
X18492142Y46171072D02*
X18635000Y46313928D01*
D10*
X18349286Y46099644D02*
X18492142Y46171072D01*
D10*
X18135000Y46028216D02*
X18349286Y46099644D01*
D10*
X7206429Y35868216D02*
X7635000Y37368216D01*
D10*
X7277857Y35868216D02*
X7706429Y37368216D01*
D10*
X6992143Y36939644D02*
X7206429Y37368216D01*
D10*
X7135000Y37368216D02*
X6992143Y36939644D01*
D10*
X8206429Y37368216D02*
X7135000Y37368216D01*
D10*
X8135000Y36939644D02*
X8206429Y37368216D01*
D10*
X8135000Y37368216D02*
X8135000Y36939644D01*
D10*
X7492143Y35868216D02*
X6992143Y35868216D01*
D10*
X9206429Y35868216D02*
X8706429Y37368216D01*
D10*
X9277857Y35868216D02*
X8777857Y37368216D01*
D10*
X8277857Y35868216D02*
X9706429Y37368216D01*
D10*
X8992143Y37368216D02*
X8563572Y37368216D01*
D10*
X9849286Y37368216D02*
X9420714Y37368216D01*
D10*
X8563572Y35868216D02*
X8135000Y35868216D01*
D10*
X9420714Y35868216D02*
X8992143Y35868216D01*
D10*
X10563572Y35868216D02*
X10992143Y37368216D01*
D10*
X10635000Y35868216D02*
X11063572Y37368216D01*
D10*
X11420714Y37368216D02*
X10777858Y37368216D01*
D10*
X11635000Y37296784D02*
X11420714Y37368216D01*
D10*
X11706428Y37225356D02*
X11635000Y37296784D01*
D10*
X11777858Y37011072D02*
X11706428Y37225356D01*
D10*
X11777858Y36725356D02*
X11777858Y37011072D01*
D10*
X11706428Y36439644D02*
X11777858Y36725356D01*
D10*
X11563572Y36153928D02*
X11706428Y36439644D01*
D10*
X11420714Y36011072D02*
X11563572Y36153928D01*
D10*
X11277858Y35939644D02*
X11420714Y36011072D01*
D10*
X10992143Y35868216D02*
X11277858Y35939644D01*
D10*
X10349286Y35868216D02*
X10992143Y35868216D01*
D10*
X11563572Y37296784D02*
X11420714Y37368216D01*
D10*
X11635000Y37225356D02*
X11563572Y37296784D01*
D10*
X11706428Y37011072D02*
X11635000Y37225356D01*
D10*
X11706428Y36725356D02*
X11706428Y37011072D01*
D10*
X11635000Y36439644D02*
X11706428Y36725356D01*
D10*
X11492143Y36153928D02*
X11635000Y36439644D01*
D10*
X11349286Y36011072D02*
X11492143Y36153928D01*
D10*
X11206428Y35939644D02*
X11349286Y36011072D01*
D10*
X10992143Y35868216D02*
X11206428Y35939644D01*
D10*
X12563572Y37296784D02*
X12635000Y37368216D01*
D10*
X12635000Y37225356D02*
X12563572Y37296784D01*
D10*
X12706428Y37296784D02*
X12635000Y37225356D01*
D10*
X12635000Y37368216D02*
X12706428Y37296784D01*
D10*
X12135000Y36725356D02*
X12063572Y36582500D01*
D10*
X12277857Y36868216D02*
X12135000Y36725356D01*
D10*
X12492143Y36868216D02*
X12277857Y36868216D01*
D10*
X12563572Y36796784D02*
X12492143Y36868216D01*
D10*
X12563572Y36582500D02*
X12563572Y36796784D01*
D10*
X12420714Y36153928D02*
X12563572Y36582500D01*
D10*
X12420714Y35939644D02*
X12420714Y36153928D01*
D10*
X12492143Y35868216D02*
X12420714Y35939644D01*
D10*
X12492143Y36796784D02*
X12420714Y36868216D01*
D10*
X12492143Y36582500D02*
X12492143Y36796784D01*
D10*
X12349286Y36153928D02*
X12492143Y36582500D01*
D10*
X12349286Y35939644D02*
X12349286Y36153928D01*
D10*
X12420714Y35868216D02*
X12349286Y35939644D01*
D10*
X12635000Y35868216D02*
X12420714Y35868216D01*
D10*
X12777857Y36011072D02*
X12635000Y35868216D01*
D10*
X12849286Y36153928D02*
X12777857Y36011072D01*
D10*
X13920714Y36653928D02*
X13920714Y36725356D01*
D10*
X13992143Y36653928D02*
X13920714Y36653928D01*
D10*
X13992143Y36725356D02*
X13992143Y36653928D01*
D10*
X13920714Y36796784D02*
X13992143Y36725356D01*
D10*
X13706428Y36868216D02*
X13920714Y36796784D01*
D10*
X13492143Y36868216D02*
X13706428Y36868216D01*
D10*
X13277857Y36796784D02*
X13492143Y36868216D01*
D10*
X13206428Y36725356D02*
X13277857Y36796784D01*
D10*
X13206428Y36582500D02*
X13206428Y36725356D01*
D10*
X13277857Y36511072D02*
X13206428Y36582500D01*
D10*
X13777857Y36225356D02*
X13277857Y36511072D01*
D10*
X13849286Y36153928D02*
X13777857Y36225356D01*
D10*
X13277857Y36582500D02*
X13206428Y36653928D01*
D10*
X13777857Y36296784D02*
X13277857Y36582500D01*
D10*
X13849286Y36225356D02*
X13777857Y36296784D01*
D10*
X13849286Y36011072D02*
X13849286Y36225356D01*
D10*
X13777857Y35939644D02*
X13849286Y36011072D01*
D10*
X13563572Y35868216D02*
X13777857Y35939644D01*
D10*
X13349286Y35868216D02*
X13563572Y35868216D01*
D10*
X13135000Y35939644D02*
X13349286Y35868216D01*
D10*
X13063572Y36011072D02*
X13135000Y35939644D01*
D10*
X13063572Y36082500D02*
X13063572Y36011072D01*
D10*
X13135000Y36082500D02*
X13063572Y36082500D01*
D10*
X13135000Y36011072D02*
X13135000Y36082500D01*
D10*
X15135000Y36368216D02*
X15277857Y36868216D01*
D10*
X15063572Y36082500D02*
X15135000Y36368216D01*
D10*
X15063572Y35939644D02*
X15063572Y36082500D01*
D10*
X15135000Y35868216D02*
X15063572Y35939644D01*
D10*
X15349286Y35868216D02*
X15135000Y35868216D01*
D10*
X15492143Y36011072D02*
X15349286Y35868216D01*
D10*
X15563572Y36153928D02*
X15492143Y36011072D01*
D10*
X15206429Y36368216D02*
X15349286Y36868216D01*
D10*
X15135000Y36082500D02*
X15206429Y36368216D01*
D10*
X15135000Y35939644D02*
X15135000Y36082500D01*
D10*
X15206429Y35868216D02*
X15135000Y35939644D01*
D10*
X15135000Y36582500D02*
X15135000Y36368216D01*
D10*
X15063572Y36796784D02*
X15135000Y36582500D01*
D10*
X14920714Y36868216D02*
X15063572Y36796784D01*
D10*
X14777857Y36868216D02*
X14920714Y36868216D01*
D10*
X14563572Y36796784D02*
X14777857Y36868216D01*
D10*
X14420714Y36582500D02*
X14563572Y36796784D01*
D10*
X14349286Y36368216D02*
X14420714Y36582500D01*
D10*
X14349286Y36153928D02*
X14349286Y36368216D01*
D10*
X14420714Y36011072D02*
X14349286Y36153928D01*
D10*
X14492143Y35939644D02*
X14420714Y36011072D01*
D10*
X14635000Y35868216D02*
X14492143Y35939644D01*
D10*
X14777857Y35868216D02*
X14635000Y35868216D01*
D10*
X14920714Y35939644D02*
X14777857Y35868216D01*
D10*
X15063572Y36153928D02*
X14920714Y35939644D01*
D10*
X15135000Y36368216D02*
X15063572Y36153928D01*
D10*
X14635000Y36796784D02*
X14777857Y36868216D01*
D10*
X14492143Y36582500D02*
X14635000Y36796784D01*
D10*
X14420714Y36368216D02*
X14492143Y36582500D01*
D10*
X14420714Y36082500D02*
X14420714Y36368216D01*
D10*
X14492143Y35939644D02*
X14420714Y36082500D01*
D10*
X15920714Y36439644D02*
X16206428Y37368216D01*
D10*
X15920714Y36225356D02*
X15920714Y36439644D01*
D10*
X15992143Y36011072D02*
X15920714Y36225356D01*
D10*
X16063572Y35939644D02*
X15992143Y36011072D01*
D10*
X15992143Y36439644D02*
X16277857Y37368216D01*
D10*
X16063572Y36653928D02*
X15992143Y36439644D01*
D10*
X16206428Y36796784D02*
X16063572Y36653928D01*
D10*
X16349286Y36868216D02*
X16206428Y36796784D01*
D10*
X16492143Y36868216D02*
X16349286Y36868216D01*
D10*
X16635000Y36796784D02*
X16492143Y36868216D01*
D10*
X16706428Y36725356D02*
X16635000Y36796784D01*
D10*
X16777858Y36582500D02*
X16706428Y36725356D01*
D10*
X16777858Y36368216D02*
X16777858Y36582500D01*
D10*
X16706428Y36153928D02*
X16777858Y36368216D01*
D10*
X16563572Y35939644D02*
X16706428Y36153928D01*
D10*
X16349286Y35868216D02*
X16563572Y35939644D01*
D10*
X16206428Y35868216D02*
X16349286Y35868216D01*
D10*
X16063572Y35939644D02*
X16206428Y35868216D01*
D10*
X15992143Y36153928D02*
X16063572Y35939644D01*
D10*
X15992143Y36439644D02*
X15992143Y36153928D01*
D10*
X16706428Y36653928D02*
X16635000Y36796784D01*
D10*
X16706428Y36368216D02*
X16706428Y36653928D01*
D10*
X16635000Y36153928D02*
X16706428Y36368216D01*
D10*
X16492143Y35939644D02*
X16635000Y36153928D01*
D10*
X16349286Y35868216D02*
X16492143Y35939644D01*
D10*
X16277857Y37368216D02*
X15992143Y37368216D01*
D10*
X17277858Y36368216D02*
X17563572Y37368216D01*
D10*
X17206428Y36082500D02*
X17277858Y36368216D01*
D10*
X17206428Y35939644D02*
X17206428Y36082500D01*
D10*
X17277858Y35868216D02*
X17206428Y35939644D01*
D10*
X17492142Y35868216D02*
X17277858Y35868216D01*
D10*
X17635000Y36011072D02*
X17492142Y35868216D01*
D10*
X17706428Y36153928D02*
X17635000Y36011072D01*
D10*
X17349286Y36368216D02*
X17635000Y37368216D01*
D10*
X17277858Y36082500D02*
X17349286Y36368216D01*
D10*
X17277858Y35939644D02*
X17277858Y36082500D01*
D10*
X17349286Y35868216D02*
X17277858Y35939644D01*
D10*
X17635000Y37368216D02*
X17349286Y37368216D01*
D10*
X18420714Y36296784D02*
X18135000Y36225356D01*
D10*
X18635000Y36368216D02*
X18420714Y36296784D01*
D10*
X18849286Y36511072D02*
X18635000Y36368216D01*
D10*
X18920714Y36653928D02*
X18849286Y36511072D01*
D10*
X18849286Y36796784D02*
X18920714Y36653928D01*
D10*
X18706428Y36868216D02*
X18849286Y36796784D01*
D10*
X18492142Y36868216D02*
X18706428Y36868216D01*
D10*
X18277858Y36796784D02*
X18492142Y36868216D01*
D10*
X18135000Y36582500D02*
X18277858Y36796784D01*
D10*
X18063572Y36368216D02*
X18135000Y36582500D01*
D10*
X18063572Y36153928D02*
X18063572Y36368216D01*
D10*
X18135000Y36011072D02*
X18063572Y36153928D01*
D10*
X18206428Y35939644D02*
X18135000Y36011072D01*
D10*
X18349286Y35868216D02*
X18206428Y35939644D01*
D10*
X18492142Y35868216D02*
X18349286Y35868216D01*
D10*
X18706428Y35939644D02*
X18492142Y35868216D01*
D10*
X18849286Y36082500D02*
X18706428Y35939644D01*
D10*
X18349286Y36796784D02*
X18492142Y36868216D01*
D10*
X18206428Y36582500D02*
X18349286Y36796784D01*
D10*
X18135000Y36368216D02*
X18206428Y36582500D01*
D10*
X18135000Y36082500D02*
X18135000Y36368216D01*
D10*
X18206428Y35939644D02*
X18135000Y36082500D01*
D10*
X13920714Y23168214D02*
X13849286Y24668214D01*
D10*
X13992143Y23311072D02*
X13920714Y24668214D01*
D10*
X13920714Y23168214D02*
X14849286Y24668214D01*
D10*
X14135000Y24668214D02*
X13706428Y24668214D01*
D10*
X14992143Y24668214D02*
X14563572Y24668214D01*
D10*
X15849286Y23882500D02*
X15849286Y23953928D01*
D10*
X15920714Y23882500D02*
X15849286Y23882500D01*
D10*
X15920714Y23953928D02*
X15920714Y23882500D01*
D10*
X15849286Y24096786D02*
X15920714Y23953928D01*
D10*
X15706428Y24168214D02*
X15849286Y24096786D01*
D10*
X15492143Y24168214D02*
X15706428Y24168214D01*
D10*
X15277857Y24096786D02*
X15492143Y24168214D01*
D10*
X15135000Y23882500D02*
X15277857Y24096786D01*
D10*
X15063572Y23668214D02*
X15135000Y23882500D01*
D10*
X15063572Y23453928D02*
X15063572Y23668214D01*
D10*
X15135000Y23311072D02*
X15063572Y23453928D01*
D10*
X15206429Y23239642D02*
X15135000Y23311072D01*
D10*
X15349286Y23168214D02*
X15206429Y23239642D01*
D10*
X15492143Y23168214D02*
X15349286Y23168214D01*
D10*
X15706428Y23239642D02*
X15492143Y23168214D01*
D10*
X15849286Y23453928D02*
X15706428Y23239642D01*
D10*
X15349286Y24096786D02*
X15492143Y24168214D01*
D10*
X15206429Y23882500D02*
X15349286Y24096786D01*
D10*
X15135000Y23668214D02*
X15206429Y23882500D01*
D10*
X15135000Y23382500D02*
X15135000Y23668214D01*
D10*
X15206429Y23239642D02*
X15135000Y23382500D01*
D10*
X17135000Y23882500D02*
X17135000Y23953928D01*
D10*
X17206428Y23882500D02*
X17135000Y23882500D01*
D10*
X17206428Y23953928D02*
X17206428Y23882500D01*
D10*
X17135000Y24096786D02*
X17206428Y23953928D01*
D10*
X16992144Y24168214D02*
X17135000Y24096786D01*
D10*
X16777858Y24168214D02*
X16992144Y24168214D01*
D10*
X16563572Y24096786D02*
X16777858Y24168214D01*
D10*
X16420714Y23882500D02*
X16563572Y24096786D01*
D10*
X16349286Y23668214D02*
X16420714Y23882500D01*
D10*
X16349286Y23453928D02*
X16349286Y23668214D01*
D10*
X16420714Y23311072D02*
X16349286Y23453928D01*
D10*
X16492143Y23239642D02*
X16420714Y23311072D01*
D10*
X16635000Y23168214D02*
X16492143Y23239642D01*
D10*
X16777858Y23168214D02*
X16635000Y23168214D01*
D10*
X16992144Y23239642D02*
X16777858Y23168214D01*
D10*
X17135000Y23453928D02*
X16992144Y23239642D01*
D10*
X16635000Y24096786D02*
X16777858Y24168214D01*
D10*
X16492143Y23882500D02*
X16635000Y24096786D01*
D10*
X16420714Y23668214D02*
X16492143Y23882500D01*
D10*
X16420714Y23382500D02*
X16420714Y23668214D01*
D10*
X16492143Y23239642D02*
X16420714Y23382500D01*
D10*
X17635000Y23168214D02*
X18063572Y24668214D01*
D10*
X17706428Y23168214D02*
X18135000Y24668214D01*
D10*
X18635000Y24668214D02*
X17849286Y24668214D01*
D10*
X18849286Y24596786D02*
X18635000Y24668214D01*
D10*
X18920714Y24453928D02*
X18849286Y24596786D01*
D10*
X18920714Y24311072D02*
X18920714Y24453928D01*
D10*
X18849286Y24096786D02*
X18920714Y24311072D01*
D10*
X18777858Y24025358D02*
X18849286Y24096786D01*
D10*
X18563572Y23953928D02*
X18777858Y24025358D01*
D10*
X17920714Y23953928D02*
X18563572Y23953928D01*
D10*
X18777858Y24596786D02*
X18635000Y24668214D01*
D10*
X18849286Y24453928D02*
X18777858Y24596786D01*
D10*
X18849286Y24311072D02*
X18849286Y24453928D01*
D10*
X18777858Y24096786D02*
X18849286Y24311072D01*
D10*
X18706428Y24025358D02*
X18777858Y24096786D01*
D10*
X18563572Y23953928D02*
X18706428Y24025358D01*
D10*
X18420714Y23882500D02*
X18277858Y23953928D01*
D10*
X18492142Y23811072D02*
X18420714Y23882500D01*
D10*
X18563572Y23239642D02*
X18492142Y23811072D01*
D10*
X18635000Y23168214D02*
X18563572Y23239642D01*
D10*
X18777858Y23168214D02*
X18635000Y23168214D01*
D10*
X18849286Y23311072D02*
X18777858Y23168214D01*
D10*
X18849286Y23382500D02*
X18849286Y23311072D01*
D10*
X18635000Y23311072D02*
X18492142Y23811072D01*
D10*
X18706428Y23239642D02*
X18635000Y23311072D01*
D10*
X18777858Y23239642D02*
X18706428Y23239642D01*
D10*
X18849286Y23311072D02*
X18777858Y23239642D01*
D10*
X17920714Y23168214D02*
X17420714Y23168214D01*
D10*
X1774285Y9948214D02*
X2202857Y11448214D01*
D10*
X2702857Y10162500D02*
X2202857Y11448214D01*
D10*
X2702857Y9948214D02*
X2202857Y11233929D01*
D10*
X2702857Y9948214D02*
X3131428Y11448214D01*
D10*
X2202857Y11448214D02*
X1988571Y11448214D01*
D10*
X3345714Y11448214D02*
X2917143Y11448214D01*
D10*
X1988571Y9948214D02*
X1560000Y9948214D01*
D10*
X3988571Y11376786D02*
X4202857Y11448214D01*
D10*
X3845714Y11233929D02*
X3988571Y11376786D01*
D10*
X3702857Y11019643D02*
X3845714Y11233929D01*
D10*
X3631428Y10805357D02*
X3702857Y11019643D01*
D10*
X3560000Y10519643D02*
X3631428Y10805357D01*
D10*
X3560000Y10305357D02*
X3560000Y10519643D01*
D10*
X3631428Y10091071D02*
X3560000Y10305357D01*
D10*
X3702857Y10019643D02*
X3631428Y10091071D01*
D10*
X3845714Y9948214D02*
X3702857Y10019643D01*
D10*
X4060000Y9948214D02*
X3845714Y9948214D01*
D10*
X4274286Y10019643D02*
X4060000Y9948214D01*
D10*
X4417143Y10162500D02*
X4274286Y10019643D01*
D10*
X4560000Y10376786D02*
X4417143Y10162500D01*
D10*
X4631428Y10591071D02*
X4560000Y10376786D01*
D10*
X4702857Y10876786D02*
X4631428Y10591071D01*
D10*
X4702857Y11091071D02*
X4702857Y10876786D01*
D10*
X4631428Y11305357D02*
X4702857Y11091071D01*
D10*
X4560000Y11376786D02*
X4631428Y11305357D01*
D10*
X4417143Y11448214D02*
X4560000Y11376786D01*
D10*
X4202857Y11448214D02*
X4417143Y11448214D01*
D10*
X4060000Y11376786D02*
X4202857Y11448214D01*
D10*
X3917142Y11233929D02*
X4060000Y11376786D01*
D10*
X3774285Y11019643D02*
X3917142Y11233929D01*
D10*
X3702857Y10805357D02*
X3774285Y11019643D01*
D10*
X3631428Y10519643D02*
X3702857Y10805357D01*
D10*
X3631428Y10305357D02*
X3631428Y10519643D01*
D10*
X3702857Y10091071D02*
X3631428Y10305357D01*
D10*
X3845714Y9948214D02*
X3702857Y10091071D01*
D10*
X4202857Y10019643D02*
X4060000Y9948214D01*
D10*
X4345714Y10162500D02*
X4202857Y10019643D01*
D10*
X4488571Y10376786D02*
X4345714Y10162500D01*
D10*
X4560000Y10591071D02*
X4488571Y10376786D01*
D10*
X4631428Y10876786D02*
X4560000Y10591071D01*
D10*
X4631428Y11091071D02*
X4631428Y10876786D01*
D10*
X4560000Y11305357D02*
X4631428Y11091071D01*
D10*
X4417143Y11448214D02*
X4560000Y11305357D01*
D10*
X5417143Y9948214D02*
X5845714Y11448214D01*
D10*
X5488571Y9948214D02*
X5917143Y11448214D01*
D10*
X5202857Y11019643D02*
X5417143Y11448214D01*
D10*
X5345714Y11448214D02*
X5202857Y11019643D01*
D10*
X6417143Y11448214D02*
X5345714Y11448214D01*
D10*
X6345714Y11019643D02*
X6417143Y11448214D01*
D10*
X6345714Y11448214D02*
X6345714Y11019643D01*
D10*
X5702857Y9948214D02*
X5202857Y9948214D01*
D10*
X7202857Y9948214D02*
X7631428Y11448214D01*
D10*
X7274285Y9948214D02*
X7702857Y11448214D01*
D10*
X8131428Y9948214D02*
X8560000Y11448214D01*
D10*
X8202857Y9948214D02*
X8631428Y11448214D01*
D10*
X7917143Y11448214D02*
X7417143Y11448214D01*
D10*
X8845714Y11448214D02*
X8345714Y11448214D01*
D10*
X8345714Y10733929D02*
X7488571Y10733929D01*
D10*
X7488571Y9948214D02*
X6988571Y9948214D01*
D10*
X8417143Y9948214D02*
X7917143Y9948214D01*
D10*
X9060000Y9948214D02*
X9488572Y11448214D01*
D10*
X9131428Y9948214D02*
X9560000Y11448214D01*
D10*
X9917142Y11448214D02*
X9274286Y11448214D01*
D10*
X10131428Y11376786D02*
X9917142Y11448214D01*
D10*
X10202857Y11305357D02*
X10131428Y11376786D01*
D10*
X10274286Y11091071D02*
X10202857Y11305357D01*
D10*
X10274286Y10805357D02*
X10274286Y11091071D01*
D10*
X10202857Y10519643D02*
X10274286Y10805357D01*
D10*
X10060000Y10233929D02*
X10202857Y10519643D01*
D10*
X9917142Y10091071D02*
X10060000Y10233929D01*
D10*
X9774286Y10019643D02*
X9917142Y10091071D01*
D10*
X9488572Y9948214D02*
X9774286Y10019643D01*
D10*
X8845714Y9948214D02*
X9488572Y9948214D01*
D10*
X10060000Y11376786D02*
X9917142Y11448214D01*
D10*
X10131428Y11305357D02*
X10060000Y11376786D01*
D10*
X10202857Y11091071D02*
X10131428Y11305357D01*
D10*
X10202857Y10805357D02*
X10202857Y11091071D01*
D10*
X10131428Y10519643D02*
X10202857Y10805357D01*
D10*
X9988571Y10233929D02*
X10131428Y10519643D01*
D10*
X9845714Y10091071D02*
X9988571Y10233929D01*
D10*
X9702857Y10019643D02*
X9845714Y10091071D01*
D10*
X9488572Y9948214D02*
X9702857Y10019643D01*
D10*
X10702857Y9948214D02*
X11131428Y11448214D01*
D10*
X11202857Y9948214D02*
X11131428Y11448214D01*
D10*
X11274286Y10091071D02*
X11202857Y11448214D01*
D10*
X11202857Y9948214D02*
X12131428Y11448214D01*
D10*
X11702857Y9948214D02*
X12131428Y11448214D01*
D10*
X11774286Y9948214D02*
X12202857Y11448214D01*
D10*
X11202857Y11448214D02*
X10917143Y11448214D01*
D10*
X12417143Y11448214D02*
X12131428Y11448214D01*
D10*
X10917143Y9948214D02*
X10488571Y9948214D01*
D10*
X11988571Y9948214D02*
X11488571Y9948214D01*
D10*
X12631428Y9948214D02*
X13060000Y11448214D01*
D10*
X12702857Y9948214D02*
X13131428Y11448214D01*
D10*
X13345714Y11448214D02*
X12845714Y11448214D01*
D10*
X12917143Y9948214D02*
X12417143Y9948214D01*
D10*
X14706428Y28248214D02*
X15135000Y29748214D01*
D10*
X14777857Y28248214D02*
X15206429Y29748214D01*
D10*
X15420714Y29748214D02*
X14920714Y29748214D01*
D10*
X15563572Y28248214D02*
X14492143Y28248214D01*
D10*
X15706428Y28676786D02*
X15563572Y28248214D01*
D10*
X15492143Y28248214D02*
X15706428Y28676786D01*
D10*
X16563572Y29676786D02*
X16777858Y29748214D01*
D10*
X16420714Y29533928D02*
X16563572Y29676786D01*
D10*
X16277857Y29319642D02*
X16420714Y29533928D01*
D10*
X16206428Y29105358D02*
X16277857Y29319642D01*
D10*
X16135000Y28819642D02*
X16206428Y29105358D01*
D10*
X16135000Y28605358D02*
X16135000Y28819642D01*
D10*
X16206428Y28391072D02*
X16135000Y28605358D01*
D10*
X16277857Y28319642D02*
X16206428Y28391072D01*
D10*
X16420714Y28248214D02*
X16277857Y28319642D01*
D10*
X16635000Y28248214D02*
X16420714Y28248214D01*
D10*
X16849286Y28319642D02*
X16635000Y28248214D01*
D10*
X16992144Y28462500D02*
X16849286Y28319642D01*
D10*
X17135000Y28676786D02*
X16992144Y28462500D01*
D10*
X17206428Y28891072D02*
X17135000Y28676786D01*
D10*
X17277858Y29176786D02*
X17206428Y28891072D01*
D10*
X17277858Y29391072D02*
X17277858Y29176786D01*
D10*
X17206428Y29605358D02*
X17277858Y29391072D01*
D10*
X17135000Y29676786D02*
X17206428Y29605358D01*
D10*
X16992144Y29748214D02*
X17135000Y29676786D01*
D10*
X16777858Y29748214D02*
X16992144Y29748214D01*
D10*
X16635000Y29676786D02*
X16777858Y29748214D01*
D10*
X16492143Y29533928D02*
X16635000Y29676786D01*
D10*
X16349286Y29319642D02*
X16492143Y29533928D01*
D10*
X16277857Y29105358D02*
X16349286Y29319642D01*
D10*
X16206428Y28819642D02*
X16277857Y29105358D01*
D10*
X16206428Y28605358D02*
X16206428Y28819642D01*
D10*
X16277857Y28391072D02*
X16206428Y28605358D01*
D10*
X16420714Y28248214D02*
X16277857Y28391072D01*
D10*
X16777858Y28319642D02*
X16635000Y28248214D01*
D10*
X16920714Y28462500D02*
X16777858Y28319642D01*
D10*
X17063572Y28676786D02*
X16920714Y28462500D01*
D10*
X17135000Y28891072D02*
X17063572Y28676786D01*
D10*
X17206428Y29176786D02*
X17135000Y28891072D01*
D10*
X17206428Y29391072D02*
X17206428Y29176786D01*
D10*
X17135000Y29605358D02*
X17206428Y29391072D01*
D10*
X16992144Y29748214D02*
X17135000Y29605358D01*
D10*
X18920714Y29605358D02*
X18849286Y29605358D01*
D10*
X18992142Y29748214D02*
X18920714Y29605358D01*
D10*
X18920714Y29319642D02*
X18992142Y29748214D01*
D10*
X18920714Y29462500D02*
X18920714Y29319642D01*
D10*
X18849286Y29605358D02*
X18920714Y29462500D01*
D10*
X18777858Y29676786D02*
X18849286Y29605358D01*
D10*
X18563572Y29748214D02*
X18777858Y29676786D01*
D10*
X18277858Y29748214D02*
X18563572Y29748214D01*
D10*
X18063572Y29676786D02*
X18277858Y29748214D01*
D10*
X17920714Y29533928D02*
X18063572Y29676786D01*
D10*
X17920714Y29391072D02*
X17920714Y29533928D01*
D10*
X17992142Y29248214D02*
X17920714Y29391072D01*
D10*
X18063572Y29176786D02*
X17992142Y29248214D01*
D10*
X18563572Y28891072D02*
X18063572Y29176786D01*
D10*
X18706428Y28748214D02*
X18563572Y28891072D01*
D10*
X18063572Y29248214D02*
X17920714Y29391072D01*
D10*
X18563572Y28962500D02*
X18063572Y29248214D01*
D10*
X18635000Y28891072D02*
X18563572Y28962500D01*
D10*
X18706428Y28748214D02*
X18635000Y28891072D01*
D10*
X18706428Y28533928D02*
X18706428Y28748214D01*
D10*
X18635000Y28391072D02*
X18706428Y28533928D01*
D10*
X18563572Y28319642D02*
X18635000Y28391072D01*
D10*
X18349286Y28248214D02*
X18563572Y28319642D01*
D10*
X18063572Y28248214D02*
X18349286Y28248214D01*
D10*
X17849286Y28319642D02*
X18063572Y28248214D01*
D10*
X17777858Y28391072D02*
X17849286Y28319642D01*
D10*
X17706428Y28533928D02*
X17777858Y28391072D01*
D10*
X17706428Y28676786D02*
X17706428Y28533928D01*
D10*
X17635000Y28248214D02*
X17706428Y28676786D01*
D10*
X17706428Y28391072D02*
X17635000Y28248214D01*
D10*
X17777858Y28391072D02*
X17706428Y28391072D01*
D10*
X15849286Y42305356D02*
X15777857Y42305356D01*
D10*
X15920714Y42448216D02*
X15849286Y42305356D01*
D10*
X15849286Y42019644D02*
X15920714Y42448216D01*
D10*
X15849286Y42162500D02*
X15849286Y42019644D01*
D10*
X15777857Y42305356D02*
X15849286Y42162500D01*
D10*
X15706428Y42376784D02*
X15777857Y42305356D01*
D10*
X15492143Y42448216D02*
X15706428Y42376784D01*
D10*
X15206429Y42448216D02*
X15492143Y42448216D01*
D10*
X14992143Y42376784D02*
X15206429Y42448216D01*
D10*
X14849286Y42233928D02*
X14992143Y42376784D01*
D10*
X14849286Y42091072D02*
X14849286Y42233928D01*
D10*
X14920714Y41948216D02*
X14849286Y42091072D01*
D10*
X14992143Y41876784D02*
X14920714Y41948216D01*
D10*
X15492143Y41591072D02*
X14992143Y41876784D01*
D10*
X15635000Y41448216D02*
X15492143Y41591072D01*
D10*
X14992143Y41948216D02*
X14849286Y42091072D01*
D10*
X15492143Y41662500D02*
X14992143Y41948216D01*
D10*
X15563572Y41591072D02*
X15492143Y41662500D01*
D10*
X15635000Y41448216D02*
X15563572Y41591072D01*
D10*
X15635000Y41233928D02*
X15635000Y41448216D01*
D10*
X15563572Y41091072D02*
X15635000Y41233928D01*
D10*
X15492143Y41019644D02*
X15563572Y41091072D01*
D10*
X15277857Y40948216D02*
X15492143Y41019644D01*
D10*
X14992143Y40948216D02*
X15277857Y40948216D01*
D10*
X14777857Y41019644D02*
X14992143Y40948216D01*
D10*
X14706428Y41091072D02*
X14777857Y41019644D01*
D10*
X14635000Y41233928D02*
X14706428Y41091072D01*
D10*
X14635000Y41376784D02*
X14635000Y41233928D01*
D10*
X14563572Y40948216D02*
X14635000Y41376784D01*
D10*
X14635000Y41091072D02*
X14563572Y40948216D01*
D10*
X14706428Y41091072D02*
X14635000Y41091072D01*
D10*
X16277857Y40948216D02*
X16706428Y42448216D01*
D10*
X16349286Y40948216D02*
X16777858Y42448216D01*
D10*
X17135000Y42448216D02*
X16492143Y42448216D01*
D10*
X17349286Y42376784D02*
X17135000Y42448216D01*
D10*
X17420714Y42305356D02*
X17349286Y42376784D01*
D10*
X17492142Y42091072D02*
X17420714Y42305356D01*
D10*
X17492142Y41805356D02*
X17492142Y42091072D01*
D10*
X17420714Y41519644D02*
X17492142Y41805356D01*
D10*
X17277858Y41233928D02*
X17420714Y41519644D01*
D10*
X17135000Y41091072D02*
X17277858Y41233928D01*
D10*
X16992144Y41019644D02*
X17135000Y41091072D01*
D10*
X16706428Y40948216D02*
X16992144Y41019644D01*
D10*
X16063572Y40948216D02*
X16706428Y40948216D01*
D10*
X17277858Y42376784D02*
X17135000Y42448216D01*
D10*
X17349286Y42305356D02*
X17277858Y42376784D01*
D10*
X17420714Y42091072D02*
X17349286Y42305356D01*
D10*
X17420714Y41805356D02*
X17420714Y42091072D01*
D10*
X17349286Y41519644D02*
X17420714Y41805356D01*
D10*
X17206428Y41233928D02*
X17349286Y41519644D01*
D10*
X17063572Y41091072D02*
X17206428Y41233928D01*
D10*
X16920714Y41019644D02*
X17063572Y41091072D01*
D10*
X16706428Y40948216D02*
X16920714Y41019644D01*
D10*
X17706428Y40948216D02*
X18635000Y42448216D01*
D10*
X18706428Y40948216D02*
X18635000Y42448216D01*
D10*
X18635000Y40948216D02*
X18563572Y42305356D01*
D10*
X18635000Y41376784D02*
X17992142Y41376784D01*
D10*
X17992142Y40948216D02*
X17563572Y40948216D01*
D10*
X18849286Y40948216D02*
X18420714Y40948216D01*
D10*
X15992143Y39765356D02*
X15920714Y39765356D01*
D10*
X16063572Y39908216D02*
X15992143Y39765356D01*
D10*
X15992143Y39479644D02*
X16063572Y39908216D01*
D10*
X15992143Y39622500D02*
X15992143Y39479644D01*
D10*
X15920714Y39765356D02*
X15992143Y39622500D01*
D10*
X15849286Y39836784D02*
X15920714Y39765356D01*
D10*
X15635000Y39908216D02*
X15849286Y39836784D01*
D10*
X15349286Y39908216D02*
X15635000Y39908216D01*
D10*
X15135000Y39836784D02*
X15349286Y39908216D01*
D10*
X14992143Y39693928D02*
X15135000Y39836784D01*
D10*
X14992143Y39551072D02*
X14992143Y39693928D01*
D10*
X15063572Y39408216D02*
X14992143Y39551072D01*
D10*
X15135000Y39336784D02*
X15063572Y39408216D01*
D10*
X15635000Y39051072D02*
X15135000Y39336784D01*
D10*
X15777857Y38908216D02*
X15635000Y39051072D01*
D10*
X15135000Y39408216D02*
X14992143Y39551072D01*
D10*
X15635000Y39122500D02*
X15135000Y39408216D01*
D10*
X15706428Y39051072D02*
X15635000Y39122500D01*
D10*
X15777857Y38908216D02*
X15706428Y39051072D01*
D10*
X15777857Y38693928D02*
X15777857Y38908216D01*
D10*
X15706428Y38551072D02*
X15777857Y38693928D01*
D10*
X15635000Y38479644D02*
X15706428Y38551072D01*
D10*
X15420714Y38408216D02*
X15635000Y38479644D01*
D10*
X15135000Y38408216D02*
X15420714Y38408216D01*
D10*
X14920714Y38479644D02*
X15135000Y38408216D01*
D10*
X14849286Y38551072D02*
X14920714Y38479644D01*
D10*
X14777857Y38693928D02*
X14849286Y38551072D01*
D10*
X14777857Y38836784D02*
X14777857Y38693928D01*
D10*
X14706428Y38408216D02*
X14777857Y38836784D01*
D10*
X14777857Y38551072D02*
X14706428Y38408216D01*
D10*
X14849286Y38551072D02*
X14777857Y38551072D01*
D10*
X17563572Y39765356D02*
X17492142Y39765356D01*
D10*
X17635000Y39908216D02*
X17563572Y39765356D01*
D10*
X17563572Y39479644D02*
X17635000Y39908216D01*
D10*
X17563572Y39622500D02*
X17563572Y39479644D01*
D10*
X17492142Y39765356D02*
X17563572Y39622500D01*
D10*
X17420714Y39836784D02*
X17492142Y39765356D01*
D10*
X17277858Y39908216D02*
X17420714Y39836784D01*
D10*
X17063572Y39908216D02*
X17277858Y39908216D01*
D10*
X16849286Y39836784D02*
X17063572Y39908216D01*
D10*
X16706428Y39693928D02*
X16849286Y39836784D01*
D10*
X16563572Y39479644D02*
X16706428Y39693928D01*
D10*
X16492143Y39265356D02*
X16563572Y39479644D01*
D10*
X16420714Y38979644D02*
X16492143Y39265356D01*
D10*
X16420714Y38765356D02*
X16420714Y38979644D01*
D10*
X16492143Y38551072D02*
X16420714Y38765356D01*
D10*
X16563572Y38479644D02*
X16492143Y38551072D01*
D10*
X16777858Y38408216D02*
X16563572Y38479644D01*
D10*
X16992144Y38408216D02*
X16777858Y38408216D01*
D10*
X17135000Y38479644D02*
X16992144Y38408216D01*
D10*
X17277858Y38622500D02*
X17135000Y38479644D01*
D10*
X17349286Y38765356D02*
X17277858Y38622500D01*
D10*
X16920714Y39836784D02*
X17063572Y39908216D01*
D10*
X16777858Y39693928D02*
X16920714Y39836784D01*
D10*
X16635000Y39479644D02*
X16777858Y39693928D01*
D10*
X16563572Y39265356D02*
X16635000Y39479644D01*
D10*
X16492143Y38979644D02*
X16563572Y39265356D01*
D10*
X16492143Y38765356D02*
X16492143Y38979644D01*
D10*
X16563572Y38551072D02*
X16492143Y38765356D01*
D10*
X16635000Y38479644D02*
X16563572Y38551072D01*
D10*
X16777858Y38408216D02*
X16635000Y38479644D01*
D10*
X17920714Y38408216D02*
X18349286Y39908216D01*
D10*
X17992142Y38408216D02*
X18420714Y39908216D01*
D10*
X18635000Y39908216D02*
X18135000Y39908216D01*
D10*
X18777858Y38408216D02*
X17706428Y38408216D01*
D10*
X18920714Y38836784D02*
X18777858Y38408216D01*
D10*
X18706428Y38408216D02*
X18920714Y38836784D01*
D10*
X14135000Y20628214D02*
X14063572Y22128214D01*
D10*
X14206428Y20771072D02*
X14135000Y22128214D01*
D10*
X14135000Y20628214D02*
X15063572Y22128214D01*
D10*
X14349286Y22128214D02*
X13920714Y22128214D01*
D10*
X15206429Y22128214D02*
X14777857Y22128214D01*
D10*
X16063572Y21342500D02*
X16063572Y21413928D01*
D10*
X16135000Y21342500D02*
X16063572Y21342500D01*
D10*
X16135000Y21413928D02*
X16135000Y21342500D01*
D10*
X16063572Y21556786D02*
X16135000Y21413928D01*
D10*
X15920714Y21628214D02*
X16063572Y21556786D01*
D10*
X15706428Y21628214D02*
X15920714Y21628214D01*
D10*
X15492143Y21556786D02*
X15706428Y21628214D01*
D10*
X15349286Y21342500D02*
X15492143Y21556786D01*
D10*
X15277857Y21128214D02*
X15349286Y21342500D01*
D10*
X15277857Y20913928D02*
X15277857Y21128214D01*
D10*
X15349286Y20771072D02*
X15277857Y20913928D01*
D10*
X15420714Y20699642D02*
X15349286Y20771072D01*
D10*
X15563572Y20628214D02*
X15420714Y20699642D01*
D10*
X15706428Y20628214D02*
X15563572Y20628214D01*
D10*
X15920714Y20699642D02*
X15706428Y20628214D01*
D10*
X16063572Y20913928D02*
X15920714Y20699642D01*
D10*
X15563572Y21556786D02*
X15706428Y21628214D01*
D10*
X15420714Y21342500D02*
X15563572Y21556786D01*
D10*
X15349286Y21128214D02*
X15420714Y21342500D01*
D10*
X15349286Y20842500D02*
X15349286Y21128214D01*
D10*
X15420714Y20699642D02*
X15349286Y20842500D01*
D10*
X17349286Y21342500D02*
X17349286Y21413928D01*
D10*
X17420714Y21342500D02*
X17349286Y21342500D01*
D10*
X17420714Y21413928D02*
X17420714Y21342500D01*
D10*
X17349286Y21556786D02*
X17420714Y21413928D01*
D10*
X17206428Y21628214D02*
X17349286Y21556786D01*
D10*
X16992144Y21628214D02*
X17206428Y21628214D01*
D10*
X16777858Y21556786D02*
X16992144Y21628214D01*
D10*
X16635000Y21342500D02*
X16777858Y21556786D01*
D10*
X16563572Y21128214D02*
X16635000Y21342500D01*
D10*
X16563572Y20913928D02*
X16563572Y21128214D01*
D10*
X16635000Y20771072D02*
X16563572Y20913928D01*
D10*
X16706428Y20699642D02*
X16635000Y20771072D01*
D10*
X16849286Y20628214D02*
X16706428Y20699642D01*
D10*
X16992144Y20628214D02*
X16849286Y20628214D01*
D10*
X17206428Y20699642D02*
X16992144Y20628214D01*
D10*
X17349286Y20913928D02*
X17206428Y20699642D01*
D10*
X16849286Y21556786D02*
X16992144Y21628214D01*
D10*
X16706428Y21342500D02*
X16849286Y21556786D01*
D10*
X16635000Y21128214D02*
X16706428Y21342500D01*
D10*
X16635000Y20842500D02*
X16635000Y21128214D01*
D10*
X16706428Y20699642D02*
X16635000Y20842500D01*
D10*
X18135000Y20628214D02*
X18563572Y22128214D01*
D10*
X18206428Y20628214D02*
X18635000Y22128214D01*
D10*
X17920714Y21699642D02*
X18135000Y22128214D01*
D10*
X18063572Y22128214D02*
X17920714Y21699642D01*
D10*
X19135000Y22128214D02*
X18063572Y22128214D01*
D10*
X19063572Y21699642D02*
X19135000Y22128214D01*
D10*
X19063572Y22128214D02*
X19063572Y21699642D01*
D10*
X18420714Y20628214D02*
X17920714Y20628214D01*
D10*
X14492143Y30788214D02*
X14920714Y32288214D01*
D10*
X14563572Y30788214D02*
X14992143Y32288214D01*
D10*
X15492143Y32288214D02*
X14706428Y32288214D01*
D10*
X15706428Y32216786D02*
X15492143Y32288214D01*
D10*
X15777857Y32073928D02*
X15706428Y32216786D01*
D10*
X15777857Y31931072D02*
X15777857Y32073928D01*
D10*
X15706428Y31716786D02*
X15777857Y31931072D01*
D10*
X15635000Y31645358D02*
X15706428Y31716786D01*
D10*
X15420714Y31573928D02*
X15635000Y31645358D01*
D10*
X14777857Y31573928D02*
X15420714Y31573928D01*
D10*
X15635000Y32216786D02*
X15492143Y32288214D01*
D10*
X15706428Y32073928D02*
X15635000Y32216786D01*
D10*
X15706428Y31931072D02*
X15706428Y32073928D01*
D10*
X15635000Y31716786D02*
X15706428Y31931072D01*
D10*
X15563572Y31645358D02*
X15635000Y31716786D01*
D10*
X15420714Y31573928D02*
X15563572Y31645358D01*
D10*
X15277857Y31502500D02*
X15135000Y31573928D01*
D10*
X15349286Y31431072D02*
X15277857Y31502500D01*
D10*
X15420714Y30859642D02*
X15349286Y31431072D01*
D10*
X15492143Y30788214D02*
X15420714Y30859642D01*
D10*
X15635000Y30788214D02*
X15492143Y30788214D01*
D10*
X15706428Y30931072D02*
X15635000Y30788214D01*
D10*
X15706428Y31002500D02*
X15706428Y30931072D01*
D10*
X15492143Y30931072D02*
X15349286Y31431072D01*
D10*
X15563572Y30859642D02*
X15492143Y30931072D01*
D10*
X15635000Y30859642D02*
X15563572Y30859642D01*
D10*
X15706428Y30931072D02*
X15635000Y30859642D01*
D10*
X14777857Y30788214D02*
X14277857Y30788214D01*
D10*
X17420714Y32145358D02*
X17349286Y32145358D01*
D10*
X17492142Y32288214D02*
X17420714Y32145358D01*
D10*
X17420714Y31859642D02*
X17492142Y32288214D01*
D10*
X17420714Y32002500D02*
X17420714Y31859642D01*
D10*
X17349286Y32145358D02*
X17420714Y32002500D01*
D10*
X17277858Y32216786D02*
X17349286Y32145358D01*
D10*
X17063572Y32288214D02*
X17277858Y32216786D01*
D10*
X16777858Y32288214D02*
X17063572Y32288214D01*
D10*
X16563572Y32216786D02*
X16777858Y32288214D01*
D10*
X16420714Y32073928D02*
X16563572Y32216786D01*
D10*
X16420714Y31931072D02*
X16420714Y32073928D01*
D10*
X16492143Y31788214D02*
X16420714Y31931072D01*
D10*
X16563572Y31716786D02*
X16492143Y31788214D01*
D10*
X17063572Y31431072D02*
X16563572Y31716786D01*
D10*
X17206428Y31288214D02*
X17063572Y31431072D01*
D10*
X16563572Y31788214D02*
X16420714Y31931072D01*
D10*
X17063572Y31502500D02*
X16563572Y31788214D01*
D10*
X17135000Y31431072D02*
X17063572Y31502500D01*
D10*
X17206428Y31288214D02*
X17135000Y31431072D01*
D10*
X17206428Y31073928D02*
X17206428Y31288214D01*
D10*
X17135000Y30931072D02*
X17206428Y31073928D01*
D10*
X17063572Y30859642D02*
X17135000Y30931072D01*
D10*
X16849286Y30788214D02*
X17063572Y30859642D01*
D10*
X16563572Y30788214D02*
X16849286Y30788214D01*
D10*
X16349286Y30859642D02*
X16563572Y30788214D01*
D10*
X16277857Y30931072D02*
X16349286Y30859642D01*
D10*
X16206428Y31073928D02*
X16277857Y30931072D01*
D10*
X16206428Y31216786D02*
X16206428Y31073928D01*
D10*
X16135000Y30788214D02*
X16206428Y31216786D01*
D10*
X16206428Y30931072D02*
X16135000Y30788214D01*
D10*
X16277857Y30931072D02*
X16206428Y30931072D01*
D10*
X18277858Y32216786D02*
X18492142Y32288214D01*
D10*
X18135000Y32073928D02*
X18277858Y32216786D01*
D10*
X17992142Y31859642D02*
X18135000Y32073928D01*
D10*
X17920714Y31645358D02*
X17992142Y31859642D01*
D10*
X17849286Y31359642D02*
X17920714Y31645358D01*
D10*
X17849286Y31145358D02*
X17849286Y31359642D01*
D10*
X17920714Y30931072D02*
X17849286Y31145358D01*
D10*
X17992142Y30859642D02*
X17920714Y30931072D01*
D10*
X18135000Y30788214D02*
X17992142Y30859642D01*
D10*
X18277858Y30788214D02*
X18135000Y30788214D01*
D10*
X18492142Y30859642D02*
X18277858Y30788214D01*
D10*
X18635000Y31002500D02*
X18492142Y30859642D01*
D10*
X18777858Y31216786D02*
X18635000Y31002500D01*
D10*
X18849286Y31431072D02*
X18777858Y31216786D01*
D10*
X18920714Y31716786D02*
X18849286Y31431072D01*
D10*
X18920714Y31931072D02*
X18920714Y31716786D01*
D10*
X18849286Y32145358D02*
X18920714Y31931072D01*
D10*
X18777858Y32216786D02*
X18849286Y32145358D01*
D10*
X18635000Y32288214D02*
X18777858Y32216786D01*
D10*
X18492142Y32288214D02*
X18635000Y32288214D01*
D10*
X18349286Y32216786D02*
X18492142Y32288214D01*
D10*
X18206428Y32073928D02*
X18349286Y32216786D01*
D10*
X18063572Y31859642D02*
X18206428Y32073928D01*
D10*
X17992142Y31645358D02*
X18063572Y31859642D01*
D10*
X17920714Y31359642D02*
X17992142Y31645358D01*
D10*
X17920714Y31145358D02*
X17920714Y31359642D01*
D10*
X17992142Y30931072D02*
X17920714Y31145358D01*
D10*
X18135000Y30788214D02*
X17992142Y30931072D01*
D10*
X18420714Y30859642D02*
X18277858Y30788214D01*
D10*
X18563572Y31002500D02*
X18420714Y30859642D01*
D10*
X18706428Y31216786D02*
X18563572Y31002500D01*
D10*
X18777858Y31431072D02*
X18706428Y31216786D01*
D10*
X18849286Y31716786D02*
X18777858Y31431072D01*
D10*
X18849286Y31931072D02*
X18849286Y31716786D01*
D10*
X18777858Y32145358D02*
X18849286Y31931072D01*
D10*
X18635000Y32288214D02*
X18777858Y32145358D01*
D10*
X9420714Y43488216D02*
X9849286Y44988216D01*
D10*
X9492143Y43488216D02*
X9920714Y44988216D01*
D10*
X9206429Y44559644D02*
X9420714Y44988216D01*
D10*
X9349286Y44988216D02*
X9206429Y44559644D01*
D10*
X10420714Y44988216D02*
X9349286Y44988216D01*
D10*
X10349286Y44559644D02*
X10420714Y44988216D01*
D10*
X10349286Y44988216D02*
X10349286Y44559644D01*
D10*
X9706429Y43488216D02*
X9206429Y43488216D01*
D10*
X11420714Y43488216D02*
X10920714Y44988216D01*
D10*
X11492143Y43488216D02*
X10992143Y44988216D01*
D10*
X10492143Y43488216D02*
X11920714Y44988216D01*
D10*
X11206428Y44988216D02*
X10777858Y44988216D01*
D10*
X12063572Y44988216D02*
X11635000Y44988216D01*
D10*
X10777858Y43488216D02*
X10349286Y43488216D01*
D10*
X11635000Y43488216D02*
X11206428Y43488216D01*
D10*
X12777857Y43488216D02*
X13206428Y44988216D01*
D10*
X12849286Y43488216D02*
X13277857Y44988216D01*
D10*
X13420714Y43988216D02*
X13563572Y44559644D01*
D10*
X14063572Y44988216D02*
X12992143Y44988216D01*
D10*
X13992143Y44559644D02*
X14063572Y44988216D01*
D10*
X13992143Y44988216D02*
X13992143Y44559644D01*
D10*
X13492143Y44273928D02*
X13063572Y44273928D01*
D10*
X13063572Y43488216D02*
X12563572Y43488216D01*
D10*
X15135000Y43988216D02*
X15277857Y44488216D01*
D10*
X15063572Y43702500D02*
X15135000Y43988216D01*
D10*
X15063572Y43559644D02*
X15063572Y43702500D01*
D10*
X15135000Y43488216D02*
X15063572Y43559644D01*
D10*
X15349286Y43488216D02*
X15135000Y43488216D01*
D10*
X15492143Y43631072D02*
X15349286Y43488216D01*
D10*
X15563572Y43773928D02*
X15492143Y43631072D01*
D10*
X15206429Y43988216D02*
X15349286Y44488216D01*
D10*
X15135000Y43702500D02*
X15206429Y43988216D01*
D10*
X15135000Y43559644D02*
X15135000Y43702500D01*
D10*
X15206429Y43488216D02*
X15135000Y43559644D01*
D10*
X15135000Y44202500D02*
X15135000Y43988216D01*
D10*
X15063572Y44416784D02*
X15135000Y44202500D01*
D10*
X14920714Y44488216D02*
X15063572Y44416784D01*
D10*
X14777857Y44488216D02*
X14920714Y44488216D01*
D10*
X14563572Y44416784D02*
X14777857Y44488216D01*
D10*
X14420714Y44202500D02*
X14563572Y44416784D01*
D10*
X14349286Y43988216D02*
X14420714Y44202500D01*
D10*
X14349286Y43773928D02*
X14349286Y43988216D01*
D10*
X14420714Y43631072D02*
X14349286Y43773928D01*
D10*
X14492143Y43559644D02*
X14420714Y43631072D01*
D10*
X14635000Y43488216D02*
X14492143Y43559644D01*
D10*
X14777857Y43488216D02*
X14635000Y43488216D01*
D10*
X14920714Y43559644D02*
X14777857Y43488216D01*
D10*
X15063572Y43773928D02*
X14920714Y43559644D01*
D10*
X15135000Y43988216D02*
X15063572Y43773928D01*
D10*
X14635000Y44416784D02*
X14777857Y44488216D01*
D10*
X14492143Y44202500D02*
X14635000Y44416784D01*
D10*
X14420714Y43988216D02*
X14492143Y44202500D01*
D10*
X14420714Y43702500D02*
X14420714Y43988216D01*
D10*
X14492143Y43559644D02*
X14420714Y43702500D01*
D10*
X15777857Y44345356D02*
X15706428Y44202500D01*
D10*
X15920714Y44488216D02*
X15777857Y44345356D01*
D10*
X16135000Y44488216D02*
X15920714Y44488216D01*
D10*
X16206428Y44416784D02*
X16135000Y44488216D01*
D10*
X16206428Y44202500D02*
X16206428Y44416784D01*
D10*
X16063572Y43773928D02*
X16206428Y44202500D01*
D10*
X16063572Y43631072D02*
X16063572Y43773928D01*
D10*
X16206428Y43488216D02*
X16063572Y43631072D01*
D10*
X16135000Y44416784D02*
X16063572Y44488216D01*
D10*
X16135000Y44202500D02*
X16135000Y44416784D01*
D10*
X15992143Y43773928D02*
X16135000Y44202500D01*
D10*
X15992143Y43631072D02*
X15992143Y43773928D01*
D10*
X16063572Y43559644D02*
X15992143Y43631072D01*
D10*
X16206428Y43488216D02*
X16063572Y43559644D01*
D10*
X16349286Y43488216D02*
X16206428Y43488216D01*
D10*
X16492143Y43559644D02*
X16349286Y43488216D01*
D10*
X16635000Y43702500D02*
X16492143Y43559644D01*
D10*
X16777858Y43988216D02*
X16635000Y43702500D01*
D10*
X16777858Y43988216D02*
X16920714Y44488216D01*
D10*
X16706428Y43702500D02*
X16777858Y43988216D01*
D10*
X16706428Y43559644D02*
X16706428Y43702500D01*
D10*
X16777858Y43488216D02*
X16706428Y43559644D01*
D10*
X16992144Y43488216D02*
X16777858Y43488216D01*
D10*
X17135000Y43631072D02*
X16992144Y43488216D01*
D10*
X17206428Y43773928D02*
X17135000Y43631072D01*
D10*
X16849286Y43988216D02*
X16992144Y44488216D01*
D10*
X16777858Y43702500D02*
X16849286Y43988216D01*
D10*
X16777858Y43559644D02*
X16777858Y43702500D01*
D10*
X16849286Y43488216D02*
X16777858Y43559644D01*
D10*
X17563572Y43988216D02*
X17849286Y44988216D01*
D10*
X17492142Y43702500D02*
X17563572Y43988216D01*
D10*
X17492142Y43559644D02*
X17492142Y43702500D01*
D10*
X17563572Y43488216D02*
X17492142Y43559644D01*
D10*
X17777858Y43488216D02*
X17563572Y43488216D01*
D10*
X17920714Y43631072D02*
X17777858Y43488216D01*
D10*
X17992142Y43773928D02*
X17920714Y43631072D01*
D10*
X17635000Y43988216D02*
X17920714Y44988216D01*
D10*
X17563572Y43702500D02*
X17635000Y43988216D01*
D10*
X17563572Y43559644D02*
X17563572Y43702500D01*
D10*
X17635000Y43488216D02*
X17563572Y43559644D01*
D10*
X17920714Y44988216D02*
X17635000Y44988216D01*
D10*
X18492142Y43988216D02*
X18777858Y44988216D01*
D10*
X18420714Y43702500D02*
X18492142Y43988216D01*
D10*
X18420714Y43559644D02*
X18420714Y43702500D01*
D10*
X18492142Y43488216D02*
X18420714Y43559644D01*
D10*
X18706428Y43488216D02*
X18492142Y43488216D01*
D10*
X18849286Y43631072D02*
X18706428Y43488216D01*
D10*
X18920714Y43773928D02*
X18849286Y43631072D01*
D10*
X18563572Y43988216D02*
X18849286Y44988216D01*
D10*
X18492142Y43702500D02*
X18563572Y43988216D01*
D10*
X18492142Y43559644D02*
X18492142Y43702500D01*
D10*
X18563572Y43488216D02*
X18492142Y43559644D01*
D10*
X18992142Y44488216D02*
X18349286Y44488216D01*
D10*
X14492143Y25708214D02*
X14920714Y27208214D01*
D10*
X14563572Y25708214D02*
X14992143Y27208214D01*
D10*
X15492143Y27208214D02*
X14706428Y27208214D01*
D10*
X15706428Y27136786D02*
X15492143Y27208214D01*
D10*
X15777857Y26993928D02*
X15706428Y27136786D01*
D10*
X15777857Y26851072D02*
X15777857Y26993928D01*
D10*
X15706428Y26636786D02*
X15777857Y26851072D01*
D10*
X15635000Y26565358D02*
X15706428Y26636786D01*
D10*
X15420714Y26493928D02*
X15635000Y26565358D01*
D10*
X14777857Y26493928D02*
X15420714Y26493928D01*
D10*
X15635000Y27136786D02*
X15492143Y27208214D01*
D10*
X15706428Y26993928D02*
X15635000Y27136786D01*
D10*
X15706428Y26851072D02*
X15706428Y26993928D01*
D10*
X15635000Y26636786D02*
X15706428Y26851072D01*
D10*
X15563572Y26565358D02*
X15635000Y26636786D01*
D10*
X15420714Y26493928D02*
X15563572Y26565358D01*
D10*
X15277857Y26422500D02*
X15135000Y26493928D01*
D10*
X15349286Y26351072D02*
X15277857Y26422500D01*
D10*
X15420714Y25779642D02*
X15349286Y26351072D01*
D10*
X15492143Y25708214D02*
X15420714Y25779642D01*
D10*
X15635000Y25708214D02*
X15492143Y25708214D01*
D10*
X15706428Y25851072D02*
X15635000Y25708214D01*
D10*
X15706428Y25922500D02*
X15706428Y25851072D01*
D10*
X15492143Y25851072D02*
X15349286Y26351072D01*
D10*
X15563572Y25779642D02*
X15492143Y25851072D01*
D10*
X15635000Y25779642D02*
X15563572Y25779642D01*
D10*
X15706428Y25851072D02*
X15635000Y25779642D01*
D10*
X14777857Y25708214D02*
X14277857Y25708214D01*
D10*
X17420714Y27065358D02*
X17349286Y27065358D01*
D10*
X17492142Y27208214D02*
X17420714Y27065358D01*
D10*
X17420714Y26779642D02*
X17492142Y27208214D01*
D10*
X17420714Y26922500D02*
X17420714Y26779642D01*
D10*
X17349286Y27065358D02*
X17420714Y26922500D01*
D10*
X17277858Y27136786D02*
X17349286Y27065358D01*
D10*
X17063572Y27208214D02*
X17277858Y27136786D01*
D10*
X16777858Y27208214D02*
X17063572Y27208214D01*
D10*
X16563572Y27136786D02*
X16777858Y27208214D01*
D10*
X16420714Y26993928D02*
X16563572Y27136786D01*
D10*
X16420714Y26851072D02*
X16420714Y26993928D01*
D10*
X16492143Y26708214D02*
X16420714Y26851072D01*
D10*
X16563572Y26636786D02*
X16492143Y26708214D01*
D10*
X17063572Y26351072D02*
X16563572Y26636786D01*
D10*
X17206428Y26208214D02*
X17063572Y26351072D01*
D10*
X16563572Y26708214D02*
X16420714Y26851072D01*
D10*
X17063572Y26422500D02*
X16563572Y26708214D01*
D10*
X17135000Y26351072D02*
X17063572Y26422500D01*
D10*
X17206428Y26208214D02*
X17135000Y26351072D01*
D10*
X17206428Y25993928D02*
X17206428Y26208214D01*
D10*
X17135000Y25851072D02*
X17206428Y25993928D01*
D10*
X17063572Y25779642D02*
X17135000Y25851072D01*
D10*
X16849286Y25708214D02*
X17063572Y25779642D01*
D10*
X16563572Y25708214D02*
X16849286Y25708214D01*
D10*
X16349286Y25779642D02*
X16563572Y25708214D01*
D10*
X16277857Y25851072D02*
X16349286Y25779642D01*
D10*
X16206428Y25993928D02*
X16277857Y25851072D01*
D10*
X16206428Y26136786D02*
X16206428Y25993928D01*
D10*
X16135000Y25708214D02*
X16206428Y26136786D01*
D10*
X16206428Y25851072D02*
X16135000Y25708214D01*
D10*
X16277857Y25851072D02*
X16206428Y25851072D01*
D10*
X18135000Y25708214D02*
X18492142Y26922500D01*
D10*
X18206428Y25708214D02*
X18635000Y27208214D01*
D10*
X18420714Y26993928D02*
X18635000Y27208214D01*
D10*
X18206428Y26851072D02*
X18420714Y26993928D01*
D10*
X18063572Y26779642D02*
X18206428Y26851072D01*
D10*
X18277858Y26851072D02*
X18563572Y26993928D01*
D10*
X18063572Y26779642D02*
X18277858Y26851072D01*
D10*
X40890000Y14957500D02*
X39590000Y14957500D01*
D10*
X32790000Y14957500D02*
X32790000Y16257500D01*
D10*
X32790000Y25257500D02*
X32790000Y25057500D01*
D10*
X39590000Y26357500D02*
X40890000Y26357500D01*
D10*
X34090000Y14957500D02*
X32790000Y14957500D01*
D10*
X33890000Y26357500D02*
X32790000Y25257500D01*
D10*
X33890000Y26357500D02*
X34090000Y26357500D01*
D10*
X40890000Y16257500D02*
X40890000Y14957500D01*
D10*
X40890000Y26357500D02*
X40890000Y25057500D01*
D10*
X12600000Y29207500D02*
X12600000Y26707500D01*
D10*
X9100000Y29207500D02*
X12600000Y29207500D01*
D10*
X12600000Y12207500D02*
X12600000Y14707500D01*
D10*
X9100000Y12207500D02*
X12600000Y12207500D01*
D10*
X29590000Y29107500D02*
X71790000Y29107500D01*
D10*
X29590000Y12307500D02*
X29590000Y13582500D01*
D10*
X29590000Y29107500D02*
X29590000Y27832500D01*
D10*
X71790000Y12307500D02*
X29590000Y12307500D01*
D10*
X23330000Y7372500D02*
X21425000Y7372500D01*
D10*
X44190000Y29457500D02*
X44190000Y49282500D01*
D10*
X23330000Y16897500D02*
X25870000Y16897500D01*
D10*
X23330000Y9912500D02*
X23330000Y7372500D01*
D10*
X21425000Y4832500D02*
X25870000Y4832500D01*
D10*
X20790000Y9912500D02*
X23330000Y9912500D01*
D10*
X44190000Y14457500D02*
X44190000Y27207500D01*
D10*
X20789993Y19437500D02*
X20790000Y9912500D01*
D10*
X25869993Y19437500D02*
X25870000Y4832500D01*
D10*
X44190000Y1022500D02*
X44190000Y11957500D01*
D10*
X23329993Y19437500D02*
X23330000Y16897500D01*
G75*
G03*
D10*
X25234993Y68802507D02*
X25869986Y69437500I0J634993D01*
G03*
D10*
X22694993Y68802507D02*
X23329986Y69437500I0J634993D01*
G03*
D10*
X23330000Y69437500D02*
X23964993Y68802507I634993J0D01*
G03*
D10*
X20790000Y69437500D02*
X21424993Y68802507I634993J0D01*
G03*
D10*
X25870000Y69437500D02*
X26504993Y68802507I634993J0D01*
G03*
D10*
X20154993Y68802507D02*
X20789986Y69437500I0J634993D01*
G03*
D10*
X25234993Y18802507D02*
X25869986Y19437500I0J634993D01*
G03*
D10*
X22694993Y18802507D02*
X23329986Y19437500I0J634993D01*
G03*
D10*
X23330000Y19437500D02*
X23964993Y18802507I634993J0D01*
G03*
D10*
X20790000Y19437500D02*
X21424993Y18802507I634993J0D01*
G03*
D10*
X25870000Y19437500D02*
X26504993Y18802507I634993J0D01*
G03*
D10*
X20154993Y18802507D02*
X20789986Y19437500I0J634993D01*
M02*
