%FSLAX46Y46*%
%MOMM*%
%ADD10C,0.010000*%
%ADD11C,0.500000*%
G01*
%LPD*%
G01*
%LPD*%
D10*
X79090000Y56000000D02*
X79090000Y64707500D01*
D10*
X79090000Y64707500D02*
X73090000Y64707500D01*
D10*
X73090000Y64707500D02*
X73090000Y76707500D01*
D10*
X73090000Y76707500D02*
X79090000Y76707500D01*
D10*
X79090000Y76707500D02*
X79090000Y94000000D01*
D10*
X73090000Y100000000D02*
X5999999Y100000000D01*
D10*
X0Y94000000D02*
X0Y56000000D01*
D10*
X0Y44000000D02*
X0Y6000000D01*
D10*
X5999999Y0D02*
X73090000Y0D01*
D10*
X79090000Y6000000D02*
X79090000Y14707500D01*
D10*
X79090000Y14707500D02*
X73090000Y14707500D01*
D10*
X73090000Y14707500D02*
X73090000Y26707500D01*
D10*
X73090000Y26707500D02*
X79090000Y26707500D01*
D10*
X79090000Y26707500D02*
X79090000Y44000000D01*
D11*
X-19178572Y48571428D02*
X-20178572Y51571428D01*
D11*
X-19178572Y49000000D02*
X-20035714Y51571428D01*
D11*
X-19178572Y48571428D02*
X-19178572Y49000000D01*
D11*
X-19035714Y49000000D02*
X-19892856Y51571428D01*
D11*
X-19178572Y48571428D02*
X-18178572Y51428572D01*
D11*
X-19464286Y51571428D02*
X-20464284Y51571428D01*
D11*
X-17892856Y51571428D02*
X-18750000Y51571428D01*
D11*
X-20035714Y51285716D02*
X-20321428Y51571428D01*
D11*
X-19892856Y51285716D02*
X-19750000Y51571428D01*
D11*
X-19892856Y51428572D02*
X-19607144Y51571428D01*
D11*
X-18178572Y51428572D02*
X-18464286Y51571428D01*
D11*
X-18178572Y51428572D02*
X-18035714Y51571428D01*
D11*
X-14750000Y50000000D02*
X-17178572Y50000000D01*
D11*
X-14750000Y49857144D02*
X-14750000Y50000000D01*
D11*
X-17178572Y49857144D02*
X-17178572Y50000000D01*
D11*
X-14750000Y49857144D02*
X-17178572Y49857144D01*
D11*
X-11607143Y51571428D02*
X-11750000Y51142856D01*
D11*
X-11607143Y50714284D02*
X-11607143Y51571428D01*
D11*
X-11750000Y51142856D02*
X-11607143Y50714284D01*
D11*
X-12035714Y51428572D02*
X-11750000Y51142856D01*
D11*
X-12321428Y51571428D02*
X-12035714Y51428572D01*
D11*
X-12750000Y51571428D02*
X-12321428Y51571428D01*
D11*
X-13178572Y51428572D02*
X-12750000Y51571428D01*
D11*
X-13464286Y51142856D02*
X-13178572Y51428572D01*
D11*
X-13607142Y50857144D02*
X-13464286Y51142856D01*
D11*
X-13750000Y50428572D02*
X-13607142Y50857144D01*
D11*
X-13750000Y49714284D02*
X-13750000Y50428572D01*
D11*
X-13607142Y49285716D02*
X-13750000Y49714284D01*
D11*
X-13464286Y49000000D02*
X-13607142Y49285716D01*
D11*
X-13178572Y48714284D02*
X-13464286Y49000000D01*
D11*
X-12750000Y48571428D02*
X-13178572Y48714284D01*
D11*
X-12321428Y48571428D02*
X-12750000Y48571428D01*
D11*
X-12035714Y48714284D02*
X-12321428Y48571428D01*
D11*
X-11750000Y49000000D02*
X-12035714Y48714284D01*
D11*
X-11607143Y49285716D02*
X-11750000Y49000000D01*
D11*
X-13464286Y50857144D02*
X-13321428Y51142856D01*
D11*
X-13607142Y50428572D02*
X-13464286Y50857144D01*
D11*
X-13607142Y49714284D02*
X-13607142Y50428572D01*
D11*
X-13464286Y49285716D02*
X-13607142Y49714284D01*
D11*
X-13321428Y49000000D02*
X-13464286Y49285716D01*
D11*
X-13035714Y51428572D02*
X-12750000Y51571428D01*
D11*
X-13321428Y51000000D02*
X-13035714Y51428572D01*
D11*
X-13464286Y50428572D02*
X-13321428Y51000000D01*
D11*
X-13464286Y49714284D02*
X-13464286Y50428572D01*
D11*
X-13321428Y49142856D02*
X-13464286Y49714284D01*
D11*
X-13035714Y48714284D02*
X-13321428Y49142856D01*
D11*
X-12750000Y48571428D02*
X-13035714Y48714284D01*
D11*
X-10464286Y49285716D02*
X-10464286Y50571428D01*
D11*
X-10321428Y48857144D02*
X-10464286Y49285716D01*
D11*
X-10178572Y48714284D02*
X-10321428Y48857144D01*
D11*
X-9892857Y48571428D02*
X-10178572Y48714284D01*
D11*
X-9464286Y48571428D02*
X-9892857Y48571428D01*
D11*
X-9178572Y48714284D02*
X-9464286Y48571428D01*
D11*
X-9035714Y48857144D02*
X-9178572Y48714284D01*
D11*
X-8892857Y49142856D02*
X-9035714Y48857144D01*
D11*
X-10321428Y49142856D02*
X-10321428Y50428572D01*
D11*
X-10178572Y48857144D02*
X-10321428Y49142856D01*
D11*
X-10178572Y50571428D02*
X-10892857Y50571428D01*
D11*
X-10178572Y49142856D02*
X-10178572Y50571428D01*
D11*
X-10035714Y48714284D02*
X-10178572Y49142856D01*
D11*
X-9892857Y48571428D02*
X-10035714Y48714284D01*
D11*
X-8892857Y48571428D02*
X-8892857Y50571428D01*
D11*
X-8178571Y48571428D02*
X-8892857Y48571428D01*
D11*
X-8750000Y48714284D02*
X-8750000Y50428572D01*
D11*
X-8607143Y50571428D02*
X-9321428Y50571428D01*
D11*
X-8607143Y48571428D02*
X-8607143Y50571428D01*
D11*
X-10464286Y50428572D02*
X-10750000Y50571428D01*
D11*
X-10464286Y50285716D02*
X-10607143Y50571428D01*
D11*
X-8464286Y48571428D02*
X-8607143Y48857144D01*
D11*
X-8321428Y48571428D02*
X-8607143Y48714284D01*
D11*
X-7178571Y49285716D02*
X-7178571Y51285716D01*
D11*
X-7035714Y48857144D02*
X-7178571Y49285716D01*
D11*
X-6892857Y48714284D02*
X-7035714Y48857144D01*
D11*
X-6607143Y48571428D02*
X-6892857Y48714284D01*
D11*
X-6321428Y48571428D02*
X-6607143Y48571428D01*
D11*
X-6035714Y48714284D02*
X-6321428Y48571428D01*
D11*
X-5892857Y49000000D02*
X-6035714Y48714284D01*
D11*
X-7035714Y49142856D02*
X-7035714Y51285716D01*
D11*
X-6892857Y48857144D02*
X-7035714Y49142856D01*
D11*
X-6892857Y51571428D02*
X-7178571Y51285716D01*
D11*
X-6892857Y49142856D02*
X-6892857Y51571428D01*
D11*
X-6750000Y48714284D02*
X-6892857Y49142856D01*
D11*
X-6607143Y48571428D02*
X-6750000Y48714284D01*
D11*
X-6321428Y50571428D02*
X-7607143Y50571428D01*
D11*
X-2000000Y50000000D02*
X85000000Y50000000D01*
G75*
G03*
D10*
X73090000Y50000000D02*
X79090000Y56000000I0J6000000D01*
G03*
D10*
X79090000Y94000000D02*
X73090000Y100000000I-6000000J0D01*
G03*
D10*
X5999999Y100000000D02*
X0Y94000000I0J-6000000D01*
G03*
D10*
X0Y56000000D02*
X5999999Y50000000I5999999J-1D01*
G03*
D10*
X5999999Y50000000D02*
X0Y44000000I0J-6000000D01*
G03*
D10*
X0Y6000000D02*
X5999999Y0I5999999J-1D01*
G03*
D10*
X73090000Y0D02*
X79090000Y6000000I0J6000000D01*
G03*
D10*
X79090000Y44000000D02*
X73090000Y50000000I-6000000J0D01*
M02*
